M48
; DRILL file {KiCad 9.0.2+dfsg-1} date 2026-09-12T16:53:37-0700
; FORMAT={-:-/ absolute / metric / decimal}
; #@! TF.CreationDate,2026-09-12T16:53:37-07:00
; #@! TF.GenerationSoftware,Kicad,Pcbnew,9.0.2+dfsg-1
; #@! TF.FileFunction,Plated,1,2,PTH
FMAT,2
METRIC
; #@! TA.AperFunction,Plated,PTH,ViaDrill
T1C0.500
; #@! TA.AperFunction,Plated,PTH,ComponentDrill
T2C0.700
; #@! TA.AperFunction,Plated,PTH,ComponentDrill
T3C0.750
; #@! TA.AperFunction,Plated,PTH,ComponentDrill
T4C0.800
; #@! TA.AperFunction,Plated,PTH,ComponentDrill
T5C1.000
; #@! TA.AperFunction,Plated,PTH,ComponentDrill
T6C1.100
; #@! TA.AperFunction,Plated,PTH,ComponentDrill
T7C1.320
; #@! TA.AperFunction,Plated,PTH,ComponentDrill
T8C1.500
; #@! TA.AperFunction,Plated,PTH,ComponentDrill
T9C2.200
%
G90
G05
T1
X63.9Y-39.6
X63.9Y-42.7
X65.3Y-51.0
X65.3Y-53.4
X69.3Y-41.4
X70.3Y-38.3
X72.4Y-92.7
X74.8Y-92.7
X76.1Y-49.8
X77.5Y-90.7
X78.3Y-93.9
X79.3Y-44.3
X81.6Y-48.6
X90.7Y-50.4
X91.6Y-55.9
X93.1Y-56.2
X99.9Y-73.6
X101.7Y-64.3
X108.8Y-39.3
X111.1Y-44.6
X111.9Y-55.1
X115.6Y-57.7
X117.5Y-34.4
X125.4Y-51.0
T2
X69.46Y-98.5
X72.5Y-51.96
X72.5Y-57.04
X74.54Y-98.5
X76.96Y-98.5
X78.96Y-47.0
X78.96Y-50.5
X78.96Y-57.5
X82.04Y-98.5
X84.04Y-47.0
X84.04Y-50.5
X84.04Y-57.5
X86.96Y-54.0
X86.96Y-57.5
X92.0Y-74.46
X92.0Y-79.54
X92.04Y-54.0
X92.04Y-57.5
X94.46Y-70.0
X94.46Y-78.5
X99.54Y-70.0
X99.54Y-78.5
X100.46Y-47.5
X105.54Y-47.5
X108.96Y-58.0
X108.96Y-61.5
X114.04Y-58.0
X114.04Y-61.5
X122.96Y-47.5
X128.04Y-47.5
T3
X67.73Y-92.86
X69.0Y-91.59
X70.27Y-92.86
X79.73Y-92.86
X80.23Y-42.86
X81.0Y-91.59
X81.5Y-41.59
X82.27Y-92.86
X82.77Y-42.86
X96.23Y-74.86
X97.5Y-73.59
X98.77Y-74.86
X102.23Y-42.86
X103.5Y-41.59
X104.77Y-42.86
X124.73Y-42.86
X126.0Y-41.59
X127.27Y-42.86
T4
X66.999Y-54.5
X67.571Y-41.571
X67.571Y-48.429
X68.999Y-54.5
X69.135Y-67.245
X69.135Y-83.755
X71.0Y-41.571
X71.0Y-48.429
X74.429Y-41.571
X74.429Y-48.429
X75.0Y-90.5
X75.0Y-95.5
X75.7Y-67.245
X75.7Y-83.755
X76.0Y-52.0
X76.0Y-57.0
X79.0Y-54.0
X82.265Y-67.245
X82.265Y-83.755
X84.0Y-54.0
X88.571Y-41.571
X88.571Y-48.429
X91.645Y-85.735
X91.645Y-92.3
X91.645Y-98.865
X92.0Y-41.571
X92.0Y-48.429
X94.5Y-66.5
X95.429Y-41.571
X95.429Y-48.429
X95.499Y-55.0
X97.499Y-55.0
X99.5Y-66.5
X100.5Y-51.0
X103.499Y-73.5
X103.499Y-75.5
X103.92Y-67.5
X105.5Y-51.0
X107.5Y-71.0
X108.155Y-85.735
X108.155Y-92.3
X108.155Y-98.865
X108.999Y-76.5
X109.0Y-54.5
X110.999Y-76.5
X111.071Y-41.571
X111.071Y-48.429
X112.5Y-71.0
X114.0Y-54.5
X114.08Y-67.5
X114.5Y-41.571
X114.5Y-48.429
X115.499Y-29.5
X117.499Y-29.5
X117.929Y-41.571
X117.929Y-48.429
X120.071Y-57.571
X120.071Y-64.429
X123.0Y-51.0
X123.5Y-57.571
X123.5Y-64.429
X125.997Y-29.0
X125.997Y-31.0
X125.997Y-33.0
X126.929Y-57.571
X126.929Y-64.429
X128.0Y-51.0
T5
X50.0Y-25.69
X50.0Y-28.23
X50.0Y-30.77
X50.0Y-33.31
X115.5Y-74.0
X115.5Y-76.5
X115.5Y-79.0
T6
X44.1Y-50.14
X44.5Y-29.5
X44.5Y-35.5
X44.5Y-41.5
X56.8Y-50.14
T7
X116.535Y-91.0
X121.535Y-91.0
T8
X125.997Y-26.9
X125.997Y-35.1
T9
X122.5Y-72.1
X122.5Y-80.9
M30
