M48
; DRILL file {KiCad 9.0.2+dfsg-1} date 2026-09-11T21:04:36-0700
; FORMAT={-:-/ absolute / metric / decimal}
; #@! TF.CreationDate,2026-09-11T21:04:36-07:00
; #@! TF.GenerationSoftware,Kicad,Pcbnew,9.0.2+dfsg-1
; #@! TF.FileFunction,Plated,1,2,PTH
FMAT,2
METRIC
; #@! TA.AperFunction,Plated,PTH,ViaDrill
T1C0.500
; #@! TA.AperFunction,Plated,PTH,ComponentDrill
T2C0.700
; #@! TA.AperFunction,Plated,PTH,ComponentDrill
T3C0.750
; #@! TA.AperFunction,Plated,PTH,ComponentDrill
T4C0.800
; #@! TA.AperFunction,Plated,PTH,ComponentDrill
T5C1.000
; #@! TA.AperFunction,Plated,PTH,ComponentDrill
T6C1.100
; #@! TA.AperFunction,Plated,PTH,ComponentDrill
T7C1.200
; #@! TA.AperFunction,Plated,PTH,ComponentDrill
T8C1.320
; #@! TA.AperFunction,Plated,PTH,ComponentDrill
T9C1.500
; #@! TA.AperFunction,Plated,PTH,ComponentDrill
T10C2.200
%
G90
G05
T1
X47.6Y-50.4
X50.4Y-56.0
X51.2Y-60.8
X55.2Y-45.8
X60.4Y-73.6
X62.2Y-66.6
X73.2Y-69.6
X74.6Y-67.8
X75.8Y-51.8
X75.8Y-60.2
X97.2Y-61.0
X104.8Y-68.8
X116.4Y-71.0
X170.2Y-78.4
T2
X46.0Y-47.0
X46.0Y-50.5
X46.0Y-57.5
X51.08Y-47.0
X51.08Y-50.5
X51.08Y-57.5
X65.5Y-68.92
X65.5Y-74.0
X68.5Y-68.92
X68.5Y-74.0
X70.0Y-53.5
X70.0Y-57.0
X75.08Y-53.5
X75.08Y-57.0
X85.0Y-47.5
X90.08Y-47.5
X92.0Y-54.0
X92.0Y-57.5
X97.08Y-54.0
X97.08Y-57.5
X104.5Y-61.0
X104.5Y-70.5
X104.5Y-74.0
X107.5Y-47.5
X109.58Y-61.0
X109.58Y-70.5
X109.58Y-74.0
X112.58Y-47.5
X130.5Y-50.92
X130.5Y-56.0
T3
X48.5Y-42.5
X49.77Y-41.23
X51.04Y-42.5
X71.0Y-63.5
X71.0Y-79.0
X72.27Y-62.23
X72.27Y-77.73
X73.54Y-63.5
X73.54Y-79.0
X87.5Y-42.5
X88.77Y-41.23
X90.04Y-42.5
X106.0Y-65.5
X107.27Y-64.23
X108.54Y-65.5
X110.0Y-42.5
X111.27Y-41.23
X112.54Y-42.5
T4
X41.245Y-64.435
X41.245Y-71.0
X41.245Y-77.565
X46.0Y-54.0
X51.0Y-54.0
X55.5Y-47.5
X55.5Y-52.5
X57.755Y-64.435
X57.755Y-71.0
X57.755Y-77.565
X60.071Y-41.071
X60.071Y-47.929
X63.5Y-41.071
X63.5Y-47.929
X65.0Y-61.5
X65.0Y-66.5
X66.929Y-41.071
X66.929Y-47.929
X73.571Y-41.071
X73.571Y-47.929
X77.0Y-41.071
X77.0Y-47.929
X78.5Y-54.5
X80.429Y-41.071
X80.429Y-47.929
X80.5Y-54.5
X80.745Y-64.435
X80.745Y-71.0
X80.745Y-77.565
X85.0Y-51.0
X90.0Y-51.0
X96.571Y-41.071
X96.571Y-47.929
X97.255Y-64.435
X97.255Y-71.0
X97.255Y-77.565
X99.5Y-54.0
X100.0Y-41.071
X100.0Y-47.929
X103.429Y-41.071
X103.429Y-47.929
X104.5Y-54.0
X105.5Y-78.5
X106.5Y-57.5
X107.5Y-51.0
X107.5Y-78.5
X111.5Y-57.5
X112.5Y-51.0
X113.5Y-70.5
X113.5Y-72.5
X116.0Y-60.5
X119.071Y-41.071
X119.071Y-47.929
X119.5Y-64.0
X122.5Y-41.071
X122.5Y-47.929
X124.5Y-64.0
X125.5Y-55.0
X125.929Y-41.071
X125.929Y-47.929
X126.16Y-60.5
X127.5Y-55.0
X145.0Y-77.5
X147.0Y-77.5
X170.0Y-77.5
X172.0Y-77.5
X174.0Y-77.5
T5
X29.0Y-26.19
X29.0Y-28.73
X29.0Y-31.27
X29.0Y-33.81
X118.0Y-72.0
X118.0Y-74.5
X118.0Y-77.0
T6
X27.5Y-58.0
X33.5Y-58.0
X39.5Y-58.0
T7
X136.0Y-32.0
X136.0Y-44.8
T8
X28.0Y-66.0
X28.0Y-71.0
T9
X167.9Y-77.5
X176.1Y-77.5
T10
X125.0Y-70.1
X125.0Y-78.9
M30
