%TF.GenerationSoftware,KiCad,Pcbnew,9.0.2+dfsg-1*%
%TF.CreationDate,2026-09-12T16:53:37-07:00*%
%TF.ProjectId,am-radio,616d2d72-6164-4696-9f2e-6b696361645f,rev?*%
%TF.SameCoordinates,Original*%
%TF.FileFunction,AssemblyDrawing,Top*%
%FSLAX46Y46*%
G04 Gerber Fmt 4.6, Leading zero omitted, Abs format (unit mm)*
G04 Created by KiCad (PCBNEW 9.0.2+dfsg-1) date 2026-09-12 16:53:37*
%MOMM*%
%LPD*%
G01*
G04 APERTURE LIST*
%ADD10C,0.150000*%
%ADD11C,0.108000*%
%ADD12C,0.120000*%
%ADD13C,0.100000*%
G04 APERTURE END LIST*
D10*
X109833333Y-71359580D02*
X109785714Y-71407200D01*
X109785714Y-71407200D02*
X109642857Y-71454819D01*
X109642857Y-71454819D02*
X109547619Y-71454819D01*
X109547619Y-71454819D02*
X109404762Y-71407200D01*
X109404762Y-71407200D02*
X109309524Y-71311961D01*
X109309524Y-71311961D02*
X109261905Y-71216723D01*
X109261905Y-71216723D02*
X109214286Y-71026247D01*
X109214286Y-71026247D02*
X109214286Y-70883390D01*
X109214286Y-70883390D02*
X109261905Y-70692914D01*
X109261905Y-70692914D02*
X109309524Y-70597676D01*
X109309524Y-70597676D02*
X109404762Y-70502438D01*
X109404762Y-70502438D02*
X109547619Y-70454819D01*
X109547619Y-70454819D02*
X109642857Y-70454819D01*
X109642857Y-70454819D02*
X109785714Y-70502438D01*
X109785714Y-70502438D02*
X109833333Y-70550057D01*
X110166667Y-70454819D02*
X110833333Y-70454819D01*
X110833333Y-70454819D02*
X110404762Y-71454819D01*
D11*
X81380000Y-47327469D02*
X81140000Y-46984612D01*
X80968571Y-47327469D02*
X80968571Y-46607469D01*
X80968571Y-46607469D02*
X81242857Y-46607469D01*
X81242857Y-46607469D02*
X81311428Y-46641755D01*
X81311428Y-46641755D02*
X81345714Y-46676041D01*
X81345714Y-46676041D02*
X81380000Y-46744612D01*
X81380000Y-46744612D02*
X81380000Y-46847469D01*
X81380000Y-46847469D02*
X81345714Y-46916041D01*
X81345714Y-46916041D02*
X81311428Y-46950326D01*
X81311428Y-46950326D02*
X81242857Y-46984612D01*
X81242857Y-46984612D02*
X80968571Y-46984612D01*
X82065714Y-47327469D02*
X81654285Y-47327469D01*
X81860000Y-47327469D02*
X81860000Y-46607469D01*
X81860000Y-46607469D02*
X81791428Y-46710326D01*
X81791428Y-46710326D02*
X81722857Y-46778898D01*
X81722857Y-46778898D02*
X81654285Y-46813184D01*
D10*
X117954819Y-77095238D02*
X117478628Y-77428571D01*
X117954819Y-77666666D02*
X116954819Y-77666666D01*
X116954819Y-77666666D02*
X116954819Y-77285714D01*
X116954819Y-77285714D02*
X117002438Y-77190476D01*
X117002438Y-77190476D02*
X117050057Y-77142857D01*
X117050057Y-77142857D02*
X117145295Y-77095238D01*
X117145295Y-77095238D02*
X117288152Y-77095238D01*
X117288152Y-77095238D02*
X117383390Y-77142857D01*
X117383390Y-77142857D02*
X117431009Y-77190476D01*
X117431009Y-77190476D02*
X117478628Y-77285714D01*
X117478628Y-77285714D02*
X117478628Y-77666666D01*
X116954819Y-76809523D02*
X117954819Y-76476190D01*
X117954819Y-76476190D02*
X116954819Y-76142857D01*
X117954819Y-75285714D02*
X117954819Y-75857142D01*
X117954819Y-75571428D02*
X116954819Y-75571428D01*
X116954819Y-75571428D02*
X117097676Y-75666666D01*
X117097676Y-75666666D02*
X117192914Y-75761904D01*
X117192914Y-75761904D02*
X117240533Y-75857142D01*
X103404761Y-43410057D02*
X103309523Y-43362438D01*
X103309523Y-43362438D02*
X103214285Y-43267200D01*
X103214285Y-43267200D02*
X103071428Y-43124342D01*
X103071428Y-43124342D02*
X102976190Y-43076723D01*
X102976190Y-43076723D02*
X102880952Y-43076723D01*
X102928571Y-43314819D02*
X102833333Y-43267200D01*
X102833333Y-43267200D02*
X102738095Y-43171961D01*
X102738095Y-43171961D02*
X102690476Y-42981485D01*
X102690476Y-42981485D02*
X102690476Y-42648152D01*
X102690476Y-42648152D02*
X102738095Y-42457676D01*
X102738095Y-42457676D02*
X102833333Y-42362438D01*
X102833333Y-42362438D02*
X102928571Y-42314819D01*
X102928571Y-42314819D02*
X103119047Y-42314819D01*
X103119047Y-42314819D02*
X103214285Y-42362438D01*
X103214285Y-42362438D02*
X103309523Y-42457676D01*
X103309523Y-42457676D02*
X103357142Y-42648152D01*
X103357142Y-42648152D02*
X103357142Y-42981485D01*
X103357142Y-42981485D02*
X103309523Y-43171961D01*
X103309523Y-43171961D02*
X103214285Y-43267200D01*
X103214285Y-43267200D02*
X103119047Y-43314819D01*
X103119047Y-43314819D02*
X102928571Y-43314819D01*
X103738095Y-42410057D02*
X103785714Y-42362438D01*
X103785714Y-42362438D02*
X103880952Y-42314819D01*
X103880952Y-42314819D02*
X104119047Y-42314819D01*
X104119047Y-42314819D02*
X104214285Y-42362438D01*
X104214285Y-42362438D02*
X104261904Y-42410057D01*
X104261904Y-42410057D02*
X104309523Y-42505295D01*
X104309523Y-42505295D02*
X104309523Y-42600533D01*
X104309523Y-42600533D02*
X104261904Y-42743390D01*
X104261904Y-42743390D02*
X103690476Y-43314819D01*
X103690476Y-43314819D02*
X104309523Y-43314819D01*
D12*
X49866666Y-29863855D02*
X49485714Y-29863855D01*
X49485714Y-29863855D02*
X49485714Y-29063855D01*
X50552380Y-29863855D02*
X50095237Y-29863855D01*
X50323809Y-29863855D02*
X50323809Y-29063855D01*
X50323809Y-29063855D02*
X50247618Y-29178140D01*
X50247618Y-29178140D02*
X50171428Y-29254331D01*
X50171428Y-29254331D02*
X50095237Y-29292426D01*
D10*
X67355888Y-54859580D02*
X67308269Y-54907200D01*
X67308269Y-54907200D02*
X67165412Y-54954819D01*
X67165412Y-54954819D02*
X67070174Y-54954819D01*
X67070174Y-54954819D02*
X66927317Y-54907200D01*
X66927317Y-54907200D02*
X66832079Y-54811961D01*
X66832079Y-54811961D02*
X66784460Y-54716723D01*
X66784460Y-54716723D02*
X66736841Y-54526247D01*
X66736841Y-54526247D02*
X66736841Y-54383390D01*
X66736841Y-54383390D02*
X66784460Y-54192914D01*
X66784460Y-54192914D02*
X66832079Y-54097676D01*
X66832079Y-54097676D02*
X66927317Y-54002438D01*
X66927317Y-54002438D02*
X67070174Y-53954819D01*
X67070174Y-53954819D02*
X67165412Y-53954819D01*
X67165412Y-53954819D02*
X67308269Y-54002438D01*
X67308269Y-54002438D02*
X67355888Y-54050057D01*
X68308269Y-54954819D02*
X67736841Y-54954819D01*
X68022555Y-54954819D02*
X68022555Y-53954819D01*
X68022555Y-53954819D02*
X67927317Y-54097676D01*
X67927317Y-54097676D02*
X67832079Y-54192914D01*
X67832079Y-54192914D02*
X67736841Y-54240533D01*
X68641603Y-53954819D02*
X69260650Y-53954819D01*
X69260650Y-53954819D02*
X68927317Y-54335771D01*
X68927317Y-54335771D02*
X69070174Y-54335771D01*
X69070174Y-54335771D02*
X69165412Y-54383390D01*
X69165412Y-54383390D02*
X69213031Y-54431009D01*
X69213031Y-54431009D02*
X69260650Y-54526247D01*
X69260650Y-54526247D02*
X69260650Y-54764342D01*
X69260650Y-54764342D02*
X69213031Y-54859580D01*
X69213031Y-54859580D02*
X69165412Y-54907200D01*
X69165412Y-54907200D02*
X69070174Y-54954819D01*
X69070174Y-54954819D02*
X68784460Y-54954819D01*
X68784460Y-54954819D02*
X68689222Y-54907200D01*
X68689222Y-54907200D02*
X68641603Y-54859580D01*
X96332079Y-55359580D02*
X96284460Y-55407200D01*
X96284460Y-55407200D02*
X96141603Y-55454819D01*
X96141603Y-55454819D02*
X96046365Y-55454819D01*
X96046365Y-55454819D02*
X95903508Y-55407200D01*
X95903508Y-55407200D02*
X95808270Y-55311961D01*
X95808270Y-55311961D02*
X95760651Y-55216723D01*
X95760651Y-55216723D02*
X95713032Y-55026247D01*
X95713032Y-55026247D02*
X95713032Y-54883390D01*
X95713032Y-54883390D02*
X95760651Y-54692914D01*
X95760651Y-54692914D02*
X95808270Y-54597676D01*
X95808270Y-54597676D02*
X95903508Y-54502438D01*
X95903508Y-54502438D02*
X96046365Y-54454819D01*
X96046365Y-54454819D02*
X96141603Y-54454819D01*
X96141603Y-54454819D02*
X96284460Y-54502438D01*
X96284460Y-54502438D02*
X96332079Y-54550057D01*
X96665413Y-54454819D02*
X97284460Y-54454819D01*
X97284460Y-54454819D02*
X96951127Y-54835771D01*
X96951127Y-54835771D02*
X97093984Y-54835771D01*
X97093984Y-54835771D02*
X97189222Y-54883390D01*
X97189222Y-54883390D02*
X97236841Y-54931009D01*
X97236841Y-54931009D02*
X97284460Y-55026247D01*
X97284460Y-55026247D02*
X97284460Y-55264342D01*
X97284460Y-55264342D02*
X97236841Y-55359580D01*
X97236841Y-55359580D02*
X97189222Y-55407200D01*
X97189222Y-55407200D02*
X97093984Y-55454819D01*
X97093984Y-55454819D02*
X96808270Y-55454819D01*
X96808270Y-55454819D02*
X96713032Y-55407200D01*
X96713032Y-55407200D02*
X96665413Y-55359580D01*
D11*
X71537143Y-98827469D02*
X71297143Y-98484612D01*
X71125714Y-98827469D02*
X71125714Y-98107469D01*
X71125714Y-98107469D02*
X71400000Y-98107469D01*
X71400000Y-98107469D02*
X71468571Y-98141755D01*
X71468571Y-98141755D02*
X71502857Y-98176041D01*
X71502857Y-98176041D02*
X71537143Y-98244612D01*
X71537143Y-98244612D02*
X71537143Y-98347469D01*
X71537143Y-98347469D02*
X71502857Y-98416041D01*
X71502857Y-98416041D02*
X71468571Y-98450326D01*
X71468571Y-98450326D02*
X71400000Y-98484612D01*
X71400000Y-98484612D02*
X71125714Y-98484612D01*
X72222857Y-98827469D02*
X71811428Y-98827469D01*
X72017143Y-98827469D02*
X72017143Y-98107469D01*
X72017143Y-98107469D02*
X71948571Y-98210326D01*
X71948571Y-98210326D02*
X71880000Y-98278898D01*
X71880000Y-98278898D02*
X71811428Y-98313184D01*
X72840000Y-98347469D02*
X72840000Y-98827469D01*
X72668571Y-98073184D02*
X72497142Y-98587469D01*
X72497142Y-98587469D02*
X72942857Y-98587469D01*
X96537143Y-78827469D02*
X96297143Y-78484612D01*
X96125714Y-78827469D02*
X96125714Y-78107469D01*
X96125714Y-78107469D02*
X96400000Y-78107469D01*
X96400000Y-78107469D02*
X96468571Y-78141755D01*
X96468571Y-78141755D02*
X96502857Y-78176041D01*
X96502857Y-78176041D02*
X96537143Y-78244612D01*
X96537143Y-78244612D02*
X96537143Y-78347469D01*
X96537143Y-78347469D02*
X96502857Y-78416041D01*
X96502857Y-78416041D02*
X96468571Y-78450326D01*
X96468571Y-78450326D02*
X96400000Y-78484612D01*
X96400000Y-78484612D02*
X96125714Y-78484612D01*
X97222857Y-78827469D02*
X96811428Y-78827469D01*
X97017143Y-78827469D02*
X97017143Y-78107469D01*
X97017143Y-78107469D02*
X96948571Y-78210326D01*
X96948571Y-78210326D02*
X96880000Y-78278898D01*
X96880000Y-78278898D02*
X96811428Y-78313184D01*
X97497142Y-78176041D02*
X97531428Y-78141755D01*
X97531428Y-78141755D02*
X97600000Y-78107469D01*
X97600000Y-78107469D02*
X97771428Y-78107469D01*
X97771428Y-78107469D02*
X97840000Y-78141755D01*
X97840000Y-78141755D02*
X97874285Y-78176041D01*
X97874285Y-78176041D02*
X97908571Y-78244612D01*
X97908571Y-78244612D02*
X97908571Y-78313184D01*
X97908571Y-78313184D02*
X97874285Y-78416041D01*
X97874285Y-78416041D02*
X97462857Y-78827469D01*
X97462857Y-78827469D02*
X97908571Y-78827469D01*
D10*
X115855888Y-29859580D02*
X115808269Y-29907200D01*
X115808269Y-29907200D02*
X115665412Y-29954819D01*
X115665412Y-29954819D02*
X115570174Y-29954819D01*
X115570174Y-29954819D02*
X115427317Y-29907200D01*
X115427317Y-29907200D02*
X115332079Y-29811961D01*
X115332079Y-29811961D02*
X115284460Y-29716723D01*
X115284460Y-29716723D02*
X115236841Y-29526247D01*
X115236841Y-29526247D02*
X115236841Y-29383390D01*
X115236841Y-29383390D02*
X115284460Y-29192914D01*
X115284460Y-29192914D02*
X115332079Y-29097676D01*
X115332079Y-29097676D02*
X115427317Y-29002438D01*
X115427317Y-29002438D02*
X115570174Y-28954819D01*
X115570174Y-28954819D02*
X115665412Y-28954819D01*
X115665412Y-28954819D02*
X115808269Y-29002438D01*
X115808269Y-29002438D02*
X115855888Y-29050057D01*
X116808269Y-29954819D02*
X116236841Y-29954819D01*
X116522555Y-29954819D02*
X116522555Y-28954819D01*
X116522555Y-28954819D02*
X116427317Y-29097676D01*
X116427317Y-29097676D02*
X116332079Y-29192914D01*
X116332079Y-29192914D02*
X116236841Y-29240533D01*
X117189222Y-29050057D02*
X117236841Y-29002438D01*
X117236841Y-29002438D02*
X117332079Y-28954819D01*
X117332079Y-28954819D02*
X117570174Y-28954819D01*
X117570174Y-28954819D02*
X117665412Y-29002438D01*
X117665412Y-29002438D02*
X117713031Y-29050057D01*
X117713031Y-29050057D02*
X117760650Y-29145295D01*
X117760650Y-29145295D02*
X117760650Y-29240533D01*
X117760650Y-29240533D02*
X117713031Y-29383390D01*
X117713031Y-29383390D02*
X117141603Y-29954819D01*
X117141603Y-29954819D02*
X117760650Y-29954819D01*
D11*
X72827469Y-54962856D02*
X72484612Y-55202856D01*
X72827469Y-55374285D02*
X72107469Y-55374285D01*
X72107469Y-55374285D02*
X72107469Y-55099999D01*
X72107469Y-55099999D02*
X72141755Y-55031428D01*
X72141755Y-55031428D02*
X72176041Y-54997142D01*
X72176041Y-54997142D02*
X72244612Y-54962856D01*
X72244612Y-54962856D02*
X72347469Y-54962856D01*
X72347469Y-54962856D02*
X72416041Y-54997142D01*
X72416041Y-54997142D02*
X72450326Y-55031428D01*
X72450326Y-55031428D02*
X72484612Y-55099999D01*
X72484612Y-55099999D02*
X72484612Y-55374285D01*
X72827469Y-54277142D02*
X72827469Y-54688571D01*
X72827469Y-54482856D02*
X72107469Y-54482856D01*
X72107469Y-54482856D02*
X72210326Y-54551428D01*
X72210326Y-54551428D02*
X72278898Y-54619999D01*
X72278898Y-54619999D02*
X72313184Y-54688571D01*
X72107469Y-53660000D02*
X72107469Y-53797142D01*
X72107469Y-53797142D02*
X72141755Y-53865714D01*
X72141755Y-53865714D02*
X72176041Y-53900000D01*
X72176041Y-53900000D02*
X72278898Y-53968571D01*
X72278898Y-53968571D02*
X72416041Y-54002857D01*
X72416041Y-54002857D02*
X72690326Y-54002857D01*
X72690326Y-54002857D02*
X72758898Y-53968571D01*
X72758898Y-53968571D02*
X72793184Y-53934285D01*
X72793184Y-53934285D02*
X72827469Y-53865714D01*
X72827469Y-53865714D02*
X72827469Y-53728571D01*
X72827469Y-53728571D02*
X72793184Y-53660000D01*
X72793184Y-53660000D02*
X72758898Y-53625714D01*
X72758898Y-53625714D02*
X72690326Y-53591428D01*
X72690326Y-53591428D02*
X72518898Y-53591428D01*
X72518898Y-53591428D02*
X72450326Y-53625714D01*
X72450326Y-53625714D02*
X72416041Y-53660000D01*
X72416041Y-53660000D02*
X72381755Y-53728571D01*
X72381755Y-53728571D02*
X72381755Y-53865714D01*
X72381755Y-53865714D02*
X72416041Y-53934285D01*
X72416041Y-53934285D02*
X72450326Y-53968571D01*
X72450326Y-53968571D02*
X72518898Y-54002857D01*
X111380000Y-61827469D02*
X111140000Y-61484612D01*
X110968571Y-61827469D02*
X110968571Y-61107469D01*
X110968571Y-61107469D02*
X111242857Y-61107469D01*
X111242857Y-61107469D02*
X111311428Y-61141755D01*
X111311428Y-61141755D02*
X111345714Y-61176041D01*
X111345714Y-61176041D02*
X111380000Y-61244612D01*
X111380000Y-61244612D02*
X111380000Y-61347469D01*
X111380000Y-61347469D02*
X111345714Y-61416041D01*
X111345714Y-61416041D02*
X111311428Y-61450326D01*
X111311428Y-61450326D02*
X111242857Y-61484612D01*
X111242857Y-61484612D02*
X110968571Y-61484612D01*
X111791428Y-61416041D02*
X111722857Y-61381755D01*
X111722857Y-61381755D02*
X111688571Y-61347469D01*
X111688571Y-61347469D02*
X111654285Y-61278898D01*
X111654285Y-61278898D02*
X111654285Y-61244612D01*
X111654285Y-61244612D02*
X111688571Y-61176041D01*
X111688571Y-61176041D02*
X111722857Y-61141755D01*
X111722857Y-61141755D02*
X111791428Y-61107469D01*
X111791428Y-61107469D02*
X111928571Y-61107469D01*
X111928571Y-61107469D02*
X111997143Y-61141755D01*
X111997143Y-61141755D02*
X112031428Y-61176041D01*
X112031428Y-61176041D02*
X112065714Y-61244612D01*
X112065714Y-61244612D02*
X112065714Y-61278898D01*
X112065714Y-61278898D02*
X112031428Y-61347469D01*
X112031428Y-61347469D02*
X111997143Y-61381755D01*
X111997143Y-61381755D02*
X111928571Y-61416041D01*
X111928571Y-61416041D02*
X111791428Y-61416041D01*
X111791428Y-61416041D02*
X111722857Y-61450326D01*
X111722857Y-61450326D02*
X111688571Y-61484612D01*
X111688571Y-61484612D02*
X111654285Y-61553184D01*
X111654285Y-61553184D02*
X111654285Y-61690326D01*
X111654285Y-61690326D02*
X111688571Y-61758898D01*
X111688571Y-61758898D02*
X111722857Y-61793184D01*
X111722857Y-61793184D02*
X111791428Y-61827469D01*
X111791428Y-61827469D02*
X111928571Y-61827469D01*
X111928571Y-61827469D02*
X111997143Y-61793184D01*
X111997143Y-61793184D02*
X112031428Y-61758898D01*
X112031428Y-61758898D02*
X112065714Y-61690326D01*
X112065714Y-61690326D02*
X112065714Y-61553184D01*
X112065714Y-61553184D02*
X112031428Y-61484612D01*
X112031428Y-61484612D02*
X111997143Y-61450326D01*
X111997143Y-61450326D02*
X111928571Y-61416041D01*
D10*
X125333333Y-51359580D02*
X125285714Y-51407200D01*
X125285714Y-51407200D02*
X125142857Y-51454819D01*
X125142857Y-51454819D02*
X125047619Y-51454819D01*
X125047619Y-51454819D02*
X124904762Y-51407200D01*
X124904762Y-51407200D02*
X124809524Y-51311961D01*
X124809524Y-51311961D02*
X124761905Y-51216723D01*
X124761905Y-51216723D02*
X124714286Y-51026247D01*
X124714286Y-51026247D02*
X124714286Y-50883390D01*
X124714286Y-50883390D02*
X124761905Y-50692914D01*
X124761905Y-50692914D02*
X124809524Y-50597676D01*
X124809524Y-50597676D02*
X124904762Y-50502438D01*
X124904762Y-50502438D02*
X125047619Y-50454819D01*
X125047619Y-50454819D02*
X125142857Y-50454819D01*
X125142857Y-50454819D02*
X125285714Y-50502438D01*
X125285714Y-50502438D02*
X125333333Y-50550057D01*
X126190476Y-50454819D02*
X126000000Y-50454819D01*
X126000000Y-50454819D02*
X125904762Y-50502438D01*
X125904762Y-50502438D02*
X125857143Y-50550057D01*
X125857143Y-50550057D02*
X125761905Y-50692914D01*
X125761905Y-50692914D02*
X125714286Y-50883390D01*
X125714286Y-50883390D02*
X125714286Y-51264342D01*
X125714286Y-51264342D02*
X125761905Y-51359580D01*
X125761905Y-51359580D02*
X125809524Y-51407200D01*
X125809524Y-51407200D02*
X125904762Y-51454819D01*
X125904762Y-51454819D02*
X126095238Y-51454819D01*
X126095238Y-51454819D02*
X126190476Y-51407200D01*
X126190476Y-51407200D02*
X126238095Y-51359580D01*
X126238095Y-51359580D02*
X126285714Y-51264342D01*
X126285714Y-51264342D02*
X126285714Y-51026247D01*
X126285714Y-51026247D02*
X126238095Y-50931009D01*
X126238095Y-50931009D02*
X126190476Y-50883390D01*
X126190476Y-50883390D02*
X126095238Y-50835771D01*
X126095238Y-50835771D02*
X125904762Y-50835771D01*
X125904762Y-50835771D02*
X125809524Y-50883390D01*
X125809524Y-50883390D02*
X125761905Y-50931009D01*
X125761905Y-50931009D02*
X125714286Y-51026247D01*
X102833333Y-51359580D02*
X102785714Y-51407200D01*
X102785714Y-51407200D02*
X102642857Y-51454819D01*
X102642857Y-51454819D02*
X102547619Y-51454819D01*
X102547619Y-51454819D02*
X102404762Y-51407200D01*
X102404762Y-51407200D02*
X102309524Y-51311961D01*
X102309524Y-51311961D02*
X102261905Y-51216723D01*
X102261905Y-51216723D02*
X102214286Y-51026247D01*
X102214286Y-51026247D02*
X102214286Y-50883390D01*
X102214286Y-50883390D02*
X102261905Y-50692914D01*
X102261905Y-50692914D02*
X102309524Y-50597676D01*
X102309524Y-50597676D02*
X102404762Y-50502438D01*
X102404762Y-50502438D02*
X102547619Y-50454819D01*
X102547619Y-50454819D02*
X102642857Y-50454819D01*
X102642857Y-50454819D02*
X102785714Y-50502438D01*
X102785714Y-50502438D02*
X102833333Y-50550057D01*
X103690476Y-50788152D02*
X103690476Y-51454819D01*
X103452381Y-50407200D02*
X103214286Y-51121485D01*
X103214286Y-51121485D02*
X103833333Y-51121485D01*
X97404761Y-75410057D02*
X97309523Y-75362438D01*
X97309523Y-75362438D02*
X97214285Y-75267200D01*
X97214285Y-75267200D02*
X97071428Y-75124342D01*
X97071428Y-75124342D02*
X96976190Y-75076723D01*
X96976190Y-75076723D02*
X96880952Y-75076723D01*
X96928571Y-75314819D02*
X96833333Y-75267200D01*
X96833333Y-75267200D02*
X96738095Y-75171961D01*
X96738095Y-75171961D02*
X96690476Y-74981485D01*
X96690476Y-74981485D02*
X96690476Y-74648152D01*
X96690476Y-74648152D02*
X96738095Y-74457676D01*
X96738095Y-74457676D02*
X96833333Y-74362438D01*
X96833333Y-74362438D02*
X96928571Y-74314819D01*
X96928571Y-74314819D02*
X97119047Y-74314819D01*
X97119047Y-74314819D02*
X97214285Y-74362438D01*
X97214285Y-74362438D02*
X97309523Y-74457676D01*
X97309523Y-74457676D02*
X97357142Y-74648152D01*
X97357142Y-74648152D02*
X97357142Y-74981485D01*
X97357142Y-74981485D02*
X97309523Y-75171961D01*
X97309523Y-75171961D02*
X97214285Y-75267200D01*
X97214285Y-75267200D02*
X97119047Y-75314819D01*
X97119047Y-75314819D02*
X96928571Y-75314819D01*
X98214285Y-74648152D02*
X98214285Y-75314819D01*
X97976190Y-74267200D02*
X97738095Y-74981485D01*
X97738095Y-74981485D02*
X98357142Y-74981485D01*
X103858326Y-74666666D02*
X103905946Y-74714285D01*
X103905946Y-74714285D02*
X103953565Y-74857142D01*
X103953565Y-74857142D02*
X103953565Y-74952380D01*
X103953565Y-74952380D02*
X103905946Y-75095237D01*
X103905946Y-75095237D02*
X103810707Y-75190475D01*
X103810707Y-75190475D02*
X103715469Y-75238094D01*
X103715469Y-75238094D02*
X103524993Y-75285713D01*
X103524993Y-75285713D02*
X103382136Y-75285713D01*
X103382136Y-75285713D02*
X103191660Y-75238094D01*
X103191660Y-75238094D02*
X103096422Y-75190475D01*
X103096422Y-75190475D02*
X103001184Y-75095237D01*
X103001184Y-75095237D02*
X102953565Y-74952380D01*
X102953565Y-74952380D02*
X102953565Y-74857142D01*
X102953565Y-74857142D02*
X103001184Y-74714285D01*
X103001184Y-74714285D02*
X103048803Y-74666666D01*
X103382136Y-74095237D02*
X103334517Y-74190475D01*
X103334517Y-74190475D02*
X103286898Y-74238094D01*
X103286898Y-74238094D02*
X103191660Y-74285713D01*
X103191660Y-74285713D02*
X103144041Y-74285713D01*
X103144041Y-74285713D02*
X103048803Y-74238094D01*
X103048803Y-74238094D02*
X103001184Y-74190475D01*
X103001184Y-74190475D02*
X102953565Y-74095237D01*
X102953565Y-74095237D02*
X102953565Y-73904761D01*
X102953565Y-73904761D02*
X103001184Y-73809523D01*
X103001184Y-73809523D02*
X103048803Y-73761904D01*
X103048803Y-73761904D02*
X103144041Y-73714285D01*
X103144041Y-73714285D02*
X103191660Y-73714285D01*
X103191660Y-73714285D02*
X103286898Y-73761904D01*
X103286898Y-73761904D02*
X103334517Y-73809523D01*
X103334517Y-73809523D02*
X103382136Y-73904761D01*
X103382136Y-73904761D02*
X103382136Y-74095237D01*
X103382136Y-74095237D02*
X103429755Y-74190475D01*
X103429755Y-74190475D02*
X103477374Y-74238094D01*
X103477374Y-74238094D02*
X103572612Y-74285713D01*
X103572612Y-74285713D02*
X103763088Y-74285713D01*
X103763088Y-74285713D02*
X103858326Y-74238094D01*
X103858326Y-74238094D02*
X103905946Y-74190475D01*
X103905946Y-74190475D02*
X103953565Y-74095237D01*
X103953565Y-74095237D02*
X103953565Y-73904761D01*
X103953565Y-73904761D02*
X103905946Y-73809523D01*
X103905946Y-73809523D02*
X103858326Y-73761904D01*
X103858326Y-73761904D02*
X103763088Y-73714285D01*
X103763088Y-73714285D02*
X103572612Y-73714285D01*
X103572612Y-73714285D02*
X103477374Y-73761904D01*
X103477374Y-73761904D02*
X103429755Y-73809523D01*
X103429755Y-73809523D02*
X103382136Y-73904761D01*
D11*
X96537143Y-70327469D02*
X96297143Y-69984612D01*
X96125714Y-70327469D02*
X96125714Y-69607469D01*
X96125714Y-69607469D02*
X96400000Y-69607469D01*
X96400000Y-69607469D02*
X96468571Y-69641755D01*
X96468571Y-69641755D02*
X96502857Y-69676041D01*
X96502857Y-69676041D02*
X96537143Y-69744612D01*
X96537143Y-69744612D02*
X96537143Y-69847469D01*
X96537143Y-69847469D02*
X96502857Y-69916041D01*
X96502857Y-69916041D02*
X96468571Y-69950326D01*
X96468571Y-69950326D02*
X96400000Y-69984612D01*
X96400000Y-69984612D02*
X96125714Y-69984612D01*
X97222857Y-70327469D02*
X96811428Y-70327469D01*
X97017143Y-70327469D02*
X97017143Y-69607469D01*
X97017143Y-69607469D02*
X96948571Y-69710326D01*
X96948571Y-69710326D02*
X96880000Y-69778898D01*
X96880000Y-69778898D02*
X96811428Y-69813184D01*
X97908571Y-70327469D02*
X97497142Y-70327469D01*
X97702857Y-70327469D02*
X97702857Y-69607469D01*
X97702857Y-69607469D02*
X97634285Y-69710326D01*
X97634285Y-69710326D02*
X97565714Y-69778898D01*
X97565714Y-69778898D02*
X97497142Y-69813184D01*
D10*
X109832079Y-76859580D02*
X109784460Y-76907200D01*
X109784460Y-76907200D02*
X109641603Y-76954819D01*
X109641603Y-76954819D02*
X109546365Y-76954819D01*
X109546365Y-76954819D02*
X109403508Y-76907200D01*
X109403508Y-76907200D02*
X109308270Y-76811961D01*
X109308270Y-76811961D02*
X109260651Y-76716723D01*
X109260651Y-76716723D02*
X109213032Y-76526247D01*
X109213032Y-76526247D02*
X109213032Y-76383390D01*
X109213032Y-76383390D02*
X109260651Y-76192914D01*
X109260651Y-76192914D02*
X109308270Y-76097676D01*
X109308270Y-76097676D02*
X109403508Y-76002438D01*
X109403508Y-76002438D02*
X109546365Y-75954819D01*
X109546365Y-75954819D02*
X109641603Y-75954819D01*
X109641603Y-75954819D02*
X109784460Y-76002438D01*
X109784460Y-76002438D02*
X109832079Y-76050057D01*
X110308270Y-76954819D02*
X110498746Y-76954819D01*
X110498746Y-76954819D02*
X110593984Y-76907200D01*
X110593984Y-76907200D02*
X110641603Y-76859580D01*
X110641603Y-76859580D02*
X110736841Y-76716723D01*
X110736841Y-76716723D02*
X110784460Y-76526247D01*
X110784460Y-76526247D02*
X110784460Y-76145295D01*
X110784460Y-76145295D02*
X110736841Y-76050057D01*
X110736841Y-76050057D02*
X110689222Y-76002438D01*
X110689222Y-76002438D02*
X110593984Y-75954819D01*
X110593984Y-75954819D02*
X110403508Y-75954819D01*
X110403508Y-75954819D02*
X110308270Y-76002438D01*
X110308270Y-76002438D02*
X110260651Y-76050057D01*
X110260651Y-76050057D02*
X110213032Y-76145295D01*
X110213032Y-76145295D02*
X110213032Y-76383390D01*
X110213032Y-76383390D02*
X110260651Y-76478628D01*
X110260651Y-76478628D02*
X110308270Y-76526247D01*
X110308270Y-76526247D02*
X110403508Y-76573866D01*
X110403508Y-76573866D02*
X110593984Y-76573866D01*
X110593984Y-76573866D02*
X110689222Y-76526247D01*
X110689222Y-76526247D02*
X110736841Y-76478628D01*
X110736841Y-76478628D02*
X110784460Y-76383390D01*
D12*
X122890476Y-60563855D02*
X123347619Y-60563855D01*
X123119047Y-61363855D02*
X123119047Y-60563855D01*
X123538095Y-60563855D02*
X124033333Y-60563855D01*
X124033333Y-60563855D02*
X123766667Y-60868617D01*
X123766667Y-60868617D02*
X123880952Y-60868617D01*
X123880952Y-60868617D02*
X123957143Y-60906712D01*
X123957143Y-60906712D02*
X123995238Y-60944807D01*
X123995238Y-60944807D02*
X124033333Y-61020998D01*
X124033333Y-61020998D02*
X124033333Y-61211474D01*
X124033333Y-61211474D02*
X123995238Y-61287664D01*
X123995238Y-61287664D02*
X123957143Y-61325760D01*
X123957143Y-61325760D02*
X123880952Y-61363855D01*
X123880952Y-61363855D02*
X123652381Y-61363855D01*
X123652381Y-61363855D02*
X123576190Y-61325760D01*
X123576190Y-61325760D02*
X123538095Y-61287664D01*
D10*
X126938095Y-22754819D02*
X126938095Y-21754819D01*
X126938095Y-22231009D02*
X127509523Y-22231009D01*
X127509523Y-22754819D02*
X127509523Y-21754819D01*
X127938095Y-21850057D02*
X127985714Y-21802438D01*
X127985714Y-21802438D02*
X128080952Y-21754819D01*
X128080952Y-21754819D02*
X128319047Y-21754819D01*
X128319047Y-21754819D02*
X128414285Y-21802438D01*
X128414285Y-21802438D02*
X128461904Y-21850057D01*
X128461904Y-21850057D02*
X128509523Y-21945295D01*
X128509523Y-21945295D02*
X128509523Y-22040533D01*
X128509523Y-22040533D02*
X128461904Y-22183390D01*
X128461904Y-22183390D02*
X127890476Y-22754819D01*
X127890476Y-22754819D02*
X128509523Y-22754819D01*
X76359580Y-54666666D02*
X76407200Y-54714285D01*
X76407200Y-54714285D02*
X76454819Y-54857142D01*
X76454819Y-54857142D02*
X76454819Y-54952380D01*
X76454819Y-54952380D02*
X76407200Y-55095237D01*
X76407200Y-55095237D02*
X76311961Y-55190475D01*
X76311961Y-55190475D02*
X76216723Y-55238094D01*
X76216723Y-55238094D02*
X76026247Y-55285713D01*
X76026247Y-55285713D02*
X75883390Y-55285713D01*
X75883390Y-55285713D02*
X75692914Y-55238094D01*
X75692914Y-55238094D02*
X75597676Y-55190475D01*
X75597676Y-55190475D02*
X75502438Y-55095237D01*
X75502438Y-55095237D02*
X75454819Y-54952380D01*
X75454819Y-54952380D02*
X75454819Y-54857142D01*
X75454819Y-54857142D02*
X75502438Y-54714285D01*
X75502438Y-54714285D02*
X75550057Y-54666666D01*
X76454819Y-53714285D02*
X76454819Y-54285713D01*
X76454819Y-53999999D02*
X75454819Y-53999999D01*
X75454819Y-53999999D02*
X75597676Y-54095237D01*
X75597676Y-54095237D02*
X75692914Y-54190475D01*
X75692914Y-54190475D02*
X75740533Y-54285713D01*
D11*
X92327469Y-77462856D02*
X91984612Y-77702856D01*
X92327469Y-77874285D02*
X91607469Y-77874285D01*
X91607469Y-77874285D02*
X91607469Y-77599999D01*
X91607469Y-77599999D02*
X91641755Y-77531428D01*
X91641755Y-77531428D02*
X91676041Y-77497142D01*
X91676041Y-77497142D02*
X91744612Y-77462856D01*
X91744612Y-77462856D02*
X91847469Y-77462856D01*
X91847469Y-77462856D02*
X91916041Y-77497142D01*
X91916041Y-77497142D02*
X91950326Y-77531428D01*
X91950326Y-77531428D02*
X91984612Y-77599999D01*
X91984612Y-77599999D02*
X91984612Y-77874285D01*
X92327469Y-76777142D02*
X92327469Y-77188571D01*
X92327469Y-76982856D02*
X91607469Y-76982856D01*
X91607469Y-76982856D02*
X91710326Y-77051428D01*
X91710326Y-77051428D02*
X91778898Y-77119999D01*
X91778898Y-77119999D02*
X91813184Y-77188571D01*
X91607469Y-76537142D02*
X91607469Y-76091428D01*
X91607469Y-76091428D02*
X91881755Y-76331428D01*
X91881755Y-76331428D02*
X91881755Y-76228571D01*
X91881755Y-76228571D02*
X91916041Y-76160000D01*
X91916041Y-76160000D02*
X91950326Y-76125714D01*
X91950326Y-76125714D02*
X92018898Y-76091428D01*
X92018898Y-76091428D02*
X92190326Y-76091428D01*
X92190326Y-76091428D02*
X92258898Y-76125714D01*
X92258898Y-76125714D02*
X92293184Y-76160000D01*
X92293184Y-76160000D02*
X92327469Y-76228571D01*
X92327469Y-76228571D02*
X92327469Y-76434285D01*
X92327469Y-76434285D02*
X92293184Y-76502857D01*
X92293184Y-76502857D02*
X92258898Y-76537142D01*
D10*
X21538095Y-101154819D02*
X21538095Y-100154819D01*
X21538095Y-100631009D02*
X22109523Y-100631009D01*
X22109523Y-101154819D02*
X22109523Y-100154819D01*
X22490476Y-100154819D02*
X23109523Y-100154819D01*
X23109523Y-100154819D02*
X22776190Y-100535771D01*
X22776190Y-100535771D02*
X22919047Y-100535771D01*
X22919047Y-100535771D02*
X23014285Y-100583390D01*
X23014285Y-100583390D02*
X23061904Y-100631009D01*
X23061904Y-100631009D02*
X23109523Y-100726247D01*
X23109523Y-100726247D02*
X23109523Y-100964342D01*
X23109523Y-100964342D02*
X23061904Y-101059580D01*
X23061904Y-101059580D02*
X23014285Y-101107200D01*
X23014285Y-101107200D02*
X22919047Y-101154819D01*
X22919047Y-101154819D02*
X22633333Y-101154819D01*
X22633333Y-101154819D02*
X22538095Y-101107200D01*
X22538095Y-101107200D02*
X22490476Y-101059580D01*
X68904761Y-93410057D02*
X68809523Y-93362438D01*
X68809523Y-93362438D02*
X68714285Y-93267200D01*
X68714285Y-93267200D02*
X68571428Y-93124342D01*
X68571428Y-93124342D02*
X68476190Y-93076723D01*
X68476190Y-93076723D02*
X68380952Y-93076723D01*
X68428571Y-93314819D02*
X68333333Y-93267200D01*
X68333333Y-93267200D02*
X68238095Y-93171961D01*
X68238095Y-93171961D02*
X68190476Y-92981485D01*
X68190476Y-92981485D02*
X68190476Y-92648152D01*
X68190476Y-92648152D02*
X68238095Y-92457676D01*
X68238095Y-92457676D02*
X68333333Y-92362438D01*
X68333333Y-92362438D02*
X68428571Y-92314819D01*
X68428571Y-92314819D02*
X68619047Y-92314819D01*
X68619047Y-92314819D02*
X68714285Y-92362438D01*
X68714285Y-92362438D02*
X68809523Y-92457676D01*
X68809523Y-92457676D02*
X68857142Y-92648152D01*
X68857142Y-92648152D02*
X68857142Y-92981485D01*
X68857142Y-92981485D02*
X68809523Y-93171961D01*
X68809523Y-93171961D02*
X68714285Y-93267200D01*
X68714285Y-93267200D02*
X68619047Y-93314819D01*
X68619047Y-93314819D02*
X68428571Y-93314819D01*
X69761904Y-92314819D02*
X69285714Y-92314819D01*
X69285714Y-92314819D02*
X69238095Y-92791009D01*
X69238095Y-92791009D02*
X69285714Y-92743390D01*
X69285714Y-92743390D02*
X69380952Y-92695771D01*
X69380952Y-92695771D02*
X69619047Y-92695771D01*
X69619047Y-92695771D02*
X69714285Y-92743390D01*
X69714285Y-92743390D02*
X69761904Y-92791009D01*
X69761904Y-92791009D02*
X69809523Y-92886247D01*
X69809523Y-92886247D02*
X69809523Y-93124342D01*
X69809523Y-93124342D02*
X69761904Y-93219580D01*
X69761904Y-93219580D02*
X69714285Y-93267200D01*
X69714285Y-93267200D02*
X69619047Y-93314819D01*
X69619047Y-93314819D02*
X69380952Y-93314819D01*
X69380952Y-93314819D02*
X69285714Y-93267200D01*
X69285714Y-93267200D02*
X69238095Y-93219580D01*
X81333333Y-54359580D02*
X81285714Y-54407200D01*
X81285714Y-54407200D02*
X81142857Y-54454819D01*
X81142857Y-54454819D02*
X81047619Y-54454819D01*
X81047619Y-54454819D02*
X80904762Y-54407200D01*
X80904762Y-54407200D02*
X80809524Y-54311961D01*
X80809524Y-54311961D02*
X80761905Y-54216723D01*
X80761905Y-54216723D02*
X80714286Y-54026247D01*
X80714286Y-54026247D02*
X80714286Y-53883390D01*
X80714286Y-53883390D02*
X80761905Y-53692914D01*
X80761905Y-53692914D02*
X80809524Y-53597676D01*
X80809524Y-53597676D02*
X80904762Y-53502438D01*
X80904762Y-53502438D02*
X81047619Y-53454819D01*
X81047619Y-53454819D02*
X81142857Y-53454819D01*
X81142857Y-53454819D02*
X81285714Y-53502438D01*
X81285714Y-53502438D02*
X81333333Y-53550057D01*
X81714286Y-53550057D02*
X81761905Y-53502438D01*
X81761905Y-53502438D02*
X81857143Y-53454819D01*
X81857143Y-53454819D02*
X82095238Y-53454819D01*
X82095238Y-53454819D02*
X82190476Y-53502438D01*
X82190476Y-53502438D02*
X82238095Y-53550057D01*
X82238095Y-53550057D02*
X82285714Y-53645295D01*
X82285714Y-53645295D02*
X82285714Y-53740533D01*
X82285714Y-53740533D02*
X82238095Y-53883390D01*
X82238095Y-53883390D02*
X81666667Y-54454819D01*
X81666667Y-54454819D02*
X82285714Y-54454819D01*
D11*
X81380000Y-50827469D02*
X81140000Y-50484612D01*
X80968571Y-50827469D02*
X80968571Y-50107469D01*
X80968571Y-50107469D02*
X81242857Y-50107469D01*
X81242857Y-50107469D02*
X81311428Y-50141755D01*
X81311428Y-50141755D02*
X81345714Y-50176041D01*
X81345714Y-50176041D02*
X81380000Y-50244612D01*
X81380000Y-50244612D02*
X81380000Y-50347469D01*
X81380000Y-50347469D02*
X81345714Y-50416041D01*
X81345714Y-50416041D02*
X81311428Y-50450326D01*
X81311428Y-50450326D02*
X81242857Y-50484612D01*
X81242857Y-50484612D02*
X80968571Y-50484612D01*
X81654285Y-50176041D02*
X81688571Y-50141755D01*
X81688571Y-50141755D02*
X81757143Y-50107469D01*
X81757143Y-50107469D02*
X81928571Y-50107469D01*
X81928571Y-50107469D02*
X81997143Y-50141755D01*
X81997143Y-50141755D02*
X82031428Y-50176041D01*
X82031428Y-50176041D02*
X82065714Y-50244612D01*
X82065714Y-50244612D02*
X82065714Y-50313184D01*
X82065714Y-50313184D02*
X82031428Y-50416041D01*
X82031428Y-50416041D02*
X81620000Y-50827469D01*
X81620000Y-50827469D02*
X82065714Y-50827469D01*
D10*
X21538095Y-22754819D02*
X21538095Y-21754819D01*
X21538095Y-22231009D02*
X22109523Y-22231009D01*
X22109523Y-22754819D02*
X22109523Y-21754819D01*
X23109523Y-22754819D02*
X22538095Y-22754819D01*
X22823809Y-22754819D02*
X22823809Y-21754819D01*
X22823809Y-21754819D02*
X22728571Y-21897676D01*
X22728571Y-21897676D02*
X22633333Y-21992914D01*
X22633333Y-21992914D02*
X22538095Y-22040533D01*
D11*
X89380000Y-57827469D02*
X89140000Y-57484612D01*
X88968571Y-57827469D02*
X88968571Y-57107469D01*
X88968571Y-57107469D02*
X89242857Y-57107469D01*
X89242857Y-57107469D02*
X89311428Y-57141755D01*
X89311428Y-57141755D02*
X89345714Y-57176041D01*
X89345714Y-57176041D02*
X89380000Y-57244612D01*
X89380000Y-57244612D02*
X89380000Y-57347469D01*
X89380000Y-57347469D02*
X89345714Y-57416041D01*
X89345714Y-57416041D02*
X89311428Y-57450326D01*
X89311428Y-57450326D02*
X89242857Y-57484612D01*
X89242857Y-57484612D02*
X88968571Y-57484612D01*
X90031428Y-57107469D02*
X89688571Y-57107469D01*
X89688571Y-57107469D02*
X89654285Y-57450326D01*
X89654285Y-57450326D02*
X89688571Y-57416041D01*
X89688571Y-57416041D02*
X89757143Y-57381755D01*
X89757143Y-57381755D02*
X89928571Y-57381755D01*
X89928571Y-57381755D02*
X89997143Y-57416041D01*
X89997143Y-57416041D02*
X90031428Y-57450326D01*
X90031428Y-57450326D02*
X90065714Y-57518898D01*
X90065714Y-57518898D02*
X90065714Y-57690326D01*
X90065714Y-57690326D02*
X90031428Y-57758898D01*
X90031428Y-57758898D02*
X89997143Y-57793184D01*
X89997143Y-57793184D02*
X89928571Y-57827469D01*
X89928571Y-57827469D02*
X89757143Y-57827469D01*
X89757143Y-57827469D02*
X89688571Y-57793184D01*
X89688571Y-57793184D02*
X89654285Y-57758898D01*
D12*
X113890476Y-44563855D02*
X114347619Y-44563855D01*
X114119047Y-45363855D02*
X114119047Y-44563855D01*
X114576190Y-44640045D02*
X114614286Y-44601950D01*
X114614286Y-44601950D02*
X114690476Y-44563855D01*
X114690476Y-44563855D02*
X114880952Y-44563855D01*
X114880952Y-44563855D02*
X114957143Y-44601950D01*
X114957143Y-44601950D02*
X114995238Y-44640045D01*
X114995238Y-44640045D02*
X115033333Y-44716236D01*
X115033333Y-44716236D02*
X115033333Y-44792426D01*
X115033333Y-44792426D02*
X114995238Y-44906712D01*
X114995238Y-44906712D02*
X114538095Y-45363855D01*
X114538095Y-45363855D02*
X115033333Y-45363855D01*
D10*
X103658095Y-66154819D02*
X103658095Y-65154819D01*
X104229523Y-66154819D02*
X103800952Y-65583390D01*
X104229523Y-65154819D02*
X103658095Y-65726247D01*
D12*
X108709524Y-67863855D02*
X108709524Y-67063855D01*
X108709524Y-67063855D02*
X108900000Y-67063855D01*
X108900000Y-67063855D02*
X109014286Y-67101950D01*
X109014286Y-67101950D02*
X109090476Y-67178140D01*
X109090476Y-67178140D02*
X109128571Y-67254331D01*
X109128571Y-67254331D02*
X109166667Y-67406712D01*
X109166667Y-67406712D02*
X109166667Y-67520998D01*
X109166667Y-67520998D02*
X109128571Y-67673379D01*
X109128571Y-67673379D02*
X109090476Y-67749569D01*
X109090476Y-67749569D02*
X109014286Y-67825760D01*
X109014286Y-67825760D02*
X108900000Y-67863855D01*
X108900000Y-67863855D02*
X108709524Y-67863855D01*
X109928571Y-67863855D02*
X109471428Y-67863855D01*
X109700000Y-67863855D02*
X109700000Y-67063855D01*
X109700000Y-67063855D02*
X109623809Y-67178140D01*
X109623809Y-67178140D02*
X109547619Y-67254331D01*
X109547619Y-67254331D02*
X109471428Y-67292426D01*
D10*
X125904761Y-43410057D02*
X125809523Y-43362438D01*
X125809523Y-43362438D02*
X125714285Y-43267200D01*
X125714285Y-43267200D02*
X125571428Y-43124342D01*
X125571428Y-43124342D02*
X125476190Y-43076723D01*
X125476190Y-43076723D02*
X125380952Y-43076723D01*
X125428571Y-43314819D02*
X125333333Y-43267200D01*
X125333333Y-43267200D02*
X125238095Y-43171961D01*
X125238095Y-43171961D02*
X125190476Y-42981485D01*
X125190476Y-42981485D02*
X125190476Y-42648152D01*
X125190476Y-42648152D02*
X125238095Y-42457676D01*
X125238095Y-42457676D02*
X125333333Y-42362438D01*
X125333333Y-42362438D02*
X125428571Y-42314819D01*
X125428571Y-42314819D02*
X125619047Y-42314819D01*
X125619047Y-42314819D02*
X125714285Y-42362438D01*
X125714285Y-42362438D02*
X125809523Y-42457676D01*
X125809523Y-42457676D02*
X125857142Y-42648152D01*
X125857142Y-42648152D02*
X125857142Y-42981485D01*
X125857142Y-42981485D02*
X125809523Y-43171961D01*
X125809523Y-43171961D02*
X125714285Y-43267200D01*
X125714285Y-43267200D02*
X125619047Y-43314819D01*
X125619047Y-43314819D02*
X125428571Y-43314819D01*
X126190476Y-42314819D02*
X126809523Y-42314819D01*
X126809523Y-42314819D02*
X126476190Y-42695771D01*
X126476190Y-42695771D02*
X126619047Y-42695771D01*
X126619047Y-42695771D02*
X126714285Y-42743390D01*
X126714285Y-42743390D02*
X126761904Y-42791009D01*
X126761904Y-42791009D02*
X126809523Y-42886247D01*
X126809523Y-42886247D02*
X126809523Y-43124342D01*
X126809523Y-43124342D02*
X126761904Y-43219580D01*
X126761904Y-43219580D02*
X126714285Y-43267200D01*
X126714285Y-43267200D02*
X126619047Y-43314819D01*
X126619047Y-43314819D02*
X126333333Y-43314819D01*
X126333333Y-43314819D02*
X126238095Y-43267200D01*
X126238095Y-43267200D02*
X126190476Y-43219580D01*
X80904761Y-93410057D02*
X80809523Y-93362438D01*
X80809523Y-93362438D02*
X80714285Y-93267200D01*
X80714285Y-93267200D02*
X80571428Y-93124342D01*
X80571428Y-93124342D02*
X80476190Y-93076723D01*
X80476190Y-93076723D02*
X80380952Y-93076723D01*
X80428571Y-93314819D02*
X80333333Y-93267200D01*
X80333333Y-93267200D02*
X80238095Y-93171961D01*
X80238095Y-93171961D02*
X80190476Y-92981485D01*
X80190476Y-92981485D02*
X80190476Y-92648152D01*
X80190476Y-92648152D02*
X80238095Y-92457676D01*
X80238095Y-92457676D02*
X80333333Y-92362438D01*
X80333333Y-92362438D02*
X80428571Y-92314819D01*
X80428571Y-92314819D02*
X80619047Y-92314819D01*
X80619047Y-92314819D02*
X80714285Y-92362438D01*
X80714285Y-92362438D02*
X80809523Y-92457676D01*
X80809523Y-92457676D02*
X80857142Y-92648152D01*
X80857142Y-92648152D02*
X80857142Y-92981485D01*
X80857142Y-92981485D02*
X80809523Y-93171961D01*
X80809523Y-93171961D02*
X80714285Y-93267200D01*
X80714285Y-93267200D02*
X80619047Y-93314819D01*
X80619047Y-93314819D02*
X80428571Y-93314819D01*
X81714285Y-92314819D02*
X81523809Y-92314819D01*
X81523809Y-92314819D02*
X81428571Y-92362438D01*
X81428571Y-92362438D02*
X81380952Y-92410057D01*
X81380952Y-92410057D02*
X81285714Y-92552914D01*
X81285714Y-92552914D02*
X81238095Y-92743390D01*
X81238095Y-92743390D02*
X81238095Y-93124342D01*
X81238095Y-93124342D02*
X81285714Y-93219580D01*
X81285714Y-93219580D02*
X81333333Y-93267200D01*
X81333333Y-93267200D02*
X81428571Y-93314819D01*
X81428571Y-93314819D02*
X81619047Y-93314819D01*
X81619047Y-93314819D02*
X81714285Y-93267200D01*
X81714285Y-93267200D02*
X81761904Y-93219580D01*
X81761904Y-93219580D02*
X81809523Y-93124342D01*
X81809523Y-93124342D02*
X81809523Y-92886247D01*
X81809523Y-92886247D02*
X81761904Y-92791009D01*
X81761904Y-92791009D02*
X81714285Y-92743390D01*
X81714285Y-92743390D02*
X81619047Y-92695771D01*
X81619047Y-92695771D02*
X81428571Y-92695771D01*
X81428571Y-92695771D02*
X81333333Y-92743390D01*
X81333333Y-92743390D02*
X81285714Y-92791009D01*
X81285714Y-92791009D02*
X81238095Y-92886247D01*
D11*
X111380000Y-58327469D02*
X111140000Y-57984612D01*
X110968571Y-58327469D02*
X110968571Y-57607469D01*
X110968571Y-57607469D02*
X111242857Y-57607469D01*
X111242857Y-57607469D02*
X111311428Y-57641755D01*
X111311428Y-57641755D02*
X111345714Y-57676041D01*
X111345714Y-57676041D02*
X111380000Y-57744612D01*
X111380000Y-57744612D02*
X111380000Y-57847469D01*
X111380000Y-57847469D02*
X111345714Y-57916041D01*
X111345714Y-57916041D02*
X111311428Y-57950326D01*
X111311428Y-57950326D02*
X111242857Y-57984612D01*
X111242857Y-57984612D02*
X110968571Y-57984612D01*
X111620000Y-57607469D02*
X112100000Y-57607469D01*
X112100000Y-57607469D02*
X111791428Y-58327469D01*
X81380000Y-57827469D02*
X81140000Y-57484612D01*
X80968571Y-57827469D02*
X80968571Y-57107469D01*
X80968571Y-57107469D02*
X81242857Y-57107469D01*
X81242857Y-57107469D02*
X81311428Y-57141755D01*
X81311428Y-57141755D02*
X81345714Y-57176041D01*
X81345714Y-57176041D02*
X81380000Y-57244612D01*
X81380000Y-57244612D02*
X81380000Y-57347469D01*
X81380000Y-57347469D02*
X81345714Y-57416041D01*
X81345714Y-57416041D02*
X81311428Y-57450326D01*
X81311428Y-57450326D02*
X81242857Y-57484612D01*
X81242857Y-57484612D02*
X80968571Y-57484612D01*
X81620000Y-57107469D02*
X82065714Y-57107469D01*
X82065714Y-57107469D02*
X81825714Y-57381755D01*
X81825714Y-57381755D02*
X81928571Y-57381755D01*
X81928571Y-57381755D02*
X81997143Y-57416041D01*
X81997143Y-57416041D02*
X82031428Y-57450326D01*
X82031428Y-57450326D02*
X82065714Y-57518898D01*
X82065714Y-57518898D02*
X82065714Y-57690326D01*
X82065714Y-57690326D02*
X82031428Y-57758898D01*
X82031428Y-57758898D02*
X81997143Y-57793184D01*
X81997143Y-57793184D02*
X81928571Y-57827469D01*
X81928571Y-57827469D02*
X81722857Y-57827469D01*
X81722857Y-57827469D02*
X81654285Y-57793184D01*
X81654285Y-57793184D02*
X81620000Y-57758898D01*
D12*
X35563855Y-36547618D02*
X36363855Y-36280951D01*
X36363855Y-36280951D02*
X35563855Y-36014285D01*
X36287664Y-35290475D02*
X36325760Y-35328571D01*
X36325760Y-35328571D02*
X36363855Y-35442856D01*
X36363855Y-35442856D02*
X36363855Y-35519047D01*
X36363855Y-35519047D02*
X36325760Y-35633333D01*
X36325760Y-35633333D02*
X36249569Y-35709523D01*
X36249569Y-35709523D02*
X36173379Y-35747618D01*
X36173379Y-35747618D02*
X36020998Y-35785714D01*
X36020998Y-35785714D02*
X35906712Y-35785714D01*
X35906712Y-35785714D02*
X35754331Y-35747618D01*
X35754331Y-35747618D02*
X35678140Y-35709523D01*
X35678140Y-35709523D02*
X35601950Y-35633333D01*
X35601950Y-35633333D02*
X35563855Y-35519047D01*
X35563855Y-35519047D02*
X35563855Y-35442856D01*
X35563855Y-35442856D02*
X35601950Y-35328571D01*
X35601950Y-35328571D02*
X35640045Y-35290475D01*
X36363855Y-34528571D02*
X36363855Y-34985714D01*
X36363855Y-34757142D02*
X35563855Y-34757142D01*
X35563855Y-34757142D02*
X35678140Y-34833333D01*
X35678140Y-34833333D02*
X35754331Y-34909523D01*
X35754331Y-34909523D02*
X35792426Y-34985714D01*
X91390476Y-44563855D02*
X91847619Y-44563855D01*
X91619047Y-45363855D02*
X91619047Y-44563855D01*
X92533333Y-45363855D02*
X92076190Y-45363855D01*
X92304762Y-45363855D02*
X92304762Y-44563855D01*
X92304762Y-44563855D02*
X92228571Y-44678140D01*
X92228571Y-44678140D02*
X92152381Y-44754331D01*
X92152381Y-44754331D02*
X92076190Y-44792426D01*
D11*
X102880000Y-47827469D02*
X102640000Y-47484612D01*
X102468571Y-47827469D02*
X102468571Y-47107469D01*
X102468571Y-47107469D02*
X102742857Y-47107469D01*
X102742857Y-47107469D02*
X102811428Y-47141755D01*
X102811428Y-47141755D02*
X102845714Y-47176041D01*
X102845714Y-47176041D02*
X102880000Y-47244612D01*
X102880000Y-47244612D02*
X102880000Y-47347469D01*
X102880000Y-47347469D02*
X102845714Y-47416041D01*
X102845714Y-47416041D02*
X102811428Y-47450326D01*
X102811428Y-47450326D02*
X102742857Y-47484612D01*
X102742857Y-47484612D02*
X102468571Y-47484612D01*
X103497143Y-47107469D02*
X103360000Y-47107469D01*
X103360000Y-47107469D02*
X103291428Y-47141755D01*
X103291428Y-47141755D02*
X103257143Y-47176041D01*
X103257143Y-47176041D02*
X103188571Y-47278898D01*
X103188571Y-47278898D02*
X103154285Y-47416041D01*
X103154285Y-47416041D02*
X103154285Y-47690326D01*
X103154285Y-47690326D02*
X103188571Y-47758898D01*
X103188571Y-47758898D02*
X103222857Y-47793184D01*
X103222857Y-47793184D02*
X103291428Y-47827469D01*
X103291428Y-47827469D02*
X103428571Y-47827469D01*
X103428571Y-47827469D02*
X103497143Y-47793184D01*
X103497143Y-47793184D02*
X103531428Y-47758898D01*
X103531428Y-47758898D02*
X103565714Y-47690326D01*
X103565714Y-47690326D02*
X103565714Y-47518898D01*
X103565714Y-47518898D02*
X103531428Y-47450326D01*
X103531428Y-47450326D02*
X103497143Y-47416041D01*
X103497143Y-47416041D02*
X103428571Y-47381755D01*
X103428571Y-47381755D02*
X103291428Y-47381755D01*
X103291428Y-47381755D02*
X103222857Y-47416041D01*
X103222857Y-47416041D02*
X103188571Y-47450326D01*
X103188571Y-47450326D02*
X103154285Y-47518898D01*
D10*
X81404761Y-43410057D02*
X81309523Y-43362438D01*
X81309523Y-43362438D02*
X81214285Y-43267200D01*
X81214285Y-43267200D02*
X81071428Y-43124342D01*
X81071428Y-43124342D02*
X80976190Y-43076723D01*
X80976190Y-43076723D02*
X80880952Y-43076723D01*
X80928571Y-43314819D02*
X80833333Y-43267200D01*
X80833333Y-43267200D02*
X80738095Y-43171961D01*
X80738095Y-43171961D02*
X80690476Y-42981485D01*
X80690476Y-42981485D02*
X80690476Y-42648152D01*
X80690476Y-42648152D02*
X80738095Y-42457676D01*
X80738095Y-42457676D02*
X80833333Y-42362438D01*
X80833333Y-42362438D02*
X80928571Y-42314819D01*
X80928571Y-42314819D02*
X81119047Y-42314819D01*
X81119047Y-42314819D02*
X81214285Y-42362438D01*
X81214285Y-42362438D02*
X81309523Y-42457676D01*
X81309523Y-42457676D02*
X81357142Y-42648152D01*
X81357142Y-42648152D02*
X81357142Y-42981485D01*
X81357142Y-42981485D02*
X81309523Y-43171961D01*
X81309523Y-43171961D02*
X81214285Y-43267200D01*
X81214285Y-43267200D02*
X81119047Y-43314819D01*
X81119047Y-43314819D02*
X80928571Y-43314819D01*
X82309523Y-43314819D02*
X81738095Y-43314819D01*
X82023809Y-43314819D02*
X82023809Y-42314819D01*
X82023809Y-42314819D02*
X81928571Y-42457676D01*
X81928571Y-42457676D02*
X81833333Y-42552914D01*
X81833333Y-42552914D02*
X81738095Y-42600533D01*
X118701666Y-88454819D02*
X118701666Y-89169104D01*
X118701666Y-89169104D02*
X118654047Y-89311961D01*
X118654047Y-89311961D02*
X118558809Y-89407200D01*
X118558809Y-89407200D02*
X118415952Y-89454819D01*
X118415952Y-89454819D02*
X118320714Y-89454819D01*
X119701666Y-89454819D02*
X119130238Y-89454819D01*
X119415952Y-89454819D02*
X119415952Y-88454819D01*
X119415952Y-88454819D02*
X119320714Y-88597676D01*
X119320714Y-88597676D02*
X119225476Y-88692914D01*
X119225476Y-88692914D02*
X119130238Y-88740533D01*
D12*
X70866666Y-45363855D02*
X70485714Y-45363855D01*
X70485714Y-45363855D02*
X70485714Y-44563855D01*
X71095237Y-44640045D02*
X71133333Y-44601950D01*
X71133333Y-44601950D02*
X71209523Y-44563855D01*
X71209523Y-44563855D02*
X71399999Y-44563855D01*
X71399999Y-44563855D02*
X71476190Y-44601950D01*
X71476190Y-44601950D02*
X71514285Y-44640045D01*
X71514285Y-44640045D02*
X71552380Y-44716236D01*
X71552380Y-44716236D02*
X71552380Y-44792426D01*
X71552380Y-44792426D02*
X71514285Y-44906712D01*
X71514285Y-44906712D02*
X71057142Y-45363855D01*
X71057142Y-45363855D02*
X71552380Y-45363855D01*
D10*
X75359580Y-93642857D02*
X75407200Y-93690476D01*
X75407200Y-93690476D02*
X75454819Y-93833333D01*
X75454819Y-93833333D02*
X75454819Y-93928571D01*
X75454819Y-93928571D02*
X75407200Y-94071428D01*
X75407200Y-94071428D02*
X75311961Y-94166666D01*
X75311961Y-94166666D02*
X75216723Y-94214285D01*
X75216723Y-94214285D02*
X75026247Y-94261904D01*
X75026247Y-94261904D02*
X74883390Y-94261904D01*
X74883390Y-94261904D02*
X74692914Y-94214285D01*
X74692914Y-94214285D02*
X74597676Y-94166666D01*
X74597676Y-94166666D02*
X74502438Y-94071428D01*
X74502438Y-94071428D02*
X74454819Y-93928571D01*
X74454819Y-93928571D02*
X74454819Y-93833333D01*
X74454819Y-93833333D02*
X74502438Y-93690476D01*
X74502438Y-93690476D02*
X74550057Y-93642857D01*
X75454819Y-92690476D02*
X75454819Y-93261904D01*
X75454819Y-92976190D02*
X74454819Y-92976190D01*
X74454819Y-92976190D02*
X74597676Y-93071428D01*
X74597676Y-93071428D02*
X74692914Y-93166666D01*
X74692914Y-93166666D02*
X74740533Y-93261904D01*
X75454819Y-91738095D02*
X75454819Y-92309523D01*
X75454819Y-92023809D02*
X74454819Y-92023809D01*
X74454819Y-92023809D02*
X74597676Y-92119047D01*
X74597676Y-92119047D02*
X74692914Y-92214285D01*
X74692914Y-92214285D02*
X74740533Y-92309523D01*
X96357142Y-66859580D02*
X96309523Y-66907200D01*
X96309523Y-66907200D02*
X96166666Y-66954819D01*
X96166666Y-66954819D02*
X96071428Y-66954819D01*
X96071428Y-66954819D02*
X95928571Y-66907200D01*
X95928571Y-66907200D02*
X95833333Y-66811961D01*
X95833333Y-66811961D02*
X95785714Y-66716723D01*
X95785714Y-66716723D02*
X95738095Y-66526247D01*
X95738095Y-66526247D02*
X95738095Y-66383390D01*
X95738095Y-66383390D02*
X95785714Y-66192914D01*
X95785714Y-66192914D02*
X95833333Y-66097676D01*
X95833333Y-66097676D02*
X95928571Y-66002438D01*
X95928571Y-66002438D02*
X96071428Y-65954819D01*
X96071428Y-65954819D02*
X96166666Y-65954819D01*
X96166666Y-65954819D02*
X96309523Y-66002438D01*
X96309523Y-66002438D02*
X96357142Y-66050057D01*
X97309523Y-66954819D02*
X96738095Y-66954819D01*
X97023809Y-66954819D02*
X97023809Y-65954819D01*
X97023809Y-65954819D02*
X96928571Y-66097676D01*
X96928571Y-66097676D02*
X96833333Y-66192914D01*
X96833333Y-66192914D02*
X96738095Y-66240533D01*
X97928571Y-65954819D02*
X98023809Y-65954819D01*
X98023809Y-65954819D02*
X98119047Y-66002438D01*
X98119047Y-66002438D02*
X98166666Y-66050057D01*
X98166666Y-66050057D02*
X98214285Y-66145295D01*
X98214285Y-66145295D02*
X98261904Y-66335771D01*
X98261904Y-66335771D02*
X98261904Y-66573866D01*
X98261904Y-66573866D02*
X98214285Y-66764342D01*
X98214285Y-66764342D02*
X98166666Y-66859580D01*
X98166666Y-66859580D02*
X98119047Y-66907200D01*
X98119047Y-66907200D02*
X98023809Y-66954819D01*
X98023809Y-66954819D02*
X97928571Y-66954819D01*
X97928571Y-66954819D02*
X97833333Y-66907200D01*
X97833333Y-66907200D02*
X97785714Y-66859580D01*
X97785714Y-66859580D02*
X97738095Y-66764342D01*
X97738095Y-66764342D02*
X97690476Y-66573866D01*
X97690476Y-66573866D02*
X97690476Y-66335771D01*
X97690476Y-66335771D02*
X97738095Y-66145295D01*
X97738095Y-66145295D02*
X97785714Y-66050057D01*
X97785714Y-66050057D02*
X97833333Y-66002438D01*
X97833333Y-66002438D02*
X97928571Y-65954819D01*
X111333333Y-54859580D02*
X111285714Y-54907200D01*
X111285714Y-54907200D02*
X111142857Y-54954819D01*
X111142857Y-54954819D02*
X111047619Y-54954819D01*
X111047619Y-54954819D02*
X110904762Y-54907200D01*
X110904762Y-54907200D02*
X110809524Y-54811961D01*
X110809524Y-54811961D02*
X110761905Y-54716723D01*
X110761905Y-54716723D02*
X110714286Y-54526247D01*
X110714286Y-54526247D02*
X110714286Y-54383390D01*
X110714286Y-54383390D02*
X110761905Y-54192914D01*
X110761905Y-54192914D02*
X110809524Y-54097676D01*
X110809524Y-54097676D02*
X110904762Y-54002438D01*
X110904762Y-54002438D02*
X111047619Y-53954819D01*
X111047619Y-53954819D02*
X111142857Y-53954819D01*
X111142857Y-53954819D02*
X111285714Y-54002438D01*
X111285714Y-54002438D02*
X111333333Y-54050057D01*
X112238095Y-53954819D02*
X111761905Y-53954819D01*
X111761905Y-53954819D02*
X111714286Y-54431009D01*
X111714286Y-54431009D02*
X111761905Y-54383390D01*
X111761905Y-54383390D02*
X111857143Y-54335771D01*
X111857143Y-54335771D02*
X112095238Y-54335771D01*
X112095238Y-54335771D02*
X112190476Y-54383390D01*
X112190476Y-54383390D02*
X112238095Y-54431009D01*
X112238095Y-54431009D02*
X112285714Y-54526247D01*
X112285714Y-54526247D02*
X112285714Y-54764342D01*
X112285714Y-54764342D02*
X112238095Y-54859580D01*
X112238095Y-54859580D02*
X112190476Y-54907200D01*
X112190476Y-54907200D02*
X112095238Y-54954819D01*
X112095238Y-54954819D02*
X111857143Y-54954819D01*
X111857143Y-54954819D02*
X111761905Y-54907200D01*
X111761905Y-54907200D02*
X111714286Y-54859580D01*
X123414700Y-30343332D02*
X123462319Y-30200475D01*
X123462319Y-30200475D02*
X123462319Y-29962380D01*
X123462319Y-29962380D02*
X123414700Y-29867142D01*
X123414700Y-29867142D02*
X123367080Y-29819523D01*
X123367080Y-29819523D02*
X123271842Y-29771904D01*
X123271842Y-29771904D02*
X123176604Y-29771904D01*
X123176604Y-29771904D02*
X123081366Y-29819523D01*
X123081366Y-29819523D02*
X123033747Y-29867142D01*
X123033747Y-29867142D02*
X122986128Y-29962380D01*
X122986128Y-29962380D02*
X122938509Y-30152856D01*
X122938509Y-30152856D02*
X122890890Y-30248094D01*
X122890890Y-30248094D02*
X122843271Y-30295713D01*
X122843271Y-30295713D02*
X122748033Y-30343332D01*
X122748033Y-30343332D02*
X122652795Y-30343332D01*
X122652795Y-30343332D02*
X122557557Y-30295713D01*
X122557557Y-30295713D02*
X122509938Y-30248094D01*
X122509938Y-30248094D02*
X122462319Y-30152856D01*
X122462319Y-30152856D02*
X122462319Y-29914761D01*
X122462319Y-29914761D02*
X122509938Y-29771904D01*
X122462319Y-29438570D02*
X123462319Y-29200475D01*
X123462319Y-29200475D02*
X122748033Y-29009999D01*
X122748033Y-29009999D02*
X123462319Y-28819523D01*
X123462319Y-28819523D02*
X122462319Y-28581428D01*
X123462319Y-27676666D02*
X123462319Y-28248094D01*
X123462319Y-27962380D02*
X122462319Y-27962380D01*
X122462319Y-27962380D02*
X122605176Y-28057618D01*
X122605176Y-28057618D02*
X122700414Y-28152856D01*
X122700414Y-28152856D02*
X122748033Y-28248094D01*
X44731009Y-74585714D02*
X44778628Y-74442857D01*
X44778628Y-74442857D02*
X44826247Y-74395238D01*
X44826247Y-74395238D02*
X44921485Y-74347619D01*
X44921485Y-74347619D02*
X45064342Y-74347619D01*
X45064342Y-74347619D02*
X45159580Y-74395238D01*
X45159580Y-74395238D02*
X45207200Y-74442857D01*
X45207200Y-74442857D02*
X45254819Y-74538095D01*
X45254819Y-74538095D02*
X45254819Y-74919047D01*
X45254819Y-74919047D02*
X44254819Y-74919047D01*
X44254819Y-74919047D02*
X44254819Y-74585714D01*
X44254819Y-74585714D02*
X44302438Y-74490476D01*
X44302438Y-74490476D02*
X44350057Y-74442857D01*
X44350057Y-74442857D02*
X44445295Y-74395238D01*
X44445295Y-74395238D02*
X44540533Y-74395238D01*
X44540533Y-74395238D02*
X44635771Y-74442857D01*
X44635771Y-74442857D02*
X44683390Y-74490476D01*
X44683390Y-74490476D02*
X44731009Y-74585714D01*
X44731009Y-74585714D02*
X44731009Y-74919047D01*
X44254819Y-74061904D02*
X44254819Y-73490476D01*
X45254819Y-73776190D02*
X44254819Y-73776190D01*
X45254819Y-72633333D02*
X45254819Y-73204761D01*
X45254819Y-72919047D02*
X44254819Y-72919047D01*
X44254819Y-72919047D02*
X44397676Y-73014285D01*
X44397676Y-73014285D02*
X44492914Y-73109523D01*
X44492914Y-73109523D02*
X44540533Y-73204761D01*
X126938095Y-101154819D02*
X126938095Y-100154819D01*
X126938095Y-100631009D02*
X127509523Y-100631009D01*
X127509523Y-101154819D02*
X127509523Y-100154819D01*
X128414285Y-100488152D02*
X128414285Y-101154819D01*
X128176190Y-100107200D02*
X127938095Y-100821485D01*
X127938095Y-100821485D02*
X128557142Y-100821485D01*
D11*
X125380000Y-47827469D02*
X125140000Y-47484612D01*
X124968571Y-47827469D02*
X124968571Y-47107469D01*
X124968571Y-47107469D02*
X125242857Y-47107469D01*
X125242857Y-47107469D02*
X125311428Y-47141755D01*
X125311428Y-47141755D02*
X125345714Y-47176041D01*
X125345714Y-47176041D02*
X125380000Y-47244612D01*
X125380000Y-47244612D02*
X125380000Y-47347469D01*
X125380000Y-47347469D02*
X125345714Y-47416041D01*
X125345714Y-47416041D02*
X125311428Y-47450326D01*
X125311428Y-47450326D02*
X125242857Y-47484612D01*
X125242857Y-47484612D02*
X124968571Y-47484612D01*
X125722857Y-47827469D02*
X125860000Y-47827469D01*
X125860000Y-47827469D02*
X125928571Y-47793184D01*
X125928571Y-47793184D02*
X125962857Y-47758898D01*
X125962857Y-47758898D02*
X126031428Y-47656041D01*
X126031428Y-47656041D02*
X126065714Y-47518898D01*
X126065714Y-47518898D02*
X126065714Y-47244612D01*
X126065714Y-47244612D02*
X126031428Y-47176041D01*
X126031428Y-47176041D02*
X125997143Y-47141755D01*
X125997143Y-47141755D02*
X125928571Y-47107469D01*
X125928571Y-47107469D02*
X125791428Y-47107469D01*
X125791428Y-47107469D02*
X125722857Y-47141755D01*
X125722857Y-47141755D02*
X125688571Y-47176041D01*
X125688571Y-47176041D02*
X125654285Y-47244612D01*
X125654285Y-47244612D02*
X125654285Y-47416041D01*
X125654285Y-47416041D02*
X125688571Y-47484612D01*
X125688571Y-47484612D02*
X125722857Y-47518898D01*
X125722857Y-47518898D02*
X125791428Y-47553184D01*
X125791428Y-47553184D02*
X125928571Y-47553184D01*
X125928571Y-47553184D02*
X125997143Y-47518898D01*
X125997143Y-47518898D02*
X126031428Y-47484612D01*
X126031428Y-47484612D02*
X126065714Y-47416041D01*
X89380000Y-54327469D02*
X89140000Y-53984612D01*
X88968571Y-54327469D02*
X88968571Y-53607469D01*
X88968571Y-53607469D02*
X89242857Y-53607469D01*
X89242857Y-53607469D02*
X89311428Y-53641755D01*
X89311428Y-53641755D02*
X89345714Y-53676041D01*
X89345714Y-53676041D02*
X89380000Y-53744612D01*
X89380000Y-53744612D02*
X89380000Y-53847469D01*
X89380000Y-53847469D02*
X89345714Y-53916041D01*
X89345714Y-53916041D02*
X89311428Y-53950326D01*
X89311428Y-53950326D02*
X89242857Y-53984612D01*
X89242857Y-53984612D02*
X88968571Y-53984612D01*
X89997143Y-53847469D02*
X89997143Y-54327469D01*
X89825714Y-53573184D02*
X89654285Y-54087469D01*
X89654285Y-54087469D02*
X90100000Y-54087469D01*
X79037143Y-98827469D02*
X78797143Y-98484612D01*
X78625714Y-98827469D02*
X78625714Y-98107469D01*
X78625714Y-98107469D02*
X78900000Y-98107469D01*
X78900000Y-98107469D02*
X78968571Y-98141755D01*
X78968571Y-98141755D02*
X79002857Y-98176041D01*
X79002857Y-98176041D02*
X79037143Y-98244612D01*
X79037143Y-98244612D02*
X79037143Y-98347469D01*
X79037143Y-98347469D02*
X79002857Y-98416041D01*
X79002857Y-98416041D02*
X78968571Y-98450326D01*
X78968571Y-98450326D02*
X78900000Y-98484612D01*
X78900000Y-98484612D02*
X78625714Y-98484612D01*
X79722857Y-98827469D02*
X79311428Y-98827469D01*
X79517143Y-98827469D02*
X79517143Y-98107469D01*
X79517143Y-98107469D02*
X79448571Y-98210326D01*
X79448571Y-98210326D02*
X79380000Y-98278898D01*
X79380000Y-98278898D02*
X79311428Y-98313184D01*
X80374285Y-98107469D02*
X80031428Y-98107469D01*
X80031428Y-98107469D02*
X79997142Y-98450326D01*
X79997142Y-98450326D02*
X80031428Y-98416041D01*
X80031428Y-98416041D02*
X80100000Y-98381755D01*
X80100000Y-98381755D02*
X80271428Y-98381755D01*
X80271428Y-98381755D02*
X80340000Y-98416041D01*
X80340000Y-98416041D02*
X80374285Y-98450326D01*
X80374285Y-98450326D02*
X80408571Y-98518898D01*
X80408571Y-98518898D02*
X80408571Y-98690326D01*
X80408571Y-98690326D02*
X80374285Y-98758898D01*
X80374285Y-98758898D02*
X80340000Y-98793184D01*
X80340000Y-98793184D02*
X80271428Y-98827469D01*
X80271428Y-98827469D02*
X80100000Y-98827469D01*
X80100000Y-98827469D02*
X80031428Y-98793184D01*
X80031428Y-98793184D02*
X79997142Y-98758898D01*
%TO.C,C7*%
D13*
X107500000Y-69750000D02*
X112500000Y-69750000D01*
X112500000Y-72250000D01*
X107500000Y-72250000D01*
X107500000Y-69750000D01*
%TO.C,R1*%
X78960000Y-47000000D02*
X79700000Y-47000000D01*
X84040000Y-47000000D02*
X83300000Y-47000000D01*
X79700000Y-46200000D02*
X83300000Y-46200000D01*
X83300000Y-47800000D01*
X79700000Y-47800000D01*
X79700000Y-46200000D01*
%TO.C,RV1*%
X116500000Y-71650000D02*
X128500000Y-71650000D01*
X128500000Y-81350000D01*
X116500000Y-81350000D01*
X116500000Y-71650000D01*
X125500000Y-76500000D02*
G75*
G02*
X119500000Y-76500000I-3000000J0D01*
G01*
X119500000Y-76500000D02*
G75*
G02*
X125500000Y-76500000I3000000J0D01*
G01*
%TO.C,Q2*%
X101730000Y-44610000D02*
X105230000Y-44610000D01*
X101746375Y-44613625D02*
G75*
G02*
X103500000Y-40380000I1753625J1753625D01*
G01*
X103500000Y-40380000D02*
G75*
G02*
X105253625Y-44613625I0J-2480000D01*
G01*
%TO.C,L1*%
X54000000Y-24500000D02*
X112000000Y-24500000D01*
X112000000Y-34500000D01*
X54000000Y-34500000D01*
X54000000Y-24500000D01*
%TO.C,C13*%
X65865141Y-53412500D02*
X66365141Y-53412500D01*
X66115141Y-53162500D02*
X66115141Y-53662500D01*
X70498746Y-54500000D02*
G75*
G02*
X65498746Y-54500000I-2500000J0D01*
G01*
X65498746Y-54500000D02*
G75*
G02*
X70498746Y-54500000I2500000J0D01*
G01*
%TO.C,C3*%
X94365141Y-53912500D02*
X94865141Y-53912500D01*
X94615141Y-53662500D02*
X94615141Y-54162500D01*
X98998746Y-55000000D02*
G75*
G02*
X93998746Y-55000000I-2500000J0D01*
G01*
X93998746Y-55000000D02*
G75*
G02*
X98998746Y-55000000I2500000J0D01*
G01*
%TO.C,R14*%
X69460000Y-98500000D02*
X70200000Y-98500000D01*
X74540000Y-98500000D02*
X73800000Y-98500000D01*
X70200000Y-97700000D02*
X73800000Y-97700000D01*
X73800000Y-99300000D01*
X70200000Y-99300000D01*
X70200000Y-97700000D01*
%TO.C,R12*%
X94460000Y-78500000D02*
X95200000Y-78500000D01*
X99540000Y-78500000D02*
X98800000Y-78500000D01*
X95200000Y-77700000D02*
X98800000Y-77700000D01*
X98800000Y-79300000D01*
X95200000Y-79300000D01*
X95200000Y-77700000D01*
%TO.C,C12*%
X114365141Y-28412500D02*
X114865141Y-28412500D01*
X114615141Y-28162500D02*
X114615141Y-28662500D01*
X118998746Y-29500000D02*
G75*
G02*
X113998746Y-29500000I-2500000J0D01*
G01*
X113998746Y-29500000D02*
G75*
G02*
X118998746Y-29500000I2500000J0D01*
G01*
%TO.C,R16*%
X72500000Y-51960000D02*
X72500000Y-52700000D01*
X72500000Y-57040000D02*
X72500000Y-56300000D01*
X71700000Y-56300000D02*
X73300000Y-56300000D01*
X73300000Y-52700000D01*
X71700000Y-52700000D01*
X71700000Y-56300000D01*
%TO.C,R8*%
X108960000Y-61500000D02*
X109700000Y-61500000D01*
X114040000Y-61500000D02*
X113300000Y-61500000D01*
X109700000Y-60700000D02*
X113300000Y-60700000D01*
X113300000Y-62300000D01*
X109700000Y-62300000D01*
X109700000Y-60700000D01*
%TO.C,C6*%
X123000000Y-49750000D02*
X128000000Y-49750000D01*
X128000000Y-52250000D01*
X123000000Y-52250000D01*
X123000000Y-49750000D01*
%TO.C,C4*%
X100500000Y-49750000D02*
X105500000Y-49750000D01*
X105500000Y-52250000D01*
X100500000Y-52250000D01*
X100500000Y-49750000D01*
%TO.C,Q4*%
X95730000Y-76610000D02*
X99230000Y-76610000D01*
X95746375Y-76613625D02*
G75*
G02*
X97500000Y-72380000I1753625J1753625D01*
G01*
X97500000Y-72380000D02*
G75*
G02*
X99253625Y-76613625I0J-2480000D01*
G01*
%TO.C,C8*%
X102161246Y-76383605D02*
X102661246Y-76383605D01*
X102411246Y-76633605D02*
X102411246Y-76133605D01*
X105998746Y-74500000D02*
G75*
G02*
X100998746Y-74500000I-2500000J0D01*
G01*
X100998746Y-74500000D02*
G75*
G02*
X105998746Y-74500000I2500000J0D01*
G01*
%TO.C,T4*%
X84850000Y-63050000D02*
X81850000Y-63050000D01*
X84850000Y-63050000D02*
X84850000Y-66050000D01*
X84850000Y-63050000D02*
X66550000Y-63050000D01*
X66550000Y-87950000D01*
X84850000Y-87950000D01*
X84850000Y-63050000D01*
%TO.C,R11*%
X94460000Y-70000000D02*
X95200000Y-70000000D01*
X99540000Y-70000000D02*
X98800000Y-70000000D01*
X95200000Y-69200000D02*
X98800000Y-69200000D01*
X98800000Y-70800000D01*
X95200000Y-70800000D01*
X95200000Y-69200000D01*
%TO.C,C9*%
X107865141Y-75412500D02*
X108365141Y-75412500D01*
X108115141Y-75162500D02*
X108115141Y-75662500D01*
X112498746Y-76500000D02*
G75*
G02*
X107498746Y-76500000I-2500000J0D01*
G01*
X107498746Y-76500000D02*
G75*
G02*
X112498746Y-76500000I2500000J0D01*
G01*
%TO.C,T3*%
X118420000Y-58000000D02*
X120500000Y-55920000D01*
X118420000Y-55920000D02*
X128580000Y-55920000D01*
X128580000Y-66080000D01*
X118420000Y-66080000D01*
X118420000Y-55920000D01*
%TO.C,C1*%
X74750000Y-57000000D02*
X77250000Y-57000000D01*
X77250000Y-52000000D01*
X74750000Y-52000000D01*
X74750000Y-57000000D01*
%TO.C,R13*%
X92000000Y-74460000D02*
X92000000Y-75200000D01*
X92000000Y-79540000D02*
X92000000Y-78800000D01*
X91200000Y-78800000D02*
X92800000Y-78800000D01*
X92800000Y-75200000D01*
X91200000Y-75200000D01*
X91200000Y-78800000D01*
%TO.C,Q5*%
X67230000Y-94610000D02*
X70730000Y-94610000D01*
X67246375Y-94613625D02*
G75*
G02*
X69000000Y-90380000I1753625J1753625D01*
G01*
X69000000Y-90380000D02*
G75*
G02*
X70753625Y-94613625I0J-2480000D01*
G01*
%TO.C,C2*%
X79000000Y-52750000D02*
X84000000Y-52750000D01*
X84000000Y-55250000D01*
X79000000Y-55250000D01*
X79000000Y-52750000D01*
%TO.C,R2*%
X78960000Y-50500000D02*
X79700000Y-50500000D01*
X84040000Y-50500000D02*
X83300000Y-50500000D01*
X79700000Y-49700000D02*
X83300000Y-49700000D01*
X83300000Y-51300000D01*
X79700000Y-51300000D01*
X79700000Y-49700000D01*
%TO.C,R5*%
X86960000Y-57500000D02*
X87700000Y-57500000D01*
X92040000Y-57500000D02*
X91300000Y-57500000D01*
X87700000Y-56700000D02*
X91300000Y-56700000D01*
X91300000Y-58300000D01*
X87700000Y-58300000D01*
X87700000Y-56700000D01*
%TO.C,T2*%
X109420000Y-42000000D02*
X111500000Y-39920000D01*
X109420000Y-39920000D02*
X119580000Y-39920000D01*
X119580000Y-50080000D01*
X109420000Y-50080000D01*
X109420000Y-39920000D01*
%TO.C,D1*%
X103920000Y-67500000D02*
X107000000Y-67500000D01*
X107500000Y-66500000D02*
X107500000Y-68500000D01*
X107600000Y-66500000D02*
X107600000Y-68500000D01*
X107700000Y-66500000D02*
X107700000Y-68500000D01*
X114080000Y-67500000D02*
X111000000Y-67500000D01*
X107000000Y-66500000D02*
X111000000Y-66500000D01*
X111000000Y-68500000D01*
X107000000Y-68500000D01*
X107000000Y-66500000D01*
%TO.C,Q3*%
X124230000Y-44610000D02*
X127730000Y-44610000D01*
X124246375Y-44613625D02*
G75*
G02*
X126000000Y-40380000I1753625J1753625D01*
G01*
X126000000Y-40380000D02*
G75*
G02*
X127753625Y-44613625I0J-2480000D01*
G01*
%TO.C,Q6*%
X79230000Y-94610000D02*
X82730000Y-94610000D01*
X79246375Y-94613625D02*
G75*
G02*
X81000000Y-90380000I1753625J1753625D01*
G01*
X81000000Y-90380000D02*
G75*
G02*
X82753625Y-94613625I0J-2480000D01*
G01*
%TO.C,R7*%
X108960000Y-58000000D02*
X109700000Y-58000000D01*
X114040000Y-58000000D02*
X113300000Y-58000000D01*
X109700000Y-57200000D02*
X113300000Y-57200000D01*
X113300000Y-58800000D01*
X109700000Y-58800000D01*
X109700000Y-57200000D01*
%TO.C,R3*%
X78960000Y-57500000D02*
X79700000Y-57500000D01*
X84040000Y-57500000D02*
X83300000Y-57500000D01*
X79700000Y-56700000D02*
X83300000Y-56700000D01*
X83300000Y-58300000D01*
X79700000Y-58300000D01*
X79700000Y-56700000D01*
%TO.C,VC1*%
X26000000Y-45500000D02*
X46000000Y-45500000D01*
X46000000Y-25500000D01*
X26000000Y-25500000D01*
X26000000Y-45500000D01*
X39000000Y-35500000D02*
G75*
G02*
X33000000Y-35500000I-3000000J0D01*
G01*
X33000000Y-35500000D02*
G75*
G02*
X39000000Y-35500000I3000000J0D01*
G01*
%TO.C,T1*%
X86920000Y-42000000D02*
X89000000Y-39920000D01*
X86920000Y-39920000D02*
X97080000Y-39920000D01*
X97080000Y-50080000D01*
X86920000Y-50080000D01*
X86920000Y-39920000D01*
%TO.C,R6*%
X100460000Y-47500000D02*
X101200000Y-47500000D01*
X105540000Y-47500000D02*
X104800000Y-47500000D01*
X101200000Y-46700000D02*
X104800000Y-46700000D01*
X104800000Y-48300000D01*
X101200000Y-48300000D01*
X101200000Y-46700000D01*
%TO.C,Q1*%
X79730000Y-44610000D02*
X83230000Y-44610000D01*
X79746375Y-44613625D02*
G75*
G02*
X81500000Y-40380000I1753625J1753625D01*
G01*
X81500000Y-40380000D02*
G75*
G02*
X83253625Y-44613625I0J-2480000D01*
G01*
%TO.C,J1*%
X113955000Y-87830000D02*
X113955000Y-84780000D01*
X113955000Y-87830000D02*
X124145000Y-87830000D01*
X113955000Y-90360000D02*
X113955000Y-87830000D01*
X113955000Y-90360000D02*
X114895000Y-90360000D01*
X113955000Y-97220000D02*
X113955000Y-90360000D01*
X113955000Y-97220000D02*
X114515000Y-97220000D01*
X114515000Y-87570000D02*
X114515000Y-85030000D01*
X114515000Y-90750000D02*
X114515000Y-95320000D01*
X114515000Y-90750000D02*
X114895000Y-90750000D01*
X114515000Y-95320000D02*
X114515000Y-97220000D01*
X114515000Y-97220000D02*
X118575000Y-97220000D01*
X114895000Y-90360000D02*
X118195000Y-90360000D01*
X114895000Y-91510000D02*
X115275000Y-91510000D01*
X114895000Y-94680000D02*
X114895000Y-91510000D01*
X114915000Y-86550000D02*
X117975000Y-85920000D01*
X115045000Y-86680000D02*
X118095000Y-86050000D01*
X115275000Y-90750000D02*
X117815000Y-90750000D01*
X115275000Y-93540000D02*
X115275000Y-90750000D01*
X115275000Y-93540000D02*
X117815000Y-93540000D01*
X117815000Y-93540000D02*
X117815000Y-90750000D01*
X118195000Y-90360000D02*
X119895000Y-90360000D01*
X118195000Y-90750000D02*
X114895000Y-90750000D01*
X118195000Y-91510000D02*
X117815000Y-91510000D01*
X118195000Y-94680000D02*
X114895000Y-94680000D01*
X118195000Y-94680000D02*
X118195000Y-91510000D01*
X118575000Y-85030000D02*
X114515000Y-85030000D01*
X118575000Y-87570000D02*
X114515000Y-87570000D01*
X118575000Y-87570000D02*
X118575000Y-85030000D01*
X118575000Y-90750000D02*
X118195000Y-90750000D01*
X118575000Y-95320000D02*
X114515000Y-95320000D01*
X118575000Y-95320000D02*
X118575000Y-90750000D01*
X118575000Y-97220000D02*
X118575000Y-95320000D01*
X118575000Y-97220000D02*
X119515000Y-97220000D01*
X119515000Y-85030000D02*
X123585000Y-85030000D01*
X119515000Y-87570000D02*
X119515000Y-85030000D01*
X119515000Y-90750000D02*
X119895000Y-90750000D01*
X119515000Y-95320000D02*
X119515000Y-90750000D01*
X119515000Y-95320000D02*
X123585000Y-95320000D01*
X119515000Y-97220000D02*
X119515000Y-95320000D01*
X119515000Y-97220000D02*
X123585000Y-97220000D01*
X119895000Y-90750000D02*
X123205000Y-90750000D01*
X119895000Y-91510000D02*
X120275000Y-91510000D01*
X119895000Y-94680000D02*
X119895000Y-91510000D01*
X119925000Y-86550000D02*
X122975000Y-85920000D01*
X120055000Y-86680000D02*
X123095000Y-86050000D01*
X120275000Y-90750000D02*
X122815000Y-90750000D01*
X120275000Y-93540000D02*
X120275000Y-90750000D01*
X120275000Y-93540000D02*
X122815000Y-93540000D01*
X122815000Y-93540000D02*
X122815000Y-90750000D01*
X123205000Y-90360000D02*
X119895000Y-90360000D01*
X123205000Y-91510000D02*
X122815000Y-91510000D01*
X123205000Y-94680000D02*
X119895000Y-94680000D01*
X123205000Y-94680000D02*
X123205000Y-91510000D01*
X123585000Y-85030000D02*
X123585000Y-87570000D01*
X123585000Y-87570000D02*
X119515000Y-87570000D01*
X123585000Y-90750000D02*
X123205000Y-90750000D01*
X123585000Y-90750000D02*
X123585000Y-95320000D01*
X123585000Y-95320000D02*
X123585000Y-97220000D01*
X123585000Y-97220000D02*
X124145000Y-97220000D01*
X124145000Y-84780000D02*
X113955000Y-84780000D01*
X124145000Y-84780000D02*
X124145000Y-87830000D01*
X124145000Y-84780000D02*
X124645000Y-84780000D01*
X124145000Y-87830000D02*
X124145000Y-89350000D01*
X124145000Y-89350000D02*
X124145000Y-90360000D01*
X124145000Y-90360000D02*
X123205000Y-90360000D01*
X124145000Y-90360000D02*
X124145000Y-95060000D01*
X124145000Y-95060000D02*
X124145000Y-96210000D01*
X124145000Y-96210000D02*
X124145000Y-97220000D01*
X124645000Y-84780000D02*
X124645000Y-89600000D01*
X124645000Y-89600000D02*
X124145000Y-89350000D01*
X124645000Y-94810000D02*
X124145000Y-95060000D01*
X124645000Y-94810000D02*
X124645000Y-96460000D01*
X124645000Y-96460000D02*
X124145000Y-96210000D01*
X114915000Y-86000000D02*
G75*
G02*
X118074976Y-85928466I1610000J-1289999D01*
G01*
X115115000Y-86870000D02*
G75*
G02*
X114972028Y-85941301I290001J520000D01*
G01*
X118065000Y-85950000D02*
G75*
G02*
X118020619Y-86913995I-500000J-460000D01*
G01*
X118065000Y-86880000D02*
G75*
G02*
X115075171Y-86841418I-1470000J1950000D01*
G01*
X119925000Y-86000000D02*
G75*
G02*
X123073239Y-85938314I1600000J-1290000D01*
G01*
X120115000Y-86870000D02*
G75*
G02*
X119972028Y-85941301I290000J520000D01*
G01*
X123065000Y-86880000D02*
G75*
G02*
X120082667Y-86831737I-1460000J1950000D01*
G01*
X123075000Y-85950000D02*
G75*
G02*
X123020532Y-86923995I-510000J-460000D01*
G01*
%TO.C,L2*%
X65920000Y-42000000D02*
X68000000Y-39920000D01*
X65920000Y-39920000D02*
X76080000Y-39920000D01*
X76080000Y-50080000D01*
X65920000Y-50080000D01*
X65920000Y-39920000D01*
%TO.C,T5*%
X87450000Y-83150000D02*
X87450000Y-86150000D01*
X87450000Y-83150000D02*
X90450000Y-83150000D01*
X87450000Y-83150000D02*
X112350000Y-83150000D01*
X112350000Y-101450000D01*
X87450000Y-101450000D01*
X87450000Y-83150000D01*
%TO.C,C11*%
X73750000Y-95500000D02*
X76250000Y-95500000D01*
X76250000Y-90500000D01*
X73750000Y-90500000D01*
X73750000Y-95500000D01*
%TO.C,C10*%
X94500000Y-65250000D02*
X99500000Y-65250000D01*
X99500000Y-67750000D01*
X94500000Y-67750000D01*
X94500000Y-65250000D01*
%TO.C,C5*%
X109000000Y-53250000D02*
X114000000Y-53250000D01*
X114000000Y-55750000D01*
X109000000Y-55750000D01*
X109000000Y-53250000D01*
%TO.C,SW1*%
X123847500Y-26700000D02*
X128147500Y-26700000D01*
X123847500Y-32500000D02*
X123847500Y-26700000D01*
X123847500Y-33500000D02*
X124347500Y-33000000D01*
X123847500Y-35300000D02*
X123847500Y-33500000D01*
X124347500Y-33000000D02*
X123847500Y-32500000D01*
X124997500Y-29000000D02*
X126997500Y-29000000D01*
X124997500Y-31000000D02*
X126997500Y-31000000D01*
X124997500Y-31660000D02*
X126997500Y-31660000D01*
X124997500Y-32340000D02*
X126997500Y-32340000D01*
X124997500Y-33000000D02*
X124997500Y-29000000D01*
X124997500Y-33000000D02*
X126997500Y-33000000D01*
X126997500Y-33000000D02*
X126997500Y-29000000D01*
X128147500Y-26700000D02*
X128147500Y-35300000D01*
X128147500Y-35300000D02*
X123847500Y-35300000D01*
%TO.C,BT1*%
X63550000Y-47550000D02*
X26050000Y-47550000D01*
X26050000Y-100050000D01*
X63550000Y-100050000D01*
X63550000Y-47550000D01*
%TO.C,R9*%
X122960000Y-47500000D02*
X123700000Y-47500000D01*
X128040000Y-47500000D02*
X127300000Y-47500000D01*
X123700000Y-46700000D02*
X127300000Y-46700000D01*
X127300000Y-48300000D01*
X123700000Y-48300000D01*
X123700000Y-46700000D01*
%TO.C,R4*%
X86960000Y-54000000D02*
X87700000Y-54000000D01*
X92040000Y-54000000D02*
X91300000Y-54000000D01*
X87700000Y-53200000D02*
X91300000Y-53200000D01*
X91300000Y-54800000D01*
X87700000Y-54800000D01*
X87700000Y-53200000D01*
%TO.C,R15*%
X76960000Y-98500000D02*
X77700000Y-98500000D01*
X82040000Y-98500000D02*
X81300000Y-98500000D01*
X77700000Y-97700000D02*
X81300000Y-97700000D01*
X81300000Y-99300000D01*
X77700000Y-99300000D01*
X77700000Y-97700000D01*
%TD*%
M02*
