%TF.GenerationSoftware,KiCad,Pcbnew,9.0.2+dfsg-1*%
%TF.CreationDate,2026-09-11T21:04:36-07:00*%
%TF.ProjectId,am-radio,616d2d72-6164-4696-9f2e-6b696361645f,rev?*%
%TF.SameCoordinates,Original*%
%TF.FileFunction,Legend,Top*%
%TF.FilePolarity,Positive*%
%FSLAX46Y46*%
G04 Gerber Fmt 4.6, Leading zero omitted, Abs format (unit mm)*
G04 Created by KiCad (PCBNEW 9.0.2+dfsg-1) date 2026-09-11 21:04:36*
%MOMM*%
%LPD*%
G01*
G04 APERTURE LIST*
%ADD10C,0.120000*%
%ADD11C,0.150000*%
%ADD12C,0.300000*%
%ADD13C,0.224999*%
G04 APERTURE END LIST*
D10*
X162238096Y-80063855D02*
X162390477Y-80063855D01*
X162390477Y-80063855D02*
X162466667Y-80101950D01*
X162466667Y-80101950D02*
X162542858Y-80178140D01*
X162542858Y-80178140D02*
X162580953Y-80330521D01*
X162580953Y-80330521D02*
X162580953Y-80597188D01*
X162580953Y-80597188D02*
X162542858Y-80749569D01*
X162542858Y-80749569D02*
X162466667Y-80825760D01*
X162466667Y-80825760D02*
X162390477Y-80863855D01*
X162390477Y-80863855D02*
X162238096Y-80863855D01*
X162238096Y-80863855D02*
X162161905Y-80825760D01*
X162161905Y-80825760D02*
X162085715Y-80749569D01*
X162085715Y-80749569D02*
X162047619Y-80597188D01*
X162047619Y-80597188D02*
X162047619Y-80330521D01*
X162047619Y-80330521D02*
X162085715Y-80178140D01*
X162085715Y-80178140D02*
X162161905Y-80101950D01*
X162161905Y-80101950D02*
X162238096Y-80063855D01*
X163190476Y-80444807D02*
X162923810Y-80444807D01*
X162923810Y-80863855D02*
X162923810Y-80063855D01*
X162923810Y-80063855D02*
X163304762Y-80063855D01*
X163876190Y-80444807D02*
X163609524Y-80444807D01*
X163609524Y-80863855D02*
X163609524Y-80063855D01*
X163609524Y-80063855D02*
X163990476Y-80063855D01*
D11*
X167690476Y-73454819D02*
X167690476Y-72454819D01*
X167690476Y-72454819D02*
X168071428Y-72454819D01*
X168071428Y-72454819D02*
X168166666Y-72502438D01*
X168166666Y-72502438D02*
X168214285Y-72550057D01*
X168214285Y-72550057D02*
X168261904Y-72645295D01*
X168261904Y-72645295D02*
X168261904Y-72788152D01*
X168261904Y-72788152D02*
X168214285Y-72883390D01*
X168214285Y-72883390D02*
X168166666Y-72931009D01*
X168166666Y-72931009D02*
X168071428Y-72978628D01*
X168071428Y-72978628D02*
X167690476Y-72978628D01*
X168880952Y-72454819D02*
X169071428Y-72454819D01*
X169071428Y-72454819D02*
X169166666Y-72502438D01*
X169166666Y-72502438D02*
X169261904Y-72597676D01*
X169261904Y-72597676D02*
X169309523Y-72788152D01*
X169309523Y-72788152D02*
X169309523Y-73121485D01*
X169309523Y-73121485D02*
X169261904Y-73311961D01*
X169261904Y-73311961D02*
X169166666Y-73407200D01*
X169166666Y-73407200D02*
X169071428Y-73454819D01*
X169071428Y-73454819D02*
X168880952Y-73454819D01*
X168880952Y-73454819D02*
X168785714Y-73407200D01*
X168785714Y-73407200D02*
X168690476Y-73311961D01*
X168690476Y-73311961D02*
X168642857Y-73121485D01*
X168642857Y-73121485D02*
X168642857Y-72788152D01*
X168642857Y-72788152D02*
X168690476Y-72597676D01*
X168690476Y-72597676D02*
X168785714Y-72502438D01*
X168785714Y-72502438D02*
X168880952Y-72454819D01*
X169642857Y-72454819D02*
X169880952Y-73454819D01*
X169880952Y-73454819D02*
X170071428Y-72740533D01*
X170071428Y-72740533D02*
X170261904Y-73454819D01*
X170261904Y-73454819D02*
X170500000Y-72454819D01*
X170880952Y-72931009D02*
X171214285Y-72931009D01*
X171357142Y-73454819D02*
X170880952Y-73454819D01*
X170880952Y-73454819D02*
X170880952Y-72454819D01*
X170880952Y-72454819D02*
X171357142Y-72454819D01*
X172357142Y-73454819D02*
X172023809Y-72978628D01*
X171785714Y-73454819D02*
X171785714Y-72454819D01*
X171785714Y-72454819D02*
X172166666Y-72454819D01*
X172166666Y-72454819D02*
X172261904Y-72502438D01*
X172261904Y-72502438D02*
X172309523Y-72550057D01*
X172309523Y-72550057D02*
X172357142Y-72645295D01*
X172357142Y-72645295D02*
X172357142Y-72788152D01*
X172357142Y-72788152D02*
X172309523Y-72883390D01*
X172309523Y-72883390D02*
X172261904Y-72931009D01*
X172261904Y-72931009D02*
X172166666Y-72978628D01*
X172166666Y-72978628D02*
X171785714Y-72978628D01*
X26214286Y-61907200D02*
X26357143Y-61954819D01*
X26357143Y-61954819D02*
X26595238Y-61954819D01*
X26595238Y-61954819D02*
X26690476Y-61907200D01*
X26690476Y-61907200D02*
X26738095Y-61859580D01*
X26738095Y-61859580D02*
X26785714Y-61764342D01*
X26785714Y-61764342D02*
X26785714Y-61669104D01*
X26785714Y-61669104D02*
X26738095Y-61573866D01*
X26738095Y-61573866D02*
X26690476Y-61526247D01*
X26690476Y-61526247D02*
X26595238Y-61478628D01*
X26595238Y-61478628D02*
X26404762Y-61431009D01*
X26404762Y-61431009D02*
X26309524Y-61383390D01*
X26309524Y-61383390D02*
X26261905Y-61335771D01*
X26261905Y-61335771D02*
X26214286Y-61240533D01*
X26214286Y-61240533D02*
X26214286Y-61145295D01*
X26214286Y-61145295D02*
X26261905Y-61050057D01*
X26261905Y-61050057D02*
X26309524Y-61002438D01*
X26309524Y-61002438D02*
X26404762Y-60954819D01*
X26404762Y-60954819D02*
X26642857Y-60954819D01*
X26642857Y-60954819D02*
X26785714Y-61002438D01*
X27214286Y-61954819D02*
X27214286Y-60954819D01*
X27214286Y-60954819D02*
X27595238Y-60954819D01*
X27595238Y-60954819D02*
X27690476Y-61002438D01*
X27690476Y-61002438D02*
X27738095Y-61050057D01*
X27738095Y-61050057D02*
X27785714Y-61145295D01*
X27785714Y-61145295D02*
X27785714Y-61288152D01*
X27785714Y-61288152D02*
X27738095Y-61383390D01*
X27738095Y-61383390D02*
X27690476Y-61431009D01*
X27690476Y-61431009D02*
X27595238Y-61478628D01*
X27595238Y-61478628D02*
X27214286Y-61478628D01*
X28214286Y-61954819D02*
X28214286Y-60954819D01*
X28785714Y-61954819D02*
X28357143Y-61383390D01*
X28785714Y-60954819D02*
X28214286Y-61526247D01*
X29785714Y-61954819D02*
X29452381Y-61478628D01*
X29214286Y-61954819D02*
X29214286Y-60954819D01*
X29214286Y-60954819D02*
X29595238Y-60954819D01*
X29595238Y-60954819D02*
X29690476Y-61002438D01*
X29690476Y-61002438D02*
X29738095Y-61050057D01*
X29738095Y-61050057D02*
X29785714Y-61145295D01*
X29785714Y-61145295D02*
X29785714Y-61288152D01*
X29785714Y-61288152D02*
X29738095Y-61383390D01*
X29738095Y-61383390D02*
X29690476Y-61431009D01*
X29690476Y-61431009D02*
X29595238Y-61478628D01*
X29595238Y-61478628D02*
X29214286Y-61478628D01*
X125190476Y-64954819D02*
X125523809Y-65954819D01*
X125523809Y-65954819D02*
X125857142Y-64954819D01*
X126380952Y-64954819D02*
X126571428Y-64954819D01*
X126571428Y-64954819D02*
X126666666Y-65002438D01*
X126666666Y-65002438D02*
X126761904Y-65097676D01*
X126761904Y-65097676D02*
X126809523Y-65288152D01*
X126809523Y-65288152D02*
X126809523Y-65621485D01*
X126809523Y-65621485D02*
X126761904Y-65811961D01*
X126761904Y-65811961D02*
X126666666Y-65907200D01*
X126666666Y-65907200D02*
X126571428Y-65954819D01*
X126571428Y-65954819D02*
X126380952Y-65954819D01*
X126380952Y-65954819D02*
X126285714Y-65907200D01*
X126285714Y-65907200D02*
X126190476Y-65811961D01*
X126190476Y-65811961D02*
X126142857Y-65621485D01*
X126142857Y-65621485D02*
X126142857Y-65288152D01*
X126142857Y-65288152D02*
X126190476Y-65097676D01*
X126190476Y-65097676D02*
X126285714Y-65002438D01*
X126285714Y-65002438D02*
X126380952Y-64954819D01*
X127714285Y-65954819D02*
X127238095Y-65954819D01*
X127238095Y-65954819D02*
X127238095Y-64954819D01*
X128047619Y-64954819D02*
X128047619Y-65764342D01*
X128047619Y-65764342D02*
X128095238Y-65859580D01*
X128095238Y-65859580D02*
X128142857Y-65907200D01*
X128142857Y-65907200D02*
X128238095Y-65954819D01*
X128238095Y-65954819D02*
X128428571Y-65954819D01*
X128428571Y-65954819D02*
X128523809Y-65907200D01*
X128523809Y-65907200D02*
X128571428Y-65859580D01*
X128571428Y-65859580D02*
X128619047Y-65764342D01*
X128619047Y-65764342D02*
X128619047Y-64954819D01*
X129095238Y-65954819D02*
X129095238Y-64954819D01*
X129095238Y-64954819D02*
X129428571Y-65669104D01*
X129428571Y-65669104D02*
X129761904Y-64954819D01*
X129761904Y-64954819D02*
X129761904Y-65954819D01*
X130238095Y-65431009D02*
X130571428Y-65431009D01*
X130714285Y-65954819D02*
X130238095Y-65954819D01*
X130238095Y-65954819D02*
X130238095Y-64954819D01*
X130238095Y-64954819D02*
X130714285Y-64954819D01*
D12*
X153523808Y-45909638D02*
X154761903Y-45909638D01*
X154761903Y-45909638D02*
X154095236Y-46671542D01*
X154095236Y-46671542D02*
X154380951Y-46671542D01*
X154380951Y-46671542D02*
X154571427Y-46766780D01*
X154571427Y-46766780D02*
X154666665Y-46862019D01*
X154666665Y-46862019D02*
X154761903Y-47052495D01*
X154761903Y-47052495D02*
X154761903Y-47528685D01*
X154761903Y-47528685D02*
X154666665Y-47719161D01*
X154666665Y-47719161D02*
X154571427Y-47814400D01*
X154571427Y-47814400D02*
X154380951Y-47909638D01*
X154380951Y-47909638D02*
X153809522Y-47909638D01*
X153809522Y-47909638D02*
X153619046Y-47814400D01*
X153619046Y-47814400D02*
X153523808Y-47719161D01*
X156952380Y-47909638D02*
X157999999Y-46576304D01*
X156952380Y-46576304D02*
X157999999Y-47909638D01*
X160190476Y-47338209D02*
X161142857Y-47338209D01*
X160000000Y-47909638D02*
X160666666Y-45909638D01*
X160666666Y-45909638D02*
X161333333Y-47909638D01*
X161904762Y-47338209D02*
X162857143Y-47338209D01*
X161714286Y-47909638D02*
X162380952Y-45909638D01*
X162380952Y-45909638D02*
X163047619Y-47909638D01*
X167619049Y-46576304D02*
X167619049Y-47909638D01*
X167142858Y-45814400D02*
X166666668Y-47242971D01*
X166666668Y-47242971D02*
X167904763Y-47242971D01*
X168666668Y-47719161D02*
X168761906Y-47814400D01*
X168761906Y-47814400D02*
X168666668Y-47909638D01*
X168666668Y-47909638D02*
X168571430Y-47814400D01*
X168571430Y-47814400D02*
X168666668Y-47719161D01*
X168666668Y-47719161D02*
X168666668Y-47909638D01*
X170571430Y-45909638D02*
X169619049Y-45909638D01*
X169619049Y-45909638D02*
X169523811Y-46862019D01*
X169523811Y-46862019D02*
X169619049Y-46766780D01*
X169619049Y-46766780D02*
X169809525Y-46671542D01*
X169809525Y-46671542D02*
X170285716Y-46671542D01*
X170285716Y-46671542D02*
X170476192Y-46766780D01*
X170476192Y-46766780D02*
X170571430Y-46862019D01*
X170571430Y-46862019D02*
X170666668Y-47052495D01*
X170666668Y-47052495D02*
X170666668Y-47528685D01*
X170666668Y-47528685D02*
X170571430Y-47719161D01*
X170571430Y-47719161D02*
X170476192Y-47814400D01*
X170476192Y-47814400D02*
X170285716Y-47909638D01*
X170285716Y-47909638D02*
X169809525Y-47909638D01*
X169809525Y-47909638D02*
X169619049Y-47814400D01*
X169619049Y-47814400D02*
X169523811Y-47719161D01*
X171238097Y-45909638D02*
X171904763Y-47909638D01*
X171904763Y-47909638D02*
X172571430Y-45909638D01*
D13*
X93464286Y-23253657D02*
X94178572Y-23253657D01*
X93321429Y-23682228D02*
X93821429Y-22182228D01*
X93821429Y-22182228D02*
X94321429Y-23682228D01*
X94821428Y-23682228D02*
X94821428Y-22182228D01*
X94821428Y-22182228D02*
X95321428Y-23253657D01*
X95321428Y-23253657D02*
X95821428Y-22182228D01*
X95821428Y-22182228D02*
X95821428Y-23682228D01*
X97607143Y-23610800D02*
X97821429Y-23682228D01*
X97821429Y-23682228D02*
X98178571Y-23682228D01*
X98178571Y-23682228D02*
X98321429Y-23610800D01*
X98321429Y-23610800D02*
X98392857Y-23539371D01*
X98392857Y-23539371D02*
X98464286Y-23396514D01*
X98464286Y-23396514D02*
X98464286Y-23253657D01*
X98464286Y-23253657D02*
X98392857Y-23110800D01*
X98392857Y-23110800D02*
X98321429Y-23039371D01*
X98321429Y-23039371D02*
X98178571Y-22967942D01*
X98178571Y-22967942D02*
X97892857Y-22896514D01*
X97892857Y-22896514D02*
X97750000Y-22825085D01*
X97750000Y-22825085D02*
X97678571Y-22753657D01*
X97678571Y-22753657D02*
X97607143Y-22610800D01*
X97607143Y-22610800D02*
X97607143Y-22467942D01*
X97607143Y-22467942D02*
X97678571Y-22325085D01*
X97678571Y-22325085D02*
X97750000Y-22253657D01*
X97750000Y-22253657D02*
X97892857Y-22182228D01*
X97892857Y-22182228D02*
X98250000Y-22182228D01*
X98250000Y-22182228D02*
X98464286Y-22253657D01*
X99107142Y-22182228D02*
X99107142Y-23396514D01*
X99107142Y-23396514D02*
X99178571Y-23539371D01*
X99178571Y-23539371D02*
X99250000Y-23610800D01*
X99250000Y-23610800D02*
X99392857Y-23682228D01*
X99392857Y-23682228D02*
X99678571Y-23682228D01*
X99678571Y-23682228D02*
X99821428Y-23610800D01*
X99821428Y-23610800D02*
X99892857Y-23539371D01*
X99892857Y-23539371D02*
X99964285Y-23396514D01*
X99964285Y-23396514D02*
X99964285Y-22182228D01*
X100678571Y-23682228D02*
X100678571Y-22182228D01*
X100678571Y-22182228D02*
X101250000Y-22182228D01*
X101250000Y-22182228D02*
X101392857Y-22253657D01*
X101392857Y-22253657D02*
X101464286Y-22325085D01*
X101464286Y-22325085D02*
X101535714Y-22467942D01*
X101535714Y-22467942D02*
X101535714Y-22682228D01*
X101535714Y-22682228D02*
X101464286Y-22825085D01*
X101464286Y-22825085D02*
X101392857Y-22896514D01*
X101392857Y-22896514D02*
X101250000Y-22967942D01*
X101250000Y-22967942D02*
X100678571Y-22967942D01*
X102178571Y-22896514D02*
X102678571Y-22896514D01*
X102892857Y-23682228D02*
X102178571Y-23682228D01*
X102178571Y-23682228D02*
X102178571Y-22182228D01*
X102178571Y-22182228D02*
X102892857Y-22182228D01*
X104392857Y-23682228D02*
X103892857Y-22967942D01*
X103535714Y-23682228D02*
X103535714Y-22182228D01*
X103535714Y-22182228D02*
X104107143Y-22182228D01*
X104107143Y-22182228D02*
X104250000Y-22253657D01*
X104250000Y-22253657D02*
X104321429Y-22325085D01*
X104321429Y-22325085D02*
X104392857Y-22467942D01*
X104392857Y-22467942D02*
X104392857Y-22682228D01*
X104392857Y-22682228D02*
X104321429Y-22825085D01*
X104321429Y-22825085D02*
X104250000Y-22896514D01*
X104250000Y-22896514D02*
X104107143Y-22967942D01*
X104107143Y-22967942D02*
X103535714Y-22967942D01*
X105035714Y-23682228D02*
X105035714Y-22182228D01*
X105035714Y-22896514D02*
X105892857Y-22896514D01*
X105892857Y-23682228D02*
X105892857Y-22182228D01*
X106607143Y-22896514D02*
X107107143Y-22896514D01*
X107321429Y-23682228D02*
X106607143Y-23682228D01*
X106607143Y-23682228D02*
X106607143Y-22182228D01*
X106607143Y-22182228D02*
X107321429Y-22182228D01*
X107750001Y-22182228D02*
X108607144Y-22182228D01*
X108178572Y-23682228D02*
X108178572Y-22182228D01*
X111107143Y-23682228D02*
X110607143Y-22967942D01*
X110250000Y-23682228D02*
X110250000Y-22182228D01*
X110250000Y-22182228D02*
X110821429Y-22182228D01*
X110821429Y-22182228D02*
X110964286Y-22253657D01*
X110964286Y-22253657D02*
X111035715Y-22325085D01*
X111035715Y-22325085D02*
X111107143Y-22467942D01*
X111107143Y-22467942D02*
X111107143Y-22682228D01*
X111107143Y-22682228D02*
X111035715Y-22825085D01*
X111035715Y-22825085D02*
X110964286Y-22896514D01*
X110964286Y-22896514D02*
X110821429Y-22967942D01*
X110821429Y-22967942D02*
X110250000Y-22967942D01*
X111750000Y-22896514D02*
X112250000Y-22896514D01*
X112464286Y-23682228D02*
X111750000Y-23682228D01*
X111750000Y-23682228D02*
X111750000Y-22182228D01*
X111750000Y-22182228D02*
X112464286Y-22182228D01*
X113964286Y-23539371D02*
X113892858Y-23610800D01*
X113892858Y-23610800D02*
X113678572Y-23682228D01*
X113678572Y-23682228D02*
X113535715Y-23682228D01*
X113535715Y-23682228D02*
X113321429Y-23610800D01*
X113321429Y-23610800D02*
X113178572Y-23467942D01*
X113178572Y-23467942D02*
X113107143Y-23325085D01*
X113107143Y-23325085D02*
X113035715Y-23039371D01*
X113035715Y-23039371D02*
X113035715Y-22825085D01*
X113035715Y-22825085D02*
X113107143Y-22539371D01*
X113107143Y-22539371D02*
X113178572Y-22396514D01*
X113178572Y-22396514D02*
X113321429Y-22253657D01*
X113321429Y-22253657D02*
X113535715Y-22182228D01*
X113535715Y-22182228D02*
X113678572Y-22182228D01*
X113678572Y-22182228D02*
X113892858Y-22253657D01*
X113892858Y-22253657D02*
X113964286Y-22325085D01*
X114607143Y-22896514D02*
X115107143Y-22896514D01*
X115321429Y-23682228D02*
X114607143Y-23682228D01*
X114607143Y-23682228D02*
X114607143Y-22182228D01*
X114607143Y-22182228D02*
X115321429Y-22182228D01*
X115964286Y-23682228D02*
X115964286Y-22182228D01*
X116464287Y-22182228D02*
X116964287Y-23682228D01*
X116964287Y-23682228D02*
X117464287Y-22182228D01*
X117964286Y-22896514D02*
X118464286Y-22896514D01*
X118678572Y-23682228D02*
X117964286Y-23682228D01*
X117964286Y-23682228D02*
X117964286Y-22182228D01*
X117964286Y-22182228D02*
X118678572Y-22182228D01*
X120178572Y-23682228D02*
X119678572Y-22967942D01*
X119321429Y-23682228D02*
X119321429Y-22182228D01*
X119321429Y-22182228D02*
X119892858Y-22182228D01*
X119892858Y-22182228D02*
X120035715Y-22253657D01*
X120035715Y-22253657D02*
X120107144Y-22325085D01*
X120107144Y-22325085D02*
X120178572Y-22467942D01*
X120178572Y-22467942D02*
X120178572Y-22682228D01*
X120178572Y-22682228D02*
X120107144Y-22825085D01*
X120107144Y-22825085D02*
X120035715Y-22896514D01*
X120035715Y-22896514D02*
X119892858Y-22967942D01*
X119892858Y-22967942D02*
X119321429Y-22967942D01*
X123107143Y-23682228D02*
X123107143Y-22682228D01*
X123107143Y-22967942D02*
X123178572Y-22825085D01*
X123178572Y-22825085D02*
X123250001Y-22753657D01*
X123250001Y-22753657D02*
X123392858Y-22682228D01*
X123392858Y-22682228D02*
X123535715Y-22682228D01*
X124607143Y-23610800D02*
X124464286Y-23682228D01*
X124464286Y-23682228D02*
X124178572Y-23682228D01*
X124178572Y-23682228D02*
X124035714Y-23610800D01*
X124035714Y-23610800D02*
X123964286Y-23467942D01*
X123964286Y-23467942D02*
X123964286Y-22896514D01*
X123964286Y-22896514D02*
X124035714Y-22753657D01*
X124035714Y-22753657D02*
X124178572Y-22682228D01*
X124178572Y-22682228D02*
X124464286Y-22682228D01*
X124464286Y-22682228D02*
X124607143Y-22753657D01*
X124607143Y-22753657D02*
X124678572Y-22896514D01*
X124678572Y-22896514D02*
X124678572Y-23039371D01*
X124678572Y-23039371D02*
X123964286Y-23182228D01*
X125178571Y-22682228D02*
X125535714Y-23682228D01*
X125535714Y-23682228D02*
X125892857Y-22682228D01*
X128392857Y-23682228D02*
X127535714Y-23682228D01*
X127964285Y-23682228D02*
X127964285Y-22182228D01*
X127964285Y-22182228D02*
X127821428Y-22396514D01*
X127821428Y-22396514D02*
X127678571Y-22539371D01*
X127678571Y-22539371D02*
X127535714Y-22610800D01*
X129035713Y-23539371D02*
X129107142Y-23610800D01*
X129107142Y-23610800D02*
X129035713Y-23682228D01*
X129035713Y-23682228D02*
X128964285Y-23610800D01*
X128964285Y-23610800D02*
X129035713Y-23539371D01*
X129035713Y-23539371D02*
X129035713Y-23682228D01*
X130035714Y-22182228D02*
X130178571Y-22182228D01*
X130178571Y-22182228D02*
X130321428Y-22253657D01*
X130321428Y-22253657D02*
X130392857Y-22325085D01*
X130392857Y-22325085D02*
X130464285Y-22467942D01*
X130464285Y-22467942D02*
X130535714Y-22753657D01*
X130535714Y-22753657D02*
X130535714Y-23110800D01*
X130535714Y-23110800D02*
X130464285Y-23396514D01*
X130464285Y-23396514D02*
X130392857Y-23539371D01*
X130392857Y-23539371D02*
X130321428Y-23610800D01*
X130321428Y-23610800D02*
X130178571Y-23682228D01*
X130178571Y-23682228D02*
X130035714Y-23682228D01*
X130035714Y-23682228D02*
X129892857Y-23610800D01*
X129892857Y-23610800D02*
X129821428Y-23539371D01*
X129821428Y-23539371D02*
X129749999Y-23396514D01*
X129749999Y-23396514D02*
X129678571Y-23110800D01*
X129678571Y-23110800D02*
X129678571Y-22753657D01*
X129678571Y-22753657D02*
X129749999Y-22467942D01*
X129749999Y-22467942D02*
X129821428Y-22325085D01*
X129821428Y-22325085D02*
X129892857Y-22253657D01*
X129892857Y-22253657D02*
X130035714Y-22182228D01*
D10*
X176504762Y-80063855D02*
X176657143Y-80063855D01*
X176657143Y-80063855D02*
X176733333Y-80101950D01*
X176733333Y-80101950D02*
X176809524Y-80178140D01*
X176809524Y-80178140D02*
X176847619Y-80330521D01*
X176847619Y-80330521D02*
X176847619Y-80597188D01*
X176847619Y-80597188D02*
X176809524Y-80749569D01*
X176809524Y-80749569D02*
X176733333Y-80825760D01*
X176733333Y-80825760D02*
X176657143Y-80863855D01*
X176657143Y-80863855D02*
X176504762Y-80863855D01*
X176504762Y-80863855D02*
X176428571Y-80825760D01*
X176428571Y-80825760D02*
X176352381Y-80749569D01*
X176352381Y-80749569D02*
X176314285Y-80597188D01*
X176314285Y-80597188D02*
X176314285Y-80330521D01*
X176314285Y-80330521D02*
X176352381Y-80178140D01*
X176352381Y-80178140D02*
X176428571Y-80101950D01*
X176428571Y-80101950D02*
X176504762Y-80063855D01*
X177190476Y-80863855D02*
X177190476Y-80063855D01*
X177190476Y-80063855D02*
X177647619Y-80863855D01*
X177647619Y-80863855D02*
X177647619Y-80063855D01*
D11*
X123514285Y-71121807D02*
X123214285Y-70693235D01*
X122999999Y-71121807D02*
X122999999Y-70221807D01*
X122999999Y-70221807D02*
X123342856Y-70221807D01*
X123342856Y-70221807D02*
X123428571Y-70264664D01*
X123428571Y-70264664D02*
X123471428Y-70307521D01*
X123471428Y-70307521D02*
X123514285Y-70393235D01*
X123514285Y-70393235D02*
X123514285Y-70521807D01*
X123514285Y-70521807D02*
X123471428Y-70607521D01*
X123471428Y-70607521D02*
X123428571Y-70650378D01*
X123428571Y-70650378D02*
X123342856Y-70693235D01*
X123342856Y-70693235D02*
X122999999Y-70693235D01*
X123771428Y-70221807D02*
X124071428Y-71121807D01*
X124071428Y-71121807D02*
X124371428Y-70221807D01*
X125142857Y-71121807D02*
X124628571Y-71121807D01*
X124885714Y-71121807D02*
X124885714Y-70221807D01*
X124885714Y-70221807D02*
X124800000Y-70350378D01*
X124800000Y-70350378D02*
X124714285Y-70436092D01*
X124714285Y-70436092D02*
X124628571Y-70478950D01*
X27700000Y-64652557D02*
X27700000Y-65295414D01*
X27700000Y-65295414D02*
X27657143Y-65423985D01*
X27657143Y-65423985D02*
X27571429Y-65509700D01*
X27571429Y-65509700D02*
X27442857Y-65552557D01*
X27442857Y-65552557D02*
X27357143Y-65552557D01*
X28600000Y-65552557D02*
X28085714Y-65552557D01*
X28342857Y-65552557D02*
X28342857Y-64652557D01*
X28342857Y-64652557D02*
X28257143Y-64781128D01*
X28257143Y-64781128D02*
X28171428Y-64866842D01*
X28171428Y-64866842D02*
X28085714Y-64909700D01*
X109850000Y-53547842D02*
X109807143Y-53590700D01*
X109807143Y-53590700D02*
X109678571Y-53633557D01*
X109678571Y-53633557D02*
X109592857Y-53633557D01*
X109592857Y-53633557D02*
X109464286Y-53590700D01*
X109464286Y-53590700D02*
X109378571Y-53504985D01*
X109378571Y-53504985D02*
X109335714Y-53419271D01*
X109335714Y-53419271D02*
X109292857Y-53247842D01*
X109292857Y-53247842D02*
X109292857Y-53119271D01*
X109292857Y-53119271D02*
X109335714Y-52947842D01*
X109335714Y-52947842D02*
X109378571Y-52862128D01*
X109378571Y-52862128D02*
X109464286Y-52776414D01*
X109464286Y-52776414D02*
X109592857Y-52733557D01*
X109592857Y-52733557D02*
X109678571Y-52733557D01*
X109678571Y-52733557D02*
X109807143Y-52776414D01*
X109807143Y-52776414D02*
X109850000Y-52819271D01*
X110621429Y-52733557D02*
X110450000Y-52733557D01*
X110450000Y-52733557D02*
X110364286Y-52776414D01*
X110364286Y-52776414D02*
X110321429Y-52819271D01*
X110321429Y-52819271D02*
X110235714Y-52947842D01*
X110235714Y-52947842D02*
X110192857Y-53119271D01*
X110192857Y-53119271D02*
X110192857Y-53462128D01*
X110192857Y-53462128D02*
X110235714Y-53547842D01*
X110235714Y-53547842D02*
X110278571Y-53590700D01*
X110278571Y-53590700D02*
X110364286Y-53633557D01*
X110364286Y-53633557D02*
X110535714Y-53633557D01*
X110535714Y-53633557D02*
X110621429Y-53590700D01*
X110621429Y-53590700D02*
X110664286Y-53547842D01*
X110664286Y-53547842D02*
X110707143Y-53462128D01*
X110707143Y-53462128D02*
X110707143Y-53247842D01*
X110707143Y-53247842D02*
X110664286Y-53162128D01*
X110664286Y-53162128D02*
X110621429Y-53119271D01*
X110621429Y-53119271D02*
X110535714Y-53076414D01*
X110535714Y-53076414D02*
X110364286Y-53076414D01*
X110364286Y-53076414D02*
X110278571Y-53119271D01*
X110278571Y-53119271D02*
X110235714Y-53162128D01*
X110235714Y-53162128D02*
X110192857Y-53247842D01*
X121814286Y-40914807D02*
X122328572Y-40914807D01*
X122071429Y-41814807D02*
X122071429Y-40914807D01*
X122542857Y-40914807D02*
X123100000Y-40914807D01*
X123100000Y-40914807D02*
X122800000Y-41257664D01*
X122800000Y-41257664D02*
X122928571Y-41257664D01*
X122928571Y-41257664D02*
X123014286Y-41300521D01*
X123014286Y-41300521D02*
X123057143Y-41343378D01*
X123057143Y-41343378D02*
X123100000Y-41429092D01*
X123100000Y-41429092D02*
X123100000Y-41643378D01*
X123100000Y-41643378D02*
X123057143Y-41729092D01*
X123057143Y-41729092D02*
X123014286Y-41771950D01*
X123014286Y-41771950D02*
X122928571Y-41814807D01*
X122928571Y-41814807D02*
X122671428Y-41814807D01*
X122671428Y-41814807D02*
X122585714Y-41771950D01*
X122585714Y-41771950D02*
X122542857Y-41729092D01*
D10*
X128133333Y-40634855D02*
X128628571Y-40634855D01*
X128628571Y-40634855D02*
X128361905Y-40939617D01*
X128361905Y-40939617D02*
X128476190Y-40939617D01*
X128476190Y-40939617D02*
X128552381Y-40977712D01*
X128552381Y-40977712D02*
X128590476Y-41015807D01*
X128590476Y-41015807D02*
X128628571Y-41091998D01*
X128628571Y-41091998D02*
X128628571Y-41282474D01*
X128628571Y-41282474D02*
X128590476Y-41358664D01*
X128590476Y-41358664D02*
X128552381Y-41396760D01*
X128552381Y-41396760D02*
X128476190Y-41434855D01*
X128476190Y-41434855D02*
X128247619Y-41434855D01*
X128247619Y-41434855D02*
X128171428Y-41396760D01*
X128171428Y-41396760D02*
X128133333Y-41358664D01*
X116828571Y-41434855D02*
X116371428Y-41434855D01*
X116600000Y-41434855D02*
X116600000Y-40634855D01*
X116600000Y-40634855D02*
X116523809Y-40749140D01*
X116523809Y-40749140D02*
X116447619Y-40825331D01*
X116447619Y-40825331D02*
X116371428Y-40863426D01*
D11*
X109890000Y-46133557D02*
X109590000Y-45704985D01*
X109375714Y-46133557D02*
X109375714Y-45233557D01*
X109375714Y-45233557D02*
X109718571Y-45233557D01*
X109718571Y-45233557D02*
X109804286Y-45276414D01*
X109804286Y-45276414D02*
X109847143Y-45319271D01*
X109847143Y-45319271D02*
X109890000Y-45404985D01*
X109890000Y-45404985D02*
X109890000Y-45533557D01*
X109890000Y-45533557D02*
X109847143Y-45619271D01*
X109847143Y-45619271D02*
X109804286Y-45662128D01*
X109804286Y-45662128D02*
X109718571Y-45704985D01*
X109718571Y-45704985D02*
X109375714Y-45704985D01*
X110318571Y-46133557D02*
X110490000Y-46133557D01*
X110490000Y-46133557D02*
X110575714Y-46090700D01*
X110575714Y-46090700D02*
X110618571Y-46047842D01*
X110618571Y-46047842D02*
X110704286Y-45919271D01*
X110704286Y-45919271D02*
X110747143Y-45747842D01*
X110747143Y-45747842D02*
X110747143Y-45404985D01*
X110747143Y-45404985D02*
X110704286Y-45319271D01*
X110704286Y-45319271D02*
X110661429Y-45276414D01*
X110661429Y-45276414D02*
X110575714Y-45233557D01*
X110575714Y-45233557D02*
X110404286Y-45233557D01*
X110404286Y-45233557D02*
X110318571Y-45276414D01*
X110318571Y-45276414D02*
X110275714Y-45319271D01*
X110275714Y-45319271D02*
X110232857Y-45404985D01*
X110232857Y-45404985D02*
X110232857Y-45619271D01*
X110232857Y-45619271D02*
X110275714Y-45704985D01*
X110275714Y-45704985D02*
X110318571Y-45747842D01*
X110318571Y-45747842D02*
X110404286Y-45790700D01*
X110404286Y-45790700D02*
X110575714Y-45790700D01*
X110575714Y-45790700D02*
X110661429Y-45747842D01*
X110661429Y-45747842D02*
X110704286Y-45704985D01*
X110704286Y-45704985D02*
X110747143Y-45619271D01*
X129921428Y-49653557D02*
X129621428Y-49224985D01*
X129407142Y-49653557D02*
X129407142Y-48753557D01*
X129407142Y-48753557D02*
X129749999Y-48753557D01*
X129749999Y-48753557D02*
X129835714Y-48796414D01*
X129835714Y-48796414D02*
X129878571Y-48839271D01*
X129878571Y-48839271D02*
X129921428Y-48924985D01*
X129921428Y-48924985D02*
X129921428Y-49053557D01*
X129921428Y-49053557D02*
X129878571Y-49139271D01*
X129878571Y-49139271D02*
X129835714Y-49182128D01*
X129835714Y-49182128D02*
X129749999Y-49224985D01*
X129749999Y-49224985D02*
X129407142Y-49224985D01*
X130778571Y-49653557D02*
X130264285Y-49653557D01*
X130521428Y-49653557D02*
X130521428Y-48753557D01*
X130521428Y-48753557D02*
X130435714Y-48882128D01*
X130435714Y-48882128D02*
X130349999Y-48967842D01*
X130349999Y-48967842D02*
X130264285Y-49010700D01*
X131550000Y-48753557D02*
X131378571Y-48753557D01*
X131378571Y-48753557D02*
X131292857Y-48796414D01*
X131292857Y-48796414D02*
X131250000Y-48839271D01*
X131250000Y-48839271D02*
X131164285Y-48967842D01*
X131164285Y-48967842D02*
X131121428Y-49139271D01*
X131121428Y-49139271D02*
X131121428Y-49482128D01*
X131121428Y-49482128D02*
X131164285Y-49567842D01*
X131164285Y-49567842D02*
X131207142Y-49610700D01*
X131207142Y-49610700D02*
X131292857Y-49653557D01*
X131292857Y-49653557D02*
X131464285Y-49653557D01*
X131464285Y-49653557D02*
X131550000Y-49610700D01*
X131550000Y-49610700D02*
X131592857Y-49567842D01*
X131592857Y-49567842D02*
X131635714Y-49482128D01*
X131635714Y-49482128D02*
X131635714Y-49267842D01*
X131635714Y-49267842D02*
X131592857Y-49182128D01*
X131592857Y-49182128D02*
X131550000Y-49139271D01*
X131550000Y-49139271D02*
X131464285Y-49096414D01*
X131464285Y-49096414D02*
X131292857Y-49096414D01*
X131292857Y-49096414D02*
X131207142Y-49139271D01*
X131207142Y-49139271D02*
X131164285Y-49182128D01*
X131164285Y-49182128D02*
X131121428Y-49267842D01*
X145376540Y-74347842D02*
X145333683Y-74390700D01*
X145333683Y-74390700D02*
X145205111Y-74433557D01*
X145205111Y-74433557D02*
X145119397Y-74433557D01*
X145119397Y-74433557D02*
X144990826Y-74390700D01*
X144990826Y-74390700D02*
X144905111Y-74304985D01*
X144905111Y-74304985D02*
X144862254Y-74219271D01*
X144862254Y-74219271D02*
X144819397Y-74047842D01*
X144819397Y-74047842D02*
X144819397Y-73919271D01*
X144819397Y-73919271D02*
X144862254Y-73747842D01*
X144862254Y-73747842D02*
X144905111Y-73662128D01*
X144905111Y-73662128D02*
X144990826Y-73576414D01*
X144990826Y-73576414D02*
X145119397Y-73533557D01*
X145119397Y-73533557D02*
X145205111Y-73533557D01*
X145205111Y-73533557D02*
X145333683Y-73576414D01*
X145333683Y-73576414D02*
X145376540Y-73619271D01*
X146233683Y-74433557D02*
X145719397Y-74433557D01*
X145976540Y-74433557D02*
X145976540Y-73533557D01*
X145976540Y-73533557D02*
X145890826Y-73662128D01*
X145890826Y-73662128D02*
X145805111Y-73747842D01*
X145805111Y-73747842D02*
X145719397Y-73790700D01*
X146576540Y-73619271D02*
X146619397Y-73576414D01*
X146619397Y-73576414D02*
X146705112Y-73533557D01*
X146705112Y-73533557D02*
X146919397Y-73533557D01*
X146919397Y-73533557D02*
X147005112Y-73576414D01*
X147005112Y-73576414D02*
X147047969Y-73619271D01*
X147047969Y-73619271D02*
X147090826Y-73704985D01*
X147090826Y-73704985D02*
X147090826Y-73790700D01*
X147090826Y-73790700D02*
X147047969Y-73919271D01*
X147047969Y-73919271D02*
X146533683Y-74433557D01*
X146533683Y-74433557D02*
X147090826Y-74433557D01*
X108421428Y-55597842D02*
X108378571Y-55640700D01*
X108378571Y-55640700D02*
X108249999Y-55683557D01*
X108249999Y-55683557D02*
X108164285Y-55683557D01*
X108164285Y-55683557D02*
X108035714Y-55640700D01*
X108035714Y-55640700D02*
X107949999Y-55554985D01*
X107949999Y-55554985D02*
X107907142Y-55469271D01*
X107907142Y-55469271D02*
X107864285Y-55297842D01*
X107864285Y-55297842D02*
X107864285Y-55169271D01*
X107864285Y-55169271D02*
X107907142Y-54997842D01*
X107907142Y-54997842D02*
X107949999Y-54912128D01*
X107949999Y-54912128D02*
X108035714Y-54826414D01*
X108035714Y-54826414D02*
X108164285Y-54783557D01*
X108164285Y-54783557D02*
X108249999Y-54783557D01*
X108249999Y-54783557D02*
X108378571Y-54826414D01*
X108378571Y-54826414D02*
X108421428Y-54869271D01*
X109278571Y-55683557D02*
X108764285Y-55683557D01*
X109021428Y-55683557D02*
X109021428Y-54783557D01*
X109021428Y-54783557D02*
X108935714Y-54912128D01*
X108935714Y-54912128D02*
X108849999Y-54997842D01*
X108849999Y-54997842D02*
X108764285Y-55040700D01*
X109835714Y-54783557D02*
X109921428Y-54783557D01*
X109921428Y-54783557D02*
X110007142Y-54826414D01*
X110007142Y-54826414D02*
X110050000Y-54869271D01*
X110050000Y-54869271D02*
X110092857Y-54954985D01*
X110092857Y-54954985D02*
X110135714Y-55126414D01*
X110135714Y-55126414D02*
X110135714Y-55340700D01*
X110135714Y-55340700D02*
X110092857Y-55512128D01*
X110092857Y-55512128D02*
X110050000Y-55597842D01*
X110050000Y-55597842D02*
X110007142Y-55640700D01*
X110007142Y-55640700D02*
X109921428Y-55683557D01*
X109921428Y-55683557D02*
X109835714Y-55683557D01*
X109835714Y-55683557D02*
X109750000Y-55640700D01*
X109750000Y-55640700D02*
X109707142Y-55597842D01*
X109707142Y-55597842D02*
X109664285Y-55512128D01*
X109664285Y-55512128D02*
X109621428Y-55340700D01*
X109621428Y-55340700D02*
X109621428Y-55126414D01*
X109621428Y-55126414D02*
X109664285Y-54954985D01*
X109664285Y-54954985D02*
X109707142Y-54869271D01*
X109707142Y-54869271D02*
X109750000Y-54826414D01*
X109750000Y-54826414D02*
X109835714Y-54783557D01*
X88684285Y-39539271D02*
X88598571Y-39496414D01*
X88598571Y-39496414D02*
X88512857Y-39410700D01*
X88512857Y-39410700D02*
X88384285Y-39282128D01*
X88384285Y-39282128D02*
X88298571Y-39239271D01*
X88298571Y-39239271D02*
X88212857Y-39239271D01*
X88255714Y-39453557D02*
X88170000Y-39410700D01*
X88170000Y-39410700D02*
X88084285Y-39324985D01*
X88084285Y-39324985D02*
X88041428Y-39153557D01*
X88041428Y-39153557D02*
X88041428Y-38853557D01*
X88041428Y-38853557D02*
X88084285Y-38682128D01*
X88084285Y-38682128D02*
X88170000Y-38596414D01*
X88170000Y-38596414D02*
X88255714Y-38553557D01*
X88255714Y-38553557D02*
X88427142Y-38553557D01*
X88427142Y-38553557D02*
X88512857Y-38596414D01*
X88512857Y-38596414D02*
X88598571Y-38682128D01*
X88598571Y-38682128D02*
X88641428Y-38853557D01*
X88641428Y-38853557D02*
X88641428Y-39153557D01*
X88641428Y-39153557D02*
X88598571Y-39324985D01*
X88598571Y-39324985D02*
X88512857Y-39410700D01*
X88512857Y-39410700D02*
X88427142Y-39453557D01*
X88427142Y-39453557D02*
X88255714Y-39453557D01*
X88984285Y-38639271D02*
X89027142Y-38596414D01*
X89027142Y-38596414D02*
X89112857Y-38553557D01*
X89112857Y-38553557D02*
X89327142Y-38553557D01*
X89327142Y-38553557D02*
X89412857Y-38596414D01*
X89412857Y-38596414D02*
X89455714Y-38639271D01*
X89455714Y-38639271D02*
X89498571Y-38724985D01*
X89498571Y-38724985D02*
X89498571Y-38810700D01*
X89498571Y-38810700D02*
X89455714Y-38939271D01*
X89455714Y-38939271D02*
X88941428Y-39453557D01*
X88941428Y-39453557D02*
X89498571Y-39453557D01*
X110190000Y-78822842D02*
X110147143Y-78865700D01*
X110147143Y-78865700D02*
X110018571Y-78908557D01*
X110018571Y-78908557D02*
X109932857Y-78908557D01*
X109932857Y-78908557D02*
X109804286Y-78865700D01*
X109804286Y-78865700D02*
X109718571Y-78779985D01*
X109718571Y-78779985D02*
X109675714Y-78694271D01*
X109675714Y-78694271D02*
X109632857Y-78522842D01*
X109632857Y-78522842D02*
X109632857Y-78394271D01*
X109632857Y-78394271D02*
X109675714Y-78222842D01*
X109675714Y-78222842D02*
X109718571Y-78137128D01*
X109718571Y-78137128D02*
X109804286Y-78051414D01*
X109804286Y-78051414D02*
X109932857Y-78008557D01*
X109932857Y-78008557D02*
X110018571Y-78008557D01*
X110018571Y-78008557D02*
X110147143Y-78051414D01*
X110147143Y-78051414D02*
X110190000Y-78094271D01*
X110618571Y-78908557D02*
X110790000Y-78908557D01*
X110790000Y-78908557D02*
X110875714Y-78865700D01*
X110875714Y-78865700D02*
X110918571Y-78822842D01*
X110918571Y-78822842D02*
X111004286Y-78694271D01*
X111004286Y-78694271D02*
X111047143Y-78522842D01*
X111047143Y-78522842D02*
X111047143Y-78179985D01*
X111047143Y-78179985D02*
X111004286Y-78094271D01*
X111004286Y-78094271D02*
X110961429Y-78051414D01*
X110961429Y-78051414D02*
X110875714Y-78008557D01*
X110875714Y-78008557D02*
X110704286Y-78008557D01*
X110704286Y-78008557D02*
X110618571Y-78051414D01*
X110618571Y-78051414D02*
X110575714Y-78094271D01*
X110575714Y-78094271D02*
X110532857Y-78179985D01*
X110532857Y-78179985D02*
X110532857Y-78394271D01*
X110532857Y-78394271D02*
X110575714Y-78479985D01*
X110575714Y-78479985D02*
X110618571Y-78522842D01*
X110618571Y-78522842D02*
X110704286Y-78565700D01*
X110704286Y-78565700D02*
X110875714Y-78565700D01*
X110875714Y-78565700D02*
X110961429Y-78522842D01*
X110961429Y-78522842D02*
X111004286Y-78479985D01*
X111004286Y-78479985D02*
X111047143Y-78394271D01*
X64421428Y-60047842D02*
X64378571Y-60090700D01*
X64378571Y-60090700D02*
X64249999Y-60133557D01*
X64249999Y-60133557D02*
X64164285Y-60133557D01*
X64164285Y-60133557D02*
X64035714Y-60090700D01*
X64035714Y-60090700D02*
X63949999Y-60004985D01*
X63949999Y-60004985D02*
X63907142Y-59919271D01*
X63907142Y-59919271D02*
X63864285Y-59747842D01*
X63864285Y-59747842D02*
X63864285Y-59619271D01*
X63864285Y-59619271D02*
X63907142Y-59447842D01*
X63907142Y-59447842D02*
X63949999Y-59362128D01*
X63949999Y-59362128D02*
X64035714Y-59276414D01*
X64035714Y-59276414D02*
X64164285Y-59233557D01*
X64164285Y-59233557D02*
X64249999Y-59233557D01*
X64249999Y-59233557D02*
X64378571Y-59276414D01*
X64378571Y-59276414D02*
X64421428Y-59319271D01*
X65278571Y-60133557D02*
X64764285Y-60133557D01*
X65021428Y-60133557D02*
X65021428Y-59233557D01*
X65021428Y-59233557D02*
X64935714Y-59362128D01*
X64935714Y-59362128D02*
X64849999Y-59447842D01*
X64849999Y-59447842D02*
X64764285Y-59490700D01*
X66135714Y-60133557D02*
X65621428Y-60133557D01*
X65878571Y-60133557D02*
X65878571Y-59233557D01*
X65878571Y-59233557D02*
X65792857Y-59362128D01*
X65792857Y-59362128D02*
X65707142Y-59447842D01*
X65707142Y-59447842D02*
X65621428Y-59490700D01*
X72184285Y-76039271D02*
X72098571Y-75996414D01*
X72098571Y-75996414D02*
X72012857Y-75910700D01*
X72012857Y-75910700D02*
X71884285Y-75782128D01*
X71884285Y-75782128D02*
X71798571Y-75739271D01*
X71798571Y-75739271D02*
X71712857Y-75739271D01*
X71755714Y-75953557D02*
X71670000Y-75910700D01*
X71670000Y-75910700D02*
X71584285Y-75824985D01*
X71584285Y-75824985D02*
X71541428Y-75653557D01*
X71541428Y-75653557D02*
X71541428Y-75353557D01*
X71541428Y-75353557D02*
X71584285Y-75182128D01*
X71584285Y-75182128D02*
X71670000Y-75096414D01*
X71670000Y-75096414D02*
X71755714Y-75053557D01*
X71755714Y-75053557D02*
X71927142Y-75053557D01*
X71927142Y-75053557D02*
X72012857Y-75096414D01*
X72012857Y-75096414D02*
X72098571Y-75182128D01*
X72098571Y-75182128D02*
X72141428Y-75353557D01*
X72141428Y-75353557D02*
X72141428Y-75653557D01*
X72141428Y-75653557D02*
X72098571Y-75824985D01*
X72098571Y-75824985D02*
X72012857Y-75910700D01*
X72012857Y-75910700D02*
X71927142Y-75953557D01*
X71927142Y-75953557D02*
X71755714Y-75953557D01*
X72912857Y-75053557D02*
X72741428Y-75053557D01*
X72741428Y-75053557D02*
X72655714Y-75096414D01*
X72655714Y-75096414D02*
X72612857Y-75139271D01*
X72612857Y-75139271D02*
X72527142Y-75267842D01*
X72527142Y-75267842D02*
X72484285Y-75439271D01*
X72484285Y-75439271D02*
X72484285Y-75782128D01*
X72484285Y-75782128D02*
X72527142Y-75867842D01*
X72527142Y-75867842D02*
X72569999Y-75910700D01*
X72569999Y-75910700D02*
X72655714Y-75953557D01*
X72655714Y-75953557D02*
X72827142Y-75953557D01*
X72827142Y-75953557D02*
X72912857Y-75910700D01*
X72912857Y-75910700D02*
X72955714Y-75867842D01*
X72955714Y-75867842D02*
X72998571Y-75782128D01*
X72998571Y-75782128D02*
X72998571Y-75567842D01*
X72998571Y-75567842D02*
X72955714Y-75482128D01*
X72955714Y-75482128D02*
X72912857Y-75439271D01*
X72912857Y-75439271D02*
X72827142Y-75396414D01*
X72827142Y-75396414D02*
X72655714Y-75396414D01*
X72655714Y-75396414D02*
X72569999Y-75439271D01*
X72569999Y-75439271D02*
X72527142Y-75482128D01*
X72527142Y-75482128D02*
X72484285Y-75567842D01*
X120415714Y-58933557D02*
X120415714Y-58033557D01*
X120415714Y-58033557D02*
X120630000Y-58033557D01*
X120630000Y-58033557D02*
X120758571Y-58076414D01*
X120758571Y-58076414D02*
X120844286Y-58162128D01*
X120844286Y-58162128D02*
X120887143Y-58247842D01*
X120887143Y-58247842D02*
X120930000Y-58419271D01*
X120930000Y-58419271D02*
X120930000Y-58547842D01*
X120930000Y-58547842D02*
X120887143Y-58719271D01*
X120887143Y-58719271D02*
X120844286Y-58804985D01*
X120844286Y-58804985D02*
X120758571Y-58890700D01*
X120758571Y-58890700D02*
X120630000Y-58933557D01*
X120630000Y-58933557D02*
X120415714Y-58933557D01*
X121787143Y-58933557D02*
X121272857Y-58933557D01*
X121530000Y-58933557D02*
X121530000Y-58033557D01*
X121530000Y-58033557D02*
X121444286Y-58162128D01*
X121444286Y-58162128D02*
X121358571Y-58247842D01*
X121358571Y-58247842D02*
X121272857Y-58290700D01*
X115738095Y-59154819D02*
X115738095Y-58154819D01*
X116309523Y-59154819D02*
X115880952Y-58583390D01*
X116309523Y-58154819D02*
X115738095Y-58726247D01*
X178300000Y-77865700D02*
X178428572Y-77908557D01*
X178428572Y-77908557D02*
X178642857Y-77908557D01*
X178642857Y-77908557D02*
X178728572Y-77865700D01*
X178728572Y-77865700D02*
X178771429Y-77822842D01*
X178771429Y-77822842D02*
X178814286Y-77737128D01*
X178814286Y-77737128D02*
X178814286Y-77651414D01*
X178814286Y-77651414D02*
X178771429Y-77565700D01*
X178771429Y-77565700D02*
X178728572Y-77522842D01*
X178728572Y-77522842D02*
X178642857Y-77479985D01*
X178642857Y-77479985D02*
X178471429Y-77437128D01*
X178471429Y-77437128D02*
X178385714Y-77394271D01*
X178385714Y-77394271D02*
X178342857Y-77351414D01*
X178342857Y-77351414D02*
X178300000Y-77265700D01*
X178300000Y-77265700D02*
X178300000Y-77179985D01*
X178300000Y-77179985D02*
X178342857Y-77094271D01*
X178342857Y-77094271D02*
X178385714Y-77051414D01*
X178385714Y-77051414D02*
X178471429Y-77008557D01*
X178471429Y-77008557D02*
X178685714Y-77008557D01*
X178685714Y-77008557D02*
X178814286Y-77051414D01*
X179114286Y-77008557D02*
X179328572Y-77908557D01*
X179328572Y-77908557D02*
X179500000Y-77265700D01*
X179500000Y-77265700D02*
X179671429Y-77908557D01*
X179671429Y-77908557D02*
X179885715Y-77008557D01*
X180700000Y-77908557D02*
X180185714Y-77908557D01*
X180442857Y-77908557D02*
X180442857Y-77008557D01*
X180442857Y-77008557D02*
X180357143Y-77137128D01*
X180357143Y-77137128D02*
X180271428Y-77222842D01*
X180271428Y-77222842D02*
X180185714Y-77265700D01*
X52990000Y-54322842D02*
X52947143Y-54365700D01*
X52947143Y-54365700D02*
X52818571Y-54408557D01*
X52818571Y-54408557D02*
X52732857Y-54408557D01*
X52732857Y-54408557D02*
X52604286Y-54365700D01*
X52604286Y-54365700D02*
X52518571Y-54279985D01*
X52518571Y-54279985D02*
X52475714Y-54194271D01*
X52475714Y-54194271D02*
X52432857Y-54022842D01*
X52432857Y-54022842D02*
X52432857Y-53894271D01*
X52432857Y-53894271D02*
X52475714Y-53722842D01*
X52475714Y-53722842D02*
X52518571Y-53637128D01*
X52518571Y-53637128D02*
X52604286Y-53551414D01*
X52604286Y-53551414D02*
X52732857Y-53508557D01*
X52732857Y-53508557D02*
X52818571Y-53508557D01*
X52818571Y-53508557D02*
X52947143Y-53551414D01*
X52947143Y-53551414D02*
X52990000Y-53594271D01*
X53332857Y-53594271D02*
X53375714Y-53551414D01*
X53375714Y-53551414D02*
X53461429Y-53508557D01*
X53461429Y-53508557D02*
X53675714Y-53508557D01*
X53675714Y-53508557D02*
X53761429Y-53551414D01*
X53761429Y-53551414D02*
X53804286Y-53594271D01*
X53804286Y-53594271D02*
X53847143Y-53679985D01*
X53847143Y-53679985D02*
X53847143Y-53765700D01*
X53847143Y-53765700D02*
X53804286Y-53894271D01*
X53804286Y-53894271D02*
X53290000Y-54408557D01*
X53290000Y-54408557D02*
X53847143Y-54408557D01*
X72390000Y-52133557D02*
X72090000Y-51704985D01*
X71875714Y-52133557D02*
X71875714Y-51233557D01*
X71875714Y-51233557D02*
X72218571Y-51233557D01*
X72218571Y-51233557D02*
X72304286Y-51276414D01*
X72304286Y-51276414D02*
X72347143Y-51319271D01*
X72347143Y-51319271D02*
X72390000Y-51404985D01*
X72390000Y-51404985D02*
X72390000Y-51533557D01*
X72390000Y-51533557D02*
X72347143Y-51619271D01*
X72347143Y-51619271D02*
X72304286Y-51662128D01*
X72304286Y-51662128D02*
X72218571Y-51704985D01*
X72218571Y-51704985D02*
X71875714Y-51704985D01*
X73161429Y-51533557D02*
X73161429Y-52133557D01*
X72947143Y-51190700D02*
X72732857Y-51833557D01*
X72732857Y-51833557D02*
X73290000Y-51833557D01*
X111423928Y-61408557D02*
X111123928Y-60979985D01*
X110909642Y-61408557D02*
X110909642Y-60508557D01*
X110909642Y-60508557D02*
X111252499Y-60508557D01*
X111252499Y-60508557D02*
X111338214Y-60551414D01*
X111338214Y-60551414D02*
X111381071Y-60594271D01*
X111381071Y-60594271D02*
X111423928Y-60679985D01*
X111423928Y-60679985D02*
X111423928Y-60808557D01*
X111423928Y-60808557D02*
X111381071Y-60894271D01*
X111381071Y-60894271D02*
X111338214Y-60937128D01*
X111338214Y-60937128D02*
X111252499Y-60979985D01*
X111252499Y-60979985D02*
X110909642Y-60979985D01*
X112281071Y-61408557D02*
X111766785Y-61408557D01*
X112023928Y-61408557D02*
X112023928Y-60508557D01*
X112023928Y-60508557D02*
X111938214Y-60637128D01*
X111938214Y-60637128D02*
X111852499Y-60722842D01*
X111852499Y-60722842D02*
X111766785Y-60765700D01*
X113138214Y-61408557D02*
X112623928Y-61408557D01*
X112881071Y-61408557D02*
X112881071Y-60508557D01*
X112881071Y-60508557D02*
X112795357Y-60637128D01*
X112795357Y-60637128D02*
X112709642Y-60722842D01*
X112709642Y-60722842D02*
X112623928Y-60765700D01*
X32321428Y-54008557D02*
X32621428Y-54908557D01*
X32621428Y-54908557D02*
X32921428Y-54008557D01*
X33735714Y-54822842D02*
X33692857Y-54865700D01*
X33692857Y-54865700D02*
X33564285Y-54908557D01*
X33564285Y-54908557D02*
X33478571Y-54908557D01*
X33478571Y-54908557D02*
X33350000Y-54865700D01*
X33350000Y-54865700D02*
X33264285Y-54779985D01*
X33264285Y-54779985D02*
X33221428Y-54694271D01*
X33221428Y-54694271D02*
X33178571Y-54522842D01*
X33178571Y-54522842D02*
X33178571Y-54394271D01*
X33178571Y-54394271D02*
X33221428Y-54222842D01*
X33221428Y-54222842D02*
X33264285Y-54137128D01*
X33264285Y-54137128D02*
X33350000Y-54051414D01*
X33350000Y-54051414D02*
X33478571Y-54008557D01*
X33478571Y-54008557D02*
X33564285Y-54008557D01*
X33564285Y-54008557D02*
X33692857Y-54051414D01*
X33692857Y-54051414D02*
X33735714Y-54094271D01*
X34592857Y-54908557D02*
X34078571Y-54908557D01*
X34335714Y-54908557D02*
X34335714Y-54008557D01*
X34335714Y-54008557D02*
X34250000Y-54137128D01*
X34250000Y-54137128D02*
X34164285Y-54222842D01*
X34164285Y-54222842D02*
X34078571Y-54265700D01*
X30904762Y-42954819D02*
X31476190Y-42954819D01*
X31190476Y-43954819D02*
X31190476Y-42954819D01*
X31809524Y-42954819D02*
X31809524Y-43764342D01*
X31809524Y-43764342D02*
X31857143Y-43859580D01*
X31857143Y-43859580D02*
X31904762Y-43907200D01*
X31904762Y-43907200D02*
X32000000Y-43954819D01*
X32000000Y-43954819D02*
X32190476Y-43954819D01*
X32190476Y-43954819D02*
X32285714Y-43907200D01*
X32285714Y-43907200D02*
X32333333Y-43859580D01*
X32333333Y-43859580D02*
X32380952Y-43764342D01*
X32380952Y-43764342D02*
X32380952Y-42954819D01*
X32857143Y-43954819D02*
X32857143Y-42954819D01*
X32857143Y-42954819D02*
X33428571Y-43954819D01*
X33428571Y-43954819D02*
X33428571Y-42954819D01*
X33904762Y-43954819D02*
X33904762Y-42954819D01*
X34380952Y-43954819D02*
X34380952Y-42954819D01*
X34380952Y-42954819D02*
X34952380Y-43954819D01*
X34952380Y-43954819D02*
X34952380Y-42954819D01*
X35952380Y-43002438D02*
X35857142Y-42954819D01*
X35857142Y-42954819D02*
X35714285Y-42954819D01*
X35714285Y-42954819D02*
X35571428Y-43002438D01*
X35571428Y-43002438D02*
X35476190Y-43097676D01*
X35476190Y-43097676D02*
X35428571Y-43192914D01*
X35428571Y-43192914D02*
X35380952Y-43383390D01*
X35380952Y-43383390D02*
X35380952Y-43526247D01*
X35380952Y-43526247D02*
X35428571Y-43716723D01*
X35428571Y-43716723D02*
X35476190Y-43811961D01*
X35476190Y-43811961D02*
X35571428Y-43907200D01*
X35571428Y-43907200D02*
X35714285Y-43954819D01*
X35714285Y-43954819D02*
X35809523Y-43954819D01*
X35809523Y-43954819D02*
X35952380Y-43907200D01*
X35952380Y-43907200D02*
X35999999Y-43859580D01*
X35999999Y-43859580D02*
X35999999Y-43526247D01*
X35999999Y-43526247D02*
X35809523Y-43526247D01*
D10*
X39309523Y-56335283D02*
X39690476Y-56335283D01*
X39233333Y-56563855D02*
X39500000Y-55763855D01*
X39500000Y-55763855D02*
X39766666Y-56563855D01*
X27423810Y-55763855D02*
X27576191Y-55763855D01*
X27576191Y-55763855D02*
X27652381Y-55801950D01*
X27652381Y-55801950D02*
X27728572Y-55878140D01*
X27728572Y-55878140D02*
X27766667Y-56030521D01*
X27766667Y-56030521D02*
X27766667Y-56297188D01*
X27766667Y-56297188D02*
X27728572Y-56449569D01*
X27728572Y-56449569D02*
X27652381Y-56525760D01*
X27652381Y-56525760D02*
X27576191Y-56563855D01*
X27576191Y-56563855D02*
X27423810Y-56563855D01*
X27423810Y-56563855D02*
X27347619Y-56525760D01*
X27347619Y-56525760D02*
X27271429Y-56449569D01*
X27271429Y-56449569D02*
X27233333Y-56297188D01*
X27233333Y-56297188D02*
X27233333Y-56030521D01*
X27233333Y-56030521D02*
X27271429Y-55878140D01*
X27271429Y-55878140D02*
X27347619Y-55801950D01*
X27347619Y-55801950D02*
X27423810Y-55763855D01*
X33709523Y-55801950D02*
X33633333Y-55763855D01*
X33633333Y-55763855D02*
X33519047Y-55763855D01*
X33519047Y-55763855D02*
X33404761Y-55801950D01*
X33404761Y-55801950D02*
X33328571Y-55878140D01*
X33328571Y-55878140D02*
X33290476Y-55954331D01*
X33290476Y-55954331D02*
X33252380Y-56106712D01*
X33252380Y-56106712D02*
X33252380Y-56220998D01*
X33252380Y-56220998D02*
X33290476Y-56373379D01*
X33290476Y-56373379D02*
X33328571Y-56449569D01*
X33328571Y-56449569D02*
X33404761Y-56525760D01*
X33404761Y-56525760D02*
X33519047Y-56563855D01*
X33519047Y-56563855D02*
X33595238Y-56563855D01*
X33595238Y-56563855D02*
X33709523Y-56525760D01*
X33709523Y-56525760D02*
X33747619Y-56487664D01*
X33747619Y-56487664D02*
X33747619Y-56220998D01*
X33747619Y-56220998D02*
X33595238Y-56220998D01*
D11*
X79305112Y-51347842D02*
X79262255Y-51390700D01*
X79262255Y-51390700D02*
X79133683Y-51433557D01*
X79133683Y-51433557D02*
X79047969Y-51433557D01*
X79047969Y-51433557D02*
X78919398Y-51390700D01*
X78919398Y-51390700D02*
X78833683Y-51304985D01*
X78833683Y-51304985D02*
X78790826Y-51219271D01*
X78790826Y-51219271D02*
X78747969Y-51047842D01*
X78747969Y-51047842D02*
X78747969Y-50919271D01*
X78747969Y-50919271D02*
X78790826Y-50747842D01*
X78790826Y-50747842D02*
X78833683Y-50662128D01*
X78833683Y-50662128D02*
X78919398Y-50576414D01*
X78919398Y-50576414D02*
X79047969Y-50533557D01*
X79047969Y-50533557D02*
X79133683Y-50533557D01*
X79133683Y-50533557D02*
X79262255Y-50576414D01*
X79262255Y-50576414D02*
X79305112Y-50619271D01*
X79605112Y-50533557D02*
X80162255Y-50533557D01*
X80162255Y-50533557D02*
X79862255Y-50876414D01*
X79862255Y-50876414D02*
X79990826Y-50876414D01*
X79990826Y-50876414D02*
X80076541Y-50919271D01*
X80076541Y-50919271D02*
X80119398Y-50962128D01*
X80119398Y-50962128D02*
X80162255Y-51047842D01*
X80162255Y-51047842D02*
X80162255Y-51262128D01*
X80162255Y-51262128D02*
X80119398Y-51347842D01*
X80119398Y-51347842D02*
X80076541Y-51390700D01*
X80076541Y-51390700D02*
X79990826Y-51433557D01*
X79990826Y-51433557D02*
X79733683Y-51433557D01*
X79733683Y-51433557D02*
X79647969Y-51390700D01*
X79647969Y-51390700D02*
X79605112Y-51347842D01*
X107184285Y-68729271D02*
X107098571Y-68686414D01*
X107098571Y-68686414D02*
X107012857Y-68600700D01*
X107012857Y-68600700D02*
X106884285Y-68472128D01*
X106884285Y-68472128D02*
X106798571Y-68429271D01*
X106798571Y-68429271D02*
X106712857Y-68429271D01*
X106755714Y-68643557D02*
X106670000Y-68600700D01*
X106670000Y-68600700D02*
X106584285Y-68514985D01*
X106584285Y-68514985D02*
X106541428Y-68343557D01*
X106541428Y-68343557D02*
X106541428Y-68043557D01*
X106541428Y-68043557D02*
X106584285Y-67872128D01*
X106584285Y-67872128D02*
X106670000Y-67786414D01*
X106670000Y-67786414D02*
X106755714Y-67743557D01*
X106755714Y-67743557D02*
X106927142Y-67743557D01*
X106927142Y-67743557D02*
X107012857Y-67786414D01*
X107012857Y-67786414D02*
X107098571Y-67872128D01*
X107098571Y-67872128D02*
X107141428Y-68043557D01*
X107141428Y-68043557D02*
X107141428Y-68343557D01*
X107141428Y-68343557D02*
X107098571Y-68514985D01*
X107098571Y-68514985D02*
X107012857Y-68600700D01*
X107012857Y-68600700D02*
X106927142Y-68643557D01*
X106927142Y-68643557D02*
X106755714Y-68643557D01*
X107912857Y-68043557D02*
X107912857Y-68643557D01*
X107698571Y-67700700D02*
X107484285Y-68343557D01*
X107484285Y-68343557D02*
X108041428Y-68343557D01*
X48814286Y-64912307D02*
X49328572Y-64912307D01*
X49071429Y-65812307D02*
X49071429Y-64912307D01*
X50057143Y-64912307D02*
X49628571Y-64912307D01*
X49628571Y-64912307D02*
X49585714Y-65340878D01*
X49585714Y-65340878D02*
X49628571Y-65298021D01*
X49628571Y-65298021D02*
X49714286Y-65255164D01*
X49714286Y-65255164D02*
X49928571Y-65255164D01*
X49928571Y-65255164D02*
X50014286Y-65298021D01*
X50014286Y-65298021D02*
X50057143Y-65340878D01*
X50057143Y-65340878D02*
X50100000Y-65426592D01*
X50100000Y-65426592D02*
X50100000Y-65640878D01*
X50100000Y-65640878D02*
X50057143Y-65726592D01*
X50057143Y-65726592D02*
X50014286Y-65769450D01*
X50014286Y-65769450D02*
X49928571Y-65812307D01*
X49928571Y-65812307D02*
X49714286Y-65812307D01*
X49714286Y-65812307D02*
X49628571Y-65769450D01*
X49628571Y-65769450D02*
X49585714Y-65726592D01*
X67921428Y-67653557D02*
X67621428Y-67224985D01*
X67407142Y-67653557D02*
X67407142Y-66753557D01*
X67407142Y-66753557D02*
X67749999Y-66753557D01*
X67749999Y-66753557D02*
X67835714Y-66796414D01*
X67835714Y-66796414D02*
X67878571Y-66839271D01*
X67878571Y-66839271D02*
X67921428Y-66924985D01*
X67921428Y-66924985D02*
X67921428Y-67053557D01*
X67921428Y-67053557D02*
X67878571Y-67139271D01*
X67878571Y-67139271D02*
X67835714Y-67182128D01*
X67835714Y-67182128D02*
X67749999Y-67224985D01*
X67749999Y-67224985D02*
X67407142Y-67224985D01*
X68778571Y-67653557D02*
X68264285Y-67653557D01*
X68521428Y-67653557D02*
X68521428Y-66753557D01*
X68521428Y-66753557D02*
X68435714Y-66882128D01*
X68435714Y-66882128D02*
X68349999Y-66967842D01*
X68349999Y-66967842D02*
X68264285Y-67010700D01*
X69550000Y-67053557D02*
X69550000Y-67653557D01*
X69335714Y-66710700D02*
X69121428Y-67353557D01*
X69121428Y-67353557D02*
X69678571Y-67353557D01*
X48390000Y-49133557D02*
X48090000Y-48704985D01*
X47875714Y-49133557D02*
X47875714Y-48233557D01*
X47875714Y-48233557D02*
X48218571Y-48233557D01*
X48218571Y-48233557D02*
X48304286Y-48276414D01*
X48304286Y-48276414D02*
X48347143Y-48319271D01*
X48347143Y-48319271D02*
X48390000Y-48404985D01*
X48390000Y-48404985D02*
X48390000Y-48533557D01*
X48390000Y-48533557D02*
X48347143Y-48619271D01*
X48347143Y-48619271D02*
X48304286Y-48662128D01*
X48304286Y-48662128D02*
X48218571Y-48704985D01*
X48218571Y-48704985D02*
X47875714Y-48704985D01*
X48732857Y-48319271D02*
X48775714Y-48276414D01*
X48775714Y-48276414D02*
X48861429Y-48233557D01*
X48861429Y-48233557D02*
X49075714Y-48233557D01*
X49075714Y-48233557D02*
X49161429Y-48276414D01*
X49161429Y-48276414D02*
X49204286Y-48319271D01*
X49204286Y-48319271D02*
X49247143Y-48404985D01*
X49247143Y-48404985D02*
X49247143Y-48490700D01*
X49247143Y-48490700D02*
X49204286Y-48619271D01*
X49204286Y-48619271D02*
X48690000Y-49133557D01*
X48690000Y-49133557D02*
X49247143Y-49133557D01*
X55350000Y-46047842D02*
X55307143Y-46090700D01*
X55307143Y-46090700D02*
X55178571Y-46133557D01*
X55178571Y-46133557D02*
X55092857Y-46133557D01*
X55092857Y-46133557D02*
X54964286Y-46090700D01*
X54964286Y-46090700D02*
X54878571Y-46004985D01*
X54878571Y-46004985D02*
X54835714Y-45919271D01*
X54835714Y-45919271D02*
X54792857Y-45747842D01*
X54792857Y-45747842D02*
X54792857Y-45619271D01*
X54792857Y-45619271D02*
X54835714Y-45447842D01*
X54835714Y-45447842D02*
X54878571Y-45362128D01*
X54878571Y-45362128D02*
X54964286Y-45276414D01*
X54964286Y-45276414D02*
X55092857Y-45233557D01*
X55092857Y-45233557D02*
X55178571Y-45233557D01*
X55178571Y-45233557D02*
X55307143Y-45276414D01*
X55307143Y-45276414D02*
X55350000Y-45319271D01*
X56207143Y-46133557D02*
X55692857Y-46133557D01*
X55950000Y-46133557D02*
X55950000Y-45233557D01*
X55950000Y-45233557D02*
X55864286Y-45362128D01*
X55864286Y-45362128D02*
X55778571Y-45447842D01*
X55778571Y-45447842D02*
X55692857Y-45490700D01*
X48390000Y-59683557D02*
X48090000Y-59254985D01*
X47875714Y-59683557D02*
X47875714Y-58783557D01*
X47875714Y-58783557D02*
X48218571Y-58783557D01*
X48218571Y-58783557D02*
X48304286Y-58826414D01*
X48304286Y-58826414D02*
X48347143Y-58869271D01*
X48347143Y-58869271D02*
X48390000Y-58954985D01*
X48390000Y-58954985D02*
X48390000Y-59083557D01*
X48390000Y-59083557D02*
X48347143Y-59169271D01*
X48347143Y-59169271D02*
X48304286Y-59212128D01*
X48304286Y-59212128D02*
X48218571Y-59254985D01*
X48218571Y-59254985D02*
X47875714Y-59254985D01*
X48690000Y-58783557D02*
X49247143Y-58783557D01*
X49247143Y-58783557D02*
X48947143Y-59126414D01*
X48947143Y-59126414D02*
X49075714Y-59126414D01*
X49075714Y-59126414D02*
X49161429Y-59169271D01*
X49161429Y-59169271D02*
X49204286Y-59212128D01*
X49204286Y-59212128D02*
X49247143Y-59297842D01*
X49247143Y-59297842D02*
X49247143Y-59512128D01*
X49247143Y-59512128D02*
X49204286Y-59597842D01*
X49204286Y-59597842D02*
X49161429Y-59640700D01*
X49161429Y-59640700D02*
X49075714Y-59683557D01*
X49075714Y-59683557D02*
X48818571Y-59683557D01*
X48818571Y-59683557D02*
X48732857Y-59640700D01*
X48732857Y-59640700D02*
X48690000Y-59597842D01*
X99314286Y-40914807D02*
X99828572Y-40914807D01*
X99571429Y-41814807D02*
X99571429Y-40914807D01*
X100085714Y-41000521D02*
X100128571Y-40957664D01*
X100128571Y-40957664D02*
X100214286Y-40914807D01*
X100214286Y-40914807D02*
X100428571Y-40914807D01*
X100428571Y-40914807D02*
X100514286Y-40957664D01*
X100514286Y-40957664D02*
X100557143Y-41000521D01*
X100557143Y-41000521D02*
X100600000Y-41086235D01*
X100600000Y-41086235D02*
X100600000Y-41171950D01*
X100600000Y-41171950D02*
X100557143Y-41300521D01*
X100557143Y-41300521D02*
X100042857Y-41814807D01*
X100042857Y-41814807D02*
X100600000Y-41814807D01*
D10*
X105633333Y-40634855D02*
X106128571Y-40634855D01*
X106128571Y-40634855D02*
X105861905Y-40939617D01*
X105861905Y-40939617D02*
X105976190Y-40939617D01*
X105976190Y-40939617D02*
X106052381Y-40977712D01*
X106052381Y-40977712D02*
X106090476Y-41015807D01*
X106090476Y-41015807D02*
X106128571Y-41091998D01*
X106128571Y-41091998D02*
X106128571Y-41282474D01*
X106128571Y-41282474D02*
X106090476Y-41358664D01*
X106090476Y-41358664D02*
X106052381Y-41396760D01*
X106052381Y-41396760D02*
X105976190Y-41434855D01*
X105976190Y-41434855D02*
X105747619Y-41434855D01*
X105747619Y-41434855D02*
X105671428Y-41396760D01*
X105671428Y-41396760D02*
X105633333Y-41358664D01*
X94328571Y-41434855D02*
X93871428Y-41434855D01*
X94100000Y-41434855D02*
X94100000Y-40634855D01*
X94100000Y-40634855D02*
X94023809Y-40749140D01*
X94023809Y-40749140D02*
X93947619Y-40825331D01*
X93947619Y-40825331D02*
X93871428Y-40863426D01*
D11*
X39850000Y-28908557D02*
X39421428Y-28908557D01*
X39421428Y-28908557D02*
X39421428Y-28008557D01*
X40621428Y-28908557D02*
X40107142Y-28908557D01*
X40364285Y-28908557D02*
X40364285Y-28008557D01*
X40364285Y-28008557D02*
X40278571Y-28137128D01*
X40278571Y-28137128D02*
X40192856Y-28222842D01*
X40192856Y-28222842D02*
X40107142Y-28265700D01*
X47809522Y-29931009D02*
X47476189Y-29931009D01*
X47476189Y-30454819D02*
X47476189Y-29454819D01*
X47476189Y-29454819D02*
X47952379Y-29454819D01*
X48333332Y-29931009D02*
X48666665Y-29931009D01*
X48809522Y-30454819D02*
X48333332Y-30454819D01*
X48333332Y-30454819D02*
X48333332Y-29454819D01*
X48333332Y-29454819D02*
X48809522Y-29454819D01*
X49809522Y-30454819D02*
X49476189Y-29978628D01*
X49238094Y-30454819D02*
X49238094Y-29454819D01*
X49238094Y-29454819D02*
X49619046Y-29454819D01*
X49619046Y-29454819D02*
X49714284Y-29502438D01*
X49714284Y-29502438D02*
X49761903Y-29550057D01*
X49761903Y-29550057D02*
X49809522Y-29645295D01*
X49809522Y-29645295D02*
X49809522Y-29788152D01*
X49809522Y-29788152D02*
X49761903Y-29883390D01*
X49761903Y-29883390D02*
X49714284Y-29931009D01*
X49714284Y-29931009D02*
X49619046Y-29978628D01*
X49619046Y-29978628D02*
X49238094Y-29978628D01*
X50809522Y-30454819D02*
X50476189Y-29978628D01*
X50238094Y-30454819D02*
X50238094Y-29454819D01*
X50238094Y-29454819D02*
X50619046Y-29454819D01*
X50619046Y-29454819D02*
X50714284Y-29502438D01*
X50714284Y-29502438D02*
X50761903Y-29550057D01*
X50761903Y-29550057D02*
X50809522Y-29645295D01*
X50809522Y-29645295D02*
X50809522Y-29788152D01*
X50809522Y-29788152D02*
X50761903Y-29883390D01*
X50761903Y-29883390D02*
X50714284Y-29931009D01*
X50714284Y-29931009D02*
X50619046Y-29978628D01*
X50619046Y-29978628D02*
X50238094Y-29978628D01*
X51238094Y-30454819D02*
X51238094Y-29454819D01*
X51571427Y-29454819D02*
X52142855Y-29454819D01*
X51857141Y-30454819D02*
X51857141Y-29454819D01*
X52476189Y-29931009D02*
X52809522Y-29931009D01*
X52952379Y-30454819D02*
X52476189Y-30454819D01*
X52476189Y-30454819D02*
X52476189Y-29454819D01*
X52476189Y-29454819D02*
X52952379Y-29454819D01*
X54714284Y-30454819D02*
X54380951Y-29978628D01*
X54142856Y-30454819D02*
X54142856Y-29454819D01*
X54142856Y-29454819D02*
X54523808Y-29454819D01*
X54523808Y-29454819D02*
X54619046Y-29502438D01*
X54619046Y-29502438D02*
X54666665Y-29550057D01*
X54666665Y-29550057D02*
X54714284Y-29645295D01*
X54714284Y-29645295D02*
X54714284Y-29788152D01*
X54714284Y-29788152D02*
X54666665Y-29883390D01*
X54666665Y-29883390D02*
X54619046Y-29931009D01*
X54619046Y-29931009D02*
X54523808Y-29978628D01*
X54523808Y-29978628D02*
X54142856Y-29978628D01*
X55333332Y-29454819D02*
X55523808Y-29454819D01*
X55523808Y-29454819D02*
X55619046Y-29502438D01*
X55619046Y-29502438D02*
X55714284Y-29597676D01*
X55714284Y-29597676D02*
X55761903Y-29788152D01*
X55761903Y-29788152D02*
X55761903Y-30121485D01*
X55761903Y-30121485D02*
X55714284Y-30311961D01*
X55714284Y-30311961D02*
X55619046Y-30407200D01*
X55619046Y-30407200D02*
X55523808Y-30454819D01*
X55523808Y-30454819D02*
X55333332Y-30454819D01*
X55333332Y-30454819D02*
X55238094Y-30407200D01*
X55238094Y-30407200D02*
X55142856Y-30311961D01*
X55142856Y-30311961D02*
X55095237Y-30121485D01*
X55095237Y-30121485D02*
X55095237Y-29788152D01*
X55095237Y-29788152D02*
X55142856Y-29597676D01*
X55142856Y-29597676D02*
X55238094Y-29502438D01*
X55238094Y-29502438D02*
X55333332Y-29454819D01*
X56190475Y-30454819D02*
X56190475Y-29454819D01*
X56190475Y-29454819D02*
X56428570Y-29454819D01*
X56428570Y-29454819D02*
X56571427Y-29502438D01*
X56571427Y-29502438D02*
X56666665Y-29597676D01*
X56666665Y-29597676D02*
X56714284Y-29692914D01*
X56714284Y-29692914D02*
X56761903Y-29883390D01*
X56761903Y-29883390D02*
X56761903Y-30026247D01*
X56761903Y-30026247D02*
X56714284Y-30216723D01*
X56714284Y-30216723D02*
X56666665Y-30311961D01*
X56666665Y-30311961D02*
X56571427Y-30407200D01*
X56571427Y-30407200D02*
X56428570Y-30454819D01*
X56428570Y-30454819D02*
X56190475Y-30454819D01*
X57904761Y-30169104D02*
X58380951Y-30169104D01*
X57809523Y-30454819D02*
X58142856Y-29454819D01*
X58142856Y-29454819D02*
X58476189Y-30454819D01*
X58809523Y-30454819D02*
X58809523Y-29454819D01*
X58809523Y-29454819D02*
X59380951Y-30454819D01*
X59380951Y-30454819D02*
X59380951Y-29454819D01*
X59714285Y-29454819D02*
X60285713Y-29454819D01*
X59999999Y-30454819D02*
X59999999Y-29454819D01*
X60619047Y-29931009D02*
X60952380Y-29931009D01*
X61095237Y-30454819D02*
X60619047Y-30454819D01*
X60619047Y-30454819D02*
X60619047Y-29454819D01*
X60619047Y-29454819D02*
X61095237Y-29454819D01*
X61523809Y-30454819D02*
X61523809Y-29454819D01*
X61523809Y-29454819D02*
X62095237Y-30454819D01*
X62095237Y-30454819D02*
X62095237Y-29454819D01*
X62571428Y-30454819D02*
X62571428Y-29454819D01*
X62571428Y-29454819D02*
X63142856Y-30454819D01*
X63142856Y-30454819D02*
X63142856Y-29454819D01*
X63571428Y-30169104D02*
X64047618Y-30169104D01*
X63476190Y-30454819D02*
X63809523Y-29454819D01*
X63809523Y-29454819D02*
X64142856Y-30454819D01*
X65523809Y-30835771D02*
X65476190Y-30788152D01*
X65476190Y-30788152D02*
X65380952Y-30645295D01*
X65380952Y-30645295D02*
X65333333Y-30550057D01*
X65333333Y-30550057D02*
X65285714Y-30407200D01*
X65285714Y-30407200D02*
X65238095Y-30169104D01*
X65238095Y-30169104D02*
X65238095Y-29978628D01*
X65238095Y-29978628D02*
X65285714Y-29740533D01*
X65285714Y-29740533D02*
X65333333Y-29597676D01*
X65333333Y-29597676D02*
X65380952Y-29502438D01*
X65380952Y-29502438D02*
X65476190Y-29359580D01*
X65476190Y-29359580D02*
X65523809Y-29311961D01*
X65761905Y-29788152D02*
X66142857Y-29788152D01*
X65904762Y-29454819D02*
X65904762Y-30311961D01*
X65904762Y-30311961D02*
X65952381Y-30407200D01*
X65952381Y-30407200D02*
X66047619Y-30454819D01*
X66047619Y-30454819D02*
X66142857Y-30454819D01*
X66476191Y-30454819D02*
X66476191Y-29788152D01*
X66476191Y-29454819D02*
X66428572Y-29502438D01*
X66428572Y-29502438D02*
X66476191Y-29550057D01*
X66476191Y-29550057D02*
X66523810Y-29502438D01*
X66523810Y-29502438D02*
X66476191Y-29454819D01*
X66476191Y-29454819D02*
X66476191Y-29550057D01*
X67333333Y-30407200D02*
X67238095Y-30454819D01*
X67238095Y-30454819D02*
X67047619Y-30454819D01*
X67047619Y-30454819D02*
X66952381Y-30407200D01*
X66952381Y-30407200D02*
X66904762Y-30311961D01*
X66904762Y-30311961D02*
X66904762Y-29931009D01*
X66904762Y-29931009D02*
X66952381Y-29835771D01*
X66952381Y-29835771D02*
X67047619Y-29788152D01*
X67047619Y-29788152D02*
X67238095Y-29788152D01*
X67238095Y-29788152D02*
X67333333Y-29835771D01*
X67333333Y-29835771D02*
X67380952Y-29931009D01*
X67380952Y-29931009D02*
X67380952Y-30026247D01*
X67380952Y-30026247D02*
X66904762Y-30121485D01*
X69000000Y-30454819D02*
X69000000Y-29454819D01*
X69000000Y-30407200D02*
X68904762Y-30454819D01*
X68904762Y-30454819D02*
X68714286Y-30454819D01*
X68714286Y-30454819D02*
X68619048Y-30407200D01*
X68619048Y-30407200D02*
X68571429Y-30359580D01*
X68571429Y-30359580D02*
X68523810Y-30264342D01*
X68523810Y-30264342D02*
X68523810Y-29978628D01*
X68523810Y-29978628D02*
X68571429Y-29883390D01*
X68571429Y-29883390D02*
X68619048Y-29835771D01*
X68619048Y-29835771D02*
X68714286Y-29788152D01*
X68714286Y-29788152D02*
X68904762Y-29788152D01*
X68904762Y-29788152D02*
X69000000Y-29835771D01*
X69619048Y-30454819D02*
X69523810Y-30407200D01*
X69523810Y-30407200D02*
X69476191Y-30359580D01*
X69476191Y-30359580D02*
X69428572Y-30264342D01*
X69428572Y-30264342D02*
X69428572Y-29978628D01*
X69428572Y-29978628D02*
X69476191Y-29883390D01*
X69476191Y-29883390D02*
X69523810Y-29835771D01*
X69523810Y-29835771D02*
X69619048Y-29788152D01*
X69619048Y-29788152D02*
X69761905Y-29788152D01*
X69761905Y-29788152D02*
X69857143Y-29835771D01*
X69857143Y-29835771D02*
X69904762Y-29883390D01*
X69904762Y-29883390D02*
X69952381Y-29978628D01*
X69952381Y-29978628D02*
X69952381Y-30264342D01*
X69952381Y-30264342D02*
X69904762Y-30359580D01*
X69904762Y-30359580D02*
X69857143Y-30407200D01*
X69857143Y-30407200D02*
X69761905Y-30454819D01*
X69761905Y-30454819D02*
X69619048Y-30454819D01*
X70285715Y-29788152D02*
X70476191Y-30454819D01*
X70476191Y-30454819D02*
X70666667Y-29978628D01*
X70666667Y-29978628D02*
X70857143Y-30454819D01*
X70857143Y-30454819D02*
X71047619Y-29788152D01*
X71428572Y-29788152D02*
X71428572Y-30454819D01*
X71428572Y-29883390D02*
X71476191Y-29835771D01*
X71476191Y-29835771D02*
X71571429Y-29788152D01*
X71571429Y-29788152D02*
X71714286Y-29788152D01*
X71714286Y-29788152D02*
X71809524Y-29835771D01*
X71809524Y-29835771D02*
X71857143Y-29931009D01*
X71857143Y-29931009D02*
X71857143Y-30454819D01*
X73095239Y-30454819D02*
X73095239Y-29454819D01*
X73523810Y-30454819D02*
X73523810Y-29931009D01*
X73523810Y-29931009D02*
X73476191Y-29835771D01*
X73476191Y-29835771D02*
X73380953Y-29788152D01*
X73380953Y-29788152D02*
X73238096Y-29788152D01*
X73238096Y-29788152D02*
X73142858Y-29835771D01*
X73142858Y-29835771D02*
X73095239Y-29883390D01*
X74380953Y-30407200D02*
X74285715Y-30454819D01*
X74285715Y-30454819D02*
X74095239Y-30454819D01*
X74095239Y-30454819D02*
X74000001Y-30407200D01*
X74000001Y-30407200D02*
X73952382Y-30311961D01*
X73952382Y-30311961D02*
X73952382Y-29931009D01*
X73952382Y-29931009D02*
X74000001Y-29835771D01*
X74000001Y-29835771D02*
X74095239Y-29788152D01*
X74095239Y-29788152D02*
X74285715Y-29788152D01*
X74285715Y-29788152D02*
X74380953Y-29835771D01*
X74380953Y-29835771D02*
X74428572Y-29931009D01*
X74428572Y-29931009D02*
X74428572Y-30026247D01*
X74428572Y-30026247D02*
X73952382Y-30121485D01*
X74857144Y-30454819D02*
X74857144Y-29788152D01*
X74857144Y-29978628D02*
X74904763Y-29883390D01*
X74904763Y-29883390D02*
X74952382Y-29835771D01*
X74952382Y-29835771D02*
X75047620Y-29788152D01*
X75047620Y-29788152D02*
X75142858Y-29788152D01*
X75857144Y-30407200D02*
X75761906Y-30454819D01*
X75761906Y-30454819D02*
X75571430Y-30454819D01*
X75571430Y-30454819D02*
X75476192Y-30407200D01*
X75476192Y-30407200D02*
X75428573Y-30311961D01*
X75428573Y-30311961D02*
X75428573Y-29931009D01*
X75428573Y-29931009D02*
X75476192Y-29835771D01*
X75476192Y-29835771D02*
X75571430Y-29788152D01*
X75571430Y-29788152D02*
X75761906Y-29788152D01*
X75761906Y-29788152D02*
X75857144Y-29835771D01*
X75857144Y-29835771D02*
X75904763Y-29931009D01*
X75904763Y-29931009D02*
X75904763Y-30026247D01*
X75904763Y-30026247D02*
X75428573Y-30121485D01*
X76238097Y-30835771D02*
X76285716Y-30788152D01*
X76285716Y-30788152D02*
X76380954Y-30645295D01*
X76380954Y-30645295D02*
X76428573Y-30550057D01*
X76428573Y-30550057D02*
X76476192Y-30407200D01*
X76476192Y-30407200D02*
X76523811Y-30169104D01*
X76523811Y-30169104D02*
X76523811Y-29978628D01*
X76523811Y-29978628D02*
X76476192Y-29740533D01*
X76476192Y-29740533D02*
X76428573Y-29597676D01*
X76428573Y-29597676D02*
X76380954Y-29502438D01*
X76380954Y-29502438D02*
X76285716Y-29359580D01*
X76285716Y-29359580D02*
X76238097Y-29311961D01*
D10*
X26763855Y-31828572D02*
X26763855Y-32285715D01*
X26763855Y-32057143D02*
X25963855Y-32057143D01*
X25963855Y-32057143D02*
X26078140Y-32133334D01*
X26078140Y-32133334D02*
X26154331Y-32209524D01*
X26154331Y-32209524D02*
X26192426Y-32285715D01*
X26040045Y-30914286D02*
X26001950Y-30876190D01*
X26001950Y-30876190D02*
X25963855Y-30800000D01*
X25963855Y-30800000D02*
X25963855Y-30609524D01*
X25963855Y-30609524D02*
X26001950Y-30533333D01*
X26001950Y-30533333D02*
X26040045Y-30495238D01*
X26040045Y-30495238D02*
X26116236Y-30457143D01*
X26116236Y-30457143D02*
X26192426Y-30457143D01*
X26192426Y-30457143D02*
X26306712Y-30495238D01*
X26306712Y-30495238D02*
X26763855Y-30952381D01*
X26763855Y-30952381D02*
X26763855Y-30457143D01*
X25963855Y-29580952D02*
X25963855Y-29085714D01*
X25963855Y-29085714D02*
X26268617Y-29352380D01*
X26268617Y-29352380D02*
X26268617Y-29238095D01*
X26268617Y-29238095D02*
X26306712Y-29161904D01*
X26306712Y-29161904D02*
X26344807Y-29123809D01*
X26344807Y-29123809D02*
X26420998Y-29085714D01*
X26420998Y-29085714D02*
X26611474Y-29085714D01*
X26611474Y-29085714D02*
X26687664Y-29123809D01*
X26687664Y-29123809D02*
X26725760Y-29161904D01*
X26725760Y-29161904D02*
X26763855Y-29238095D01*
X26763855Y-29238095D02*
X26763855Y-29466666D01*
X26763855Y-29466666D02*
X26725760Y-29542857D01*
X26725760Y-29542857D02*
X26687664Y-29580952D01*
X26230521Y-27790475D02*
X26763855Y-27790475D01*
X25925760Y-27980951D02*
X26497188Y-28171428D01*
X26497188Y-28171428D02*
X26497188Y-27676189D01*
D11*
X111184285Y-39539271D02*
X111098571Y-39496414D01*
X111098571Y-39496414D02*
X111012857Y-39410700D01*
X111012857Y-39410700D02*
X110884285Y-39282128D01*
X110884285Y-39282128D02*
X110798571Y-39239271D01*
X110798571Y-39239271D02*
X110712857Y-39239271D01*
X110755714Y-39453557D02*
X110670000Y-39410700D01*
X110670000Y-39410700D02*
X110584285Y-39324985D01*
X110584285Y-39324985D02*
X110541428Y-39153557D01*
X110541428Y-39153557D02*
X110541428Y-38853557D01*
X110541428Y-38853557D02*
X110584285Y-38682128D01*
X110584285Y-38682128D02*
X110670000Y-38596414D01*
X110670000Y-38596414D02*
X110755714Y-38553557D01*
X110755714Y-38553557D02*
X110927142Y-38553557D01*
X110927142Y-38553557D02*
X111012857Y-38596414D01*
X111012857Y-38596414D02*
X111098571Y-38682128D01*
X111098571Y-38682128D02*
X111141428Y-38853557D01*
X111141428Y-38853557D02*
X111141428Y-39153557D01*
X111141428Y-39153557D02*
X111098571Y-39324985D01*
X111098571Y-39324985D02*
X111012857Y-39410700D01*
X111012857Y-39410700D02*
X110927142Y-39453557D01*
X110927142Y-39453557D02*
X110755714Y-39453557D01*
X111441428Y-38553557D02*
X111998571Y-38553557D01*
X111998571Y-38553557D02*
X111698571Y-38896414D01*
X111698571Y-38896414D02*
X111827142Y-38896414D01*
X111827142Y-38896414D02*
X111912857Y-38939271D01*
X111912857Y-38939271D02*
X111955714Y-38982128D01*
X111955714Y-38982128D02*
X111998571Y-39067842D01*
X111998571Y-39067842D02*
X111998571Y-39282128D01*
X111998571Y-39282128D02*
X111955714Y-39367842D01*
X111955714Y-39367842D02*
X111912857Y-39410700D01*
X111912857Y-39410700D02*
X111827142Y-39453557D01*
X111827142Y-39453557D02*
X111569999Y-39453557D01*
X111569999Y-39453557D02*
X111484285Y-39410700D01*
X111484285Y-39410700D02*
X111441428Y-39367842D01*
X76314286Y-40914807D02*
X76828572Y-40914807D01*
X76571429Y-41814807D02*
X76571429Y-40914807D01*
X77600000Y-41814807D02*
X77085714Y-41814807D01*
X77342857Y-41814807D02*
X77342857Y-40914807D01*
X77342857Y-40914807D02*
X77257143Y-41043378D01*
X77257143Y-41043378D02*
X77171428Y-41129092D01*
X77171428Y-41129092D02*
X77085714Y-41171950D01*
D10*
X82633333Y-40634855D02*
X83128571Y-40634855D01*
X83128571Y-40634855D02*
X82861905Y-40939617D01*
X82861905Y-40939617D02*
X82976190Y-40939617D01*
X82976190Y-40939617D02*
X83052381Y-40977712D01*
X83052381Y-40977712D02*
X83090476Y-41015807D01*
X83090476Y-41015807D02*
X83128571Y-41091998D01*
X83128571Y-41091998D02*
X83128571Y-41282474D01*
X83128571Y-41282474D02*
X83090476Y-41358664D01*
X83090476Y-41358664D02*
X83052381Y-41396760D01*
X83052381Y-41396760D02*
X82976190Y-41434855D01*
X82976190Y-41434855D02*
X82747619Y-41434855D01*
X82747619Y-41434855D02*
X82671428Y-41396760D01*
X82671428Y-41396760D02*
X82633333Y-41358664D01*
X71328571Y-41434855D02*
X70871428Y-41434855D01*
X71100000Y-41434855D02*
X71100000Y-40634855D01*
X71100000Y-40634855D02*
X71023809Y-40749140D01*
X71023809Y-40749140D02*
X70947619Y-40825331D01*
X70947619Y-40825331D02*
X70871428Y-40863426D01*
D11*
X94390000Y-56133557D02*
X94090000Y-55704985D01*
X93875714Y-56133557D02*
X93875714Y-55233557D01*
X93875714Y-55233557D02*
X94218571Y-55233557D01*
X94218571Y-55233557D02*
X94304286Y-55276414D01*
X94304286Y-55276414D02*
X94347143Y-55319271D01*
X94347143Y-55319271D02*
X94390000Y-55404985D01*
X94390000Y-55404985D02*
X94390000Y-55533557D01*
X94390000Y-55533557D02*
X94347143Y-55619271D01*
X94347143Y-55619271D02*
X94304286Y-55662128D01*
X94304286Y-55662128D02*
X94218571Y-55704985D01*
X94218571Y-55704985D02*
X93875714Y-55704985D01*
X94904286Y-55619271D02*
X94818571Y-55576414D01*
X94818571Y-55576414D02*
X94775714Y-55533557D01*
X94775714Y-55533557D02*
X94732857Y-55447842D01*
X94732857Y-55447842D02*
X94732857Y-55404985D01*
X94732857Y-55404985D02*
X94775714Y-55319271D01*
X94775714Y-55319271D02*
X94818571Y-55276414D01*
X94818571Y-55276414D02*
X94904286Y-55233557D01*
X94904286Y-55233557D02*
X95075714Y-55233557D01*
X95075714Y-55233557D02*
X95161429Y-55276414D01*
X95161429Y-55276414D02*
X95204286Y-55319271D01*
X95204286Y-55319271D02*
X95247143Y-55404985D01*
X95247143Y-55404985D02*
X95247143Y-55447842D01*
X95247143Y-55447842D02*
X95204286Y-55533557D01*
X95204286Y-55533557D02*
X95161429Y-55576414D01*
X95161429Y-55576414D02*
X95075714Y-55619271D01*
X95075714Y-55619271D02*
X94904286Y-55619271D01*
X94904286Y-55619271D02*
X94818571Y-55662128D01*
X94818571Y-55662128D02*
X94775714Y-55704985D01*
X94775714Y-55704985D02*
X94732857Y-55790700D01*
X94732857Y-55790700D02*
X94732857Y-55962128D01*
X94732857Y-55962128D02*
X94775714Y-56047842D01*
X94775714Y-56047842D02*
X94818571Y-56090700D01*
X94818571Y-56090700D02*
X94904286Y-56133557D01*
X94904286Y-56133557D02*
X95075714Y-56133557D01*
X95075714Y-56133557D02*
X95161429Y-56090700D01*
X95161429Y-56090700D02*
X95204286Y-56047842D01*
X95204286Y-56047842D02*
X95247143Y-55962128D01*
X95247143Y-55962128D02*
X95247143Y-55790700D01*
X95247143Y-55790700D02*
X95204286Y-55704985D01*
X95204286Y-55704985D02*
X95161429Y-55662128D01*
X95161429Y-55662128D02*
X95075714Y-55619271D01*
X49684285Y-39539271D02*
X49598571Y-39496414D01*
X49598571Y-39496414D02*
X49512857Y-39410700D01*
X49512857Y-39410700D02*
X49384285Y-39282128D01*
X49384285Y-39282128D02*
X49298571Y-39239271D01*
X49298571Y-39239271D02*
X49212857Y-39239271D01*
X49255714Y-39453557D02*
X49170000Y-39410700D01*
X49170000Y-39410700D02*
X49084285Y-39324985D01*
X49084285Y-39324985D02*
X49041428Y-39153557D01*
X49041428Y-39153557D02*
X49041428Y-38853557D01*
X49041428Y-38853557D02*
X49084285Y-38682128D01*
X49084285Y-38682128D02*
X49170000Y-38596414D01*
X49170000Y-38596414D02*
X49255714Y-38553557D01*
X49255714Y-38553557D02*
X49427142Y-38553557D01*
X49427142Y-38553557D02*
X49512857Y-38596414D01*
X49512857Y-38596414D02*
X49598571Y-38682128D01*
X49598571Y-38682128D02*
X49641428Y-38853557D01*
X49641428Y-38853557D02*
X49641428Y-39153557D01*
X49641428Y-39153557D02*
X49598571Y-39324985D01*
X49598571Y-39324985D02*
X49512857Y-39410700D01*
X49512857Y-39410700D02*
X49427142Y-39453557D01*
X49427142Y-39453557D02*
X49255714Y-39453557D01*
X50498571Y-39453557D02*
X49984285Y-39453557D01*
X50241428Y-39453557D02*
X50241428Y-38553557D01*
X50241428Y-38553557D02*
X50155714Y-38682128D01*
X50155714Y-38682128D02*
X50069999Y-38767842D01*
X50069999Y-38767842D02*
X49984285Y-38810700D01*
X72184285Y-60539271D02*
X72098571Y-60496414D01*
X72098571Y-60496414D02*
X72012857Y-60410700D01*
X72012857Y-60410700D02*
X71884285Y-60282128D01*
X71884285Y-60282128D02*
X71798571Y-60239271D01*
X71798571Y-60239271D02*
X71712857Y-60239271D01*
X71755714Y-60453557D02*
X71670000Y-60410700D01*
X71670000Y-60410700D02*
X71584285Y-60324985D01*
X71584285Y-60324985D02*
X71541428Y-60153557D01*
X71541428Y-60153557D02*
X71541428Y-59853557D01*
X71541428Y-59853557D02*
X71584285Y-59682128D01*
X71584285Y-59682128D02*
X71670000Y-59596414D01*
X71670000Y-59596414D02*
X71755714Y-59553557D01*
X71755714Y-59553557D02*
X71927142Y-59553557D01*
X71927142Y-59553557D02*
X72012857Y-59596414D01*
X72012857Y-59596414D02*
X72098571Y-59682128D01*
X72098571Y-59682128D02*
X72141428Y-59853557D01*
X72141428Y-59853557D02*
X72141428Y-60153557D01*
X72141428Y-60153557D02*
X72098571Y-60324985D01*
X72098571Y-60324985D02*
X72012857Y-60410700D01*
X72012857Y-60410700D02*
X71927142Y-60453557D01*
X71927142Y-60453557D02*
X71755714Y-60453557D01*
X72955714Y-59553557D02*
X72527142Y-59553557D01*
X72527142Y-59553557D02*
X72484285Y-59982128D01*
X72484285Y-59982128D02*
X72527142Y-59939271D01*
X72527142Y-59939271D02*
X72612857Y-59896414D01*
X72612857Y-59896414D02*
X72827142Y-59896414D01*
X72827142Y-59896414D02*
X72912857Y-59939271D01*
X72912857Y-59939271D02*
X72955714Y-59982128D01*
X72955714Y-59982128D02*
X72998571Y-60067842D01*
X72998571Y-60067842D02*
X72998571Y-60282128D01*
X72998571Y-60282128D02*
X72955714Y-60367842D01*
X72955714Y-60367842D02*
X72912857Y-60410700D01*
X72912857Y-60410700D02*
X72827142Y-60453557D01*
X72827142Y-60453557D02*
X72612857Y-60453557D01*
X72612857Y-60453557D02*
X72527142Y-60410700D01*
X72527142Y-60410700D02*
X72484285Y-60367842D01*
X94390000Y-52633557D02*
X94090000Y-52204985D01*
X93875714Y-52633557D02*
X93875714Y-51733557D01*
X93875714Y-51733557D02*
X94218571Y-51733557D01*
X94218571Y-51733557D02*
X94304286Y-51776414D01*
X94304286Y-51776414D02*
X94347143Y-51819271D01*
X94347143Y-51819271D02*
X94390000Y-51904985D01*
X94390000Y-51904985D02*
X94390000Y-52033557D01*
X94390000Y-52033557D02*
X94347143Y-52119271D01*
X94347143Y-52119271D02*
X94304286Y-52162128D01*
X94304286Y-52162128D02*
X94218571Y-52204985D01*
X94218571Y-52204985D02*
X93875714Y-52204985D01*
X94690000Y-51733557D02*
X95290000Y-51733557D01*
X95290000Y-51733557D02*
X94904286Y-52633557D01*
X48390000Y-45633557D02*
X48090000Y-45204985D01*
X47875714Y-45633557D02*
X47875714Y-44733557D01*
X47875714Y-44733557D02*
X48218571Y-44733557D01*
X48218571Y-44733557D02*
X48304286Y-44776414D01*
X48304286Y-44776414D02*
X48347143Y-44819271D01*
X48347143Y-44819271D02*
X48390000Y-44904985D01*
X48390000Y-44904985D02*
X48390000Y-45033557D01*
X48390000Y-45033557D02*
X48347143Y-45119271D01*
X48347143Y-45119271D02*
X48304286Y-45162128D01*
X48304286Y-45162128D02*
X48218571Y-45204985D01*
X48218571Y-45204985D02*
X47875714Y-45204985D01*
X49247143Y-45633557D02*
X48732857Y-45633557D01*
X48990000Y-45633557D02*
X48990000Y-44733557D01*
X48990000Y-44733557D02*
X48904286Y-44862128D01*
X48904286Y-44862128D02*
X48818571Y-44947842D01*
X48818571Y-44947842D02*
X48732857Y-44990700D01*
X63350000Y-41814807D02*
X62921428Y-41814807D01*
X62921428Y-41814807D02*
X62921428Y-40914807D01*
X63607142Y-41000521D02*
X63649999Y-40957664D01*
X63649999Y-40957664D02*
X63735714Y-40914807D01*
X63735714Y-40914807D02*
X63949999Y-40914807D01*
X63949999Y-40914807D02*
X64035714Y-40957664D01*
X64035714Y-40957664D02*
X64078571Y-41000521D01*
X64078571Y-41000521D02*
X64121428Y-41086235D01*
X64121428Y-41086235D02*
X64121428Y-41171950D01*
X64121428Y-41171950D02*
X64078571Y-41300521D01*
X64078571Y-41300521D02*
X63564285Y-41814807D01*
X63564285Y-41814807D02*
X64121428Y-41814807D01*
D10*
X69133333Y-40634855D02*
X69628571Y-40634855D01*
X69628571Y-40634855D02*
X69361905Y-40939617D01*
X69361905Y-40939617D02*
X69476190Y-40939617D01*
X69476190Y-40939617D02*
X69552381Y-40977712D01*
X69552381Y-40977712D02*
X69590476Y-41015807D01*
X69590476Y-41015807D02*
X69628571Y-41091998D01*
X69628571Y-41091998D02*
X69628571Y-41282474D01*
X69628571Y-41282474D02*
X69590476Y-41358664D01*
X69590476Y-41358664D02*
X69552381Y-41396760D01*
X69552381Y-41396760D02*
X69476190Y-41434855D01*
X69476190Y-41434855D02*
X69247619Y-41434855D01*
X69247619Y-41434855D02*
X69171428Y-41396760D01*
X69171428Y-41396760D02*
X69133333Y-41358664D01*
X57828571Y-41434855D02*
X57371428Y-41434855D01*
X57600000Y-41434855D02*
X57600000Y-40634855D01*
X57600000Y-40634855D02*
X57523809Y-40749140D01*
X57523809Y-40749140D02*
X57447619Y-40825331D01*
X57447619Y-40825331D02*
X57371428Y-40863426D01*
D11*
X106461428Y-72633557D02*
X106161428Y-72204985D01*
X105947142Y-72633557D02*
X105947142Y-71733557D01*
X105947142Y-71733557D02*
X106289999Y-71733557D01*
X106289999Y-71733557D02*
X106375714Y-71776414D01*
X106375714Y-71776414D02*
X106418571Y-71819271D01*
X106418571Y-71819271D02*
X106461428Y-71904985D01*
X106461428Y-71904985D02*
X106461428Y-72033557D01*
X106461428Y-72033557D02*
X106418571Y-72119271D01*
X106418571Y-72119271D02*
X106375714Y-72162128D01*
X106375714Y-72162128D02*
X106289999Y-72204985D01*
X106289999Y-72204985D02*
X105947142Y-72204985D01*
X107318571Y-72633557D02*
X106804285Y-72633557D01*
X107061428Y-72633557D02*
X107061428Y-71733557D01*
X107061428Y-71733557D02*
X106975714Y-71862128D01*
X106975714Y-71862128D02*
X106889999Y-71947842D01*
X106889999Y-71947842D02*
X106804285Y-71990700D01*
X107618571Y-71733557D02*
X108175714Y-71733557D01*
X108175714Y-71733557D02*
X107875714Y-72076414D01*
X107875714Y-72076414D02*
X108004285Y-72076414D01*
X108004285Y-72076414D02*
X108090000Y-72119271D01*
X108090000Y-72119271D02*
X108132857Y-72162128D01*
X108132857Y-72162128D02*
X108175714Y-72247842D01*
X108175714Y-72247842D02*
X108175714Y-72462128D01*
X108175714Y-72462128D02*
X108132857Y-72547842D01*
X108132857Y-72547842D02*
X108090000Y-72590700D01*
X108090000Y-72590700D02*
X108004285Y-72633557D01*
X108004285Y-72633557D02*
X107747142Y-72633557D01*
X107747142Y-72633557D02*
X107661428Y-72590700D01*
X107661428Y-72590700D02*
X107618571Y-72547842D01*
X101850000Y-52097842D02*
X101807143Y-52140700D01*
X101807143Y-52140700D02*
X101678571Y-52183557D01*
X101678571Y-52183557D02*
X101592857Y-52183557D01*
X101592857Y-52183557D02*
X101464286Y-52140700D01*
X101464286Y-52140700D02*
X101378571Y-52054985D01*
X101378571Y-52054985D02*
X101335714Y-51969271D01*
X101335714Y-51969271D02*
X101292857Y-51797842D01*
X101292857Y-51797842D02*
X101292857Y-51669271D01*
X101292857Y-51669271D02*
X101335714Y-51497842D01*
X101335714Y-51497842D02*
X101378571Y-51412128D01*
X101378571Y-51412128D02*
X101464286Y-51326414D01*
X101464286Y-51326414D02*
X101592857Y-51283557D01*
X101592857Y-51283557D02*
X101678571Y-51283557D01*
X101678571Y-51283557D02*
X101807143Y-51326414D01*
X101807143Y-51326414D02*
X101850000Y-51369271D01*
X102664286Y-51283557D02*
X102235714Y-51283557D01*
X102235714Y-51283557D02*
X102192857Y-51712128D01*
X102192857Y-51712128D02*
X102235714Y-51669271D01*
X102235714Y-51669271D02*
X102321429Y-51626414D01*
X102321429Y-51626414D02*
X102535714Y-51626414D01*
X102535714Y-51626414D02*
X102621429Y-51669271D01*
X102621429Y-51669271D02*
X102664286Y-51712128D01*
X102664286Y-51712128D02*
X102707143Y-51797842D01*
X102707143Y-51797842D02*
X102707143Y-52012128D01*
X102707143Y-52012128D02*
X102664286Y-52097842D01*
X102664286Y-52097842D02*
X102621429Y-52140700D01*
X102621429Y-52140700D02*
X102535714Y-52183557D01*
X102535714Y-52183557D02*
X102321429Y-52183557D01*
X102321429Y-52183557D02*
X102235714Y-52140700D01*
X102235714Y-52140700D02*
X102192857Y-52097842D01*
X87390000Y-46133557D02*
X87090000Y-45704985D01*
X86875714Y-46133557D02*
X86875714Y-45233557D01*
X86875714Y-45233557D02*
X87218571Y-45233557D01*
X87218571Y-45233557D02*
X87304286Y-45276414D01*
X87304286Y-45276414D02*
X87347143Y-45319271D01*
X87347143Y-45319271D02*
X87390000Y-45404985D01*
X87390000Y-45404985D02*
X87390000Y-45533557D01*
X87390000Y-45533557D02*
X87347143Y-45619271D01*
X87347143Y-45619271D02*
X87304286Y-45662128D01*
X87304286Y-45662128D02*
X87218571Y-45704985D01*
X87218571Y-45704985D02*
X86875714Y-45704985D01*
X88161429Y-45233557D02*
X87990000Y-45233557D01*
X87990000Y-45233557D02*
X87904286Y-45276414D01*
X87904286Y-45276414D02*
X87861429Y-45319271D01*
X87861429Y-45319271D02*
X87775714Y-45447842D01*
X87775714Y-45447842D02*
X87732857Y-45619271D01*
X87732857Y-45619271D02*
X87732857Y-45962128D01*
X87732857Y-45962128D02*
X87775714Y-46047842D01*
X87775714Y-46047842D02*
X87818571Y-46090700D01*
X87818571Y-46090700D02*
X87904286Y-46133557D01*
X87904286Y-46133557D02*
X88075714Y-46133557D01*
X88075714Y-46133557D02*
X88161429Y-46090700D01*
X88161429Y-46090700D02*
X88204286Y-46047842D01*
X88204286Y-46047842D02*
X88247143Y-45962128D01*
X88247143Y-45962128D02*
X88247143Y-45747842D01*
X88247143Y-45747842D02*
X88204286Y-45662128D01*
X88204286Y-45662128D02*
X88161429Y-45619271D01*
X88161429Y-45619271D02*
X88075714Y-45576414D01*
X88075714Y-45576414D02*
X87904286Y-45576414D01*
X87904286Y-45576414D02*
X87818571Y-45619271D01*
X87818571Y-45619271D02*
X87775714Y-45662128D01*
X87775714Y-45662128D02*
X87732857Y-45747842D01*
X125876540Y-51847842D02*
X125833683Y-51890700D01*
X125833683Y-51890700D02*
X125705111Y-51933557D01*
X125705111Y-51933557D02*
X125619397Y-51933557D01*
X125619397Y-51933557D02*
X125490826Y-51890700D01*
X125490826Y-51890700D02*
X125405111Y-51804985D01*
X125405111Y-51804985D02*
X125362254Y-51719271D01*
X125362254Y-51719271D02*
X125319397Y-51547842D01*
X125319397Y-51547842D02*
X125319397Y-51419271D01*
X125319397Y-51419271D02*
X125362254Y-51247842D01*
X125362254Y-51247842D02*
X125405111Y-51162128D01*
X125405111Y-51162128D02*
X125490826Y-51076414D01*
X125490826Y-51076414D02*
X125619397Y-51033557D01*
X125619397Y-51033557D02*
X125705111Y-51033557D01*
X125705111Y-51033557D02*
X125833683Y-51076414D01*
X125833683Y-51076414D02*
X125876540Y-51119271D01*
X126733683Y-51933557D02*
X126219397Y-51933557D01*
X126476540Y-51933557D02*
X126476540Y-51033557D01*
X126476540Y-51033557D02*
X126390826Y-51162128D01*
X126390826Y-51162128D02*
X126305111Y-51247842D01*
X126305111Y-51247842D02*
X126219397Y-51290700D01*
X127033683Y-51033557D02*
X127590826Y-51033557D01*
X127590826Y-51033557D02*
X127290826Y-51376414D01*
X127290826Y-51376414D02*
X127419397Y-51376414D01*
X127419397Y-51376414D02*
X127505112Y-51419271D01*
X127505112Y-51419271D02*
X127547969Y-51462128D01*
X127547969Y-51462128D02*
X127590826Y-51547842D01*
X127590826Y-51547842D02*
X127590826Y-51762128D01*
X127590826Y-51762128D02*
X127547969Y-51847842D01*
X127547969Y-51847842D02*
X127505112Y-51890700D01*
X127505112Y-51890700D02*
X127419397Y-51933557D01*
X127419397Y-51933557D02*
X127162254Y-51933557D01*
X127162254Y-51933557D02*
X127076540Y-51890700D01*
X127076540Y-51890700D02*
X127033683Y-51847842D01*
X162292857Y-39937128D02*
X162421429Y-39979985D01*
X162421429Y-39979985D02*
X162464286Y-40022842D01*
X162464286Y-40022842D02*
X162507143Y-40108557D01*
X162507143Y-40108557D02*
X162507143Y-40237128D01*
X162507143Y-40237128D02*
X162464286Y-40322842D01*
X162464286Y-40322842D02*
X162421429Y-40365700D01*
X162421429Y-40365700D02*
X162335714Y-40408557D01*
X162335714Y-40408557D02*
X161992857Y-40408557D01*
X161992857Y-40408557D02*
X161992857Y-39508557D01*
X161992857Y-39508557D02*
X162292857Y-39508557D01*
X162292857Y-39508557D02*
X162378572Y-39551414D01*
X162378572Y-39551414D02*
X162421429Y-39594271D01*
X162421429Y-39594271D02*
X162464286Y-39679985D01*
X162464286Y-39679985D02*
X162464286Y-39765700D01*
X162464286Y-39765700D02*
X162421429Y-39851414D01*
X162421429Y-39851414D02*
X162378572Y-39894271D01*
X162378572Y-39894271D02*
X162292857Y-39937128D01*
X162292857Y-39937128D02*
X161992857Y-39937128D01*
X162764286Y-39508557D02*
X163278572Y-39508557D01*
X163021429Y-40408557D02*
X163021429Y-39508557D01*
X164050000Y-40408557D02*
X163535714Y-40408557D01*
X163792857Y-40408557D02*
X163792857Y-39508557D01*
X163792857Y-39508557D02*
X163707143Y-39637128D01*
X163707143Y-39637128D02*
X163621428Y-39722842D01*
X163621428Y-39722842D02*
X163535714Y-39765700D01*
X130357142Y-32237200D02*
X132642857Y-32237200D01*
X131499999Y-33380057D02*
X131499999Y-31094342D01*
X72390000Y-55633557D02*
X72090000Y-55204985D01*
X71875714Y-55633557D02*
X71875714Y-54733557D01*
X71875714Y-54733557D02*
X72218571Y-54733557D01*
X72218571Y-54733557D02*
X72304286Y-54776414D01*
X72304286Y-54776414D02*
X72347143Y-54819271D01*
X72347143Y-54819271D02*
X72390000Y-54904985D01*
X72390000Y-54904985D02*
X72390000Y-55033557D01*
X72390000Y-55033557D02*
X72347143Y-55119271D01*
X72347143Y-55119271D02*
X72304286Y-55162128D01*
X72304286Y-55162128D02*
X72218571Y-55204985D01*
X72218571Y-55204985D02*
X71875714Y-55204985D01*
X73204286Y-54733557D02*
X72775714Y-54733557D01*
X72775714Y-54733557D02*
X72732857Y-55162128D01*
X72732857Y-55162128D02*
X72775714Y-55119271D01*
X72775714Y-55119271D02*
X72861429Y-55076414D01*
X72861429Y-55076414D02*
X73075714Y-55076414D01*
X73075714Y-55076414D02*
X73161429Y-55119271D01*
X73161429Y-55119271D02*
X73204286Y-55162128D01*
X73204286Y-55162128D02*
X73247143Y-55247842D01*
X73247143Y-55247842D02*
X73247143Y-55462128D01*
X73247143Y-55462128D02*
X73204286Y-55547842D01*
X73204286Y-55547842D02*
X73161429Y-55590700D01*
X73161429Y-55590700D02*
X73075714Y-55633557D01*
X73075714Y-55633557D02*
X72861429Y-55633557D01*
X72861429Y-55633557D02*
X72775714Y-55590700D01*
X72775714Y-55590700D02*
X72732857Y-55547842D01*
X121850000Y-66547842D02*
X121807143Y-66590700D01*
X121807143Y-66590700D02*
X121678571Y-66633557D01*
X121678571Y-66633557D02*
X121592857Y-66633557D01*
X121592857Y-66633557D02*
X121464286Y-66590700D01*
X121464286Y-66590700D02*
X121378571Y-66504985D01*
X121378571Y-66504985D02*
X121335714Y-66419271D01*
X121335714Y-66419271D02*
X121292857Y-66247842D01*
X121292857Y-66247842D02*
X121292857Y-66119271D01*
X121292857Y-66119271D02*
X121335714Y-65947842D01*
X121335714Y-65947842D02*
X121378571Y-65862128D01*
X121378571Y-65862128D02*
X121464286Y-65776414D01*
X121464286Y-65776414D02*
X121592857Y-65733557D01*
X121592857Y-65733557D02*
X121678571Y-65733557D01*
X121678571Y-65733557D02*
X121807143Y-65776414D01*
X121807143Y-65776414D02*
X121850000Y-65819271D01*
X122150000Y-65733557D02*
X122750000Y-65733557D01*
X122750000Y-65733557D02*
X122364286Y-66633557D01*
X64921428Y-76083557D02*
X64621428Y-75654985D01*
X64407142Y-76083557D02*
X64407142Y-75183557D01*
X64407142Y-75183557D02*
X64749999Y-75183557D01*
X64749999Y-75183557D02*
X64835714Y-75226414D01*
X64835714Y-75226414D02*
X64878571Y-75269271D01*
X64878571Y-75269271D02*
X64921428Y-75354985D01*
X64921428Y-75354985D02*
X64921428Y-75483557D01*
X64921428Y-75483557D02*
X64878571Y-75569271D01*
X64878571Y-75569271D02*
X64835714Y-75612128D01*
X64835714Y-75612128D02*
X64749999Y-75654985D01*
X64749999Y-75654985D02*
X64407142Y-75654985D01*
X65778571Y-76083557D02*
X65264285Y-76083557D01*
X65521428Y-76083557D02*
X65521428Y-75183557D01*
X65521428Y-75183557D02*
X65435714Y-75312128D01*
X65435714Y-75312128D02*
X65349999Y-75397842D01*
X65349999Y-75397842D02*
X65264285Y-75440700D01*
X66592857Y-75183557D02*
X66164285Y-75183557D01*
X66164285Y-75183557D02*
X66121428Y-75612128D01*
X66121428Y-75612128D02*
X66164285Y-75569271D01*
X66164285Y-75569271D02*
X66250000Y-75526414D01*
X66250000Y-75526414D02*
X66464285Y-75526414D01*
X66464285Y-75526414D02*
X66550000Y-75569271D01*
X66550000Y-75569271D02*
X66592857Y-75612128D01*
X66592857Y-75612128D02*
X66635714Y-75697842D01*
X66635714Y-75697842D02*
X66635714Y-75912128D01*
X66635714Y-75912128D02*
X66592857Y-75997842D01*
X66592857Y-75997842D02*
X66550000Y-76040700D01*
X66550000Y-76040700D02*
X66464285Y-76083557D01*
X66464285Y-76083557D02*
X66250000Y-76083557D01*
X66250000Y-76083557D02*
X66164285Y-76040700D01*
X66164285Y-76040700D02*
X66121428Y-75997842D01*
X113350000Y-68347842D02*
X113307143Y-68390700D01*
X113307143Y-68390700D02*
X113178571Y-68433557D01*
X113178571Y-68433557D02*
X113092857Y-68433557D01*
X113092857Y-68433557D02*
X112964286Y-68390700D01*
X112964286Y-68390700D02*
X112878571Y-68304985D01*
X112878571Y-68304985D02*
X112835714Y-68219271D01*
X112835714Y-68219271D02*
X112792857Y-68047842D01*
X112792857Y-68047842D02*
X112792857Y-67919271D01*
X112792857Y-67919271D02*
X112835714Y-67747842D01*
X112835714Y-67747842D02*
X112878571Y-67662128D01*
X112878571Y-67662128D02*
X112964286Y-67576414D01*
X112964286Y-67576414D02*
X113092857Y-67533557D01*
X113092857Y-67533557D02*
X113178571Y-67533557D01*
X113178571Y-67533557D02*
X113307143Y-67576414D01*
X113307143Y-67576414D02*
X113350000Y-67619271D01*
X113864286Y-67919271D02*
X113778571Y-67876414D01*
X113778571Y-67876414D02*
X113735714Y-67833557D01*
X113735714Y-67833557D02*
X113692857Y-67747842D01*
X113692857Y-67747842D02*
X113692857Y-67704985D01*
X113692857Y-67704985D02*
X113735714Y-67619271D01*
X113735714Y-67619271D02*
X113778571Y-67576414D01*
X113778571Y-67576414D02*
X113864286Y-67533557D01*
X113864286Y-67533557D02*
X114035714Y-67533557D01*
X114035714Y-67533557D02*
X114121429Y-67576414D01*
X114121429Y-67576414D02*
X114164286Y-67619271D01*
X114164286Y-67619271D02*
X114207143Y-67704985D01*
X114207143Y-67704985D02*
X114207143Y-67747842D01*
X114207143Y-67747842D02*
X114164286Y-67833557D01*
X114164286Y-67833557D02*
X114121429Y-67876414D01*
X114121429Y-67876414D02*
X114035714Y-67919271D01*
X114035714Y-67919271D02*
X113864286Y-67919271D01*
X113864286Y-67919271D02*
X113778571Y-67962128D01*
X113778571Y-67962128D02*
X113735714Y-68004985D01*
X113735714Y-68004985D02*
X113692857Y-68090700D01*
X113692857Y-68090700D02*
X113692857Y-68262128D01*
X113692857Y-68262128D02*
X113735714Y-68347842D01*
X113735714Y-68347842D02*
X113778571Y-68390700D01*
X113778571Y-68390700D02*
X113864286Y-68433557D01*
X113864286Y-68433557D02*
X114035714Y-68433557D01*
X114035714Y-68433557D02*
X114121429Y-68390700D01*
X114121429Y-68390700D02*
X114164286Y-68347842D01*
X114164286Y-68347842D02*
X114207143Y-68262128D01*
X114207143Y-68262128D02*
X114207143Y-68090700D01*
X114207143Y-68090700D02*
X114164286Y-68004985D01*
X114164286Y-68004985D02*
X114121429Y-67962128D01*
X114121429Y-67962128D02*
X114035714Y-67919271D01*
X87350000Y-53547842D02*
X87307143Y-53590700D01*
X87307143Y-53590700D02*
X87178571Y-53633557D01*
X87178571Y-53633557D02*
X87092857Y-53633557D01*
X87092857Y-53633557D02*
X86964286Y-53590700D01*
X86964286Y-53590700D02*
X86878571Y-53504985D01*
X86878571Y-53504985D02*
X86835714Y-53419271D01*
X86835714Y-53419271D02*
X86792857Y-53247842D01*
X86792857Y-53247842D02*
X86792857Y-53119271D01*
X86792857Y-53119271D02*
X86835714Y-52947842D01*
X86835714Y-52947842D02*
X86878571Y-52862128D01*
X86878571Y-52862128D02*
X86964286Y-52776414D01*
X86964286Y-52776414D02*
X87092857Y-52733557D01*
X87092857Y-52733557D02*
X87178571Y-52733557D01*
X87178571Y-52733557D02*
X87307143Y-52776414D01*
X87307143Y-52776414D02*
X87350000Y-52819271D01*
X88121429Y-53033557D02*
X88121429Y-53633557D01*
X87907143Y-52690700D02*
X87692857Y-53333557D01*
X87692857Y-53333557D02*
X88250000Y-53333557D01*
X88314286Y-64912307D02*
X88828572Y-64912307D01*
X88571429Y-65812307D02*
X88571429Y-64912307D01*
X89514286Y-65212307D02*
X89514286Y-65812307D01*
X89300000Y-64869450D02*
X89085714Y-65512307D01*
X89085714Y-65512307D02*
X89642857Y-65512307D01*
X104093928Y-69133557D02*
X103793928Y-68704985D01*
X103579642Y-69133557D02*
X103579642Y-68233557D01*
X103579642Y-68233557D02*
X103922499Y-68233557D01*
X103922499Y-68233557D02*
X104008214Y-68276414D01*
X104008214Y-68276414D02*
X104051071Y-68319271D01*
X104051071Y-68319271D02*
X104093928Y-68404985D01*
X104093928Y-68404985D02*
X104093928Y-68533557D01*
X104093928Y-68533557D02*
X104051071Y-68619271D01*
X104051071Y-68619271D02*
X104008214Y-68662128D01*
X104008214Y-68662128D02*
X103922499Y-68704985D01*
X103922499Y-68704985D02*
X103579642Y-68704985D01*
X104951071Y-69133557D02*
X104436785Y-69133557D01*
X104693928Y-69133557D02*
X104693928Y-68233557D01*
X104693928Y-68233557D02*
X104608214Y-68362128D01*
X104608214Y-68362128D02*
X104522499Y-68447842D01*
X104522499Y-68447842D02*
X104436785Y-68490700D01*
X105293928Y-68319271D02*
X105336785Y-68276414D01*
X105336785Y-68276414D02*
X105422500Y-68233557D01*
X105422500Y-68233557D02*
X105636785Y-68233557D01*
X105636785Y-68233557D02*
X105722500Y-68276414D01*
X105722500Y-68276414D02*
X105765357Y-68319271D01*
X105765357Y-68319271D02*
X105808214Y-68404985D01*
X105808214Y-68404985D02*
X105808214Y-68490700D01*
X105808214Y-68490700D02*
X105765357Y-68619271D01*
X105765357Y-68619271D02*
X105251071Y-69133557D01*
X105251071Y-69133557D02*
X105808214Y-69133557D01*
D10*
%TO.C,RV1*%
X118890000Y-69540000D02*
X118890000Y-71304000D01*
X118890000Y-69540000D02*
X122635000Y-69540000D01*
X118890000Y-72696000D02*
X118890000Y-73804000D01*
X118890000Y-75196000D02*
X118890000Y-76304000D01*
X118890000Y-77696000D02*
X118890000Y-79460000D01*
X118890000Y-79460000D02*
X122635000Y-79460000D01*
X127365000Y-69540000D02*
X131110000Y-69540000D01*
X127365000Y-79460000D02*
X131110000Y-79460000D01*
X131110000Y-69540000D02*
X131110000Y-79460000D01*
%TO.C,J1*%
X21700000Y-62800000D02*
X21700000Y-73650000D01*
X21700000Y-73650000D02*
X34300000Y-73650000D01*
X26500000Y-63300000D02*
X26800000Y-62800000D01*
X26800000Y-62800000D02*
X21700000Y-62800000D01*
X31650000Y-62800000D02*
X31900000Y-63300000D01*
X31700000Y-62800000D02*
X31650000Y-62800000D01*
X31900000Y-63300000D02*
X26500000Y-63300000D01*
X33350000Y-63300000D02*
X33600000Y-62800000D01*
X33600000Y-62800000D02*
X31700000Y-62800000D01*
X34300000Y-63300000D02*
X33350000Y-63300000D01*
X34300000Y-73650000D02*
X34300000Y-63300000D01*
%TO.C,C6*%
X107380000Y-49630000D02*
X107380000Y-49967000D01*
X107380000Y-49630000D02*
X112620000Y-49630000D01*
X107380000Y-52033000D02*
X107380000Y-52370000D01*
X107380000Y-52370000D02*
X112620000Y-52370000D01*
X112620000Y-49630000D02*
X112620000Y-49967000D01*
X112620000Y-52033000D02*
X112620000Y-52370000D01*
%TO.C,T3*%
X117420000Y-39420000D02*
X127580000Y-39420000D01*
X127580000Y-49580000D01*
X117420000Y-49580000D01*
X117420000Y-39420000D01*
%TO.C,R9*%
X108120000Y-46580000D02*
X111960000Y-46580000D01*
X108120000Y-48420000D02*
X111960000Y-48420000D01*
%TO.C,R16*%
X129580000Y-55380000D02*
X129580000Y-51540000D01*
X131420000Y-55380000D02*
X131420000Y-51540000D01*
%TO.C,C12*%
X143195225Y-76025000D02*
X143695225Y-76025000D01*
X143445225Y-75775000D02*
X143445225Y-76275000D01*
X146000000Y-74920000D02*
X146000000Y-76460000D01*
X146000000Y-78540000D02*
X146000000Y-80080000D01*
X146040000Y-74920000D02*
X146040000Y-76460000D01*
X146040000Y-78540000D02*
X146040000Y-80080000D01*
X146080000Y-74921000D02*
X146080000Y-76460000D01*
X146080000Y-78540000D02*
X146080000Y-80079000D01*
X146120000Y-74923000D02*
X146120000Y-76460000D01*
X146120000Y-78540000D02*
X146120000Y-80077000D01*
X146160000Y-74925000D02*
X146160000Y-76460000D01*
X146160000Y-78540000D02*
X146160000Y-80075000D01*
X146200000Y-74928000D02*
X146200000Y-76460000D01*
X146200000Y-78540000D02*
X146200000Y-80072000D01*
X146240000Y-74931000D02*
X146240000Y-76460000D01*
X146240000Y-78540000D02*
X146240000Y-80069000D01*
X146280000Y-74935000D02*
X146280000Y-76460000D01*
X146280000Y-78540000D02*
X146280000Y-80065000D01*
X146320000Y-74940000D02*
X146320000Y-76460000D01*
X146320000Y-78540000D02*
X146320000Y-80060000D01*
X146360000Y-74945000D02*
X146360000Y-76460000D01*
X146360000Y-78540000D02*
X146360000Y-80055000D01*
X146400000Y-74951000D02*
X146400000Y-76460000D01*
X146400000Y-78540000D02*
X146400000Y-80049000D01*
X146440000Y-74957000D02*
X146440000Y-76460000D01*
X146440000Y-78540000D02*
X146440000Y-80043000D01*
X146480000Y-74964000D02*
X146480000Y-76460000D01*
X146480000Y-78540000D02*
X146480000Y-80036000D01*
X146520000Y-74972000D02*
X146520000Y-76460000D01*
X146520000Y-78540000D02*
X146520000Y-80028000D01*
X146560000Y-74981000D02*
X146560000Y-76460000D01*
X146560000Y-78540000D02*
X146560000Y-80019000D01*
X146600000Y-74990000D02*
X146600000Y-76460000D01*
X146600000Y-78540000D02*
X146600000Y-80010000D01*
X146640000Y-74999000D02*
X146640000Y-76460000D01*
X146640000Y-78540000D02*
X146640000Y-80001000D01*
X146680000Y-75010000D02*
X146680000Y-76460000D01*
X146680000Y-78540000D02*
X146680000Y-79990000D01*
X146720000Y-75021000D02*
X146720000Y-76460000D01*
X146720000Y-78540000D02*
X146720000Y-79979000D01*
X146760000Y-75033000D02*
X146760000Y-76460000D01*
X146760000Y-78540000D02*
X146760000Y-79967000D01*
X146800000Y-75045000D02*
X146800000Y-76460000D01*
X146800000Y-78540000D02*
X146800000Y-79955000D01*
X146840000Y-75058000D02*
X146840000Y-76460000D01*
X146840000Y-78540000D02*
X146840000Y-79942000D01*
X146880000Y-75072000D02*
X146880000Y-76460000D01*
X146880000Y-78540000D02*
X146880000Y-79928000D01*
X146920000Y-75087000D02*
X146920000Y-76460000D01*
X146920000Y-78540000D02*
X146920000Y-79913000D01*
X146960000Y-75102000D02*
X146960000Y-76460000D01*
X146960000Y-78540000D02*
X146960000Y-79898000D01*
X147000000Y-75118000D02*
X147000000Y-76460000D01*
X147000000Y-78540000D02*
X147000000Y-79882000D01*
X147040000Y-75135000D02*
X147040000Y-76460000D01*
X147040000Y-78540000D02*
X147040000Y-79865000D01*
X147080000Y-75153000D02*
X147080000Y-76460000D01*
X147080000Y-78540000D02*
X147080000Y-79847000D01*
X147120000Y-75171000D02*
X147120000Y-76460000D01*
X147120000Y-78540000D02*
X147120000Y-79829000D01*
X147160000Y-75191000D02*
X147160000Y-76460000D01*
X147160000Y-78540000D02*
X147160000Y-79809000D01*
X147200000Y-75211000D02*
X147200000Y-76460000D01*
X147200000Y-78540000D02*
X147200000Y-79789000D01*
X147240000Y-75232000D02*
X147240000Y-76460000D01*
X147240000Y-78540000D02*
X147240000Y-79768000D01*
X147280000Y-75254000D02*
X147280000Y-76460000D01*
X147280000Y-78540000D02*
X147280000Y-79746000D01*
X147320000Y-75277000D02*
X147320000Y-76460000D01*
X147320000Y-78540000D02*
X147320000Y-79723000D01*
X147360000Y-75301000D02*
X147360000Y-76460000D01*
X147360000Y-78540000D02*
X147360000Y-79699000D01*
X147400000Y-75325000D02*
X147400000Y-76460000D01*
X147400000Y-78540000D02*
X147400000Y-79675000D01*
X147440000Y-75351000D02*
X147440000Y-76460000D01*
X147440000Y-78540000D02*
X147440000Y-79649000D01*
X147480000Y-75378000D02*
X147480000Y-76460000D01*
X147480000Y-78540000D02*
X147480000Y-79622000D01*
X147520000Y-75406000D02*
X147520000Y-76460000D01*
X147520000Y-78540000D02*
X147520000Y-79594000D01*
X147560000Y-75435000D02*
X147560000Y-76460000D01*
X147560000Y-78540000D02*
X147560000Y-79565000D01*
X147600000Y-75465000D02*
X147600000Y-76460000D01*
X147600000Y-78540000D02*
X147600000Y-79535000D01*
X147640000Y-75497000D02*
X147640000Y-76460000D01*
X147640000Y-78540000D02*
X147640000Y-79503000D01*
X147680000Y-75530000D02*
X147680000Y-76460000D01*
X147680000Y-78540000D02*
X147680000Y-79470000D01*
X147720000Y-75564000D02*
X147720000Y-76460000D01*
X147720000Y-78540000D02*
X147720000Y-79436000D01*
X147760000Y-75599000D02*
X147760000Y-76460000D01*
X147760000Y-78540000D02*
X147760000Y-79401000D01*
X147800000Y-75636000D02*
X147800000Y-76460000D01*
X147800000Y-78540000D02*
X147800000Y-79364000D01*
X147840000Y-75675000D02*
X147840000Y-76460000D01*
X147840000Y-78540000D02*
X147840000Y-79325000D01*
X147880000Y-75715000D02*
X147880000Y-76460000D01*
X147880000Y-78540000D02*
X147880000Y-79285000D01*
X147920000Y-75757000D02*
X147920000Y-76460000D01*
X147920000Y-78540000D02*
X147920000Y-79243000D01*
X147960000Y-75801000D02*
X147960000Y-76460000D01*
X147960000Y-78540000D02*
X147960000Y-79199000D01*
X148000000Y-75848000D02*
X148000000Y-76460000D01*
X148000000Y-78540000D02*
X148000000Y-79152000D01*
X148040000Y-75896000D02*
X148040000Y-79104000D01*
X148080000Y-75947000D02*
X148080000Y-79053000D01*
X148120000Y-76001000D02*
X148120000Y-78999000D01*
X148160000Y-76057000D02*
X148160000Y-78943000D01*
X148200000Y-76117000D02*
X148200000Y-78883000D01*
X148240000Y-76181000D02*
X148240000Y-78819000D01*
X148280000Y-76249000D02*
X148280000Y-78751000D01*
X148320000Y-76323000D02*
X148320000Y-78677000D01*
X148360000Y-76402000D02*
X148360000Y-78598000D01*
X148400000Y-76489000D02*
X148400000Y-78511000D01*
X148440000Y-76586000D02*
X148440000Y-78414000D01*
X148480000Y-76695000D02*
X148480000Y-78305000D01*
X148520000Y-76823000D02*
X148520000Y-78177000D01*
X148560000Y-76983000D02*
X148560000Y-78017000D01*
X148600000Y-77217000D02*
X148600000Y-77783000D01*
X148620000Y-77500000D02*
G75*
G02*
X143380000Y-77500000I-2620000J0D01*
G01*
X143380000Y-77500000D02*
G75*
G02*
X148620000Y-77500000I2620000J0D01*
G01*
%TO.C,C10*%
X106380000Y-56130000D02*
X106380000Y-56467000D01*
X106380000Y-56130000D02*
X111620000Y-56130000D01*
X106380000Y-58533000D02*
X106380000Y-58870000D01*
X106380000Y-58870000D02*
X111620000Y-58870000D01*
X111620000Y-56130000D02*
X111620000Y-56467000D01*
X111620000Y-58533000D02*
X111620000Y-58870000D01*
%TO.C,Q2*%
X86970000Y-44350000D02*
X90570000Y-44350000D01*
X86931522Y-44338478D02*
G75*
G02*
X88770000Y-39899999I1838478J1838478D01*
G01*
X88770000Y-39900000D02*
G75*
G02*
X90608478Y-44338478I0J-2600000D01*
G01*
%TO.C,C9*%
X103695225Y-77025000D02*
X104195225Y-77025000D01*
X103945225Y-76775000D02*
X103945225Y-77275000D01*
X106500000Y-75920000D02*
X106500000Y-77460000D01*
X106500000Y-79540000D02*
X106500000Y-81080000D01*
X106540000Y-75920000D02*
X106540000Y-77460000D01*
X106540000Y-79540000D02*
X106540000Y-81080000D01*
X106580000Y-75921000D02*
X106580000Y-77460000D01*
X106580000Y-79540000D02*
X106580000Y-81079000D01*
X106620000Y-75923000D02*
X106620000Y-77460000D01*
X106620000Y-79540000D02*
X106620000Y-81077000D01*
X106660000Y-75925000D02*
X106660000Y-77460000D01*
X106660000Y-79540000D02*
X106660000Y-81075000D01*
X106700000Y-75928000D02*
X106700000Y-77460000D01*
X106700000Y-79540000D02*
X106700000Y-81072000D01*
X106740000Y-75931000D02*
X106740000Y-77460000D01*
X106740000Y-79540000D02*
X106740000Y-81069000D01*
X106780000Y-75935000D02*
X106780000Y-77460000D01*
X106780000Y-79540000D02*
X106780000Y-81065000D01*
X106820000Y-75940000D02*
X106820000Y-77460000D01*
X106820000Y-79540000D02*
X106820000Y-81060000D01*
X106860000Y-75945000D02*
X106860000Y-77460000D01*
X106860000Y-79540000D02*
X106860000Y-81055000D01*
X106900000Y-75951000D02*
X106900000Y-77460000D01*
X106900000Y-79540000D02*
X106900000Y-81049000D01*
X106940000Y-75957000D02*
X106940000Y-77460000D01*
X106940000Y-79540000D02*
X106940000Y-81043000D01*
X106980000Y-75964000D02*
X106980000Y-77460000D01*
X106980000Y-79540000D02*
X106980000Y-81036000D01*
X107020000Y-75972000D02*
X107020000Y-77460000D01*
X107020000Y-79540000D02*
X107020000Y-81028000D01*
X107060000Y-75981000D02*
X107060000Y-77460000D01*
X107060000Y-79540000D02*
X107060000Y-81019000D01*
X107100000Y-75990000D02*
X107100000Y-77460000D01*
X107100000Y-79540000D02*
X107100000Y-81010000D01*
X107140000Y-75999000D02*
X107140000Y-77460000D01*
X107140000Y-79540000D02*
X107140000Y-81001000D01*
X107180000Y-76010000D02*
X107180000Y-77460000D01*
X107180000Y-79540000D02*
X107180000Y-80990000D01*
X107220000Y-76021000D02*
X107220000Y-77460000D01*
X107220000Y-79540000D02*
X107220000Y-80979000D01*
X107260000Y-76033000D02*
X107260000Y-77460000D01*
X107260000Y-79540000D02*
X107260000Y-80967000D01*
X107300000Y-76045000D02*
X107300000Y-77460000D01*
X107300000Y-79540000D02*
X107300000Y-80955000D01*
X107340000Y-76058000D02*
X107340000Y-77460000D01*
X107340000Y-79540000D02*
X107340000Y-80942000D01*
X107380000Y-76072000D02*
X107380000Y-77460000D01*
X107380000Y-79540000D02*
X107380000Y-80928000D01*
X107420000Y-76087000D02*
X107420000Y-77460000D01*
X107420000Y-79540000D02*
X107420000Y-80913000D01*
X107460000Y-76102000D02*
X107460000Y-77460000D01*
X107460000Y-79540000D02*
X107460000Y-80898000D01*
X107500000Y-76118000D02*
X107500000Y-77460000D01*
X107500000Y-79540000D02*
X107500000Y-80882000D01*
X107540000Y-76135000D02*
X107540000Y-77460000D01*
X107540000Y-79540000D02*
X107540000Y-80865000D01*
X107580000Y-76153000D02*
X107580000Y-77460000D01*
X107580000Y-79540000D02*
X107580000Y-80847000D01*
X107620000Y-76171000D02*
X107620000Y-77460000D01*
X107620000Y-79540000D02*
X107620000Y-80829000D01*
X107660000Y-76191000D02*
X107660000Y-77460000D01*
X107660000Y-79540000D02*
X107660000Y-80809000D01*
X107700000Y-76211000D02*
X107700000Y-77460000D01*
X107700000Y-79540000D02*
X107700000Y-80789000D01*
X107740000Y-76232000D02*
X107740000Y-77460000D01*
X107740000Y-79540000D02*
X107740000Y-80768000D01*
X107780000Y-76254000D02*
X107780000Y-77460000D01*
X107780000Y-79540000D02*
X107780000Y-80746000D01*
X107820000Y-76277000D02*
X107820000Y-77460000D01*
X107820000Y-79540000D02*
X107820000Y-80723000D01*
X107860000Y-76301000D02*
X107860000Y-77460000D01*
X107860000Y-79540000D02*
X107860000Y-80699000D01*
X107900000Y-76325000D02*
X107900000Y-77460000D01*
X107900000Y-79540000D02*
X107900000Y-80675000D01*
X107940000Y-76351000D02*
X107940000Y-77460000D01*
X107940000Y-79540000D02*
X107940000Y-80649000D01*
X107980000Y-76378000D02*
X107980000Y-77460000D01*
X107980000Y-79540000D02*
X107980000Y-80622000D01*
X108020000Y-76406000D02*
X108020000Y-77460000D01*
X108020000Y-79540000D02*
X108020000Y-80594000D01*
X108060000Y-76435000D02*
X108060000Y-77460000D01*
X108060000Y-79540000D02*
X108060000Y-80565000D01*
X108100000Y-76465000D02*
X108100000Y-77460000D01*
X108100000Y-79540000D02*
X108100000Y-80535000D01*
X108140000Y-76497000D02*
X108140000Y-77460000D01*
X108140000Y-79540000D02*
X108140000Y-80503000D01*
X108180000Y-76530000D02*
X108180000Y-77460000D01*
X108180000Y-79540000D02*
X108180000Y-80470000D01*
X108220000Y-76564000D02*
X108220000Y-77460000D01*
X108220000Y-79540000D02*
X108220000Y-80436000D01*
X108260000Y-76599000D02*
X108260000Y-77460000D01*
X108260000Y-79540000D02*
X108260000Y-80401000D01*
X108300000Y-76636000D02*
X108300000Y-77460000D01*
X108300000Y-79540000D02*
X108300000Y-80364000D01*
X108340000Y-76675000D02*
X108340000Y-77460000D01*
X108340000Y-79540000D02*
X108340000Y-80325000D01*
X108380000Y-76715000D02*
X108380000Y-77460000D01*
X108380000Y-79540000D02*
X108380000Y-80285000D01*
X108420000Y-76757000D02*
X108420000Y-77460000D01*
X108420000Y-79540000D02*
X108420000Y-80243000D01*
X108460000Y-76801000D02*
X108460000Y-77460000D01*
X108460000Y-79540000D02*
X108460000Y-80199000D01*
X108500000Y-76848000D02*
X108500000Y-77460000D01*
X108500000Y-79540000D02*
X108500000Y-80152000D01*
X108540000Y-76896000D02*
X108540000Y-80104000D01*
X108580000Y-76947000D02*
X108580000Y-80053000D01*
X108620000Y-77001000D02*
X108620000Y-79999000D01*
X108660000Y-77057000D02*
X108660000Y-79943000D01*
X108700000Y-77117000D02*
X108700000Y-79883000D01*
X108740000Y-77181000D02*
X108740000Y-79819000D01*
X108780000Y-77249000D02*
X108780000Y-79751000D01*
X108820000Y-77323000D02*
X108820000Y-79677000D01*
X108860000Y-77402000D02*
X108860000Y-79598000D01*
X108900000Y-77489000D02*
X108900000Y-79511000D01*
X108940000Y-77586000D02*
X108940000Y-79414000D01*
X108980000Y-77695000D02*
X108980000Y-79305000D01*
X109020000Y-77823000D02*
X109020000Y-79177000D01*
X109060000Y-77983000D02*
X109060000Y-79017000D01*
X109100000Y-78217000D02*
X109100000Y-78783000D01*
X109120000Y-78500000D02*
G75*
G02*
X103880000Y-78500000I-2620000J0D01*
G01*
X103880000Y-78500000D02*
G75*
G02*
X109120000Y-78500000I2620000J0D01*
G01*
%TO.C,C11*%
X63630000Y-61380000D02*
X63967000Y-61380000D01*
X63630000Y-66620000D02*
X63630000Y-61380000D01*
X63630000Y-66620000D02*
X63967000Y-66620000D01*
X66033000Y-61380000D02*
X66370000Y-61380000D01*
X66033000Y-66620000D02*
X66370000Y-66620000D01*
X66370000Y-66620000D02*
X66370000Y-61380000D01*
%TO.C,Q6*%
X70470000Y-80850000D02*
X74070000Y-80850000D01*
X70431522Y-80838478D02*
G75*
G02*
X72270000Y-76399999I1838478J1838478D01*
G01*
X72270000Y-76400000D02*
G75*
G02*
X74108478Y-80838478I0J-2600000D01*
G01*
%TO.C,D1*%
X117040000Y-60500000D02*
X118960000Y-60500000D01*
X119560000Y-59380000D02*
X119560000Y-61620000D01*
X119680000Y-59380000D02*
X119680000Y-61620000D01*
X119800000Y-59380000D02*
X119800000Y-61620000D01*
X125120000Y-60500000D02*
X123200000Y-60500000D01*
X118960000Y-59380000D02*
X123200000Y-59380000D01*
X123200000Y-61620000D01*
X118960000Y-61620000D01*
X118960000Y-59380000D01*
%TO.C,SW1*%
X167590000Y-75240000D02*
X176410000Y-75240000D01*
X167590000Y-75550000D02*
X167590000Y-75240000D01*
X167590000Y-79760000D02*
X167590000Y-79450000D01*
X169500000Y-74540000D02*
X170000000Y-75040000D01*
X170000000Y-75040000D02*
X170500000Y-74540000D01*
X170500000Y-74540000D02*
X169500000Y-74540000D01*
X176410000Y-75240000D02*
X176410000Y-75550000D01*
X176410000Y-79760000D02*
X167590000Y-79760000D01*
X176410000Y-79760000D02*
X176410000Y-79450000D01*
%TO.C,C2*%
X45880000Y-52630000D02*
X45880000Y-52967000D01*
X45880000Y-52630000D02*
X51120000Y-52630000D01*
X45880000Y-55033000D02*
X45880000Y-55370000D01*
X45880000Y-55370000D02*
X51120000Y-55370000D01*
X51120000Y-52630000D02*
X51120000Y-52967000D01*
X51120000Y-55033000D02*
X51120000Y-55370000D01*
%TO.C,R4*%
X70620000Y-52580000D02*
X74460000Y-52580000D01*
X70620000Y-54420000D02*
X74460000Y-54420000D01*
%TO.C,R11*%
X105120000Y-60080000D02*
X108960000Y-60080000D01*
X105120000Y-61920000D02*
X108960000Y-61920000D01*
%TO.C,VC1*%
X23500000Y-39500000D02*
X43500000Y-39500000D01*
X43500000Y-59500000D01*
X23500000Y-59500000D01*
X23500000Y-39500000D01*
%TO.C,C3*%
X76695225Y-53025000D02*
X77195225Y-53025000D01*
X76945225Y-52775000D02*
X76945225Y-53275000D01*
X79500000Y-51920000D02*
X79500000Y-53460000D01*
X79500000Y-55540000D02*
X79500000Y-57080000D01*
X79540000Y-51920000D02*
X79540000Y-53460000D01*
X79540000Y-55540000D02*
X79540000Y-57080000D01*
X79580000Y-51921000D02*
X79580000Y-53460000D01*
X79580000Y-55540000D02*
X79580000Y-57079000D01*
X79620000Y-51923000D02*
X79620000Y-53460000D01*
X79620000Y-55540000D02*
X79620000Y-57077000D01*
X79660000Y-51925000D02*
X79660000Y-53460000D01*
X79660000Y-55540000D02*
X79660000Y-57075000D01*
X79700000Y-51928000D02*
X79700000Y-53460000D01*
X79700000Y-55540000D02*
X79700000Y-57072000D01*
X79740000Y-51931000D02*
X79740000Y-53460000D01*
X79740000Y-55540000D02*
X79740000Y-57069000D01*
X79780000Y-51935000D02*
X79780000Y-53460000D01*
X79780000Y-55540000D02*
X79780000Y-57065000D01*
X79820000Y-51940000D02*
X79820000Y-53460000D01*
X79820000Y-55540000D02*
X79820000Y-57060000D01*
X79860000Y-51945000D02*
X79860000Y-53460000D01*
X79860000Y-55540000D02*
X79860000Y-57055000D01*
X79900000Y-51951000D02*
X79900000Y-53460000D01*
X79900000Y-55540000D02*
X79900000Y-57049000D01*
X79940000Y-51957000D02*
X79940000Y-53460000D01*
X79940000Y-55540000D02*
X79940000Y-57043000D01*
X79980000Y-51964000D02*
X79980000Y-53460000D01*
X79980000Y-55540000D02*
X79980000Y-57036000D01*
X80020000Y-51972000D02*
X80020000Y-53460000D01*
X80020000Y-55540000D02*
X80020000Y-57028000D01*
X80060000Y-51981000D02*
X80060000Y-53460000D01*
X80060000Y-55540000D02*
X80060000Y-57019000D01*
X80100000Y-51990000D02*
X80100000Y-53460000D01*
X80100000Y-55540000D02*
X80100000Y-57010000D01*
X80140000Y-51999000D02*
X80140000Y-53460000D01*
X80140000Y-55540000D02*
X80140000Y-57001000D01*
X80180000Y-52010000D02*
X80180000Y-53460000D01*
X80180000Y-55540000D02*
X80180000Y-56990000D01*
X80220000Y-52021000D02*
X80220000Y-53460000D01*
X80220000Y-55540000D02*
X80220000Y-56979000D01*
X80260000Y-52033000D02*
X80260000Y-53460000D01*
X80260000Y-55540000D02*
X80260000Y-56967000D01*
X80300000Y-52045000D02*
X80300000Y-53460000D01*
X80300000Y-55540000D02*
X80300000Y-56955000D01*
X80340000Y-52058000D02*
X80340000Y-53460000D01*
X80340000Y-55540000D02*
X80340000Y-56942000D01*
X80380000Y-52072000D02*
X80380000Y-53460000D01*
X80380000Y-55540000D02*
X80380000Y-56928000D01*
X80420000Y-52087000D02*
X80420000Y-53460000D01*
X80420000Y-55540000D02*
X80420000Y-56913000D01*
X80460000Y-52102000D02*
X80460000Y-53460000D01*
X80460000Y-55540000D02*
X80460000Y-56898000D01*
X80500000Y-52118000D02*
X80500000Y-53460000D01*
X80500000Y-55540000D02*
X80500000Y-56882000D01*
X80540000Y-52135000D02*
X80540000Y-53460000D01*
X80540000Y-55540000D02*
X80540000Y-56865000D01*
X80580000Y-52153000D02*
X80580000Y-53460000D01*
X80580000Y-55540000D02*
X80580000Y-56847000D01*
X80620000Y-52171000D02*
X80620000Y-53460000D01*
X80620000Y-55540000D02*
X80620000Y-56829000D01*
X80660000Y-52191000D02*
X80660000Y-53460000D01*
X80660000Y-55540000D02*
X80660000Y-56809000D01*
X80700000Y-52211000D02*
X80700000Y-53460000D01*
X80700000Y-55540000D02*
X80700000Y-56789000D01*
X80740000Y-52232000D02*
X80740000Y-53460000D01*
X80740000Y-55540000D02*
X80740000Y-56768000D01*
X80780000Y-52254000D02*
X80780000Y-53460000D01*
X80780000Y-55540000D02*
X80780000Y-56746000D01*
X80820000Y-52277000D02*
X80820000Y-53460000D01*
X80820000Y-55540000D02*
X80820000Y-56723000D01*
X80860000Y-52301000D02*
X80860000Y-53460000D01*
X80860000Y-55540000D02*
X80860000Y-56699000D01*
X80900000Y-52325000D02*
X80900000Y-53460000D01*
X80900000Y-55540000D02*
X80900000Y-56675000D01*
X80940000Y-52351000D02*
X80940000Y-53460000D01*
X80940000Y-55540000D02*
X80940000Y-56649000D01*
X80980000Y-52378000D02*
X80980000Y-53460000D01*
X80980000Y-55540000D02*
X80980000Y-56622000D01*
X81020000Y-52406000D02*
X81020000Y-53460000D01*
X81020000Y-55540000D02*
X81020000Y-56594000D01*
X81060000Y-52435000D02*
X81060000Y-53460000D01*
X81060000Y-55540000D02*
X81060000Y-56565000D01*
X81100000Y-52465000D02*
X81100000Y-53460000D01*
X81100000Y-55540000D02*
X81100000Y-56535000D01*
X81140000Y-52497000D02*
X81140000Y-53460000D01*
X81140000Y-55540000D02*
X81140000Y-56503000D01*
X81180000Y-52530000D02*
X81180000Y-53460000D01*
X81180000Y-55540000D02*
X81180000Y-56470000D01*
X81220000Y-52564000D02*
X81220000Y-53460000D01*
X81220000Y-55540000D02*
X81220000Y-56436000D01*
X81260000Y-52599000D02*
X81260000Y-53460000D01*
X81260000Y-55540000D02*
X81260000Y-56401000D01*
X81300000Y-52636000D02*
X81300000Y-53460000D01*
X81300000Y-55540000D02*
X81300000Y-56364000D01*
X81340000Y-52675000D02*
X81340000Y-53460000D01*
X81340000Y-55540000D02*
X81340000Y-56325000D01*
X81380000Y-52715000D02*
X81380000Y-53460000D01*
X81380000Y-55540000D02*
X81380000Y-56285000D01*
X81420000Y-52757000D02*
X81420000Y-53460000D01*
X81420000Y-55540000D02*
X81420000Y-56243000D01*
X81460000Y-52801000D02*
X81460000Y-53460000D01*
X81460000Y-55540000D02*
X81460000Y-56199000D01*
X81500000Y-52848000D02*
X81500000Y-53460000D01*
X81500000Y-55540000D02*
X81500000Y-56152000D01*
X81540000Y-52896000D02*
X81540000Y-56104000D01*
X81580000Y-52947000D02*
X81580000Y-56053000D01*
X81620000Y-53001000D02*
X81620000Y-55999000D01*
X81660000Y-53057000D02*
X81660000Y-55943000D01*
X81700000Y-53117000D02*
X81700000Y-55883000D01*
X81740000Y-53181000D02*
X81740000Y-55819000D01*
X81780000Y-53249000D02*
X81780000Y-55751000D01*
X81820000Y-53323000D02*
X81820000Y-55677000D01*
X81860000Y-53402000D02*
X81860000Y-55598000D01*
X81900000Y-53489000D02*
X81900000Y-55511000D01*
X81940000Y-53586000D02*
X81940000Y-55414000D01*
X81980000Y-53695000D02*
X81980000Y-55305000D01*
X82020000Y-53823000D02*
X82020000Y-55177000D01*
X82060000Y-53983000D02*
X82060000Y-55017000D01*
X82100000Y-54217000D02*
X82100000Y-54783000D01*
X82120000Y-54500000D02*
G75*
G02*
X76880000Y-54500000I-2620000J0D01*
G01*
X76880000Y-54500000D02*
G75*
G02*
X82120000Y-54500000I2620000J0D01*
G01*
%TO.C,Q4*%
X105470000Y-67350000D02*
X109070000Y-67350000D01*
X105431522Y-67338478D02*
G75*
G02*
X107270000Y-62899999I1838478J1838478D01*
G01*
X107270000Y-62900000D02*
G75*
G02*
X109108478Y-67338478I0J-2600000D01*
G01*
%TO.C,T5*%
X62200000Y-80400000D02*
X36800000Y-80400000D01*
X36800000Y-61600000D01*
X62200000Y-61600000D01*
X62200000Y-80400000D01*
%TO.C,R14*%
X67580000Y-73380000D02*
X67580000Y-69540000D01*
X69420000Y-73380000D02*
X69420000Y-69540000D01*
%TO.C,R2*%
X46620000Y-49580000D02*
X50460000Y-49580000D01*
X46620000Y-51420000D02*
X50460000Y-51420000D01*
%TO.C,C1*%
X54130000Y-47380000D02*
X54467000Y-47380000D01*
X54130000Y-52620000D02*
X54130000Y-47380000D01*
X54130000Y-52620000D02*
X54467000Y-52620000D01*
X56533000Y-47380000D02*
X56870000Y-47380000D01*
X56533000Y-52620000D02*
X56870000Y-52620000D01*
X56870000Y-52620000D02*
X56870000Y-47380000D01*
%TO.C,R3*%
X46620000Y-56580000D02*
X50460000Y-56580000D01*
X46620000Y-58420000D02*
X50460000Y-58420000D01*
%TO.C,T2*%
X94920000Y-39420000D02*
X105080000Y-39420000D01*
X105080000Y-49580000D01*
X94920000Y-49580000D01*
X94920000Y-39420000D01*
%TO.C,L1*%
X33000000Y-25000000D02*
X91000000Y-25000000D01*
X91000000Y-35000000D01*
X33000000Y-35000000D01*
X33000000Y-25000000D01*
%TO.C,Q3*%
X109470000Y-44350000D02*
X113070000Y-44350000D01*
X109431522Y-44338478D02*
G75*
G02*
X111270000Y-39899999I1838478J1838478D01*
G01*
X111270000Y-39900000D02*
G75*
G02*
X113108478Y-44338478I0J-2600000D01*
G01*
%TO.C,T1*%
X71920000Y-39420000D02*
X82080000Y-39420000D01*
X82080000Y-49580000D01*
X71920000Y-49580000D01*
X71920000Y-39420000D01*
%TO.C,R8*%
X92620000Y-56580000D02*
X96460000Y-56580000D01*
X92620000Y-58420000D02*
X96460000Y-58420000D01*
%TO.C,Q1*%
X47970000Y-44350000D02*
X51570000Y-44350000D01*
X47931522Y-44338478D02*
G75*
G02*
X49770000Y-39899999I1838478J1838478D01*
G01*
X49770000Y-39900000D02*
G75*
G02*
X51608478Y-44338478I0J-2600000D01*
G01*
%TO.C,Q5*%
X70470000Y-65350000D02*
X74070000Y-65350000D01*
X70431522Y-65338478D02*
G75*
G02*
X72270000Y-60899999I1838478J1838478D01*
G01*
X72270000Y-60900000D02*
G75*
G02*
X74108478Y-65338478I0J-2600000D01*
G01*
%TO.C,R7*%
X92620000Y-53080000D02*
X96460000Y-53080000D01*
X92620000Y-54920000D02*
X96460000Y-54920000D01*
%TO.C,R1*%
X46620000Y-46080000D02*
X50460000Y-46080000D01*
X46620000Y-47920000D02*
X50460000Y-47920000D01*
%TO.C,L2*%
X58420000Y-39420000D02*
X68580000Y-39420000D01*
X68580000Y-49580000D01*
X58420000Y-49580000D01*
X58420000Y-39420000D01*
%TO.C,R13*%
X105120000Y-73080000D02*
X108960000Y-73080000D01*
X105120000Y-74920000D02*
X108960000Y-74920000D01*
%TO.C,C5*%
X99380000Y-52630000D02*
X99380000Y-52967000D01*
X99380000Y-52630000D02*
X104620000Y-52630000D01*
X99380000Y-55033000D02*
X99380000Y-55370000D01*
X99380000Y-55370000D02*
X104620000Y-55370000D01*
X104620000Y-52630000D02*
X104620000Y-52967000D01*
X104620000Y-55033000D02*
X104620000Y-55370000D01*
%TO.C,R6*%
X85620000Y-46580000D02*
X89460000Y-46580000D01*
X85620000Y-48420000D02*
X89460000Y-48420000D01*
%TO.C,C13*%
X123695225Y-53525000D02*
X124195225Y-53525000D01*
X123945225Y-53275000D02*
X123945225Y-53775000D01*
X126500000Y-52420000D02*
X126500000Y-53960000D01*
X126500000Y-56040000D02*
X126500000Y-57580000D01*
X126540000Y-52420000D02*
X126540000Y-53960000D01*
X126540000Y-56040000D02*
X126540000Y-57580000D01*
X126580000Y-52421000D02*
X126580000Y-53960000D01*
X126580000Y-56040000D02*
X126580000Y-57579000D01*
X126620000Y-52423000D02*
X126620000Y-53960000D01*
X126620000Y-56040000D02*
X126620000Y-57577000D01*
X126660000Y-52425000D02*
X126660000Y-53960000D01*
X126660000Y-56040000D02*
X126660000Y-57575000D01*
X126700000Y-52428000D02*
X126700000Y-53960000D01*
X126700000Y-56040000D02*
X126700000Y-57572000D01*
X126740000Y-52431000D02*
X126740000Y-53960000D01*
X126740000Y-56040000D02*
X126740000Y-57569000D01*
X126780000Y-52435000D02*
X126780000Y-53960000D01*
X126780000Y-56040000D02*
X126780000Y-57565000D01*
X126820000Y-52440000D02*
X126820000Y-53960000D01*
X126820000Y-56040000D02*
X126820000Y-57560000D01*
X126860000Y-52445000D02*
X126860000Y-53960000D01*
X126860000Y-56040000D02*
X126860000Y-57555000D01*
X126900000Y-52451000D02*
X126900000Y-53960000D01*
X126900000Y-56040000D02*
X126900000Y-57549000D01*
X126940000Y-52457000D02*
X126940000Y-53960000D01*
X126940000Y-56040000D02*
X126940000Y-57543000D01*
X126980000Y-52464000D02*
X126980000Y-53960000D01*
X126980000Y-56040000D02*
X126980000Y-57536000D01*
X127020000Y-52472000D02*
X127020000Y-53960000D01*
X127020000Y-56040000D02*
X127020000Y-57528000D01*
X127060000Y-52481000D02*
X127060000Y-53960000D01*
X127060000Y-56040000D02*
X127060000Y-57519000D01*
X127100000Y-52490000D02*
X127100000Y-53960000D01*
X127100000Y-56040000D02*
X127100000Y-57510000D01*
X127140000Y-52499000D02*
X127140000Y-53960000D01*
X127140000Y-56040000D02*
X127140000Y-57501000D01*
X127180000Y-52510000D02*
X127180000Y-53960000D01*
X127180000Y-56040000D02*
X127180000Y-57490000D01*
X127220000Y-52521000D02*
X127220000Y-53960000D01*
X127220000Y-56040000D02*
X127220000Y-57479000D01*
X127260000Y-52533000D02*
X127260000Y-53960000D01*
X127260000Y-56040000D02*
X127260000Y-57467000D01*
X127300000Y-52545000D02*
X127300000Y-53960000D01*
X127300000Y-56040000D02*
X127300000Y-57455000D01*
X127340000Y-52558000D02*
X127340000Y-53960000D01*
X127340000Y-56040000D02*
X127340000Y-57442000D01*
X127380000Y-52572000D02*
X127380000Y-53960000D01*
X127380000Y-56040000D02*
X127380000Y-57428000D01*
X127420000Y-52587000D02*
X127420000Y-53960000D01*
X127420000Y-56040000D02*
X127420000Y-57413000D01*
X127460000Y-52602000D02*
X127460000Y-53960000D01*
X127460000Y-56040000D02*
X127460000Y-57398000D01*
X127500000Y-52618000D02*
X127500000Y-53960000D01*
X127500000Y-56040000D02*
X127500000Y-57382000D01*
X127540000Y-52635000D02*
X127540000Y-53960000D01*
X127540000Y-56040000D02*
X127540000Y-57365000D01*
X127580000Y-52653000D02*
X127580000Y-53960000D01*
X127580000Y-56040000D02*
X127580000Y-57347000D01*
X127620000Y-52671000D02*
X127620000Y-53960000D01*
X127620000Y-56040000D02*
X127620000Y-57329000D01*
X127660000Y-52691000D02*
X127660000Y-53960000D01*
X127660000Y-56040000D02*
X127660000Y-57309000D01*
X127700000Y-52711000D02*
X127700000Y-53960000D01*
X127700000Y-56040000D02*
X127700000Y-57289000D01*
X127740000Y-52732000D02*
X127740000Y-53960000D01*
X127740000Y-56040000D02*
X127740000Y-57268000D01*
X127780000Y-52754000D02*
X127780000Y-53960000D01*
X127780000Y-56040000D02*
X127780000Y-57246000D01*
X127820000Y-52777000D02*
X127820000Y-53960000D01*
X127820000Y-56040000D02*
X127820000Y-57223000D01*
X127860000Y-52801000D02*
X127860000Y-53960000D01*
X127860000Y-56040000D02*
X127860000Y-57199000D01*
X127900000Y-52825000D02*
X127900000Y-53960000D01*
X127900000Y-56040000D02*
X127900000Y-57175000D01*
X127940000Y-52851000D02*
X127940000Y-53960000D01*
X127940000Y-56040000D02*
X127940000Y-57149000D01*
X127980000Y-52878000D02*
X127980000Y-53960000D01*
X127980000Y-56040000D02*
X127980000Y-57122000D01*
X128020000Y-52906000D02*
X128020000Y-53960000D01*
X128020000Y-56040000D02*
X128020000Y-57094000D01*
X128060000Y-52935000D02*
X128060000Y-53960000D01*
X128060000Y-56040000D02*
X128060000Y-57065000D01*
X128100000Y-52965000D02*
X128100000Y-53960000D01*
X128100000Y-56040000D02*
X128100000Y-57035000D01*
X128140000Y-52997000D02*
X128140000Y-53960000D01*
X128140000Y-56040000D02*
X128140000Y-57003000D01*
X128180000Y-53030000D02*
X128180000Y-53960000D01*
X128180000Y-56040000D02*
X128180000Y-56970000D01*
X128220000Y-53064000D02*
X128220000Y-53960000D01*
X128220000Y-56040000D02*
X128220000Y-56936000D01*
X128260000Y-53099000D02*
X128260000Y-53960000D01*
X128260000Y-56040000D02*
X128260000Y-56901000D01*
X128300000Y-53136000D02*
X128300000Y-53960000D01*
X128300000Y-56040000D02*
X128300000Y-56864000D01*
X128340000Y-53175000D02*
X128340000Y-53960000D01*
X128340000Y-56040000D02*
X128340000Y-56825000D01*
X128380000Y-53215000D02*
X128380000Y-53960000D01*
X128380000Y-56040000D02*
X128380000Y-56785000D01*
X128420000Y-53257000D02*
X128420000Y-53960000D01*
X128420000Y-56040000D02*
X128420000Y-56743000D01*
X128460000Y-53301000D02*
X128460000Y-53960000D01*
X128460000Y-56040000D02*
X128460000Y-56699000D01*
X128500000Y-53348000D02*
X128500000Y-53960000D01*
X128500000Y-56040000D02*
X128500000Y-56652000D01*
X128540000Y-53396000D02*
X128540000Y-56604000D01*
X128580000Y-53447000D02*
X128580000Y-56553000D01*
X128620000Y-53501000D02*
X128620000Y-56499000D01*
X128660000Y-53557000D02*
X128660000Y-56443000D01*
X128700000Y-53617000D02*
X128700000Y-56383000D01*
X128740000Y-53681000D02*
X128740000Y-56319000D01*
X128780000Y-53749000D02*
X128780000Y-56251000D01*
X128820000Y-53823000D02*
X128820000Y-56177000D01*
X128860000Y-53902000D02*
X128860000Y-56098000D01*
X128900000Y-53989000D02*
X128900000Y-56011000D01*
X128940000Y-54086000D02*
X128940000Y-55914000D01*
X128980000Y-54195000D02*
X128980000Y-55805000D01*
X129020000Y-54323000D02*
X129020000Y-55677000D01*
X129060000Y-54483000D02*
X129060000Y-55517000D01*
X129100000Y-54717000D02*
X129100000Y-55283000D01*
X129120000Y-55000000D02*
G75*
G02*
X123880000Y-55000000I-2620000J0D01*
G01*
X123880000Y-55000000D02*
G75*
G02*
X129120000Y-55000000I2620000J0D01*
G01*
%TO.C,BT1*%
X133140000Y-22290000D02*
X133140000Y-71710000D01*
X133140000Y-22290000D02*
X192260000Y-22290000D01*
X133140000Y-71710000D02*
X192260000Y-71710000D01*
X192260000Y-22290000D02*
X192260000Y-71710000D01*
%TO.C,R5*%
X70620000Y-56080000D02*
X74460000Y-56080000D01*
X70620000Y-57920000D02*
X74460000Y-57920000D01*
%TO.C,C7*%
X119380000Y-62630000D02*
X119380000Y-62967000D01*
X119380000Y-62630000D02*
X124620000Y-62630000D01*
X119380000Y-65033000D02*
X119380000Y-65370000D01*
X119380000Y-65370000D02*
X124620000Y-65370000D01*
X124620000Y-62630000D02*
X124620000Y-62967000D01*
X124620000Y-65033000D02*
X124620000Y-65370000D01*
%TO.C,R15*%
X64580000Y-73380000D02*
X64580000Y-69540000D01*
X66420000Y-73380000D02*
X66420000Y-69540000D01*
%TO.C,C8*%
X110920000Y-71460000D02*
X112460000Y-71460000D01*
X110920000Y-71500000D02*
X112460000Y-71500000D01*
X110921000Y-71420000D02*
X112460000Y-71420000D01*
X110923000Y-71380000D02*
X112460000Y-71380000D01*
X110925000Y-71340000D02*
X112460000Y-71340000D01*
X110928000Y-71300000D02*
X112460000Y-71300000D01*
X110931000Y-71260000D02*
X112460000Y-71260000D01*
X110935000Y-71220000D02*
X112460000Y-71220000D01*
X110940000Y-71180000D02*
X112460000Y-71180000D01*
X110945000Y-71140000D02*
X112460000Y-71140000D01*
X110951000Y-71100000D02*
X112460000Y-71100000D01*
X110957000Y-71060000D02*
X112460000Y-71060000D01*
X110964000Y-71020000D02*
X112460000Y-71020000D01*
X110972000Y-70980000D02*
X112460000Y-70980000D01*
X110981000Y-70940000D02*
X112460000Y-70940000D01*
X110990000Y-70900000D02*
X112460000Y-70900000D01*
X110999000Y-70860000D02*
X112460000Y-70860000D01*
X111010000Y-70820000D02*
X112460000Y-70820000D01*
X111021000Y-70780000D02*
X112460000Y-70780000D01*
X111033000Y-70740000D02*
X112460000Y-70740000D01*
X111045000Y-70700000D02*
X112460000Y-70700000D01*
X111058000Y-70660000D02*
X112460000Y-70660000D01*
X111072000Y-70620000D02*
X112460000Y-70620000D01*
X111087000Y-70580000D02*
X112460000Y-70580000D01*
X111102000Y-70540000D02*
X112460000Y-70540000D01*
X111118000Y-70500000D02*
X112460000Y-70500000D01*
X111135000Y-70460000D02*
X112460000Y-70460000D01*
X111153000Y-70420000D02*
X112460000Y-70420000D01*
X111171000Y-70380000D02*
X112460000Y-70380000D01*
X111191000Y-70340000D02*
X112460000Y-70340000D01*
X111211000Y-70300000D02*
X112460000Y-70300000D01*
X111232000Y-70260000D02*
X112460000Y-70260000D01*
X111254000Y-70220000D02*
X112460000Y-70220000D01*
X111277000Y-70180000D02*
X112460000Y-70180000D01*
X111301000Y-70140000D02*
X112460000Y-70140000D01*
X111325000Y-70100000D02*
X112460000Y-70100000D01*
X111351000Y-70060000D02*
X112460000Y-70060000D01*
X111378000Y-70020000D02*
X112460000Y-70020000D01*
X111406000Y-69980000D02*
X112460000Y-69980000D01*
X111435000Y-69940000D02*
X112460000Y-69940000D01*
X111465000Y-69900000D02*
X112460000Y-69900000D01*
X111497000Y-69860000D02*
X112460000Y-69860000D01*
X111530000Y-69820000D02*
X112460000Y-69820000D01*
X111564000Y-69780000D02*
X112460000Y-69780000D01*
X111599000Y-69740000D02*
X112460000Y-69740000D01*
X111636000Y-69700000D02*
X112460000Y-69700000D01*
X111675000Y-69660000D02*
X112460000Y-69660000D01*
X111715000Y-69620000D02*
X112460000Y-69620000D01*
X111757000Y-69580000D02*
X112460000Y-69580000D01*
X111775000Y-74054775D02*
X112275000Y-74054775D01*
X111801000Y-69540000D02*
X112460000Y-69540000D01*
X111848000Y-69500000D02*
X112460000Y-69500000D01*
X111896000Y-69460000D02*
X115104000Y-69460000D01*
X111947000Y-69420000D02*
X115053000Y-69420000D01*
X112001000Y-69380000D02*
X114999000Y-69380000D01*
X112025000Y-74304775D02*
X112025000Y-73804775D01*
X112057000Y-69340000D02*
X114943000Y-69340000D01*
X112117000Y-69300000D02*
X114883000Y-69300000D01*
X112181000Y-69260000D02*
X114819000Y-69260000D01*
X112249000Y-69220000D02*
X114751000Y-69220000D01*
X112323000Y-69180000D02*
X114677000Y-69180000D01*
X112402000Y-69140000D02*
X114598000Y-69140000D01*
X112489000Y-69100000D02*
X114511000Y-69100000D01*
X112586000Y-69060000D02*
X114414000Y-69060000D01*
X112695000Y-69020000D02*
X114305000Y-69020000D01*
X112823000Y-68980000D02*
X114177000Y-68980000D01*
X112983000Y-68940000D02*
X114017000Y-68940000D01*
X113217000Y-68900000D02*
X113783000Y-68900000D01*
X114540000Y-69500000D02*
X115152000Y-69500000D01*
X114540000Y-69540000D02*
X115199000Y-69540000D01*
X114540000Y-69580000D02*
X115243000Y-69580000D01*
X114540000Y-69620000D02*
X115285000Y-69620000D01*
X114540000Y-69660000D02*
X115325000Y-69660000D01*
X114540000Y-69700000D02*
X115364000Y-69700000D01*
X114540000Y-69740000D02*
X115401000Y-69740000D01*
X114540000Y-69780000D02*
X115436000Y-69780000D01*
X114540000Y-69820000D02*
X115470000Y-69820000D01*
X114540000Y-69860000D02*
X115503000Y-69860000D01*
X114540000Y-69900000D02*
X115535000Y-69900000D01*
X114540000Y-69940000D02*
X115565000Y-69940000D01*
X114540000Y-69980000D02*
X115594000Y-69980000D01*
X114540000Y-70020000D02*
X115622000Y-70020000D01*
X114540000Y-70060000D02*
X115649000Y-70060000D01*
X114540000Y-70100000D02*
X115675000Y-70100000D01*
X114540000Y-70140000D02*
X115699000Y-70140000D01*
X114540000Y-70180000D02*
X115723000Y-70180000D01*
X114540000Y-70220000D02*
X115746000Y-70220000D01*
X114540000Y-70260000D02*
X115768000Y-70260000D01*
X114540000Y-70300000D02*
X115789000Y-70300000D01*
X114540000Y-70340000D02*
X115809000Y-70340000D01*
X114540000Y-70380000D02*
X115829000Y-70380000D01*
X114540000Y-70420000D02*
X115847000Y-70420000D01*
X114540000Y-70460000D02*
X115865000Y-70460000D01*
X114540000Y-70500000D02*
X115882000Y-70500000D01*
X114540000Y-70540000D02*
X115898000Y-70540000D01*
X114540000Y-70580000D02*
X115913000Y-70580000D01*
X114540000Y-70620000D02*
X115928000Y-70620000D01*
X114540000Y-70660000D02*
X115942000Y-70660000D01*
X114540000Y-70700000D02*
X115955000Y-70700000D01*
X114540000Y-70740000D02*
X115967000Y-70740000D01*
X114540000Y-70780000D02*
X115979000Y-70780000D01*
X114540000Y-70820000D02*
X115990000Y-70820000D01*
X114540000Y-70860000D02*
X116001000Y-70860000D01*
X114540000Y-70900000D02*
X116010000Y-70900000D01*
X114540000Y-70940000D02*
X116019000Y-70940000D01*
X114540000Y-70980000D02*
X116028000Y-70980000D01*
X114540000Y-71020000D02*
X116036000Y-71020000D01*
X114540000Y-71060000D02*
X116043000Y-71060000D01*
X114540000Y-71100000D02*
X116049000Y-71100000D01*
X114540000Y-71140000D02*
X116055000Y-71140000D01*
X114540000Y-71180000D02*
X116060000Y-71180000D01*
X114540000Y-71220000D02*
X116065000Y-71220000D01*
X114540000Y-71260000D02*
X116069000Y-71260000D01*
X114540000Y-71300000D02*
X116072000Y-71300000D01*
X114540000Y-71340000D02*
X116075000Y-71340000D01*
X114540000Y-71380000D02*
X116077000Y-71380000D01*
X114540000Y-71420000D02*
X116079000Y-71420000D01*
X114540000Y-71460000D02*
X116080000Y-71460000D01*
X114540000Y-71500000D02*
X116080000Y-71500000D01*
X116120000Y-71500000D02*
G75*
G02*
X110880000Y-71500000I-2620000J0D01*
G01*
X110880000Y-71500000D02*
G75*
G02*
X116120000Y-71500000I2620000J0D01*
G01*
%TO.C,C4*%
X84880000Y-49630000D02*
X84880000Y-49967000D01*
X84880000Y-49630000D02*
X90120000Y-49630000D01*
X84880000Y-52033000D02*
X84880000Y-52370000D01*
X84880000Y-52370000D02*
X90120000Y-52370000D01*
X90120000Y-49630000D02*
X90120000Y-49967000D01*
X90120000Y-52033000D02*
X90120000Y-52370000D01*
%TO.C,T4*%
X101700000Y-80400000D02*
X76300000Y-80400000D01*
X76300000Y-61600000D01*
X101700000Y-61600000D01*
X101700000Y-80400000D01*
%TO.C,R12*%
X105120000Y-69580000D02*
X108960000Y-69580000D01*
X105120000Y-71420000D02*
X108960000Y-71420000D01*
%TD*%
M02*
