%TF.GenerationSoftware,KiCad,Pcbnew,9.0.2+dfsg-1*%
%TF.CreationDate,2026-09-11T21:04:36-07:00*%
%TF.ProjectId,am-radio,616d2d72-6164-4696-9f2e-6b696361645f,rev?*%
%TF.SameCoordinates,Original*%
%TF.FileFunction,Legend,Bot*%
%TF.FilePolarity,Positive*%
%FSLAX46Y46*%
G04 Gerber Fmt 4.6, Leading zero omitted, Abs format (unit mm)*
G04 Created by KiCad (PCBNEW 9.0.2+dfsg-1) date 2026-09-11 21:04:36*
%MOMM*%
%LPD*%
G01*
G04 APERTURE LIST*
%ADD10C,0.300000*%
G04 APERTURE END LIST*
D10*
X131333334Y-51909638D02*
X131333334Y-50862019D01*
X131333334Y-50862019D02*
X131428572Y-50671542D01*
X131428572Y-50671542D02*
X131619048Y-50576304D01*
X131619048Y-50576304D02*
X132000001Y-50576304D01*
X132000001Y-50576304D02*
X132190477Y-50671542D01*
X131333334Y-51814400D02*
X131523810Y-51909638D01*
X131523810Y-51909638D02*
X132000001Y-51909638D01*
X132000001Y-51909638D02*
X132190477Y-51814400D01*
X132190477Y-51814400D02*
X132285715Y-51623923D01*
X132285715Y-51623923D02*
X132285715Y-51433447D01*
X132285715Y-51433447D02*
X132190477Y-51242971D01*
X132190477Y-51242971D02*
X132000001Y-51147733D01*
X132000001Y-51147733D02*
X131523810Y-51147733D01*
X131523810Y-51147733D02*
X131333334Y-51052495D01*
X130380953Y-51909638D02*
X130380953Y-50576304D01*
X130380953Y-50766780D02*
X130285715Y-50671542D01*
X130285715Y-50671542D02*
X130095239Y-50576304D01*
X130095239Y-50576304D02*
X129809524Y-50576304D01*
X129809524Y-50576304D02*
X129619048Y-50671542D01*
X129619048Y-50671542D02*
X129523810Y-50862019D01*
X129523810Y-50862019D02*
X129523810Y-51909638D01*
X129523810Y-50862019D02*
X129428572Y-50671542D01*
X129428572Y-50671542D02*
X129238096Y-50576304D01*
X129238096Y-50576304D02*
X128952382Y-50576304D01*
X128952382Y-50576304D02*
X128761905Y-50671542D01*
X128761905Y-50671542D02*
X128666667Y-50862019D01*
X128666667Y-50862019D02*
X128666667Y-51909638D01*
X127714286Y-51147733D02*
X126190477Y-51147733D01*
X125238096Y-51909638D02*
X125238096Y-50576304D01*
X125238096Y-50957257D02*
X125142858Y-50766780D01*
X125142858Y-50766780D02*
X125047620Y-50671542D01*
X125047620Y-50671542D02*
X124857144Y-50576304D01*
X124857144Y-50576304D02*
X124666667Y-50576304D01*
X123142858Y-51909638D02*
X123142858Y-50862019D01*
X123142858Y-50862019D02*
X123238096Y-50671542D01*
X123238096Y-50671542D02*
X123428572Y-50576304D01*
X123428572Y-50576304D02*
X123809525Y-50576304D01*
X123809525Y-50576304D02*
X124000001Y-50671542D01*
X123142858Y-51814400D02*
X123333334Y-51909638D01*
X123333334Y-51909638D02*
X123809525Y-51909638D01*
X123809525Y-51909638D02*
X124000001Y-51814400D01*
X124000001Y-51814400D02*
X124095239Y-51623923D01*
X124095239Y-51623923D02*
X124095239Y-51433447D01*
X124095239Y-51433447D02*
X124000001Y-51242971D01*
X124000001Y-51242971D02*
X123809525Y-51147733D01*
X123809525Y-51147733D02*
X123333334Y-51147733D01*
X123333334Y-51147733D02*
X123142858Y-51052495D01*
X121333334Y-51909638D02*
X121333334Y-49909638D01*
X121333334Y-51814400D02*
X121523810Y-51909638D01*
X121523810Y-51909638D02*
X121904763Y-51909638D01*
X121904763Y-51909638D02*
X122095239Y-51814400D01*
X122095239Y-51814400D02*
X122190477Y-51719161D01*
X122190477Y-51719161D02*
X122285715Y-51528685D01*
X122285715Y-51528685D02*
X122285715Y-50957257D01*
X122285715Y-50957257D02*
X122190477Y-50766780D01*
X122190477Y-50766780D02*
X122095239Y-50671542D01*
X122095239Y-50671542D02*
X121904763Y-50576304D01*
X121904763Y-50576304D02*
X121523810Y-50576304D01*
X121523810Y-50576304D02*
X121333334Y-50671542D01*
X120380953Y-51909638D02*
X120380953Y-50576304D01*
X120380953Y-49909638D02*
X120476191Y-50004876D01*
X120476191Y-50004876D02*
X120380953Y-50100114D01*
X120380953Y-50100114D02*
X120285715Y-50004876D01*
X120285715Y-50004876D02*
X120380953Y-49909638D01*
X120380953Y-49909638D02*
X120380953Y-50100114D01*
X119142858Y-51909638D02*
X119333334Y-51814400D01*
X119333334Y-51814400D02*
X119428572Y-51719161D01*
X119428572Y-51719161D02*
X119523810Y-51528685D01*
X119523810Y-51528685D02*
X119523810Y-50957257D01*
X119523810Y-50957257D02*
X119428572Y-50766780D01*
X119428572Y-50766780D02*
X119333334Y-50671542D01*
X119333334Y-50671542D02*
X119142858Y-50576304D01*
X119142858Y-50576304D02*
X118857143Y-50576304D01*
X118857143Y-50576304D02*
X118666667Y-50671542D01*
X118666667Y-50671542D02*
X118571429Y-50766780D01*
X118571429Y-50766780D02*
X118476191Y-50957257D01*
X118476191Y-50957257D02*
X118476191Y-51528685D01*
X118476191Y-51528685D02*
X118571429Y-51719161D01*
X118571429Y-51719161D02*
X118666667Y-51814400D01*
X118666667Y-51814400D02*
X118857143Y-51909638D01*
X118857143Y-51909638D02*
X119142858Y-51909638D01*
X114571428Y-51909638D02*
X114571428Y-50576304D01*
X114571428Y-50957257D02*
X114476190Y-50766780D01*
X114476190Y-50766780D02*
X114380952Y-50671542D01*
X114380952Y-50671542D02*
X114190476Y-50576304D01*
X114190476Y-50576304D02*
X113999999Y-50576304D01*
X112571428Y-51814400D02*
X112761904Y-51909638D01*
X112761904Y-51909638D02*
X113142857Y-51909638D01*
X113142857Y-51909638D02*
X113333333Y-51814400D01*
X113333333Y-51814400D02*
X113428571Y-51623923D01*
X113428571Y-51623923D02*
X113428571Y-50862019D01*
X113428571Y-50862019D02*
X113333333Y-50671542D01*
X113333333Y-50671542D02*
X113142857Y-50576304D01*
X113142857Y-50576304D02*
X112761904Y-50576304D01*
X112761904Y-50576304D02*
X112571428Y-50671542D01*
X112571428Y-50671542D02*
X112476190Y-50862019D01*
X112476190Y-50862019D02*
X112476190Y-51052495D01*
X112476190Y-51052495D02*
X113428571Y-51242971D01*
X111809523Y-50576304D02*
X111333333Y-51909638D01*
X111333333Y-51909638D02*
X110857142Y-50576304D01*
X107523808Y-51909638D02*
X108666665Y-51909638D01*
X108095237Y-51909638D02*
X108095237Y-49909638D01*
X108095237Y-49909638D02*
X108285713Y-50195352D01*
X108285713Y-50195352D02*
X108476189Y-50385828D01*
X108476189Y-50385828D02*
X108666665Y-50481066D01*
X106666665Y-51719161D02*
X106571427Y-51814400D01*
X106571427Y-51814400D02*
X106666665Y-51909638D01*
X106666665Y-51909638D02*
X106761903Y-51814400D01*
X106761903Y-51814400D02*
X106666665Y-51719161D01*
X106666665Y-51719161D02*
X106666665Y-51909638D01*
X105333332Y-49909638D02*
X105142855Y-49909638D01*
X105142855Y-49909638D02*
X104952379Y-50004876D01*
X104952379Y-50004876D02*
X104857141Y-50100114D01*
X104857141Y-50100114D02*
X104761903Y-50290590D01*
X104761903Y-50290590D02*
X104666665Y-50671542D01*
X104666665Y-50671542D02*
X104666665Y-51147733D01*
X104666665Y-51147733D02*
X104761903Y-51528685D01*
X104761903Y-51528685D02*
X104857141Y-51719161D01*
X104857141Y-51719161D02*
X104952379Y-51814400D01*
X104952379Y-51814400D02*
X105142855Y-51909638D01*
X105142855Y-51909638D02*
X105333332Y-51909638D01*
X105333332Y-51909638D02*
X105523808Y-51814400D01*
X105523808Y-51814400D02*
X105619046Y-51719161D01*
X105619046Y-51719161D02*
X105714284Y-51528685D01*
X105714284Y-51528685D02*
X105809522Y-51147733D01*
X105809522Y-51147733D02*
X105809522Y-50671542D01*
X105809522Y-50671542D02*
X105714284Y-50290590D01*
X105714284Y-50290590D02*
X105619046Y-50100114D01*
X105619046Y-50100114D02*
X105523808Y-50004876D01*
X105523808Y-50004876D02*
X105333332Y-49909638D01*
X100857140Y-50100114D02*
X100761902Y-50004876D01*
X100761902Y-50004876D02*
X100571426Y-49909638D01*
X100571426Y-49909638D02*
X100095235Y-49909638D01*
X100095235Y-49909638D02*
X99904759Y-50004876D01*
X99904759Y-50004876D02*
X99809521Y-50100114D01*
X99809521Y-50100114D02*
X99714283Y-50290590D01*
X99714283Y-50290590D02*
X99714283Y-50481066D01*
X99714283Y-50481066D02*
X99809521Y-50766780D01*
X99809521Y-50766780D02*
X100952378Y-51909638D01*
X100952378Y-51909638D02*
X99714283Y-51909638D01*
X98476188Y-49909638D02*
X98285711Y-49909638D01*
X98285711Y-49909638D02*
X98095235Y-50004876D01*
X98095235Y-50004876D02*
X97999997Y-50100114D01*
X97999997Y-50100114D02*
X97904759Y-50290590D01*
X97904759Y-50290590D02*
X97809521Y-50671542D01*
X97809521Y-50671542D02*
X97809521Y-51147733D01*
X97809521Y-51147733D02*
X97904759Y-51528685D01*
X97904759Y-51528685D02*
X97999997Y-51719161D01*
X97999997Y-51719161D02*
X98095235Y-51814400D01*
X98095235Y-51814400D02*
X98285711Y-51909638D01*
X98285711Y-51909638D02*
X98476188Y-51909638D01*
X98476188Y-51909638D02*
X98666664Y-51814400D01*
X98666664Y-51814400D02*
X98761902Y-51719161D01*
X98761902Y-51719161D02*
X98857140Y-51528685D01*
X98857140Y-51528685D02*
X98952378Y-51147733D01*
X98952378Y-51147733D02*
X98952378Y-50671542D01*
X98952378Y-50671542D02*
X98857140Y-50290590D01*
X98857140Y-50290590D02*
X98761902Y-50100114D01*
X98761902Y-50100114D02*
X98666664Y-50004876D01*
X98666664Y-50004876D02*
X98476188Y-49909638D01*
X97047616Y-50100114D02*
X96952378Y-50004876D01*
X96952378Y-50004876D02*
X96761902Y-49909638D01*
X96761902Y-49909638D02*
X96285711Y-49909638D01*
X96285711Y-49909638D02*
X96095235Y-50004876D01*
X96095235Y-50004876D02*
X95999997Y-50100114D01*
X95999997Y-50100114D02*
X95904759Y-50290590D01*
X95904759Y-50290590D02*
X95904759Y-50481066D01*
X95904759Y-50481066D02*
X95999997Y-50766780D01*
X95999997Y-50766780D02*
X97142854Y-51909638D01*
X97142854Y-51909638D02*
X95904759Y-51909638D01*
X94190473Y-49909638D02*
X94571426Y-49909638D01*
X94571426Y-49909638D02*
X94761902Y-50004876D01*
X94761902Y-50004876D02*
X94857140Y-50100114D01*
X94857140Y-50100114D02*
X95047616Y-50385828D01*
X95047616Y-50385828D02*
X95142854Y-50766780D01*
X95142854Y-50766780D02*
X95142854Y-51528685D01*
X95142854Y-51528685D02*
X95047616Y-51719161D01*
X95047616Y-51719161D02*
X94952378Y-51814400D01*
X94952378Y-51814400D02*
X94761902Y-51909638D01*
X94761902Y-51909638D02*
X94380949Y-51909638D01*
X94380949Y-51909638D02*
X94190473Y-51814400D01*
X94190473Y-51814400D02*
X94095235Y-51719161D01*
X94095235Y-51719161D02*
X93999997Y-51528685D01*
X93999997Y-51528685D02*
X93999997Y-51052495D01*
X93999997Y-51052495D02*
X94095235Y-50862019D01*
X94095235Y-50862019D02*
X94190473Y-50766780D01*
X94190473Y-50766780D02*
X94380949Y-50671542D01*
X94380949Y-50671542D02*
X94761902Y-50671542D01*
X94761902Y-50671542D02*
X94952378Y-50766780D01*
X94952378Y-50766780D02*
X95047616Y-50862019D01*
X95047616Y-50862019D02*
X95142854Y-51052495D01*
X93142854Y-51147733D02*
X91619045Y-51147733D01*
X90285712Y-49909638D02*
X90095235Y-49909638D01*
X90095235Y-49909638D02*
X89904759Y-50004876D01*
X89904759Y-50004876D02*
X89809521Y-50100114D01*
X89809521Y-50100114D02*
X89714283Y-50290590D01*
X89714283Y-50290590D02*
X89619045Y-50671542D01*
X89619045Y-50671542D02*
X89619045Y-51147733D01*
X89619045Y-51147733D02*
X89714283Y-51528685D01*
X89714283Y-51528685D02*
X89809521Y-51719161D01*
X89809521Y-51719161D02*
X89904759Y-51814400D01*
X89904759Y-51814400D02*
X90095235Y-51909638D01*
X90095235Y-51909638D02*
X90285712Y-51909638D01*
X90285712Y-51909638D02*
X90476188Y-51814400D01*
X90476188Y-51814400D02*
X90571426Y-51719161D01*
X90571426Y-51719161D02*
X90666664Y-51528685D01*
X90666664Y-51528685D02*
X90761902Y-51147733D01*
X90761902Y-51147733D02*
X90761902Y-50671542D01*
X90761902Y-50671542D02*
X90666664Y-50290590D01*
X90666664Y-50290590D02*
X90571426Y-50100114D01*
X90571426Y-50100114D02*
X90476188Y-50004876D01*
X90476188Y-50004876D02*
X90285712Y-49909638D01*
X88666664Y-51909638D02*
X88285712Y-51909638D01*
X88285712Y-51909638D02*
X88095235Y-51814400D01*
X88095235Y-51814400D02*
X87999997Y-51719161D01*
X87999997Y-51719161D02*
X87809521Y-51433447D01*
X87809521Y-51433447D02*
X87714283Y-51052495D01*
X87714283Y-51052495D02*
X87714283Y-50290590D01*
X87714283Y-50290590D02*
X87809521Y-50100114D01*
X87809521Y-50100114D02*
X87904759Y-50004876D01*
X87904759Y-50004876D02*
X88095235Y-49909638D01*
X88095235Y-49909638D02*
X88476188Y-49909638D01*
X88476188Y-49909638D02*
X88666664Y-50004876D01*
X88666664Y-50004876D02*
X88761902Y-50100114D01*
X88761902Y-50100114D02*
X88857140Y-50290590D01*
X88857140Y-50290590D02*
X88857140Y-50766780D01*
X88857140Y-50766780D02*
X88761902Y-50957257D01*
X88761902Y-50957257D02*
X88666664Y-51052495D01*
X88666664Y-51052495D02*
X88476188Y-51147733D01*
X88476188Y-51147733D02*
X88095235Y-51147733D01*
X88095235Y-51147733D02*
X87904759Y-51052495D01*
X87904759Y-51052495D02*
X87809521Y-50957257D01*
X87809521Y-50957257D02*
X87714283Y-50766780D01*
M02*
