%TF.GenerationSoftware,KiCad,Pcbnew,9.0.2+dfsg-1*%
%TF.CreationDate,2026-09-12T16:53:37-07:00*%
%TF.ProjectId,am-radio,616d2d72-6164-4696-9f2e-6b696361645f,rev?*%
%TF.SameCoordinates,Original*%
%TF.FileFunction,Legend,Bot*%
%TF.FilePolarity,Positive*%
%FSLAX46Y46*%
G04 Gerber Fmt 4.6, Leading zero omitted, Abs format (unit mm)*
G04 Created by KiCad (PCBNEW 9.0.2+dfsg-1) date 2026-09-12 16:53:37*
%MOMM*%
%LPD*%
G01*
G04 APERTURE LIST*
%ADD10C,0.300000*%
G04 APERTURE END LIST*
D10*
X96333334Y-62409638D02*
X96333334Y-61362019D01*
X96333334Y-61362019D02*
X96428572Y-61171542D01*
X96428572Y-61171542D02*
X96619048Y-61076304D01*
X96619048Y-61076304D02*
X97000001Y-61076304D01*
X97000001Y-61076304D02*
X97190477Y-61171542D01*
X96333334Y-62314400D02*
X96523810Y-62409638D01*
X96523810Y-62409638D02*
X97000001Y-62409638D01*
X97000001Y-62409638D02*
X97190477Y-62314400D01*
X97190477Y-62314400D02*
X97285715Y-62123923D01*
X97285715Y-62123923D02*
X97285715Y-61933447D01*
X97285715Y-61933447D02*
X97190477Y-61742971D01*
X97190477Y-61742971D02*
X97000001Y-61647733D01*
X97000001Y-61647733D02*
X96523810Y-61647733D01*
X96523810Y-61647733D02*
X96333334Y-61552495D01*
X95380953Y-62409638D02*
X95380953Y-61076304D01*
X95380953Y-61266780D02*
X95285715Y-61171542D01*
X95285715Y-61171542D02*
X95095239Y-61076304D01*
X95095239Y-61076304D02*
X94809524Y-61076304D01*
X94809524Y-61076304D02*
X94619048Y-61171542D01*
X94619048Y-61171542D02*
X94523810Y-61362019D01*
X94523810Y-61362019D02*
X94523810Y-62409638D01*
X94523810Y-61362019D02*
X94428572Y-61171542D01*
X94428572Y-61171542D02*
X94238096Y-61076304D01*
X94238096Y-61076304D02*
X93952382Y-61076304D01*
X93952382Y-61076304D02*
X93761905Y-61171542D01*
X93761905Y-61171542D02*
X93666667Y-61362019D01*
X93666667Y-61362019D02*
X93666667Y-62409638D01*
X92714286Y-61647733D02*
X91190477Y-61647733D01*
X90238096Y-62409638D02*
X90238096Y-61076304D01*
X90238096Y-61457257D02*
X90142858Y-61266780D01*
X90142858Y-61266780D02*
X90047620Y-61171542D01*
X90047620Y-61171542D02*
X89857144Y-61076304D01*
X89857144Y-61076304D02*
X89666667Y-61076304D01*
X88142858Y-62409638D02*
X88142858Y-61362019D01*
X88142858Y-61362019D02*
X88238096Y-61171542D01*
X88238096Y-61171542D02*
X88428572Y-61076304D01*
X88428572Y-61076304D02*
X88809525Y-61076304D01*
X88809525Y-61076304D02*
X89000001Y-61171542D01*
X88142858Y-62314400D02*
X88333334Y-62409638D01*
X88333334Y-62409638D02*
X88809525Y-62409638D01*
X88809525Y-62409638D02*
X89000001Y-62314400D01*
X89000001Y-62314400D02*
X89095239Y-62123923D01*
X89095239Y-62123923D02*
X89095239Y-61933447D01*
X89095239Y-61933447D02*
X89000001Y-61742971D01*
X89000001Y-61742971D02*
X88809525Y-61647733D01*
X88809525Y-61647733D02*
X88333334Y-61647733D01*
X88333334Y-61647733D02*
X88142858Y-61552495D01*
X86333334Y-62409638D02*
X86333334Y-60409638D01*
X86333334Y-62314400D02*
X86523810Y-62409638D01*
X86523810Y-62409638D02*
X86904763Y-62409638D01*
X86904763Y-62409638D02*
X87095239Y-62314400D01*
X87095239Y-62314400D02*
X87190477Y-62219161D01*
X87190477Y-62219161D02*
X87285715Y-62028685D01*
X87285715Y-62028685D02*
X87285715Y-61457257D01*
X87285715Y-61457257D02*
X87190477Y-61266780D01*
X87190477Y-61266780D02*
X87095239Y-61171542D01*
X87095239Y-61171542D02*
X86904763Y-61076304D01*
X86904763Y-61076304D02*
X86523810Y-61076304D01*
X86523810Y-61076304D02*
X86333334Y-61171542D01*
X85380953Y-62409638D02*
X85380953Y-61076304D01*
X85380953Y-60409638D02*
X85476191Y-60504876D01*
X85476191Y-60504876D02*
X85380953Y-60600114D01*
X85380953Y-60600114D02*
X85285715Y-60504876D01*
X85285715Y-60504876D02*
X85380953Y-60409638D01*
X85380953Y-60409638D02*
X85380953Y-60600114D01*
X84142858Y-62409638D02*
X84333334Y-62314400D01*
X84333334Y-62314400D02*
X84428572Y-62219161D01*
X84428572Y-62219161D02*
X84523810Y-62028685D01*
X84523810Y-62028685D02*
X84523810Y-61457257D01*
X84523810Y-61457257D02*
X84428572Y-61266780D01*
X84428572Y-61266780D02*
X84333334Y-61171542D01*
X84333334Y-61171542D02*
X84142858Y-61076304D01*
X84142858Y-61076304D02*
X83857143Y-61076304D01*
X83857143Y-61076304D02*
X83666667Y-61171542D01*
X83666667Y-61171542D02*
X83571429Y-61266780D01*
X83571429Y-61266780D02*
X83476191Y-61457257D01*
X83476191Y-61457257D02*
X83476191Y-62028685D01*
X83476191Y-62028685D02*
X83571429Y-62219161D01*
X83571429Y-62219161D02*
X83666667Y-62314400D01*
X83666667Y-62314400D02*
X83857143Y-62409638D01*
X83857143Y-62409638D02*
X84142858Y-62409638D01*
X79571428Y-62409638D02*
X79571428Y-61076304D01*
X79571428Y-61457257D02*
X79476190Y-61266780D01*
X79476190Y-61266780D02*
X79380952Y-61171542D01*
X79380952Y-61171542D02*
X79190476Y-61076304D01*
X79190476Y-61076304D02*
X78999999Y-61076304D01*
X77571428Y-62314400D02*
X77761904Y-62409638D01*
X77761904Y-62409638D02*
X78142857Y-62409638D01*
X78142857Y-62409638D02*
X78333333Y-62314400D01*
X78333333Y-62314400D02*
X78428571Y-62123923D01*
X78428571Y-62123923D02*
X78428571Y-61362019D01*
X78428571Y-61362019D02*
X78333333Y-61171542D01*
X78333333Y-61171542D02*
X78142857Y-61076304D01*
X78142857Y-61076304D02*
X77761904Y-61076304D01*
X77761904Y-61076304D02*
X77571428Y-61171542D01*
X77571428Y-61171542D02*
X77476190Y-61362019D01*
X77476190Y-61362019D02*
X77476190Y-61552495D01*
X77476190Y-61552495D02*
X78428571Y-61742971D01*
X76809523Y-61076304D02*
X76333333Y-62409638D01*
X76333333Y-62409638D02*
X75857142Y-61076304D01*
X72523808Y-62409638D02*
X73666665Y-62409638D01*
X73095237Y-62409638D02*
X73095237Y-60409638D01*
X73095237Y-60409638D02*
X73285713Y-60695352D01*
X73285713Y-60695352D02*
X73476189Y-60885828D01*
X73476189Y-60885828D02*
X73666665Y-60981066D01*
X71666665Y-62219161D02*
X71571427Y-62314400D01*
X71571427Y-62314400D02*
X71666665Y-62409638D01*
X71666665Y-62409638D02*
X71761903Y-62314400D01*
X71761903Y-62314400D02*
X71666665Y-62219161D01*
X71666665Y-62219161D02*
X71666665Y-62409638D01*
X69666665Y-62409638D02*
X70809522Y-62409638D01*
X70238094Y-62409638D02*
X70238094Y-60409638D01*
X70238094Y-60409638D02*
X70428570Y-60695352D01*
X70428570Y-60695352D02*
X70619046Y-60885828D01*
X70619046Y-60885828D02*
X70809522Y-60981066D01*
X65857140Y-60600114D02*
X65761902Y-60504876D01*
X65761902Y-60504876D02*
X65571426Y-60409638D01*
X65571426Y-60409638D02*
X65095235Y-60409638D01*
X65095235Y-60409638D02*
X64904759Y-60504876D01*
X64904759Y-60504876D02*
X64809521Y-60600114D01*
X64809521Y-60600114D02*
X64714283Y-60790590D01*
X64714283Y-60790590D02*
X64714283Y-60981066D01*
X64714283Y-60981066D02*
X64809521Y-61266780D01*
X64809521Y-61266780D02*
X65952378Y-62409638D01*
X65952378Y-62409638D02*
X64714283Y-62409638D01*
X63476188Y-60409638D02*
X63285711Y-60409638D01*
X63285711Y-60409638D02*
X63095235Y-60504876D01*
X63095235Y-60504876D02*
X62999997Y-60600114D01*
X62999997Y-60600114D02*
X62904759Y-60790590D01*
X62904759Y-60790590D02*
X62809521Y-61171542D01*
X62809521Y-61171542D02*
X62809521Y-61647733D01*
X62809521Y-61647733D02*
X62904759Y-62028685D01*
X62904759Y-62028685D02*
X62999997Y-62219161D01*
X62999997Y-62219161D02*
X63095235Y-62314400D01*
X63095235Y-62314400D02*
X63285711Y-62409638D01*
X63285711Y-62409638D02*
X63476188Y-62409638D01*
X63476188Y-62409638D02*
X63666664Y-62314400D01*
X63666664Y-62314400D02*
X63761902Y-62219161D01*
X63761902Y-62219161D02*
X63857140Y-62028685D01*
X63857140Y-62028685D02*
X63952378Y-61647733D01*
X63952378Y-61647733D02*
X63952378Y-61171542D01*
X63952378Y-61171542D02*
X63857140Y-60790590D01*
X63857140Y-60790590D02*
X63761902Y-60600114D01*
X63761902Y-60600114D02*
X63666664Y-60504876D01*
X63666664Y-60504876D02*
X63476188Y-60409638D01*
X62047616Y-60600114D02*
X61952378Y-60504876D01*
X61952378Y-60504876D02*
X61761902Y-60409638D01*
X61761902Y-60409638D02*
X61285711Y-60409638D01*
X61285711Y-60409638D02*
X61095235Y-60504876D01*
X61095235Y-60504876D02*
X60999997Y-60600114D01*
X60999997Y-60600114D02*
X60904759Y-60790590D01*
X60904759Y-60790590D02*
X60904759Y-60981066D01*
X60904759Y-60981066D02*
X60999997Y-61266780D01*
X60999997Y-61266780D02*
X62142854Y-62409638D01*
X62142854Y-62409638D02*
X60904759Y-62409638D01*
X59190473Y-60409638D02*
X59571426Y-60409638D01*
X59571426Y-60409638D02*
X59761902Y-60504876D01*
X59761902Y-60504876D02*
X59857140Y-60600114D01*
X59857140Y-60600114D02*
X60047616Y-60885828D01*
X60047616Y-60885828D02*
X60142854Y-61266780D01*
X60142854Y-61266780D02*
X60142854Y-62028685D01*
X60142854Y-62028685D02*
X60047616Y-62219161D01*
X60047616Y-62219161D02*
X59952378Y-62314400D01*
X59952378Y-62314400D02*
X59761902Y-62409638D01*
X59761902Y-62409638D02*
X59380949Y-62409638D01*
X59380949Y-62409638D02*
X59190473Y-62314400D01*
X59190473Y-62314400D02*
X59095235Y-62219161D01*
X59095235Y-62219161D02*
X58999997Y-62028685D01*
X58999997Y-62028685D02*
X58999997Y-61552495D01*
X58999997Y-61552495D02*
X59095235Y-61362019D01*
X59095235Y-61362019D02*
X59190473Y-61266780D01*
X59190473Y-61266780D02*
X59380949Y-61171542D01*
X59380949Y-61171542D02*
X59761902Y-61171542D01*
X59761902Y-61171542D02*
X59952378Y-61266780D01*
X59952378Y-61266780D02*
X60047616Y-61362019D01*
X60047616Y-61362019D02*
X60142854Y-61552495D01*
X58142854Y-61647733D02*
X56619045Y-61647733D01*
X55285712Y-60409638D02*
X55095235Y-60409638D01*
X55095235Y-60409638D02*
X54904759Y-60504876D01*
X54904759Y-60504876D02*
X54809521Y-60600114D01*
X54809521Y-60600114D02*
X54714283Y-60790590D01*
X54714283Y-60790590D02*
X54619045Y-61171542D01*
X54619045Y-61171542D02*
X54619045Y-61647733D01*
X54619045Y-61647733D02*
X54714283Y-62028685D01*
X54714283Y-62028685D02*
X54809521Y-62219161D01*
X54809521Y-62219161D02*
X54904759Y-62314400D01*
X54904759Y-62314400D02*
X55095235Y-62409638D01*
X55095235Y-62409638D02*
X55285712Y-62409638D01*
X55285712Y-62409638D02*
X55476188Y-62314400D01*
X55476188Y-62314400D02*
X55571426Y-62219161D01*
X55571426Y-62219161D02*
X55666664Y-62028685D01*
X55666664Y-62028685D02*
X55761902Y-61647733D01*
X55761902Y-61647733D02*
X55761902Y-61171542D01*
X55761902Y-61171542D02*
X55666664Y-60790590D01*
X55666664Y-60790590D02*
X55571426Y-60600114D01*
X55571426Y-60600114D02*
X55476188Y-60504876D01*
X55476188Y-60504876D02*
X55285712Y-60409638D01*
X53666664Y-62409638D02*
X53285712Y-62409638D01*
X53285712Y-62409638D02*
X53095235Y-62314400D01*
X53095235Y-62314400D02*
X52999997Y-62219161D01*
X52999997Y-62219161D02*
X52809521Y-61933447D01*
X52809521Y-61933447D02*
X52714283Y-61552495D01*
X52714283Y-61552495D02*
X52714283Y-60790590D01*
X52714283Y-60790590D02*
X52809521Y-60600114D01*
X52809521Y-60600114D02*
X52904759Y-60504876D01*
X52904759Y-60504876D02*
X53095235Y-60409638D01*
X53095235Y-60409638D02*
X53476188Y-60409638D01*
X53476188Y-60409638D02*
X53666664Y-60504876D01*
X53666664Y-60504876D02*
X53761902Y-60600114D01*
X53761902Y-60600114D02*
X53857140Y-60790590D01*
X53857140Y-60790590D02*
X53857140Y-61266780D01*
X53857140Y-61266780D02*
X53761902Y-61457257D01*
X53761902Y-61457257D02*
X53666664Y-61552495D01*
X53666664Y-61552495D02*
X53476188Y-61647733D01*
X53476188Y-61647733D02*
X53095235Y-61647733D01*
X53095235Y-61647733D02*
X52904759Y-61552495D01*
X52904759Y-61552495D02*
X52809521Y-61457257D01*
X52809521Y-61457257D02*
X52714283Y-61266780D01*
M02*
