%TF.GenerationSoftware,KiCad,Pcbnew,9.0.2+dfsg-1*%
%TF.CreationDate,2026-09-11T21:04:36-07:00*%
%TF.ProjectId,am-radio,616d2d72-6164-4696-9f2e-6b696361645f,rev?*%
%TF.SameCoordinates,Original*%
%TF.FileFunction,Soldermask,Top*%
%TF.FilePolarity,Negative*%
%FSLAX46Y46*%
G04 Gerber Fmt 4.6, Leading zero omitted, Abs format (unit mm)*
G04 Created by KiCad (PCBNEW 9.0.2+dfsg-1) date 2026-09-11 21:04:36*
%MOMM*%
%LPD*%
G01*
G04 APERTURE LIST*
G04 Aperture macros list*
%AMRoundRect*
0 Rectangle with rounded corners*
0 $1 Rounding radius*
0 $2 $3 $4 $5 $6 $7 $8 $9 X,Y pos of 4 corners*
0 Add a 4 corners polygon primitive as box body*
4,1,4,$2,$3,$4,$5,$6,$7,$8,$9,$2,$3,0*
0 Add four circle primitives for the rounded corners*
1,1,$1+$1,$2,$3*
1,1,$1+$1,$4,$5*
1,1,$1+$1,$6,$7*
1,1,$1+$1,$8,$9*
0 Add four rect primitives between the rounded corners*
20,1,$1+$1,$2,$3,$4,$5,0*
20,1,$1+$1,$4,$5,$6,$7,0*
20,1,$1+$1,$6,$7,$8,$9,0*
20,1,$1+$1,$8,$9,$2,$3,0*%
G04 Aperture macros list end*
%ADD10C,1.800000*%
%ADD11C,4.400000*%
%ADD12R,3.960000X1.980000*%
%ADD13O,3.960000X1.980000*%
%ADD14C,3.200000*%
%ADD15C,1.600000*%
%ADD16R,1.500000X1.500000*%
%ADD17C,1.500000*%
%ADD18C,1.400000*%
%ADD19RoundRect,0.250000X-0.550000X-0.550000X0.550000X-0.550000X0.550000X0.550000X-0.550000X0.550000X0*%
%ADD20R,1.300000X1.300000*%
%ADD21C,1.300000*%
%ADD22O,2.200000X3.500000*%
%ADD23R,1.500000X2.500000*%
%ADD24O,1.500000X2.500000*%
%ADD25C,2.700000*%
%ADD26O,2.600000X1.800000*%
%ADD27R,1.600000X1.600000*%
%ADD28C,2.200000*%
%ADD29R,1.700000X1.700000*%
%ADD30C,1.700000*%
%ADD31C,4.000000*%
%ADD32R,3.000000X3.000000*%
%ADD33C,3.000000*%
%ADD34RoundRect,0.250000X0.550000X-0.550000X0.550000X0.550000X-0.550000X0.550000X-0.550000X-0.550000X0*%
G04 APERTURE END LIST*
D10*
%TO.C,RV1*%
X118000000Y-77000000D03*
X118000000Y-74500000D03*
X118000000Y-72000000D03*
D11*
X125000000Y-70100000D03*
X125000000Y-78900000D03*
%TD*%
D12*
%TO.C,J1*%
X28000000Y-71000000D03*
D13*
X28000000Y-66000000D03*
%TD*%
D14*
%TO.C,H1*%
X23500000Y-23500000D03*
%TD*%
D15*
%TO.C,C6*%
X107500000Y-51000000D03*
X112500000Y-51000000D03*
%TD*%
D16*
%TO.C,T3*%
X119071000Y-41071000D03*
D17*
X122500000Y-41071000D03*
X125929000Y-41071000D03*
X125929000Y-47929000D03*
X122500000Y-47929000D03*
X119071000Y-47929000D03*
%TD*%
D18*
%TO.C,R9*%
X107500000Y-47500000D03*
X112580000Y-47500000D03*
%TD*%
%TO.C,R16*%
X130500000Y-56000000D03*
X130500000Y-50920000D03*
%TD*%
D19*
%TO.C,C12*%
X145000000Y-77500000D03*
D15*
X147000000Y-77500000D03*
%TD*%
%TO.C,C10*%
X106500000Y-57500000D03*
X111500000Y-57500000D03*
%TD*%
D20*
%TO.C,Q2*%
X87500000Y-42500000D03*
D21*
X88770000Y-41230000D03*
X90040000Y-42500000D03*
%TD*%
D19*
%TO.C,C9*%
X105500000Y-78500000D03*
D15*
X107500000Y-78500000D03*
%TD*%
%TO.C,C11*%
X65000000Y-66500000D03*
X65000000Y-61500000D03*
%TD*%
D20*
%TO.C,Q6*%
X71000000Y-79000000D03*
D21*
X72270000Y-77730000D03*
X73540000Y-79000000D03*
%TD*%
D14*
%TO.C,H4*%
X196500000Y-78500000D03*
%TD*%
D19*
%TO.C,D1*%
X116000000Y-60500000D03*
D15*
X126160000Y-60500000D03*
%TD*%
D22*
%TO.C,SW1*%
X167900000Y-77500000D03*
X176100000Y-77500000D03*
D23*
X170000000Y-77500000D03*
D24*
X172000000Y-77500000D03*
X174000000Y-77500000D03*
%TD*%
D15*
%TO.C,C2*%
X46000000Y-54000000D03*
X51000000Y-54000000D03*
%TD*%
D18*
%TO.C,R4*%
X70000000Y-53500000D03*
X75080000Y-53500000D03*
%TD*%
%TO.C,R11*%
X104500000Y-61000000D03*
X109580000Y-61000000D03*
%TD*%
D25*
%TO.C,VC1*%
X26000000Y-42000000D03*
X41000000Y-42000000D03*
D26*
X39500000Y-58000000D03*
X33500000Y-58000000D03*
X27500000Y-58000000D03*
%TD*%
D19*
%TO.C,C3*%
X78500000Y-54500000D03*
D15*
X80500000Y-54500000D03*
%TD*%
D20*
%TO.C,Q4*%
X106000000Y-65500000D03*
D21*
X107270000Y-64230000D03*
X108540000Y-65500000D03*
%TD*%
D27*
%TO.C,T5*%
X57755000Y-77565000D03*
D15*
X57755000Y-71000000D03*
X57755000Y-64435000D03*
X41245000Y-64435000D03*
X41245000Y-71000000D03*
X41245000Y-77565000D03*
%TD*%
D18*
%TO.C,R14*%
X68500000Y-74000000D03*
X68500000Y-68920000D03*
%TD*%
%TO.C,R2*%
X46000000Y-50500000D03*
X51080000Y-50500000D03*
%TD*%
D15*
%TO.C,C1*%
X55500000Y-52500000D03*
X55500000Y-47500000D03*
%TD*%
D18*
%TO.C,R3*%
X46000000Y-57500000D03*
X51080000Y-57500000D03*
%TD*%
D16*
%TO.C,T2*%
X96571000Y-41071000D03*
D17*
X100000000Y-41071000D03*
X103429000Y-41071000D03*
X103429000Y-47929000D03*
X100000000Y-47929000D03*
X96571000Y-47929000D03*
%TD*%
D28*
%TO.C,L1*%
X43000000Y-23000000D03*
X43000000Y-37000000D03*
X79000000Y-23000000D03*
X79000000Y-37000000D03*
D29*
X29000000Y-26190000D03*
D30*
X29000000Y-28730000D03*
X29000000Y-31270000D03*
X29000000Y-33810000D03*
%TD*%
D14*
%TO.C,H3*%
X23500000Y-78500000D03*
%TD*%
D20*
%TO.C,Q3*%
X110000000Y-42500000D03*
D21*
X111270000Y-41230000D03*
X112540000Y-42500000D03*
%TD*%
D16*
%TO.C,T1*%
X73571000Y-41071000D03*
D17*
X77000000Y-41071000D03*
X80429000Y-41071000D03*
X80429000Y-47929000D03*
X77000000Y-47929000D03*
X73571000Y-47929000D03*
%TD*%
D18*
%TO.C,R8*%
X92000000Y-57500000D03*
X97080000Y-57500000D03*
%TD*%
D20*
%TO.C,Q1*%
X48500000Y-42500000D03*
D21*
X49770000Y-41230000D03*
X51040000Y-42500000D03*
%TD*%
D20*
%TO.C,Q5*%
X71000000Y-63500000D03*
D21*
X72270000Y-62230000D03*
X73540000Y-63500000D03*
%TD*%
D18*
%TO.C,R7*%
X92000000Y-54000000D03*
X97080000Y-54000000D03*
%TD*%
%TO.C,R1*%
X46000000Y-47000000D03*
X51080000Y-47000000D03*
%TD*%
D16*
%TO.C,L2*%
X60071000Y-41071000D03*
D17*
X63500000Y-41071000D03*
X66929000Y-41071000D03*
X66929000Y-47929000D03*
X63500000Y-47929000D03*
X60071000Y-47929000D03*
%TD*%
D18*
%TO.C,R13*%
X104500000Y-74000000D03*
X109580000Y-74000000D03*
%TD*%
D14*
%TO.C,H2*%
X196500000Y-23500000D03*
%TD*%
D15*
%TO.C,C5*%
X99500000Y-54000000D03*
X104500000Y-54000000D03*
%TD*%
D18*
%TO.C,R6*%
X85000000Y-47500000D03*
X90080000Y-47500000D03*
%TD*%
D19*
%TO.C,C13*%
X125500000Y-55000000D03*
D15*
X127500000Y-55000000D03*
%TD*%
D31*
%TO.C,BT1*%
X162700000Y-32000000D03*
X162700000Y-62000000D03*
D32*
X136000000Y-32000000D03*
D33*
X136000000Y-44800000D03*
%TD*%
D18*
%TO.C,R5*%
X70000000Y-57000000D03*
X75080000Y-57000000D03*
%TD*%
D15*
%TO.C,C7*%
X119500000Y-64000000D03*
X124500000Y-64000000D03*
%TD*%
D18*
%TO.C,R15*%
X65500000Y-74000000D03*
X65500000Y-68920000D03*
%TD*%
D34*
%TO.C,C8*%
X113500000Y-72500000D03*
D15*
X113500000Y-70500000D03*
%TD*%
%TO.C,C4*%
X85000000Y-51000000D03*
X90000000Y-51000000D03*
%TD*%
D27*
%TO.C,T4*%
X97255000Y-77565000D03*
D15*
X97255000Y-71000000D03*
X97255000Y-64435000D03*
X80745000Y-64435000D03*
X80745000Y-71000000D03*
X80745000Y-77565000D03*
%TD*%
D18*
%TO.C,R12*%
X104500000Y-70500000D03*
X109580000Y-70500000D03*
%TD*%
M02*
