%TF.GenerationSoftware,KiCad,Pcbnew,9.0.2+dfsg-1*%
%TF.CreationDate,2026-09-12T16:53:37-07:00*%
%TF.ProjectId,am-radio,616d2d72-6164-4696-9f2e-6b696361645f,rev?*%
%TF.SameCoordinates,Original*%
%TF.FileFunction,Copper,L1,Top*%
%TF.FilePolarity,Positive*%
%FSLAX46Y46*%
G04 Gerber Fmt 4.6, Leading zero omitted, Abs format (unit mm)*
G04 Created by KiCad (PCBNEW 9.0.2+dfsg-1) date 2026-09-12 16:53:37*
%MOMM*%
%LPD*%
G01*
G04 APERTURE LIST*
G04 Aperture macros list*
%AMRoundRect*
0 Rectangle with rounded corners*
0 $1 Rounding radius*
0 $2 $3 $4 $5 $6 $7 $8 $9 X,Y pos of 4 corners*
0 Add a 4 corners polygon primitive as box body*
4,1,4,$2,$3,$4,$5,$6,$7,$8,$9,$2,$3,0*
0 Add four circle primitives for the rounded corners*
1,1,$1+$1,$2,$3*
1,1,$1+$1,$4,$5*
1,1,$1+$1,$6,$7*
1,1,$1+$1,$8,$9*
0 Add four rect primitives between the rounded corners*
20,1,$1+$1,$2,$3,$4,$5,0*
20,1,$1+$1,$4,$5,$6,$7,0*
20,1,$1+$1,$6,$7,$8,$9,0*
20,1,$1+$1,$8,$9,$2,$3,0*%
G04 Aperture macros list end*
%TA.AperFunction,ComponentPad*%
%ADD10C,1.600000*%
%TD*%
%TA.AperFunction,ComponentPad*%
%ADD11C,1.400000*%
%TD*%
%TA.AperFunction,ComponentPad*%
%ADD12C,1.800000*%
%TD*%
%TA.AperFunction,ComponentPad*%
%ADD13C,4.400000*%
%TD*%
%TA.AperFunction,ComponentPad*%
%ADD14R,1.300000X1.300000*%
%TD*%
%TA.AperFunction,ComponentPad*%
%ADD15C,1.300000*%
%TD*%
%TA.AperFunction,ComponentPad*%
%ADD16R,1.700000X1.700000*%
%TD*%
%TA.AperFunction,ComponentPad*%
%ADD17C,1.700000*%
%TD*%
%TA.AperFunction,ComponentPad*%
%ADD18RoundRect,0.250000X-0.550000X-0.550000X0.550000X-0.550000X0.550000X0.550000X-0.550000X0.550000X0*%
%TD*%
%TA.AperFunction,ComponentPad*%
%ADD19RoundRect,0.250000X0.550000X-0.550000X0.550000X0.550000X-0.550000X0.550000X-0.550000X-0.550000X0*%
%TD*%
%TA.AperFunction,ComponentPad*%
%ADD20R,1.600000X1.600000*%
%TD*%
%TA.AperFunction,ComponentPad*%
%ADD21R,1.500000X1.500000*%
%TD*%
%TA.AperFunction,ComponentPad*%
%ADD22C,1.500000*%
%TD*%
%TA.AperFunction,ComponentPad*%
%ADD23O,1.800000X2.600000*%
%TD*%
%TA.AperFunction,ComponentPad*%
%ADD24R,1.980000X3.960000*%
%TD*%
%TA.AperFunction,ComponentPad*%
%ADD25O,1.980000X3.960000*%
%TD*%
%TA.AperFunction,ComponentPad*%
%ADD26O,3.500000X2.200000*%
%TD*%
%TA.AperFunction,ComponentPad*%
%ADD27R,2.500000X1.500000*%
%TD*%
%TA.AperFunction,ComponentPad*%
%ADD28O,2.500000X1.500000*%
%TD*%
%TA.AperFunction,ComponentPad*%
%ADD29R,3.000000X3.000000*%
%TD*%
%TA.AperFunction,ComponentPad*%
%ADD30C,3.000000*%
%TD*%
%TA.AperFunction,ViaPad*%
%ADD31C,0.900000*%
%TD*%
%TA.AperFunction,Conductor*%
%ADD32C,1.000000*%
%TD*%
%TA.AperFunction,Conductor*%
%ADD33C,0.600000*%
%TD*%
%TA.AperFunction,Conductor*%
%ADD34C,0.800000*%
%TD*%
G04 APERTURE END LIST*
D10*
%TO.P,C7,1*%
%TO.N,/DET*%
X107500000Y-71000000D03*
%TO.P,C7,2*%
%TO.N,GND*%
X112500000Y-71000000D03*
%TD*%
D11*
%TO.P,R1,1*%
%TO.N,V_RF*%
X78960000Y-47000000D03*
%TO.P,R1,2*%
%TO.N,Net-(C2-Pad1)*%
X84040000Y-47000000D03*
%TD*%
D12*
%TO.P,RV1,1*%
%TO.N,/DET*%
X115500000Y-79000000D03*
%TO.P,RV1,2*%
%TO.N,Net-(C8-Pad2)*%
X115500000Y-76500000D03*
%TO.P,RV1,3*%
%TO.N,GND*%
X115500000Y-74000000D03*
D13*
%TO.P,RV1,MP*%
%TO.N,N/C*%
X122500000Y-72100000D03*
X122500000Y-80900000D03*
%TD*%
D14*
%TO.P,Q2,1*%
%TO.N,Net-(Q2-E)*%
X102230000Y-42860000D03*
D15*
%TO.P,Q2,2*%
%TO.N,Net-(Q2-B)*%
X103500000Y-41590000D03*
%TO.P,Q2,3*%
%TO.N,Net-(Q2-C)*%
X104770000Y-42860000D03*
%TD*%
D16*
%TO.P,L1,1*%
%TO.N,Net-(VC1-A)*%
X50000000Y-25690000D03*
D17*
%TO.P,L1,2*%
%TO.N,GND*%
X50000000Y-28230000D03*
%TO.P,L1,3*%
%TO.N,Net-(Q1-B)*%
X50000000Y-30770000D03*
%TO.P,L1,4*%
%TO.N,Net-(C2-Pad1)*%
X50000000Y-33310000D03*
%TD*%
D18*
%TO.P,C13,1*%
%TO.N,V_RF*%
X66998746Y-54500000D03*
D10*
%TO.P,C13,2*%
%TO.N,GND*%
X68998746Y-54500000D03*
%TD*%
D18*
%TO.P,C3,1*%
%TO.N,Net-(C3-Pad1)*%
X95498746Y-55000000D03*
D10*
%TO.P,C3,2*%
%TO.N,GND*%
X97498746Y-55000000D03*
%TD*%
D11*
%TO.P,R14,1*%
%TO.N,Net-(R14-Pad1)*%
X69460000Y-98500000D03*
%TO.P,R14,2*%
%TO.N,+BATT*%
X74540000Y-98500000D03*
%TD*%
%TO.P,R12,1*%
%TO.N,Net-(Q4-B)*%
X94460000Y-78500000D03*
%TO.P,R12,2*%
%TO.N,GND*%
X99540000Y-78500000D03*
%TD*%
D18*
%TO.P,C12,1*%
%TO.N,+BATT*%
X115498746Y-29500000D03*
D10*
%TO.P,C12,2*%
%TO.N,GND*%
X117498746Y-29500000D03*
%TD*%
D11*
%TO.P,R16,1*%
%TO.N,+BATT*%
X72500000Y-57040000D03*
%TO.P,R16,2*%
%TO.N,V_RF*%
X72500000Y-51960000D03*
%TD*%
%TO.P,R8,1*%
%TO.N,Net-(C5-Pad1)*%
X108960000Y-61500000D03*
%TO.P,R8,2*%
%TO.N,GND*%
X114040000Y-61500000D03*
%TD*%
D10*
%TO.P,C6,1*%
%TO.N,Net-(Q3-E)*%
X123000000Y-51000000D03*
%TO.P,C6,2*%
%TO.N,GND*%
X128000000Y-51000000D03*
%TD*%
%TO.P,C4,1*%
%TO.N,Net-(Q2-E)*%
X100500000Y-51000000D03*
%TO.P,C4,2*%
%TO.N,GND*%
X105500000Y-51000000D03*
%TD*%
D14*
%TO.P,Q4,1*%
%TO.N,Net-(Q4-E)*%
X96230000Y-74860000D03*
D15*
%TO.P,Q4,2*%
%TO.N,Net-(Q4-B)*%
X97500000Y-73590000D03*
%TO.P,Q4,3*%
%TO.N,Net-(Q4-C)*%
X98770000Y-74860000D03*
%TD*%
D19*
%TO.P,C8,1*%
%TO.N,Net-(Q4-B)*%
X103498746Y-75500000D03*
D10*
%TO.P,C8,2*%
%TO.N,Net-(C8-Pad2)*%
X103498746Y-73500000D03*
%TD*%
D20*
%TO.P,T4,1*%
%TO.N,Net-(Q4-C)*%
X82265000Y-67245000D03*
D10*
%TO.P,T4,2*%
%TO.N,unconnected-(T4-Pad2)*%
X75700000Y-67245000D03*
%TO.P,T4,3*%
%TO.N,+BATT*%
X69135000Y-67245000D03*
%TO.P,T4,4*%
%TO.N,Net-(Q5-B)*%
X69135000Y-83755000D03*
%TO.P,T4,5*%
%TO.N,Net-(R14-Pad1)*%
X75700000Y-83755000D03*
%TO.P,T4,6*%
%TO.N,Net-(Q6-B)*%
X82265000Y-83755000D03*
%TD*%
D11*
%TO.P,R11,1*%
%TO.N,+BATT*%
X94460000Y-70000000D03*
%TO.P,R11,2*%
%TO.N,Net-(Q4-B)*%
X99540000Y-70000000D03*
%TD*%
D18*
%TO.P,C9,1*%
%TO.N,Net-(Q4-E)*%
X108998746Y-76500000D03*
D10*
%TO.P,C9,2*%
%TO.N,GND*%
X110998746Y-76500000D03*
%TD*%
D21*
%TO.P,T3,1*%
%TO.N,V_RF*%
X120071000Y-57571000D03*
D22*
%TO.P,T3,2*%
%TO.N,Net-(Q3-C)*%
X123500000Y-57571000D03*
%TO.P,T3,3*%
%TO.N,unconnected-(T3-Pad3)*%
X126929000Y-57571000D03*
%TO.P,T3,4*%
%TO.N,Net-(D1-K)*%
X126929000Y-64429000D03*
%TO.P,T3,5*%
%TO.N,unconnected-(T3-Pad5)*%
X123500000Y-64429000D03*
%TO.P,T3,6*%
%TO.N,GND*%
X120071000Y-64429000D03*
%TD*%
D10*
%TO.P,C1,1*%
%TO.N,Net-(Q1-E)*%
X76000000Y-57000000D03*
%TO.P,C1,2*%
%TO.N,Net-(C1-Pad2)*%
X76000000Y-52000000D03*
%TD*%
D11*
%TO.P,R13,1*%
%TO.N,Net-(Q4-E)*%
X92000000Y-79540000D03*
%TO.P,R13,2*%
%TO.N,GND*%
X92000000Y-74460000D03*
%TD*%
D14*
%TO.P,Q5,1*%
%TO.N,GND*%
X67730000Y-92860000D03*
D15*
%TO.P,Q5,2*%
%TO.N,Net-(Q5-B)*%
X69000000Y-91590000D03*
%TO.P,Q5,3*%
%TO.N,Net-(Q5-C)*%
X70270000Y-92860000D03*
%TD*%
D10*
%TO.P,C2,1*%
%TO.N,Net-(C2-Pad1)*%
X79000000Y-54000000D03*
%TO.P,C2,2*%
%TO.N,GND*%
X84000000Y-54000000D03*
%TD*%
D11*
%TO.P,R2,1*%
%TO.N,Net-(C2-Pad1)*%
X78960000Y-50500000D03*
%TO.P,R2,2*%
%TO.N,GND*%
X84040000Y-50500000D03*
%TD*%
%TO.P,R5,1*%
%TO.N,Net-(C3-Pad1)*%
X86960000Y-57500000D03*
%TO.P,R5,2*%
%TO.N,/DET*%
X92040000Y-57500000D03*
%TD*%
D21*
%TO.P,T2,1*%
%TO.N,V_RF*%
X111071000Y-41571000D03*
D22*
%TO.P,T2,2*%
%TO.N,Net-(Q2-C)*%
X114500000Y-41571000D03*
%TO.P,T2,3*%
%TO.N,unconnected-(T2-Pad3)*%
X117929000Y-41571000D03*
%TO.P,T2,4*%
%TO.N,Net-(Q3-B)*%
X117929000Y-48429000D03*
%TO.P,T2,5*%
%TO.N,unconnected-(T2-Pad5)*%
X114500000Y-48429000D03*
%TO.P,T2,6*%
%TO.N,Net-(C5-Pad1)*%
X111071000Y-48429000D03*
%TD*%
D18*
%TO.P,D1,1*%
%TO.N,Net-(D1-K)*%
X103920000Y-67500000D03*
D10*
%TO.P,D1,2*%
%TO.N,/DET*%
X114080000Y-67500000D03*
%TD*%
D14*
%TO.P,Q3,1*%
%TO.N,Net-(Q3-E)*%
X124730000Y-42860000D03*
D15*
%TO.P,Q3,2*%
%TO.N,Net-(Q3-B)*%
X126000000Y-41590000D03*
%TO.P,Q3,3*%
%TO.N,Net-(Q3-C)*%
X127270000Y-42860000D03*
%TD*%
D14*
%TO.P,Q6,1*%
%TO.N,GND*%
X79730000Y-92860000D03*
D15*
%TO.P,Q6,2*%
%TO.N,Net-(Q6-B)*%
X81000000Y-91590000D03*
%TO.P,Q6,3*%
%TO.N,Net-(Q6-C)*%
X82270000Y-92860000D03*
%TD*%
D11*
%TO.P,R7,1*%
%TO.N,V_RF*%
X108960000Y-58000000D03*
%TO.P,R7,2*%
%TO.N,Net-(C5-Pad1)*%
X114040000Y-58000000D03*
%TD*%
%TO.P,R3,1*%
%TO.N,Net-(Q1-E)*%
X78960000Y-57500000D03*
%TO.P,R3,2*%
%TO.N,GND*%
X84040000Y-57500000D03*
%TD*%
D23*
%TO.P,VC1,1*%
%TO.N,Net-(VC1-A)*%
X44500000Y-29500000D03*
%TO.P,VC1,2*%
%TO.N,GND*%
X44500000Y-35500000D03*
%TO.P,VC1,3*%
%TO.N,Net-(VC1-O)*%
X44500000Y-41500000D03*
%TD*%
D21*
%TO.P,T1,1*%
%TO.N,V_RF*%
X88571000Y-41571000D03*
D22*
%TO.P,T1,2*%
%TO.N,Net-(L2-Pad6)*%
X92000000Y-41571000D03*
%TO.P,T1,3*%
%TO.N,unconnected-(T1-Pad3)*%
X95429000Y-41571000D03*
%TO.P,T1,4*%
%TO.N,Net-(Q2-B)*%
X95429000Y-48429000D03*
%TO.P,T1,5*%
%TO.N,unconnected-(T1-Pad5)*%
X92000000Y-48429000D03*
%TO.P,T1,6*%
%TO.N,Net-(C3-Pad1)*%
X88571000Y-48429000D03*
%TD*%
D11*
%TO.P,R6,1*%
%TO.N,Net-(Q2-E)*%
X100460000Y-47500000D03*
%TO.P,R6,2*%
%TO.N,GND*%
X105540000Y-47500000D03*
%TD*%
D14*
%TO.P,Q1,1*%
%TO.N,Net-(Q1-E)*%
X80230000Y-42860000D03*
D15*
%TO.P,Q1,2*%
%TO.N,Net-(Q1-B)*%
X81500000Y-41590000D03*
%TO.P,Q1,3*%
%TO.N,Net-(Q1-C)*%
X82770000Y-42860000D03*
%TD*%
D24*
%TO.P,J1,1*%
%TO.N,Net-(J1-Pin_1)*%
X116535000Y-91000000D03*
D25*
%TO.P,J1,2*%
%TO.N,Net-(J1-Pin_2)*%
X121535000Y-91000000D03*
%TD*%
D21*
%TO.P,L2,1*%
%TO.N,GND*%
X67571000Y-41571000D03*
D22*
%TO.P,L2,2*%
%TO.N,Net-(C1-Pad2)*%
X71000000Y-41571000D03*
%TO.P,L2,3*%
%TO.N,Net-(VC1-O)*%
X74429000Y-41571000D03*
%TO.P,L2,4*%
%TO.N,Net-(Q1-C)*%
X74429000Y-48429000D03*
%TO.P,L2,5*%
%TO.N,unconnected-(L2-Pad5)*%
X71000000Y-48429000D03*
%TO.P,L2,6*%
%TO.N,Net-(L2-Pad6)*%
X67571000Y-48429000D03*
%TD*%
D20*
%TO.P,T5,1*%
%TO.N,Net-(Q5-C)*%
X91645000Y-85735000D03*
D10*
%TO.P,T5,2*%
%TO.N,+BATT*%
X91645000Y-92300000D03*
%TO.P,T5,3*%
%TO.N,Net-(Q6-C)*%
X91645000Y-98865000D03*
%TO.P,T5,4*%
%TO.N,Net-(J1-Pin_1)*%
X108155000Y-98865000D03*
%TO.P,T5,5*%
%TO.N,unconnected-(T5-Pad5)*%
X108155000Y-92300000D03*
%TO.P,T5,6*%
%TO.N,Net-(J1-Pin_2)*%
X108155000Y-85735000D03*
%TD*%
%TO.P,C11,1*%
%TO.N,Net-(Q5-C)*%
X75000000Y-95500000D03*
%TO.P,C11,2*%
%TO.N,Net-(Q6-C)*%
X75000000Y-90500000D03*
%TD*%
%TO.P,C10,1*%
%TO.N,Net-(Q4-C)*%
X94500000Y-66500000D03*
%TO.P,C10,2*%
%TO.N,+BATT*%
X99500000Y-66500000D03*
%TD*%
%TO.P,C5,1*%
%TO.N,Net-(C5-Pad1)*%
X109000000Y-54500000D03*
%TO.P,C5,2*%
%TO.N,GND*%
X114000000Y-54500000D03*
%TD*%
D26*
%TO.P,SW1,*%
%TO.N,*%
X125997500Y-35100000D03*
X125997500Y-26900000D03*
D27*
%TO.P,SW1,1*%
%TO.N,+BATT*%
X125997500Y-33000000D03*
D28*
%TO.P,SW1,2*%
%TO.N,Net-(BT1-+)*%
X125997500Y-31000000D03*
%TO.P,SW1,3*%
%TO.N,unconnected-(SW1-C-Pad3)*%
X125997500Y-29000000D03*
%TD*%
D29*
%TO.P,BT1,1*%
%TO.N,Net-(BT1-+)*%
X56800000Y-50140000D03*
D30*
%TO.P,BT1,2*%
%TO.N,GND*%
X44100000Y-50140000D03*
%TD*%
D11*
%TO.P,R9,1*%
%TO.N,Net-(Q3-E)*%
X122960000Y-47500000D03*
%TO.P,R9,2*%
%TO.N,GND*%
X128040000Y-47500000D03*
%TD*%
%TO.P,R4,1*%
%TO.N,V_RF*%
X86960000Y-54000000D03*
%TO.P,R4,2*%
%TO.N,Net-(C3-Pad1)*%
X92040000Y-54000000D03*
%TD*%
%TO.P,R15,1*%
%TO.N,Net-(R14-Pad1)*%
X76960000Y-98500000D03*
%TO.P,R15,2*%
%TO.N,GND*%
X82040000Y-98500000D03*
%TD*%
D31*
%TO.N,+BATT*%
X101700000Y-64300000D03*
%TO.N,GND*%
X117500000Y-34400000D03*
X93100000Y-56200000D03*
X125400000Y-51000000D03*
X65300000Y-53400000D03*
X91600000Y-55900000D03*
X115600000Y-57700000D03*
X77500000Y-90700000D03*
X74800000Y-92700000D03*
X72400000Y-92700000D03*
X65300000Y-51000000D03*
%TO.N,Net-(BT1-+)*%
X63900000Y-42700000D03*
X63900000Y-39600000D03*
%TO.N,Net-(L2-Pad6)*%
X70300000Y-38300000D03*
X69300000Y-41400000D03*
%TO.N,Net-(Q1-C)*%
X79300000Y-44300000D03*
%TO.N,Net-(Q4-B)*%
X99900000Y-73600000D03*
%TO.N,Net-(Q6-C)*%
X78300000Y-93900000D03*
%TO.N,V_RF*%
X111900000Y-55100000D03*
X90700000Y-50400000D03*
X76100000Y-49800000D03*
X108800000Y-39300000D03*
X111100000Y-44600000D03*
X81600000Y-48600000D03*
%TD*%
D32*
%TO.N,+BATT*%
X93500000Y-73500000D02*
X93500000Y-73800000D01*
X107300000Y-43400000D02*
X107500000Y-43200000D01*
X115500000Y-30000000D02*
X115500000Y-29500000D01*
X70800000Y-68900000D02*
X69100000Y-67200000D01*
X93300000Y-98000000D02*
X93300000Y-99800000D01*
X107300000Y-55100000D02*
X107300000Y-43400000D01*
X92300000Y-100500000D02*
X92200000Y-100600000D01*
X92900000Y-84000000D02*
X93300000Y-84400000D01*
X91600000Y-96300000D02*
X93300000Y-98000000D01*
X92600000Y-100500000D02*
X92300000Y-100500000D01*
X92700000Y-68400000D02*
X84100000Y-68400000D01*
X84100000Y-68400000D02*
X83600000Y-68900000D01*
X94500000Y-70000000D02*
X94400000Y-70100000D01*
X116100000Y-33000000D02*
X126000000Y-33000000D01*
X116100000Y-30600000D02*
X115500000Y-30000000D01*
X107400000Y-55200000D02*
X107300000Y-55100000D01*
X93600000Y-73900000D02*
X93600000Y-77000000D01*
X90400000Y-82200000D02*
X92200000Y-84000000D01*
X116100000Y-42500000D02*
X116100000Y-30600000D01*
X92200000Y-84000000D02*
X92900000Y-84000000D01*
X93600000Y-77000000D02*
X92700000Y-77900000D01*
X93300000Y-90600000D02*
X91600000Y-92300000D01*
X93500000Y-73800000D02*
X93600000Y-73900000D01*
X90400000Y-78700000D02*
X90400000Y-82200000D01*
X92300000Y-72200000D02*
X92300000Y-72300000D01*
X101700000Y-64300000D02*
X107400000Y-58600000D01*
X91600000Y-92300000D02*
X91600000Y-96300000D01*
X94400000Y-70100000D02*
X92300000Y-72200000D01*
X69100000Y-67200000D02*
X69135000Y-67245000D01*
X83600000Y-68900000D02*
X70800000Y-68900000D01*
X93300000Y-84400000D02*
X93300000Y-90600000D01*
X107400000Y-58600000D02*
X107400000Y-55200000D01*
X92700000Y-77900000D02*
X91200000Y-77900000D01*
X93300000Y-99800000D02*
X92600000Y-100500000D01*
X115400000Y-43200000D02*
X116100000Y-42500000D01*
X94400000Y-70100000D02*
X92700000Y-68400000D01*
X69100000Y-67200000D02*
X72500000Y-63800000D01*
X91200000Y-77900000D02*
X90400000Y-78700000D01*
X92200000Y-100600000D02*
X76600000Y-100600000D01*
X92300000Y-72300000D02*
X93500000Y-73500000D01*
X107500000Y-43200000D02*
X115400000Y-43200000D01*
X72500000Y-63800000D02*
X72500000Y-57000000D01*
X76600000Y-100600000D02*
X74500000Y-98500000D01*
D33*
%TO.N,/DET*%
X100900000Y-66000000D02*
X100600000Y-65700000D01*
X107500000Y-71000000D02*
X111000000Y-67500000D01*
X100600000Y-65600000D02*
X92500000Y-57500000D01*
X116100000Y-72500000D02*
X116900000Y-73300000D01*
X103000000Y-68900000D02*
X100900000Y-66800000D01*
X92500000Y-57500000D02*
X92000000Y-57500000D01*
X116900000Y-73600000D02*
X117000000Y-73700000D01*
X104800000Y-68900000D02*
X103000000Y-68900000D01*
X107500000Y-71000000D02*
X109000000Y-72500000D01*
X109000000Y-72500000D02*
X116100000Y-72500000D01*
X105100000Y-68600000D02*
X104800000Y-68900000D01*
X117000000Y-77500000D02*
X115500000Y-79000000D01*
X100600000Y-65700000D02*
X100600000Y-65600000D01*
X100900000Y-66800000D02*
X100900000Y-66000000D01*
X116900000Y-73300000D02*
X116900000Y-73600000D01*
X111000000Y-67500000D02*
X114100000Y-67500000D01*
X107500000Y-71000000D02*
X105100000Y-68600000D01*
X117000000Y-73700000D02*
X117000000Y-77500000D01*
D34*
%TO.N,GND*%
X97500000Y-55000000D02*
X97200000Y-55300000D01*
X42800000Y-44600000D02*
X41900000Y-43700000D01*
X70600000Y-56100000D02*
X69000000Y-54500000D01*
X124600000Y-51800000D02*
X125400000Y-51000000D01*
X97200000Y-55300000D02*
X97200000Y-56200000D01*
X74300000Y-55000000D02*
X73900000Y-54600000D01*
X116900000Y-64400000D02*
X120100000Y-64400000D01*
X100300000Y-77700000D02*
X101100000Y-77700000D01*
X101500000Y-55000000D02*
X97500000Y-55000000D01*
X123600000Y-52700000D02*
X123700000Y-52600000D01*
X68200000Y-56200000D02*
X65800000Y-56200000D01*
X94000000Y-56700000D02*
X93500000Y-56200000D01*
X124600000Y-52000000D02*
X124600000Y-51800000D01*
X72100000Y-54600000D02*
X70600000Y-56100000D01*
X105500000Y-51000000D02*
X105500000Y-47500000D01*
X86000000Y-58900000D02*
X84000000Y-56900000D01*
X86100000Y-58900000D02*
X86000000Y-58900000D01*
X41800000Y-43300000D02*
X41800000Y-38200000D01*
X110200000Y-78200000D02*
X111000000Y-77400000D01*
X97200000Y-56200000D02*
X96700000Y-56700000D01*
X84000000Y-56900000D02*
X84000000Y-54000000D01*
X92000000Y-74500000D02*
X85300000Y-81200000D01*
X66000000Y-43200000D02*
X67600000Y-41600000D01*
X54000000Y-53400000D02*
X45200000Y-44600000D01*
X116300000Y-44800000D02*
X116500000Y-44600000D01*
X73900000Y-54600000D02*
X72100000Y-54600000D01*
X105500000Y-51000000D02*
X101500000Y-55000000D01*
X65300000Y-53400000D02*
X54000000Y-53400000D01*
X78900000Y-89300000D02*
X77500000Y-90700000D01*
X71800000Y-93300000D02*
X71800000Y-93700000D01*
X41900000Y-43700000D02*
X41900000Y-43400000D01*
X74300000Y-57900000D02*
X74300000Y-55000000D01*
X69400000Y-55000000D02*
X68200000Y-56200000D01*
X84000000Y-56900000D02*
X81800000Y-59100000D01*
X101500000Y-78100000D02*
X107800000Y-78100000D01*
X80600000Y-81200000D02*
X78900000Y-82900000D01*
X75300000Y-92900000D02*
X75000000Y-92900000D01*
X75400000Y-58700000D02*
X75300000Y-58600000D01*
X117500000Y-51000000D02*
X119200000Y-52700000D01*
X96700000Y-56700000D02*
X94000000Y-56700000D01*
X99500000Y-78500000D02*
X100300000Y-77700000D01*
X114000000Y-61500000D02*
X114000000Y-60400000D01*
X87800000Y-59100000D02*
X86300000Y-59100000D01*
X115600000Y-58800000D02*
X115600000Y-57700000D01*
X69200000Y-94400000D02*
X67700000Y-92900000D01*
X91600000Y-55900000D02*
X91300000Y-55600000D01*
X93500000Y-56200000D02*
X93100000Y-56200000D01*
X83700000Y-57200000D02*
X84000000Y-57500000D01*
X86300000Y-59100000D02*
X86100000Y-58900000D01*
X65300000Y-55700000D02*
X65300000Y-53400000D01*
X71100000Y-94400000D02*
X69200000Y-94400000D01*
X117500000Y-51000000D02*
X117500000Y-50500000D01*
X44500000Y-35500000D02*
X48300000Y-31700000D01*
X124000000Y-52600000D02*
X124600000Y-52000000D01*
X119500000Y-34600000D02*
X119300000Y-34400000D01*
X81800000Y-59100000D02*
X78200000Y-59100000D01*
X75000000Y-92900000D02*
X74800000Y-92700000D01*
X65800000Y-56200000D02*
X65300000Y-55700000D01*
X41800000Y-38200000D02*
X44500000Y-35500000D01*
X48300000Y-31700000D02*
X48300000Y-29900000D01*
X66000000Y-49300000D02*
X66000000Y-43200000D01*
X111000000Y-77400000D02*
X111000000Y-76500000D01*
X41900000Y-43400000D02*
X41800000Y-43300000D01*
X69500000Y-55000000D02*
X69400000Y-55000000D01*
X116500000Y-44600000D02*
X117400000Y-44600000D01*
X77500000Y-90700000D02*
X75300000Y-92900000D01*
X119200000Y-52700000D02*
X123600000Y-52700000D01*
X114000000Y-60400000D02*
X115600000Y-58800000D01*
X114000000Y-54500000D02*
X117500000Y-51000000D01*
X91300000Y-55600000D02*
X87800000Y-59100000D01*
X72400000Y-92700000D02*
X71800000Y-93300000D01*
X107900000Y-78200000D02*
X110200000Y-78200000D01*
X45200000Y-44600000D02*
X42800000Y-44600000D01*
X75000000Y-58600000D02*
X74300000Y-57900000D01*
X71800000Y-93700000D02*
X71100000Y-94400000D01*
X107800000Y-78100000D02*
X107900000Y-78200000D01*
X78200000Y-59100000D02*
X77800000Y-58700000D01*
X67700000Y-92900000D02*
X67730000Y-92860000D01*
X116300000Y-49300000D02*
X116300000Y-44800000D01*
X123700000Y-52600000D02*
X124000000Y-52600000D01*
X66500000Y-49800000D02*
X66000000Y-49300000D01*
X119300000Y-34400000D02*
X117500000Y-34400000D01*
X48300000Y-29900000D02*
X50000000Y-28200000D01*
X119500000Y-42500000D02*
X119500000Y-34600000D01*
X65300000Y-51000000D02*
X66500000Y-49800000D01*
X77800000Y-58700000D02*
X75400000Y-58700000D01*
X114000000Y-61500000D02*
X116900000Y-64400000D01*
X117400000Y-44600000D02*
X119500000Y-42500000D01*
X117500000Y-50500000D02*
X116300000Y-49300000D01*
X78900000Y-82900000D02*
X78900000Y-89300000D01*
X47400000Y-46800000D02*
X44100000Y-50100000D01*
X75300000Y-58600000D02*
X75000000Y-58600000D01*
X101100000Y-77700000D02*
X101500000Y-78100000D01*
X85300000Y-81200000D02*
X80600000Y-81200000D01*
D33*
%TO.N,Net-(BT1-+)*%
X56800000Y-49800000D02*
X56800000Y-50100000D01*
X126000000Y-31000000D02*
X125300000Y-31700000D01*
X117800000Y-28100000D02*
X78800000Y-28100000D01*
X65000000Y-38500000D02*
X63900000Y-39600000D01*
X78800000Y-28100000D02*
X68400000Y-38500000D01*
X121700000Y-31700000D02*
X118200000Y-28200000D01*
X68400000Y-38500000D02*
X65000000Y-38500000D01*
X63900000Y-42700000D02*
X56800000Y-49800000D01*
X125300000Y-31700000D02*
X121700000Y-31700000D01*
X117900000Y-28200000D02*
X117800000Y-28100000D01*
X118200000Y-28200000D02*
X117900000Y-28200000D01*
%TO.N,Net-(C1-Pad2)*%
X72300000Y-42900000D02*
X71000000Y-41600000D01*
X76000000Y-52000000D02*
X72300000Y-48300000D01*
X72300000Y-48300000D02*
X72300000Y-42900000D01*
%TO.N,Net-(C2-Pad1)*%
X79000000Y-50500000D02*
X77400000Y-52100000D01*
X77400000Y-52600000D02*
X76700000Y-53300000D01*
X76700000Y-53300000D02*
X76400000Y-53300000D01*
X77400000Y-52100000D02*
X77400000Y-52600000D01*
X43100000Y-42300000D02*
X43000000Y-42200000D01*
X68900000Y-52200000D02*
X55100000Y-52200000D01*
X46300000Y-43400000D02*
X43900000Y-43400000D01*
X70100000Y-53400000D02*
X68900000Y-52200000D01*
X76400000Y-53300000D02*
X76300000Y-53400000D01*
X76300000Y-53400000D02*
X70100000Y-53400000D01*
X55100000Y-52200000D02*
X46300000Y-43400000D01*
X77400000Y-52600000D02*
X78800000Y-54000000D01*
X43100000Y-42600000D02*
X43100000Y-42300000D01*
X78800000Y-54000000D02*
X79000000Y-54000000D01*
X43000000Y-42200000D02*
X43000000Y-40300000D01*
X43900000Y-43400000D02*
X43100000Y-42600000D01*
X43000000Y-40300000D02*
X50000000Y-33300000D01*
%TO.N,Net-(C3-Pad1)*%
X87000000Y-57400000D02*
X87000000Y-57500000D01*
X92000000Y-54000000D02*
X93000000Y-55000000D01*
X92000000Y-54000000D02*
X88600000Y-50600000D01*
X93000000Y-55000000D02*
X95500000Y-55000000D01*
X88600000Y-50600000D02*
X88600000Y-48400000D01*
X91200000Y-53200000D02*
X87000000Y-57400000D01*
%TO.N,Net-(C5-Pad1)*%
X112500000Y-58000000D02*
X109000000Y-61500000D01*
X112500000Y-58000000D02*
X114000000Y-58000000D01*
X111100000Y-52400000D02*
X111100000Y-48400000D01*
X109000000Y-54500000D02*
X112500000Y-58000000D01*
X109000000Y-54500000D02*
X111100000Y-52400000D01*
%TO.N,Net-(C8-Pad2)*%
X112500000Y-73500000D02*
X103500000Y-73500000D01*
X115500000Y-76500000D02*
X112500000Y-73500000D01*
%TO.N,Net-(D1-K)*%
X105300000Y-66100000D02*
X103900000Y-67500000D01*
X114400000Y-66100000D02*
X105300000Y-66100000D01*
X114800000Y-66200000D02*
X114500000Y-66200000D01*
X116100000Y-67500000D02*
X114800000Y-66200000D01*
X123800000Y-67500000D02*
X116100000Y-67500000D01*
X114500000Y-66200000D02*
X114400000Y-66100000D01*
X126900000Y-64400000D02*
X123800000Y-67500000D01*
%TO.N,Net-(J1-Pin_1)*%
X116500000Y-91000000D02*
X108600000Y-98900000D01*
X108600000Y-98900000D02*
X108200000Y-98900000D01*
X108200000Y-98900000D02*
X108155000Y-98865000D01*
%TO.N,Net-(J1-Pin_2)*%
X121500000Y-91000000D02*
X116200000Y-85700000D01*
X116200000Y-85700000D02*
X108200000Y-85700000D01*
X108200000Y-85700000D02*
X108155000Y-85735000D01*
%TO.N,Net-(L2-Pad6)*%
X68900000Y-47100000D02*
X67600000Y-48400000D01*
X70500000Y-38500000D02*
X70300000Y-38300000D01*
X87600000Y-46000000D02*
X80100000Y-38500000D01*
X80100000Y-38500000D02*
X70500000Y-38500000D01*
X69300000Y-41400000D02*
X68900000Y-41800000D01*
X68900000Y-41800000D02*
X68900000Y-47100000D01*
X92000000Y-41600000D02*
X87600000Y-46000000D01*
%TO.N,Net-(Q1-B)*%
X64500000Y-40700000D02*
X65800000Y-39400000D01*
X65800000Y-39400000D02*
X79300000Y-39400000D01*
X59900000Y-40700000D02*
X64500000Y-40700000D01*
X50000000Y-30800000D02*
X59900000Y-40700000D01*
X79300000Y-39400000D02*
X81500000Y-41600000D01*
%TO.N,Net-(Q1-C)*%
X75200000Y-48400000D02*
X74400000Y-48400000D01*
X79300000Y-44300000D02*
X75200000Y-48400000D01*
%TO.N,Net-(Q1-E)*%
X80200000Y-56300000D02*
X80200000Y-54700000D01*
X79000000Y-57500000D02*
X78500000Y-57000000D01*
X80200000Y-54700000D02*
X80400000Y-54500000D01*
X80200000Y-42900000D02*
X80230000Y-42860000D01*
X80400000Y-43100000D02*
X80200000Y-42900000D01*
X78500000Y-57000000D02*
X76000000Y-57000000D01*
X79000000Y-57500000D02*
X80200000Y-56300000D01*
X80400000Y-54500000D02*
X80400000Y-43100000D01*
%TO.N,Net-(Q2-B)*%
X103500000Y-41600000D02*
X103300000Y-41800000D01*
X101300000Y-41700000D02*
X95400000Y-47600000D01*
X95400000Y-47600000D02*
X95400000Y-48400000D01*
X103200000Y-41800000D02*
X103100000Y-41700000D01*
X103100000Y-41700000D02*
X101300000Y-41700000D01*
X103300000Y-41800000D02*
X103200000Y-41800000D01*
%TO.N,Net-(Q2-C)*%
X104800000Y-42900000D02*
X106100000Y-41600000D01*
X113200000Y-40300000D02*
X114500000Y-41600000D01*
X106100000Y-41600000D02*
X108800000Y-41600000D01*
X104770000Y-42860000D02*
X104800000Y-42900000D01*
X108800000Y-41600000D02*
X110100000Y-40300000D01*
X110100000Y-40300000D02*
X113200000Y-40300000D01*
%TO.N,Net-(Q2-E)*%
X100500000Y-44600000D02*
X100500000Y-47500000D01*
X102200000Y-42900000D02*
X100500000Y-44600000D01*
X102230000Y-42860000D02*
X102200000Y-42900000D01*
X100500000Y-47500000D02*
X100500000Y-51000000D01*
%TO.N,Net-(Q3-B)*%
X123500000Y-42800000D02*
X123500000Y-42000000D01*
X123500000Y-42000000D02*
X123900000Y-41600000D01*
X117900000Y-48400000D02*
X123500000Y-42800000D01*
X123900000Y-41600000D02*
X126000000Y-41600000D01*
%TO.N,Net-(Q3-C)*%
X127300000Y-53800000D02*
X127300000Y-52300000D01*
X127300000Y-52300000D02*
X126700000Y-51700000D01*
X126700000Y-51400000D02*
X126600000Y-51300000D01*
X123500000Y-57600000D02*
X127300000Y-53800000D01*
X127300000Y-42900000D02*
X127270000Y-42860000D01*
X126600000Y-43600000D02*
X127300000Y-42900000D01*
X126700000Y-51700000D02*
X126700000Y-51400000D01*
X126600000Y-51300000D02*
X126600000Y-43600000D01*
%TO.N,Net-(Q3-E)*%
X123000000Y-47500000D02*
X124700000Y-45800000D01*
X124700000Y-42900000D02*
X124730000Y-42860000D01*
X124700000Y-45800000D02*
X124700000Y-42900000D01*
X123000000Y-47500000D02*
X123000000Y-51000000D01*
%TO.N,Net-(Q4-B)*%
X95000000Y-75800000D02*
X95000000Y-74000000D01*
X99900000Y-73600000D02*
X101800000Y-75500000D01*
X95000000Y-74000000D02*
X95400000Y-73600000D01*
X99700000Y-73400000D02*
X99700000Y-70200000D01*
X101800000Y-75500000D02*
X103500000Y-75500000D01*
X96100000Y-76900000D02*
X95000000Y-75800000D01*
X94500000Y-78500000D02*
X96100000Y-76900000D01*
X95400000Y-73600000D02*
X97500000Y-73600000D01*
X99700000Y-70200000D02*
X99500000Y-70000000D01*
X99900000Y-73600000D02*
X99700000Y-73400000D01*
%TO.N,Net-(Q4-C)*%
X98800000Y-72200000D02*
X98800000Y-74900000D01*
X93800000Y-67200000D02*
X98800000Y-72200000D01*
X82300000Y-67200000D02*
X82265000Y-67245000D01*
X93800000Y-67200000D02*
X82300000Y-67200000D01*
X94500000Y-66500000D02*
X93800000Y-67200000D01*
X98800000Y-74900000D02*
X98770000Y-74860000D01*
%TO.N,Net-(Q4-E)*%
X96200000Y-74900000D02*
X97800000Y-76500000D01*
X102200000Y-76500000D02*
X102600000Y-76900000D01*
X108600000Y-76900000D02*
X109000000Y-76500000D01*
X97000000Y-75700000D02*
X97000000Y-77700000D01*
X95000000Y-79800000D02*
X92300000Y-79800000D01*
X102600000Y-76900000D02*
X108600000Y-76900000D01*
X97000000Y-77700000D02*
X95600000Y-79100000D01*
X96230000Y-74860000D02*
X96200000Y-74900000D01*
X97800000Y-76500000D02*
X102200000Y-76500000D01*
X95600000Y-79100000D02*
X95600000Y-79200000D01*
X95600000Y-79200000D02*
X95000000Y-79800000D01*
X92300000Y-79800000D02*
X92000000Y-79500000D01*
%TO.N,Net-(Q5-B)*%
X69100000Y-83800000D02*
X69000000Y-83900000D01*
X69135000Y-83755000D02*
X69100000Y-83800000D01*
X69000000Y-83900000D02*
X69000000Y-91600000D01*
%TO.N,Net-(Q5-C)*%
X81600000Y-82500000D02*
X81900000Y-82500000D01*
X91600000Y-85700000D02*
X91645000Y-85735000D01*
X81900000Y-82500000D02*
X82000000Y-82400000D01*
X80100000Y-90400000D02*
X80100000Y-84000000D01*
X88300000Y-82400000D02*
X91600000Y-85700000D01*
X82000000Y-82400000D02*
X88300000Y-82400000D01*
X80100000Y-84000000D02*
X81600000Y-82500000D01*
X75000000Y-95500000D02*
X80100000Y-90400000D01*
%TO.N,Net-(Q6-B)*%
X81000000Y-85100000D02*
X81000000Y-91600000D01*
X82300000Y-83800000D02*
X81000000Y-85100000D01*
X82265000Y-83755000D02*
X82300000Y-83800000D01*
%TO.N,Net-(Q6-C)*%
X82270000Y-92860000D02*
X82300000Y-92900000D01*
X91600000Y-98900000D02*
X91645000Y-98865000D01*
X82300000Y-92900000D02*
X82000000Y-92900000D01*
X88300000Y-98900000D02*
X91600000Y-98900000D01*
X80800000Y-94100000D02*
X78600000Y-94100000D01*
X82000000Y-92900000D02*
X80800000Y-94100000D01*
X78600000Y-94100000D02*
X78400000Y-93900000D01*
X82270000Y-92860000D02*
X82300000Y-92900000D01*
X82300000Y-92900000D02*
X88300000Y-98900000D01*
X78400000Y-93900000D02*
X78300000Y-93900000D01*
%TO.N,Net-(R14-Pad1)*%
X71400000Y-98500000D02*
X69500000Y-98500000D01*
X75400000Y-96900000D02*
X74400000Y-96900000D01*
X73600000Y-85900000D02*
X75700000Y-83800000D01*
X73700000Y-96200000D02*
X71400000Y-98500000D01*
X74400000Y-96900000D02*
X73700000Y-96200000D01*
X73600000Y-95800000D02*
X73600000Y-85900000D01*
X73700000Y-95900000D02*
X73600000Y-95800000D01*
X77000000Y-98500000D02*
X75400000Y-96900000D01*
X73700000Y-96200000D02*
X73700000Y-95900000D01*
%TO.N,Net-(VC1-A)*%
X50000000Y-25700000D02*
X46200000Y-29500000D01*
X46200000Y-29500000D02*
X44500000Y-29500000D01*
%TO.N,Net-(VC1-O)*%
X66600000Y-40300000D02*
X73100000Y-40300000D01*
X73100000Y-40300000D02*
X74400000Y-41600000D01*
X65300000Y-41600000D02*
X66600000Y-40300000D01*
X44500000Y-41500000D02*
X44600000Y-41600000D01*
X44600000Y-41600000D02*
X65300000Y-41600000D01*
D34*
%TO.N,V_RF*%
X112700000Y-47600000D02*
X112700000Y-53200000D01*
X113300000Y-56500000D02*
X113400000Y-56400000D01*
X111100000Y-44600000D02*
X110500000Y-45200000D01*
X92900000Y-40000000D02*
X93600000Y-40700000D01*
X118900000Y-56400000D02*
X120100000Y-57600000D01*
X87000000Y-54000000D02*
X85300000Y-52300000D01*
X91100000Y-40000000D02*
X108100000Y-40000000D01*
X112800000Y-47500000D02*
X112700000Y-47600000D01*
X93400000Y-49400000D02*
X93400000Y-49500000D01*
X88600000Y-41600000D02*
X89500000Y-41600000D01*
X93600000Y-40700000D02*
X93600000Y-49200000D01*
X113400000Y-56400000D02*
X118900000Y-56400000D01*
X111900000Y-55100000D02*
X113300000Y-56500000D01*
X82400000Y-49400000D02*
X81600000Y-48600000D01*
X89500000Y-41600000D02*
X91100000Y-40000000D01*
X82600000Y-51500000D02*
X82600000Y-51400000D01*
X82400000Y-51200000D02*
X82400000Y-49400000D01*
X91600000Y-51300000D02*
X90700000Y-50400000D01*
X111400000Y-54500000D02*
X111400000Y-54600000D01*
X82600000Y-51400000D02*
X82400000Y-51200000D01*
X93600000Y-49200000D02*
X93400000Y-49400000D01*
X93400000Y-49500000D02*
X91600000Y-51300000D01*
X79000000Y-47000000D02*
X76200000Y-49800000D01*
X85300000Y-52300000D02*
X83400000Y-52300000D01*
X112700000Y-53200000D02*
X111400000Y-54500000D01*
X110500000Y-45200000D02*
X112800000Y-47500000D01*
X76200000Y-49800000D02*
X76100000Y-49800000D01*
X111400000Y-54600000D02*
X111900000Y-55100000D01*
X108100000Y-40000000D02*
X108800000Y-39300000D01*
X83400000Y-52300000D02*
X82600000Y-51500000D01*
%TD*%
M02*
