%TF.GenerationSoftware,KiCad,Pcbnew,9.0.2+dfsg-1*%
%TF.CreationDate,2026-09-11T21:04:36-07:00*%
%TF.ProjectId,am-radio,616d2d72-6164-4696-9f2e-6b696361645f,rev?*%
%TF.SameCoordinates,Original*%
%TF.FileFunction,AssemblyDrawing,Top*%
%FSLAX46Y46*%
G04 Gerber Fmt 4.6, Leading zero omitted, Abs format (unit mm)*
G04 Created by KiCad (PCBNEW 9.0.2+dfsg-1) date 2026-09-11 21:04:36*
%MOMM*%
%LPD*%
G01*
G04 APERTURE LIST*
%ADD10C,0.150000*%
%ADD11C,0.120000*%
%ADD12C,0.108000*%
%ADD13C,0.100000*%
G04 APERTURE END LIST*
D10*
X120454819Y-75095238D02*
X119978628Y-75428571D01*
X120454819Y-75666666D02*
X119454819Y-75666666D01*
X119454819Y-75666666D02*
X119454819Y-75285714D01*
X119454819Y-75285714D02*
X119502438Y-75190476D01*
X119502438Y-75190476D02*
X119550057Y-75142857D01*
X119550057Y-75142857D02*
X119645295Y-75095238D01*
X119645295Y-75095238D02*
X119788152Y-75095238D01*
X119788152Y-75095238D02*
X119883390Y-75142857D01*
X119883390Y-75142857D02*
X119931009Y-75190476D01*
X119931009Y-75190476D02*
X119978628Y-75285714D01*
X119978628Y-75285714D02*
X119978628Y-75666666D01*
X119454819Y-74809523D02*
X120454819Y-74476190D01*
X120454819Y-74476190D02*
X119454819Y-74142857D01*
X120454819Y-73285714D02*
X120454819Y-73857142D01*
X120454819Y-73571428D02*
X119454819Y-73571428D01*
X119454819Y-73571428D02*
X119597676Y-73666666D01*
X119597676Y-73666666D02*
X119692914Y-73761904D01*
X119692914Y-73761904D02*
X119740533Y-73857142D01*
X25454819Y-68833333D02*
X26169104Y-68833333D01*
X26169104Y-68833333D02*
X26311961Y-68880952D01*
X26311961Y-68880952D02*
X26407200Y-68976190D01*
X26407200Y-68976190D02*
X26454819Y-69119047D01*
X26454819Y-69119047D02*
X26454819Y-69214285D01*
X26454819Y-67833333D02*
X26454819Y-68404761D01*
X26454819Y-68119047D02*
X25454819Y-68119047D01*
X25454819Y-68119047D02*
X25597676Y-68214285D01*
X25597676Y-68214285D02*
X25692914Y-68309523D01*
X25692914Y-68309523D02*
X25740533Y-68404761D01*
X22738095Y-23954819D02*
X22738095Y-22954819D01*
X22738095Y-23431009D02*
X23309523Y-23431009D01*
X23309523Y-23954819D02*
X23309523Y-22954819D01*
X24309523Y-23954819D02*
X23738095Y-23954819D01*
X24023809Y-23954819D02*
X24023809Y-22954819D01*
X24023809Y-22954819D02*
X23928571Y-23097676D01*
X23928571Y-23097676D02*
X23833333Y-23192914D01*
X23833333Y-23192914D02*
X23738095Y-23240533D01*
X109833333Y-51359580D02*
X109785714Y-51407200D01*
X109785714Y-51407200D02*
X109642857Y-51454819D01*
X109642857Y-51454819D02*
X109547619Y-51454819D01*
X109547619Y-51454819D02*
X109404762Y-51407200D01*
X109404762Y-51407200D02*
X109309524Y-51311961D01*
X109309524Y-51311961D02*
X109261905Y-51216723D01*
X109261905Y-51216723D02*
X109214286Y-51026247D01*
X109214286Y-51026247D02*
X109214286Y-50883390D01*
X109214286Y-50883390D02*
X109261905Y-50692914D01*
X109261905Y-50692914D02*
X109309524Y-50597676D01*
X109309524Y-50597676D02*
X109404762Y-50502438D01*
X109404762Y-50502438D02*
X109547619Y-50454819D01*
X109547619Y-50454819D02*
X109642857Y-50454819D01*
X109642857Y-50454819D02*
X109785714Y-50502438D01*
X109785714Y-50502438D02*
X109833333Y-50550057D01*
X110690476Y-50454819D02*
X110500000Y-50454819D01*
X110500000Y-50454819D02*
X110404762Y-50502438D01*
X110404762Y-50502438D02*
X110357143Y-50550057D01*
X110357143Y-50550057D02*
X110261905Y-50692914D01*
X110261905Y-50692914D02*
X110214286Y-50883390D01*
X110214286Y-50883390D02*
X110214286Y-51264342D01*
X110214286Y-51264342D02*
X110261905Y-51359580D01*
X110261905Y-51359580D02*
X110309524Y-51407200D01*
X110309524Y-51407200D02*
X110404762Y-51454819D01*
X110404762Y-51454819D02*
X110595238Y-51454819D01*
X110595238Y-51454819D02*
X110690476Y-51407200D01*
X110690476Y-51407200D02*
X110738095Y-51359580D01*
X110738095Y-51359580D02*
X110785714Y-51264342D01*
X110785714Y-51264342D02*
X110785714Y-51026247D01*
X110785714Y-51026247D02*
X110738095Y-50931009D01*
X110738095Y-50931009D02*
X110690476Y-50883390D01*
X110690476Y-50883390D02*
X110595238Y-50835771D01*
X110595238Y-50835771D02*
X110404762Y-50835771D01*
X110404762Y-50835771D02*
X110309524Y-50883390D01*
X110309524Y-50883390D02*
X110261905Y-50931009D01*
X110261905Y-50931009D02*
X110214286Y-51026247D01*
D11*
X121890476Y-44063855D02*
X122347619Y-44063855D01*
X122119047Y-44863855D02*
X122119047Y-44063855D01*
X122538095Y-44063855D02*
X123033333Y-44063855D01*
X123033333Y-44063855D02*
X122766667Y-44368617D01*
X122766667Y-44368617D02*
X122880952Y-44368617D01*
X122880952Y-44368617D02*
X122957143Y-44406712D01*
X122957143Y-44406712D02*
X122995238Y-44444807D01*
X122995238Y-44444807D02*
X123033333Y-44520998D01*
X123033333Y-44520998D02*
X123033333Y-44711474D01*
X123033333Y-44711474D02*
X122995238Y-44787664D01*
X122995238Y-44787664D02*
X122957143Y-44825760D01*
X122957143Y-44825760D02*
X122880952Y-44863855D01*
X122880952Y-44863855D02*
X122652381Y-44863855D01*
X122652381Y-44863855D02*
X122576190Y-44825760D01*
X122576190Y-44825760D02*
X122538095Y-44787664D01*
D12*
X109920000Y-47827469D02*
X109680000Y-47484612D01*
X109508571Y-47827469D02*
X109508571Y-47107469D01*
X109508571Y-47107469D02*
X109782857Y-47107469D01*
X109782857Y-47107469D02*
X109851428Y-47141755D01*
X109851428Y-47141755D02*
X109885714Y-47176041D01*
X109885714Y-47176041D02*
X109920000Y-47244612D01*
X109920000Y-47244612D02*
X109920000Y-47347469D01*
X109920000Y-47347469D02*
X109885714Y-47416041D01*
X109885714Y-47416041D02*
X109851428Y-47450326D01*
X109851428Y-47450326D02*
X109782857Y-47484612D01*
X109782857Y-47484612D02*
X109508571Y-47484612D01*
X110262857Y-47827469D02*
X110400000Y-47827469D01*
X110400000Y-47827469D02*
X110468571Y-47793184D01*
X110468571Y-47793184D02*
X110502857Y-47758898D01*
X110502857Y-47758898D02*
X110571428Y-47656041D01*
X110571428Y-47656041D02*
X110605714Y-47518898D01*
X110605714Y-47518898D02*
X110605714Y-47244612D01*
X110605714Y-47244612D02*
X110571428Y-47176041D01*
X110571428Y-47176041D02*
X110537143Y-47141755D01*
X110537143Y-47141755D02*
X110468571Y-47107469D01*
X110468571Y-47107469D02*
X110331428Y-47107469D01*
X110331428Y-47107469D02*
X110262857Y-47141755D01*
X110262857Y-47141755D02*
X110228571Y-47176041D01*
X110228571Y-47176041D02*
X110194285Y-47244612D01*
X110194285Y-47244612D02*
X110194285Y-47416041D01*
X110194285Y-47416041D02*
X110228571Y-47484612D01*
X110228571Y-47484612D02*
X110262857Y-47518898D01*
X110262857Y-47518898D02*
X110331428Y-47553184D01*
X110331428Y-47553184D02*
X110468571Y-47553184D01*
X110468571Y-47553184D02*
X110537143Y-47518898D01*
X110537143Y-47518898D02*
X110571428Y-47484612D01*
X110571428Y-47484612D02*
X110605714Y-47416041D01*
X130827469Y-53922856D02*
X130484612Y-54162856D01*
X130827469Y-54334285D02*
X130107469Y-54334285D01*
X130107469Y-54334285D02*
X130107469Y-54059999D01*
X130107469Y-54059999D02*
X130141755Y-53991428D01*
X130141755Y-53991428D02*
X130176041Y-53957142D01*
X130176041Y-53957142D02*
X130244612Y-53922856D01*
X130244612Y-53922856D02*
X130347469Y-53922856D01*
X130347469Y-53922856D02*
X130416041Y-53957142D01*
X130416041Y-53957142D02*
X130450326Y-53991428D01*
X130450326Y-53991428D02*
X130484612Y-54059999D01*
X130484612Y-54059999D02*
X130484612Y-54334285D01*
X130827469Y-53237142D02*
X130827469Y-53648571D01*
X130827469Y-53442856D02*
X130107469Y-53442856D01*
X130107469Y-53442856D02*
X130210326Y-53511428D01*
X130210326Y-53511428D02*
X130278898Y-53579999D01*
X130278898Y-53579999D02*
X130313184Y-53648571D01*
X130107469Y-52620000D02*
X130107469Y-52757142D01*
X130107469Y-52757142D02*
X130141755Y-52825714D01*
X130141755Y-52825714D02*
X130176041Y-52860000D01*
X130176041Y-52860000D02*
X130278898Y-52928571D01*
X130278898Y-52928571D02*
X130416041Y-52962857D01*
X130416041Y-52962857D02*
X130690326Y-52962857D01*
X130690326Y-52962857D02*
X130758898Y-52928571D01*
X130758898Y-52928571D02*
X130793184Y-52894285D01*
X130793184Y-52894285D02*
X130827469Y-52825714D01*
X130827469Y-52825714D02*
X130827469Y-52688571D01*
X130827469Y-52688571D02*
X130793184Y-52620000D01*
X130793184Y-52620000D02*
X130758898Y-52585714D01*
X130758898Y-52585714D02*
X130690326Y-52551428D01*
X130690326Y-52551428D02*
X130518898Y-52551428D01*
X130518898Y-52551428D02*
X130450326Y-52585714D01*
X130450326Y-52585714D02*
X130416041Y-52620000D01*
X130416041Y-52620000D02*
X130381755Y-52688571D01*
X130381755Y-52688571D02*
X130381755Y-52825714D01*
X130381755Y-52825714D02*
X130416041Y-52894285D01*
X130416041Y-52894285D02*
X130450326Y-52928571D01*
X130450326Y-52928571D02*
X130518898Y-52962857D01*
D10*
X145357142Y-77859580D02*
X145309523Y-77907200D01*
X145309523Y-77907200D02*
X145166666Y-77954819D01*
X145166666Y-77954819D02*
X145071428Y-77954819D01*
X145071428Y-77954819D02*
X144928571Y-77907200D01*
X144928571Y-77907200D02*
X144833333Y-77811961D01*
X144833333Y-77811961D02*
X144785714Y-77716723D01*
X144785714Y-77716723D02*
X144738095Y-77526247D01*
X144738095Y-77526247D02*
X144738095Y-77383390D01*
X144738095Y-77383390D02*
X144785714Y-77192914D01*
X144785714Y-77192914D02*
X144833333Y-77097676D01*
X144833333Y-77097676D02*
X144928571Y-77002438D01*
X144928571Y-77002438D02*
X145071428Y-76954819D01*
X145071428Y-76954819D02*
X145166666Y-76954819D01*
X145166666Y-76954819D02*
X145309523Y-77002438D01*
X145309523Y-77002438D02*
X145357142Y-77050057D01*
X146309523Y-77954819D02*
X145738095Y-77954819D01*
X146023809Y-77954819D02*
X146023809Y-76954819D01*
X146023809Y-76954819D02*
X145928571Y-77097676D01*
X145928571Y-77097676D02*
X145833333Y-77192914D01*
X145833333Y-77192914D02*
X145738095Y-77240533D01*
X146690476Y-77050057D02*
X146738095Y-77002438D01*
X146738095Y-77002438D02*
X146833333Y-76954819D01*
X146833333Y-76954819D02*
X147071428Y-76954819D01*
X147071428Y-76954819D02*
X147166666Y-77002438D01*
X147166666Y-77002438D02*
X147214285Y-77050057D01*
X147214285Y-77050057D02*
X147261904Y-77145295D01*
X147261904Y-77145295D02*
X147261904Y-77240533D01*
X147261904Y-77240533D02*
X147214285Y-77383390D01*
X147214285Y-77383390D02*
X146642857Y-77954819D01*
X146642857Y-77954819D02*
X147261904Y-77954819D01*
X108357142Y-57859580D02*
X108309523Y-57907200D01*
X108309523Y-57907200D02*
X108166666Y-57954819D01*
X108166666Y-57954819D02*
X108071428Y-57954819D01*
X108071428Y-57954819D02*
X107928571Y-57907200D01*
X107928571Y-57907200D02*
X107833333Y-57811961D01*
X107833333Y-57811961D02*
X107785714Y-57716723D01*
X107785714Y-57716723D02*
X107738095Y-57526247D01*
X107738095Y-57526247D02*
X107738095Y-57383390D01*
X107738095Y-57383390D02*
X107785714Y-57192914D01*
X107785714Y-57192914D02*
X107833333Y-57097676D01*
X107833333Y-57097676D02*
X107928571Y-57002438D01*
X107928571Y-57002438D02*
X108071428Y-56954819D01*
X108071428Y-56954819D02*
X108166666Y-56954819D01*
X108166666Y-56954819D02*
X108309523Y-57002438D01*
X108309523Y-57002438D02*
X108357142Y-57050057D01*
X109309523Y-57954819D02*
X108738095Y-57954819D01*
X109023809Y-57954819D02*
X109023809Y-56954819D01*
X109023809Y-56954819D02*
X108928571Y-57097676D01*
X108928571Y-57097676D02*
X108833333Y-57192914D01*
X108833333Y-57192914D02*
X108738095Y-57240533D01*
X109928571Y-56954819D02*
X110023809Y-56954819D01*
X110023809Y-56954819D02*
X110119047Y-57002438D01*
X110119047Y-57002438D02*
X110166666Y-57050057D01*
X110166666Y-57050057D02*
X110214285Y-57145295D01*
X110214285Y-57145295D02*
X110261904Y-57335771D01*
X110261904Y-57335771D02*
X110261904Y-57573866D01*
X110261904Y-57573866D02*
X110214285Y-57764342D01*
X110214285Y-57764342D02*
X110166666Y-57859580D01*
X110166666Y-57859580D02*
X110119047Y-57907200D01*
X110119047Y-57907200D02*
X110023809Y-57954819D01*
X110023809Y-57954819D02*
X109928571Y-57954819D01*
X109928571Y-57954819D02*
X109833333Y-57907200D01*
X109833333Y-57907200D02*
X109785714Y-57859580D01*
X109785714Y-57859580D02*
X109738095Y-57764342D01*
X109738095Y-57764342D02*
X109690476Y-57573866D01*
X109690476Y-57573866D02*
X109690476Y-57335771D01*
X109690476Y-57335771D02*
X109738095Y-57145295D01*
X109738095Y-57145295D02*
X109785714Y-57050057D01*
X109785714Y-57050057D02*
X109833333Y-57002438D01*
X109833333Y-57002438D02*
X109928571Y-56954819D01*
X88674761Y-43050057D02*
X88579523Y-43002438D01*
X88579523Y-43002438D02*
X88484285Y-42907200D01*
X88484285Y-42907200D02*
X88341428Y-42764342D01*
X88341428Y-42764342D02*
X88246190Y-42716723D01*
X88246190Y-42716723D02*
X88150952Y-42716723D01*
X88198571Y-42954819D02*
X88103333Y-42907200D01*
X88103333Y-42907200D02*
X88008095Y-42811961D01*
X88008095Y-42811961D02*
X87960476Y-42621485D01*
X87960476Y-42621485D02*
X87960476Y-42288152D01*
X87960476Y-42288152D02*
X88008095Y-42097676D01*
X88008095Y-42097676D02*
X88103333Y-42002438D01*
X88103333Y-42002438D02*
X88198571Y-41954819D01*
X88198571Y-41954819D02*
X88389047Y-41954819D01*
X88389047Y-41954819D02*
X88484285Y-42002438D01*
X88484285Y-42002438D02*
X88579523Y-42097676D01*
X88579523Y-42097676D02*
X88627142Y-42288152D01*
X88627142Y-42288152D02*
X88627142Y-42621485D01*
X88627142Y-42621485D02*
X88579523Y-42811961D01*
X88579523Y-42811961D02*
X88484285Y-42907200D01*
X88484285Y-42907200D02*
X88389047Y-42954819D01*
X88389047Y-42954819D02*
X88198571Y-42954819D01*
X89008095Y-42050057D02*
X89055714Y-42002438D01*
X89055714Y-42002438D02*
X89150952Y-41954819D01*
X89150952Y-41954819D02*
X89389047Y-41954819D01*
X89389047Y-41954819D02*
X89484285Y-42002438D01*
X89484285Y-42002438D02*
X89531904Y-42050057D01*
X89531904Y-42050057D02*
X89579523Y-42145295D01*
X89579523Y-42145295D02*
X89579523Y-42240533D01*
X89579523Y-42240533D02*
X89531904Y-42383390D01*
X89531904Y-42383390D02*
X88960476Y-42954819D01*
X88960476Y-42954819D02*
X89579523Y-42954819D01*
X106333333Y-78859580D02*
X106285714Y-78907200D01*
X106285714Y-78907200D02*
X106142857Y-78954819D01*
X106142857Y-78954819D02*
X106047619Y-78954819D01*
X106047619Y-78954819D02*
X105904762Y-78907200D01*
X105904762Y-78907200D02*
X105809524Y-78811961D01*
X105809524Y-78811961D02*
X105761905Y-78716723D01*
X105761905Y-78716723D02*
X105714286Y-78526247D01*
X105714286Y-78526247D02*
X105714286Y-78383390D01*
X105714286Y-78383390D02*
X105761905Y-78192914D01*
X105761905Y-78192914D02*
X105809524Y-78097676D01*
X105809524Y-78097676D02*
X105904762Y-78002438D01*
X105904762Y-78002438D02*
X106047619Y-77954819D01*
X106047619Y-77954819D02*
X106142857Y-77954819D01*
X106142857Y-77954819D02*
X106285714Y-78002438D01*
X106285714Y-78002438D02*
X106333333Y-78050057D01*
X106809524Y-78954819D02*
X107000000Y-78954819D01*
X107000000Y-78954819D02*
X107095238Y-78907200D01*
X107095238Y-78907200D02*
X107142857Y-78859580D01*
X107142857Y-78859580D02*
X107238095Y-78716723D01*
X107238095Y-78716723D02*
X107285714Y-78526247D01*
X107285714Y-78526247D02*
X107285714Y-78145295D01*
X107285714Y-78145295D02*
X107238095Y-78050057D01*
X107238095Y-78050057D02*
X107190476Y-78002438D01*
X107190476Y-78002438D02*
X107095238Y-77954819D01*
X107095238Y-77954819D02*
X106904762Y-77954819D01*
X106904762Y-77954819D02*
X106809524Y-78002438D01*
X106809524Y-78002438D02*
X106761905Y-78050057D01*
X106761905Y-78050057D02*
X106714286Y-78145295D01*
X106714286Y-78145295D02*
X106714286Y-78383390D01*
X106714286Y-78383390D02*
X106761905Y-78478628D01*
X106761905Y-78478628D02*
X106809524Y-78526247D01*
X106809524Y-78526247D02*
X106904762Y-78573866D01*
X106904762Y-78573866D02*
X107095238Y-78573866D01*
X107095238Y-78573866D02*
X107190476Y-78526247D01*
X107190476Y-78526247D02*
X107238095Y-78478628D01*
X107238095Y-78478628D02*
X107285714Y-78383390D01*
X65359580Y-64642857D02*
X65407200Y-64690476D01*
X65407200Y-64690476D02*
X65454819Y-64833333D01*
X65454819Y-64833333D02*
X65454819Y-64928571D01*
X65454819Y-64928571D02*
X65407200Y-65071428D01*
X65407200Y-65071428D02*
X65311961Y-65166666D01*
X65311961Y-65166666D02*
X65216723Y-65214285D01*
X65216723Y-65214285D02*
X65026247Y-65261904D01*
X65026247Y-65261904D02*
X64883390Y-65261904D01*
X64883390Y-65261904D02*
X64692914Y-65214285D01*
X64692914Y-65214285D02*
X64597676Y-65166666D01*
X64597676Y-65166666D02*
X64502438Y-65071428D01*
X64502438Y-65071428D02*
X64454819Y-64928571D01*
X64454819Y-64928571D02*
X64454819Y-64833333D01*
X64454819Y-64833333D02*
X64502438Y-64690476D01*
X64502438Y-64690476D02*
X64550057Y-64642857D01*
X65454819Y-63690476D02*
X65454819Y-64261904D01*
X65454819Y-63976190D02*
X64454819Y-63976190D01*
X64454819Y-63976190D02*
X64597676Y-64071428D01*
X64597676Y-64071428D02*
X64692914Y-64166666D01*
X64692914Y-64166666D02*
X64740533Y-64261904D01*
X65454819Y-62738095D02*
X65454819Y-63309523D01*
X65454819Y-63023809D02*
X64454819Y-63023809D01*
X64454819Y-63023809D02*
X64597676Y-63119047D01*
X64597676Y-63119047D02*
X64692914Y-63214285D01*
X64692914Y-63214285D02*
X64740533Y-63309523D01*
X72174761Y-79550057D02*
X72079523Y-79502438D01*
X72079523Y-79502438D02*
X71984285Y-79407200D01*
X71984285Y-79407200D02*
X71841428Y-79264342D01*
X71841428Y-79264342D02*
X71746190Y-79216723D01*
X71746190Y-79216723D02*
X71650952Y-79216723D01*
X71698571Y-79454819D02*
X71603333Y-79407200D01*
X71603333Y-79407200D02*
X71508095Y-79311961D01*
X71508095Y-79311961D02*
X71460476Y-79121485D01*
X71460476Y-79121485D02*
X71460476Y-78788152D01*
X71460476Y-78788152D02*
X71508095Y-78597676D01*
X71508095Y-78597676D02*
X71603333Y-78502438D01*
X71603333Y-78502438D02*
X71698571Y-78454819D01*
X71698571Y-78454819D02*
X71889047Y-78454819D01*
X71889047Y-78454819D02*
X71984285Y-78502438D01*
X71984285Y-78502438D02*
X72079523Y-78597676D01*
X72079523Y-78597676D02*
X72127142Y-78788152D01*
X72127142Y-78788152D02*
X72127142Y-79121485D01*
X72127142Y-79121485D02*
X72079523Y-79311961D01*
X72079523Y-79311961D02*
X71984285Y-79407200D01*
X71984285Y-79407200D02*
X71889047Y-79454819D01*
X71889047Y-79454819D02*
X71698571Y-79454819D01*
X72984285Y-78454819D02*
X72793809Y-78454819D01*
X72793809Y-78454819D02*
X72698571Y-78502438D01*
X72698571Y-78502438D02*
X72650952Y-78550057D01*
X72650952Y-78550057D02*
X72555714Y-78692914D01*
X72555714Y-78692914D02*
X72508095Y-78883390D01*
X72508095Y-78883390D02*
X72508095Y-79264342D01*
X72508095Y-79264342D02*
X72555714Y-79359580D01*
X72555714Y-79359580D02*
X72603333Y-79407200D01*
X72603333Y-79407200D02*
X72698571Y-79454819D01*
X72698571Y-79454819D02*
X72889047Y-79454819D01*
X72889047Y-79454819D02*
X72984285Y-79407200D01*
X72984285Y-79407200D02*
X73031904Y-79359580D01*
X73031904Y-79359580D02*
X73079523Y-79264342D01*
X73079523Y-79264342D02*
X73079523Y-79026247D01*
X73079523Y-79026247D02*
X73031904Y-78931009D01*
X73031904Y-78931009D02*
X72984285Y-78883390D01*
X72984285Y-78883390D02*
X72889047Y-78835771D01*
X72889047Y-78835771D02*
X72698571Y-78835771D01*
X72698571Y-78835771D02*
X72603333Y-78883390D01*
X72603333Y-78883390D02*
X72555714Y-78931009D01*
X72555714Y-78931009D02*
X72508095Y-79026247D01*
X195738095Y-78954819D02*
X195738095Y-77954819D01*
X195738095Y-78431009D02*
X196309523Y-78431009D01*
X196309523Y-78954819D02*
X196309523Y-77954819D01*
X197214285Y-78288152D02*
X197214285Y-78954819D01*
X196976190Y-77907200D02*
X196738095Y-78621485D01*
X196738095Y-78621485D02*
X197357142Y-78621485D01*
D11*
X120789524Y-60863855D02*
X120789524Y-60063855D01*
X120789524Y-60063855D02*
X120980000Y-60063855D01*
X120980000Y-60063855D02*
X121094286Y-60101950D01*
X121094286Y-60101950D02*
X121170476Y-60178140D01*
X121170476Y-60178140D02*
X121208571Y-60254331D01*
X121208571Y-60254331D02*
X121246667Y-60406712D01*
X121246667Y-60406712D02*
X121246667Y-60520998D01*
X121246667Y-60520998D02*
X121208571Y-60673379D01*
X121208571Y-60673379D02*
X121170476Y-60749569D01*
X121170476Y-60749569D02*
X121094286Y-60825760D01*
X121094286Y-60825760D02*
X120980000Y-60863855D01*
X120980000Y-60863855D02*
X120789524Y-60863855D01*
X122008571Y-60863855D02*
X121551428Y-60863855D01*
X121780000Y-60863855D02*
X121780000Y-60063855D01*
X121780000Y-60063855D02*
X121703809Y-60178140D01*
X121703809Y-60178140D02*
X121627619Y-60254331D01*
X121627619Y-60254331D02*
X121551428Y-60292426D01*
D10*
X115738095Y-59154819D02*
X115738095Y-58154819D01*
X116309523Y-59154819D02*
X115880952Y-58583390D01*
X116309523Y-58154819D02*
X115738095Y-58726247D01*
X172656667Y-74917200D02*
X172799524Y-74964819D01*
X172799524Y-74964819D02*
X173037619Y-74964819D01*
X173037619Y-74964819D02*
X173132857Y-74917200D01*
X173132857Y-74917200D02*
X173180476Y-74869580D01*
X173180476Y-74869580D02*
X173228095Y-74774342D01*
X173228095Y-74774342D02*
X173228095Y-74679104D01*
X173228095Y-74679104D02*
X173180476Y-74583866D01*
X173180476Y-74583866D02*
X173132857Y-74536247D01*
X173132857Y-74536247D02*
X173037619Y-74488628D01*
X173037619Y-74488628D02*
X172847143Y-74441009D01*
X172847143Y-74441009D02*
X172751905Y-74393390D01*
X172751905Y-74393390D02*
X172704286Y-74345771D01*
X172704286Y-74345771D02*
X172656667Y-74250533D01*
X172656667Y-74250533D02*
X172656667Y-74155295D01*
X172656667Y-74155295D02*
X172704286Y-74060057D01*
X172704286Y-74060057D02*
X172751905Y-74012438D01*
X172751905Y-74012438D02*
X172847143Y-73964819D01*
X172847143Y-73964819D02*
X173085238Y-73964819D01*
X173085238Y-73964819D02*
X173228095Y-74012438D01*
X173561429Y-73964819D02*
X173799524Y-74964819D01*
X173799524Y-74964819D02*
X173990000Y-74250533D01*
X173990000Y-74250533D02*
X174180476Y-74964819D01*
X174180476Y-74964819D02*
X174418572Y-73964819D01*
X175323333Y-74964819D02*
X174751905Y-74964819D01*
X175037619Y-74964819D02*
X175037619Y-73964819D01*
X175037619Y-73964819D02*
X174942381Y-74107676D01*
X174942381Y-74107676D02*
X174847143Y-74202914D01*
X174847143Y-74202914D02*
X174751905Y-74250533D01*
X48333333Y-54359580D02*
X48285714Y-54407200D01*
X48285714Y-54407200D02*
X48142857Y-54454819D01*
X48142857Y-54454819D02*
X48047619Y-54454819D01*
X48047619Y-54454819D02*
X47904762Y-54407200D01*
X47904762Y-54407200D02*
X47809524Y-54311961D01*
X47809524Y-54311961D02*
X47761905Y-54216723D01*
X47761905Y-54216723D02*
X47714286Y-54026247D01*
X47714286Y-54026247D02*
X47714286Y-53883390D01*
X47714286Y-53883390D02*
X47761905Y-53692914D01*
X47761905Y-53692914D02*
X47809524Y-53597676D01*
X47809524Y-53597676D02*
X47904762Y-53502438D01*
X47904762Y-53502438D02*
X48047619Y-53454819D01*
X48047619Y-53454819D02*
X48142857Y-53454819D01*
X48142857Y-53454819D02*
X48285714Y-53502438D01*
X48285714Y-53502438D02*
X48333333Y-53550057D01*
X48714286Y-53550057D02*
X48761905Y-53502438D01*
X48761905Y-53502438D02*
X48857143Y-53454819D01*
X48857143Y-53454819D02*
X49095238Y-53454819D01*
X49095238Y-53454819D02*
X49190476Y-53502438D01*
X49190476Y-53502438D02*
X49238095Y-53550057D01*
X49238095Y-53550057D02*
X49285714Y-53645295D01*
X49285714Y-53645295D02*
X49285714Y-53740533D01*
X49285714Y-53740533D02*
X49238095Y-53883390D01*
X49238095Y-53883390D02*
X48666667Y-54454819D01*
X48666667Y-54454819D02*
X49285714Y-54454819D01*
D12*
X72420000Y-53827469D02*
X72180000Y-53484612D01*
X72008571Y-53827469D02*
X72008571Y-53107469D01*
X72008571Y-53107469D02*
X72282857Y-53107469D01*
X72282857Y-53107469D02*
X72351428Y-53141755D01*
X72351428Y-53141755D02*
X72385714Y-53176041D01*
X72385714Y-53176041D02*
X72420000Y-53244612D01*
X72420000Y-53244612D02*
X72420000Y-53347469D01*
X72420000Y-53347469D02*
X72385714Y-53416041D01*
X72385714Y-53416041D02*
X72351428Y-53450326D01*
X72351428Y-53450326D02*
X72282857Y-53484612D01*
X72282857Y-53484612D02*
X72008571Y-53484612D01*
X73037143Y-53347469D02*
X73037143Y-53827469D01*
X72865714Y-53073184D02*
X72694285Y-53587469D01*
X72694285Y-53587469D02*
X73140000Y-53587469D01*
X106577143Y-61327469D02*
X106337143Y-60984612D01*
X106165714Y-61327469D02*
X106165714Y-60607469D01*
X106165714Y-60607469D02*
X106440000Y-60607469D01*
X106440000Y-60607469D02*
X106508571Y-60641755D01*
X106508571Y-60641755D02*
X106542857Y-60676041D01*
X106542857Y-60676041D02*
X106577143Y-60744612D01*
X106577143Y-60744612D02*
X106577143Y-60847469D01*
X106577143Y-60847469D02*
X106542857Y-60916041D01*
X106542857Y-60916041D02*
X106508571Y-60950326D01*
X106508571Y-60950326D02*
X106440000Y-60984612D01*
X106440000Y-60984612D02*
X106165714Y-60984612D01*
X107262857Y-61327469D02*
X106851428Y-61327469D01*
X107057143Y-61327469D02*
X107057143Y-60607469D01*
X107057143Y-60607469D02*
X106988571Y-60710326D01*
X106988571Y-60710326D02*
X106920000Y-60778898D01*
X106920000Y-60778898D02*
X106851428Y-60813184D01*
X107948571Y-61327469D02*
X107537142Y-61327469D01*
X107742857Y-61327469D02*
X107742857Y-60607469D01*
X107742857Y-60607469D02*
X107674285Y-60710326D01*
X107674285Y-60710326D02*
X107605714Y-60778898D01*
X107605714Y-60778898D02*
X107537142Y-60813184D01*
D11*
X32452381Y-49063855D02*
X32719048Y-49863855D01*
X32719048Y-49863855D02*
X32985714Y-49063855D01*
X33709524Y-49787664D02*
X33671428Y-49825760D01*
X33671428Y-49825760D02*
X33557143Y-49863855D01*
X33557143Y-49863855D02*
X33480952Y-49863855D01*
X33480952Y-49863855D02*
X33366666Y-49825760D01*
X33366666Y-49825760D02*
X33290476Y-49749569D01*
X33290476Y-49749569D02*
X33252381Y-49673379D01*
X33252381Y-49673379D02*
X33214285Y-49520998D01*
X33214285Y-49520998D02*
X33214285Y-49406712D01*
X33214285Y-49406712D02*
X33252381Y-49254331D01*
X33252381Y-49254331D02*
X33290476Y-49178140D01*
X33290476Y-49178140D02*
X33366666Y-49101950D01*
X33366666Y-49101950D02*
X33480952Y-49063855D01*
X33480952Y-49063855D02*
X33557143Y-49063855D01*
X33557143Y-49063855D02*
X33671428Y-49101950D01*
X33671428Y-49101950D02*
X33709524Y-49140045D01*
X34471428Y-49863855D02*
X34014285Y-49863855D01*
X34242857Y-49863855D02*
X34242857Y-49063855D01*
X34242857Y-49063855D02*
X34166666Y-49178140D01*
X34166666Y-49178140D02*
X34090476Y-49254331D01*
X34090476Y-49254331D02*
X34014285Y-49292426D01*
D10*
X79333333Y-54859580D02*
X79285714Y-54907200D01*
X79285714Y-54907200D02*
X79142857Y-54954819D01*
X79142857Y-54954819D02*
X79047619Y-54954819D01*
X79047619Y-54954819D02*
X78904762Y-54907200D01*
X78904762Y-54907200D02*
X78809524Y-54811961D01*
X78809524Y-54811961D02*
X78761905Y-54716723D01*
X78761905Y-54716723D02*
X78714286Y-54526247D01*
X78714286Y-54526247D02*
X78714286Y-54383390D01*
X78714286Y-54383390D02*
X78761905Y-54192914D01*
X78761905Y-54192914D02*
X78809524Y-54097676D01*
X78809524Y-54097676D02*
X78904762Y-54002438D01*
X78904762Y-54002438D02*
X79047619Y-53954819D01*
X79047619Y-53954819D02*
X79142857Y-53954819D01*
X79142857Y-53954819D02*
X79285714Y-54002438D01*
X79285714Y-54002438D02*
X79333333Y-54050057D01*
X79666667Y-53954819D02*
X80285714Y-53954819D01*
X80285714Y-53954819D02*
X79952381Y-54335771D01*
X79952381Y-54335771D02*
X80095238Y-54335771D01*
X80095238Y-54335771D02*
X80190476Y-54383390D01*
X80190476Y-54383390D02*
X80238095Y-54431009D01*
X80238095Y-54431009D02*
X80285714Y-54526247D01*
X80285714Y-54526247D02*
X80285714Y-54764342D01*
X80285714Y-54764342D02*
X80238095Y-54859580D01*
X80238095Y-54859580D02*
X80190476Y-54907200D01*
X80190476Y-54907200D02*
X80095238Y-54954819D01*
X80095238Y-54954819D02*
X79809524Y-54954819D01*
X79809524Y-54954819D02*
X79714286Y-54907200D01*
X79714286Y-54907200D02*
X79666667Y-54859580D01*
X107174761Y-66050057D02*
X107079523Y-66002438D01*
X107079523Y-66002438D02*
X106984285Y-65907200D01*
X106984285Y-65907200D02*
X106841428Y-65764342D01*
X106841428Y-65764342D02*
X106746190Y-65716723D01*
X106746190Y-65716723D02*
X106650952Y-65716723D01*
X106698571Y-65954819D02*
X106603333Y-65907200D01*
X106603333Y-65907200D02*
X106508095Y-65811961D01*
X106508095Y-65811961D02*
X106460476Y-65621485D01*
X106460476Y-65621485D02*
X106460476Y-65288152D01*
X106460476Y-65288152D02*
X106508095Y-65097676D01*
X106508095Y-65097676D02*
X106603333Y-65002438D01*
X106603333Y-65002438D02*
X106698571Y-64954819D01*
X106698571Y-64954819D02*
X106889047Y-64954819D01*
X106889047Y-64954819D02*
X106984285Y-65002438D01*
X106984285Y-65002438D02*
X107079523Y-65097676D01*
X107079523Y-65097676D02*
X107127142Y-65288152D01*
X107127142Y-65288152D02*
X107127142Y-65621485D01*
X107127142Y-65621485D02*
X107079523Y-65811961D01*
X107079523Y-65811961D02*
X106984285Y-65907200D01*
X106984285Y-65907200D02*
X106889047Y-65954819D01*
X106889047Y-65954819D02*
X106698571Y-65954819D01*
X107984285Y-65288152D02*
X107984285Y-65954819D01*
X107746190Y-64907200D02*
X107508095Y-65621485D01*
X107508095Y-65621485D02*
X108127142Y-65621485D01*
D12*
X68827469Y-71922856D02*
X68484612Y-72162856D01*
X68827469Y-72334285D02*
X68107469Y-72334285D01*
X68107469Y-72334285D02*
X68107469Y-72059999D01*
X68107469Y-72059999D02*
X68141755Y-71991428D01*
X68141755Y-71991428D02*
X68176041Y-71957142D01*
X68176041Y-71957142D02*
X68244612Y-71922856D01*
X68244612Y-71922856D02*
X68347469Y-71922856D01*
X68347469Y-71922856D02*
X68416041Y-71957142D01*
X68416041Y-71957142D02*
X68450326Y-71991428D01*
X68450326Y-71991428D02*
X68484612Y-72059999D01*
X68484612Y-72059999D02*
X68484612Y-72334285D01*
X68827469Y-71237142D02*
X68827469Y-71648571D01*
X68827469Y-71442856D02*
X68107469Y-71442856D01*
X68107469Y-71442856D02*
X68210326Y-71511428D01*
X68210326Y-71511428D02*
X68278898Y-71579999D01*
X68278898Y-71579999D02*
X68313184Y-71648571D01*
X68347469Y-70620000D02*
X68827469Y-70620000D01*
X68073184Y-70791428D02*
X68587469Y-70962857D01*
X68587469Y-70962857D02*
X68587469Y-70517142D01*
X48420000Y-50827469D02*
X48180000Y-50484612D01*
X48008571Y-50827469D02*
X48008571Y-50107469D01*
X48008571Y-50107469D02*
X48282857Y-50107469D01*
X48282857Y-50107469D02*
X48351428Y-50141755D01*
X48351428Y-50141755D02*
X48385714Y-50176041D01*
X48385714Y-50176041D02*
X48420000Y-50244612D01*
X48420000Y-50244612D02*
X48420000Y-50347469D01*
X48420000Y-50347469D02*
X48385714Y-50416041D01*
X48385714Y-50416041D02*
X48351428Y-50450326D01*
X48351428Y-50450326D02*
X48282857Y-50484612D01*
X48282857Y-50484612D02*
X48008571Y-50484612D01*
X48694285Y-50176041D02*
X48728571Y-50141755D01*
X48728571Y-50141755D02*
X48797143Y-50107469D01*
X48797143Y-50107469D02*
X48968571Y-50107469D01*
X48968571Y-50107469D02*
X49037143Y-50141755D01*
X49037143Y-50141755D02*
X49071428Y-50176041D01*
X49071428Y-50176041D02*
X49105714Y-50244612D01*
X49105714Y-50244612D02*
X49105714Y-50313184D01*
X49105714Y-50313184D02*
X49071428Y-50416041D01*
X49071428Y-50416041D02*
X48660000Y-50827469D01*
X48660000Y-50827469D02*
X49105714Y-50827469D01*
D10*
X55859580Y-50166666D02*
X55907200Y-50214285D01*
X55907200Y-50214285D02*
X55954819Y-50357142D01*
X55954819Y-50357142D02*
X55954819Y-50452380D01*
X55954819Y-50452380D02*
X55907200Y-50595237D01*
X55907200Y-50595237D02*
X55811961Y-50690475D01*
X55811961Y-50690475D02*
X55716723Y-50738094D01*
X55716723Y-50738094D02*
X55526247Y-50785713D01*
X55526247Y-50785713D02*
X55383390Y-50785713D01*
X55383390Y-50785713D02*
X55192914Y-50738094D01*
X55192914Y-50738094D02*
X55097676Y-50690475D01*
X55097676Y-50690475D02*
X55002438Y-50595237D01*
X55002438Y-50595237D02*
X54954819Y-50452380D01*
X54954819Y-50452380D02*
X54954819Y-50357142D01*
X54954819Y-50357142D02*
X55002438Y-50214285D01*
X55002438Y-50214285D02*
X55050057Y-50166666D01*
X55954819Y-49214285D02*
X55954819Y-49785713D01*
X55954819Y-49499999D02*
X54954819Y-49499999D01*
X54954819Y-49499999D02*
X55097676Y-49595237D01*
X55097676Y-49595237D02*
X55192914Y-49690475D01*
X55192914Y-49690475D02*
X55240533Y-49785713D01*
D12*
X48420000Y-57827469D02*
X48180000Y-57484612D01*
X48008571Y-57827469D02*
X48008571Y-57107469D01*
X48008571Y-57107469D02*
X48282857Y-57107469D01*
X48282857Y-57107469D02*
X48351428Y-57141755D01*
X48351428Y-57141755D02*
X48385714Y-57176041D01*
X48385714Y-57176041D02*
X48420000Y-57244612D01*
X48420000Y-57244612D02*
X48420000Y-57347469D01*
X48420000Y-57347469D02*
X48385714Y-57416041D01*
X48385714Y-57416041D02*
X48351428Y-57450326D01*
X48351428Y-57450326D02*
X48282857Y-57484612D01*
X48282857Y-57484612D02*
X48008571Y-57484612D01*
X48660000Y-57107469D02*
X49105714Y-57107469D01*
X49105714Y-57107469D02*
X48865714Y-57381755D01*
X48865714Y-57381755D02*
X48968571Y-57381755D01*
X48968571Y-57381755D02*
X49037143Y-57416041D01*
X49037143Y-57416041D02*
X49071428Y-57450326D01*
X49071428Y-57450326D02*
X49105714Y-57518898D01*
X49105714Y-57518898D02*
X49105714Y-57690326D01*
X49105714Y-57690326D02*
X49071428Y-57758898D01*
X49071428Y-57758898D02*
X49037143Y-57793184D01*
X49037143Y-57793184D02*
X48968571Y-57827469D01*
X48968571Y-57827469D02*
X48762857Y-57827469D01*
X48762857Y-57827469D02*
X48694285Y-57793184D01*
X48694285Y-57793184D02*
X48660000Y-57758898D01*
D11*
X99390476Y-44063855D02*
X99847619Y-44063855D01*
X99619047Y-44863855D02*
X99619047Y-44063855D01*
X100076190Y-44140045D02*
X100114286Y-44101950D01*
X100114286Y-44101950D02*
X100190476Y-44063855D01*
X100190476Y-44063855D02*
X100380952Y-44063855D01*
X100380952Y-44063855D02*
X100457143Y-44101950D01*
X100457143Y-44101950D02*
X100495238Y-44140045D01*
X100495238Y-44140045D02*
X100533333Y-44216236D01*
X100533333Y-44216236D02*
X100533333Y-44292426D01*
X100533333Y-44292426D02*
X100495238Y-44406712D01*
X100495238Y-44406712D02*
X100038095Y-44863855D01*
X100038095Y-44863855D02*
X100533333Y-44863855D01*
X28866666Y-30363855D02*
X28485714Y-30363855D01*
X28485714Y-30363855D02*
X28485714Y-29563855D01*
X29552380Y-30363855D02*
X29095237Y-30363855D01*
X29323809Y-30363855D02*
X29323809Y-29563855D01*
X29323809Y-29563855D02*
X29247618Y-29678140D01*
X29247618Y-29678140D02*
X29171428Y-29754331D01*
X29171428Y-29754331D02*
X29095237Y-29792426D01*
D10*
X22738095Y-78954819D02*
X22738095Y-77954819D01*
X22738095Y-78431009D02*
X23309523Y-78431009D01*
X23309523Y-78954819D02*
X23309523Y-77954819D01*
X23690476Y-77954819D02*
X24309523Y-77954819D01*
X24309523Y-77954819D02*
X23976190Y-78335771D01*
X23976190Y-78335771D02*
X24119047Y-78335771D01*
X24119047Y-78335771D02*
X24214285Y-78383390D01*
X24214285Y-78383390D02*
X24261904Y-78431009D01*
X24261904Y-78431009D02*
X24309523Y-78526247D01*
X24309523Y-78526247D02*
X24309523Y-78764342D01*
X24309523Y-78764342D02*
X24261904Y-78859580D01*
X24261904Y-78859580D02*
X24214285Y-78907200D01*
X24214285Y-78907200D02*
X24119047Y-78954819D01*
X24119047Y-78954819D02*
X23833333Y-78954819D01*
X23833333Y-78954819D02*
X23738095Y-78907200D01*
X23738095Y-78907200D02*
X23690476Y-78859580D01*
X111174761Y-43050057D02*
X111079523Y-43002438D01*
X111079523Y-43002438D02*
X110984285Y-42907200D01*
X110984285Y-42907200D02*
X110841428Y-42764342D01*
X110841428Y-42764342D02*
X110746190Y-42716723D01*
X110746190Y-42716723D02*
X110650952Y-42716723D01*
X110698571Y-42954819D02*
X110603333Y-42907200D01*
X110603333Y-42907200D02*
X110508095Y-42811961D01*
X110508095Y-42811961D02*
X110460476Y-42621485D01*
X110460476Y-42621485D02*
X110460476Y-42288152D01*
X110460476Y-42288152D02*
X110508095Y-42097676D01*
X110508095Y-42097676D02*
X110603333Y-42002438D01*
X110603333Y-42002438D02*
X110698571Y-41954819D01*
X110698571Y-41954819D02*
X110889047Y-41954819D01*
X110889047Y-41954819D02*
X110984285Y-42002438D01*
X110984285Y-42002438D02*
X111079523Y-42097676D01*
X111079523Y-42097676D02*
X111127142Y-42288152D01*
X111127142Y-42288152D02*
X111127142Y-42621485D01*
X111127142Y-42621485D02*
X111079523Y-42811961D01*
X111079523Y-42811961D02*
X110984285Y-42907200D01*
X110984285Y-42907200D02*
X110889047Y-42954819D01*
X110889047Y-42954819D02*
X110698571Y-42954819D01*
X111460476Y-41954819D02*
X112079523Y-41954819D01*
X112079523Y-41954819D02*
X111746190Y-42335771D01*
X111746190Y-42335771D02*
X111889047Y-42335771D01*
X111889047Y-42335771D02*
X111984285Y-42383390D01*
X111984285Y-42383390D02*
X112031904Y-42431009D01*
X112031904Y-42431009D02*
X112079523Y-42526247D01*
X112079523Y-42526247D02*
X112079523Y-42764342D01*
X112079523Y-42764342D02*
X112031904Y-42859580D01*
X112031904Y-42859580D02*
X111984285Y-42907200D01*
X111984285Y-42907200D02*
X111889047Y-42954819D01*
X111889047Y-42954819D02*
X111603333Y-42954819D01*
X111603333Y-42954819D02*
X111508095Y-42907200D01*
X111508095Y-42907200D02*
X111460476Y-42859580D01*
D11*
X76390476Y-44063855D02*
X76847619Y-44063855D01*
X76619047Y-44863855D02*
X76619047Y-44063855D01*
X77533333Y-44863855D02*
X77076190Y-44863855D01*
X77304762Y-44863855D02*
X77304762Y-44063855D01*
X77304762Y-44063855D02*
X77228571Y-44178140D01*
X77228571Y-44178140D02*
X77152381Y-44254331D01*
X77152381Y-44254331D02*
X77076190Y-44292426D01*
D12*
X94420000Y-57827469D02*
X94180000Y-57484612D01*
X94008571Y-57827469D02*
X94008571Y-57107469D01*
X94008571Y-57107469D02*
X94282857Y-57107469D01*
X94282857Y-57107469D02*
X94351428Y-57141755D01*
X94351428Y-57141755D02*
X94385714Y-57176041D01*
X94385714Y-57176041D02*
X94420000Y-57244612D01*
X94420000Y-57244612D02*
X94420000Y-57347469D01*
X94420000Y-57347469D02*
X94385714Y-57416041D01*
X94385714Y-57416041D02*
X94351428Y-57450326D01*
X94351428Y-57450326D02*
X94282857Y-57484612D01*
X94282857Y-57484612D02*
X94008571Y-57484612D01*
X94831428Y-57416041D02*
X94762857Y-57381755D01*
X94762857Y-57381755D02*
X94728571Y-57347469D01*
X94728571Y-57347469D02*
X94694285Y-57278898D01*
X94694285Y-57278898D02*
X94694285Y-57244612D01*
X94694285Y-57244612D02*
X94728571Y-57176041D01*
X94728571Y-57176041D02*
X94762857Y-57141755D01*
X94762857Y-57141755D02*
X94831428Y-57107469D01*
X94831428Y-57107469D02*
X94968571Y-57107469D01*
X94968571Y-57107469D02*
X95037143Y-57141755D01*
X95037143Y-57141755D02*
X95071428Y-57176041D01*
X95071428Y-57176041D02*
X95105714Y-57244612D01*
X95105714Y-57244612D02*
X95105714Y-57278898D01*
X95105714Y-57278898D02*
X95071428Y-57347469D01*
X95071428Y-57347469D02*
X95037143Y-57381755D01*
X95037143Y-57381755D02*
X94968571Y-57416041D01*
X94968571Y-57416041D02*
X94831428Y-57416041D01*
X94831428Y-57416041D02*
X94762857Y-57450326D01*
X94762857Y-57450326D02*
X94728571Y-57484612D01*
X94728571Y-57484612D02*
X94694285Y-57553184D01*
X94694285Y-57553184D02*
X94694285Y-57690326D01*
X94694285Y-57690326D02*
X94728571Y-57758898D01*
X94728571Y-57758898D02*
X94762857Y-57793184D01*
X94762857Y-57793184D02*
X94831428Y-57827469D01*
X94831428Y-57827469D02*
X94968571Y-57827469D01*
X94968571Y-57827469D02*
X95037143Y-57793184D01*
X95037143Y-57793184D02*
X95071428Y-57758898D01*
X95071428Y-57758898D02*
X95105714Y-57690326D01*
X95105714Y-57690326D02*
X95105714Y-57553184D01*
X95105714Y-57553184D02*
X95071428Y-57484612D01*
X95071428Y-57484612D02*
X95037143Y-57450326D01*
X95037143Y-57450326D02*
X94968571Y-57416041D01*
D10*
X49674761Y-43050057D02*
X49579523Y-43002438D01*
X49579523Y-43002438D02*
X49484285Y-42907200D01*
X49484285Y-42907200D02*
X49341428Y-42764342D01*
X49341428Y-42764342D02*
X49246190Y-42716723D01*
X49246190Y-42716723D02*
X49150952Y-42716723D01*
X49198571Y-42954819D02*
X49103333Y-42907200D01*
X49103333Y-42907200D02*
X49008095Y-42811961D01*
X49008095Y-42811961D02*
X48960476Y-42621485D01*
X48960476Y-42621485D02*
X48960476Y-42288152D01*
X48960476Y-42288152D02*
X49008095Y-42097676D01*
X49008095Y-42097676D02*
X49103333Y-42002438D01*
X49103333Y-42002438D02*
X49198571Y-41954819D01*
X49198571Y-41954819D02*
X49389047Y-41954819D01*
X49389047Y-41954819D02*
X49484285Y-42002438D01*
X49484285Y-42002438D02*
X49579523Y-42097676D01*
X49579523Y-42097676D02*
X49627142Y-42288152D01*
X49627142Y-42288152D02*
X49627142Y-42621485D01*
X49627142Y-42621485D02*
X49579523Y-42811961D01*
X49579523Y-42811961D02*
X49484285Y-42907200D01*
X49484285Y-42907200D02*
X49389047Y-42954819D01*
X49389047Y-42954819D02*
X49198571Y-42954819D01*
X50579523Y-42954819D02*
X50008095Y-42954819D01*
X50293809Y-42954819D02*
X50293809Y-41954819D01*
X50293809Y-41954819D02*
X50198571Y-42097676D01*
X50198571Y-42097676D02*
X50103333Y-42192914D01*
X50103333Y-42192914D02*
X50008095Y-42240533D01*
X72174761Y-64050057D02*
X72079523Y-64002438D01*
X72079523Y-64002438D02*
X71984285Y-63907200D01*
X71984285Y-63907200D02*
X71841428Y-63764342D01*
X71841428Y-63764342D02*
X71746190Y-63716723D01*
X71746190Y-63716723D02*
X71650952Y-63716723D01*
X71698571Y-63954819D02*
X71603333Y-63907200D01*
X71603333Y-63907200D02*
X71508095Y-63811961D01*
X71508095Y-63811961D02*
X71460476Y-63621485D01*
X71460476Y-63621485D02*
X71460476Y-63288152D01*
X71460476Y-63288152D02*
X71508095Y-63097676D01*
X71508095Y-63097676D02*
X71603333Y-63002438D01*
X71603333Y-63002438D02*
X71698571Y-62954819D01*
X71698571Y-62954819D02*
X71889047Y-62954819D01*
X71889047Y-62954819D02*
X71984285Y-63002438D01*
X71984285Y-63002438D02*
X72079523Y-63097676D01*
X72079523Y-63097676D02*
X72127142Y-63288152D01*
X72127142Y-63288152D02*
X72127142Y-63621485D01*
X72127142Y-63621485D02*
X72079523Y-63811961D01*
X72079523Y-63811961D02*
X71984285Y-63907200D01*
X71984285Y-63907200D02*
X71889047Y-63954819D01*
X71889047Y-63954819D02*
X71698571Y-63954819D01*
X73031904Y-62954819D02*
X72555714Y-62954819D01*
X72555714Y-62954819D02*
X72508095Y-63431009D01*
X72508095Y-63431009D02*
X72555714Y-63383390D01*
X72555714Y-63383390D02*
X72650952Y-63335771D01*
X72650952Y-63335771D02*
X72889047Y-63335771D01*
X72889047Y-63335771D02*
X72984285Y-63383390D01*
X72984285Y-63383390D02*
X73031904Y-63431009D01*
X73031904Y-63431009D02*
X73079523Y-63526247D01*
X73079523Y-63526247D02*
X73079523Y-63764342D01*
X73079523Y-63764342D02*
X73031904Y-63859580D01*
X73031904Y-63859580D02*
X72984285Y-63907200D01*
X72984285Y-63907200D02*
X72889047Y-63954819D01*
X72889047Y-63954819D02*
X72650952Y-63954819D01*
X72650952Y-63954819D02*
X72555714Y-63907200D01*
X72555714Y-63907200D02*
X72508095Y-63859580D01*
D12*
X94420000Y-54327469D02*
X94180000Y-53984612D01*
X94008571Y-54327469D02*
X94008571Y-53607469D01*
X94008571Y-53607469D02*
X94282857Y-53607469D01*
X94282857Y-53607469D02*
X94351428Y-53641755D01*
X94351428Y-53641755D02*
X94385714Y-53676041D01*
X94385714Y-53676041D02*
X94420000Y-53744612D01*
X94420000Y-53744612D02*
X94420000Y-53847469D01*
X94420000Y-53847469D02*
X94385714Y-53916041D01*
X94385714Y-53916041D02*
X94351428Y-53950326D01*
X94351428Y-53950326D02*
X94282857Y-53984612D01*
X94282857Y-53984612D02*
X94008571Y-53984612D01*
X94660000Y-53607469D02*
X95140000Y-53607469D01*
X95140000Y-53607469D02*
X94831428Y-54327469D01*
X48420000Y-47327469D02*
X48180000Y-46984612D01*
X48008571Y-47327469D02*
X48008571Y-46607469D01*
X48008571Y-46607469D02*
X48282857Y-46607469D01*
X48282857Y-46607469D02*
X48351428Y-46641755D01*
X48351428Y-46641755D02*
X48385714Y-46676041D01*
X48385714Y-46676041D02*
X48420000Y-46744612D01*
X48420000Y-46744612D02*
X48420000Y-46847469D01*
X48420000Y-46847469D02*
X48385714Y-46916041D01*
X48385714Y-46916041D02*
X48351428Y-46950326D01*
X48351428Y-46950326D02*
X48282857Y-46984612D01*
X48282857Y-46984612D02*
X48008571Y-46984612D01*
X49105714Y-47327469D02*
X48694285Y-47327469D01*
X48900000Y-47327469D02*
X48900000Y-46607469D01*
X48900000Y-46607469D02*
X48831428Y-46710326D01*
X48831428Y-46710326D02*
X48762857Y-46778898D01*
X48762857Y-46778898D02*
X48694285Y-46813184D01*
D11*
X63366666Y-44863855D02*
X62985714Y-44863855D01*
X62985714Y-44863855D02*
X62985714Y-44063855D01*
X63595237Y-44140045D02*
X63633333Y-44101950D01*
X63633333Y-44101950D02*
X63709523Y-44063855D01*
X63709523Y-44063855D02*
X63899999Y-44063855D01*
X63899999Y-44063855D02*
X63976190Y-44101950D01*
X63976190Y-44101950D02*
X64014285Y-44140045D01*
X64014285Y-44140045D02*
X64052380Y-44216236D01*
X64052380Y-44216236D02*
X64052380Y-44292426D01*
X64052380Y-44292426D02*
X64014285Y-44406712D01*
X64014285Y-44406712D02*
X63557142Y-44863855D01*
X63557142Y-44863855D02*
X64052380Y-44863855D01*
D12*
X106577143Y-74327469D02*
X106337143Y-73984612D01*
X106165714Y-74327469D02*
X106165714Y-73607469D01*
X106165714Y-73607469D02*
X106440000Y-73607469D01*
X106440000Y-73607469D02*
X106508571Y-73641755D01*
X106508571Y-73641755D02*
X106542857Y-73676041D01*
X106542857Y-73676041D02*
X106577143Y-73744612D01*
X106577143Y-73744612D02*
X106577143Y-73847469D01*
X106577143Y-73847469D02*
X106542857Y-73916041D01*
X106542857Y-73916041D02*
X106508571Y-73950326D01*
X106508571Y-73950326D02*
X106440000Y-73984612D01*
X106440000Y-73984612D02*
X106165714Y-73984612D01*
X107262857Y-74327469D02*
X106851428Y-74327469D01*
X107057143Y-74327469D02*
X107057143Y-73607469D01*
X107057143Y-73607469D02*
X106988571Y-73710326D01*
X106988571Y-73710326D02*
X106920000Y-73778898D01*
X106920000Y-73778898D02*
X106851428Y-73813184D01*
X107502857Y-73607469D02*
X107948571Y-73607469D01*
X107948571Y-73607469D02*
X107708571Y-73881755D01*
X107708571Y-73881755D02*
X107811428Y-73881755D01*
X107811428Y-73881755D02*
X107880000Y-73916041D01*
X107880000Y-73916041D02*
X107914285Y-73950326D01*
X107914285Y-73950326D02*
X107948571Y-74018898D01*
X107948571Y-74018898D02*
X107948571Y-74190326D01*
X107948571Y-74190326D02*
X107914285Y-74258898D01*
X107914285Y-74258898D02*
X107880000Y-74293184D01*
X107880000Y-74293184D02*
X107811428Y-74327469D01*
X107811428Y-74327469D02*
X107605714Y-74327469D01*
X107605714Y-74327469D02*
X107537142Y-74293184D01*
X107537142Y-74293184D02*
X107502857Y-74258898D01*
D10*
X195738095Y-23954819D02*
X195738095Y-22954819D01*
X195738095Y-23431009D02*
X196309523Y-23431009D01*
X196309523Y-23954819D02*
X196309523Y-22954819D01*
X196738095Y-23050057D02*
X196785714Y-23002438D01*
X196785714Y-23002438D02*
X196880952Y-22954819D01*
X196880952Y-22954819D02*
X197119047Y-22954819D01*
X197119047Y-22954819D02*
X197214285Y-23002438D01*
X197214285Y-23002438D02*
X197261904Y-23050057D01*
X197261904Y-23050057D02*
X197309523Y-23145295D01*
X197309523Y-23145295D02*
X197309523Y-23240533D01*
X197309523Y-23240533D02*
X197261904Y-23383390D01*
X197261904Y-23383390D02*
X196690476Y-23954819D01*
X196690476Y-23954819D02*
X197309523Y-23954819D01*
X101833333Y-54359580D02*
X101785714Y-54407200D01*
X101785714Y-54407200D02*
X101642857Y-54454819D01*
X101642857Y-54454819D02*
X101547619Y-54454819D01*
X101547619Y-54454819D02*
X101404762Y-54407200D01*
X101404762Y-54407200D02*
X101309524Y-54311961D01*
X101309524Y-54311961D02*
X101261905Y-54216723D01*
X101261905Y-54216723D02*
X101214286Y-54026247D01*
X101214286Y-54026247D02*
X101214286Y-53883390D01*
X101214286Y-53883390D02*
X101261905Y-53692914D01*
X101261905Y-53692914D02*
X101309524Y-53597676D01*
X101309524Y-53597676D02*
X101404762Y-53502438D01*
X101404762Y-53502438D02*
X101547619Y-53454819D01*
X101547619Y-53454819D02*
X101642857Y-53454819D01*
X101642857Y-53454819D02*
X101785714Y-53502438D01*
X101785714Y-53502438D02*
X101833333Y-53550057D01*
X102738095Y-53454819D02*
X102261905Y-53454819D01*
X102261905Y-53454819D02*
X102214286Y-53931009D01*
X102214286Y-53931009D02*
X102261905Y-53883390D01*
X102261905Y-53883390D02*
X102357143Y-53835771D01*
X102357143Y-53835771D02*
X102595238Y-53835771D01*
X102595238Y-53835771D02*
X102690476Y-53883390D01*
X102690476Y-53883390D02*
X102738095Y-53931009D01*
X102738095Y-53931009D02*
X102785714Y-54026247D01*
X102785714Y-54026247D02*
X102785714Y-54264342D01*
X102785714Y-54264342D02*
X102738095Y-54359580D01*
X102738095Y-54359580D02*
X102690476Y-54407200D01*
X102690476Y-54407200D02*
X102595238Y-54454819D01*
X102595238Y-54454819D02*
X102357143Y-54454819D01*
X102357143Y-54454819D02*
X102261905Y-54407200D01*
X102261905Y-54407200D02*
X102214286Y-54359580D01*
D12*
X87420000Y-47827469D02*
X87180000Y-47484612D01*
X87008571Y-47827469D02*
X87008571Y-47107469D01*
X87008571Y-47107469D02*
X87282857Y-47107469D01*
X87282857Y-47107469D02*
X87351428Y-47141755D01*
X87351428Y-47141755D02*
X87385714Y-47176041D01*
X87385714Y-47176041D02*
X87420000Y-47244612D01*
X87420000Y-47244612D02*
X87420000Y-47347469D01*
X87420000Y-47347469D02*
X87385714Y-47416041D01*
X87385714Y-47416041D02*
X87351428Y-47450326D01*
X87351428Y-47450326D02*
X87282857Y-47484612D01*
X87282857Y-47484612D02*
X87008571Y-47484612D01*
X88037143Y-47107469D02*
X87900000Y-47107469D01*
X87900000Y-47107469D02*
X87831428Y-47141755D01*
X87831428Y-47141755D02*
X87797143Y-47176041D01*
X87797143Y-47176041D02*
X87728571Y-47278898D01*
X87728571Y-47278898D02*
X87694285Y-47416041D01*
X87694285Y-47416041D02*
X87694285Y-47690326D01*
X87694285Y-47690326D02*
X87728571Y-47758898D01*
X87728571Y-47758898D02*
X87762857Y-47793184D01*
X87762857Y-47793184D02*
X87831428Y-47827469D01*
X87831428Y-47827469D02*
X87968571Y-47827469D01*
X87968571Y-47827469D02*
X88037143Y-47793184D01*
X88037143Y-47793184D02*
X88071428Y-47758898D01*
X88071428Y-47758898D02*
X88105714Y-47690326D01*
X88105714Y-47690326D02*
X88105714Y-47518898D01*
X88105714Y-47518898D02*
X88071428Y-47450326D01*
X88071428Y-47450326D02*
X88037143Y-47416041D01*
X88037143Y-47416041D02*
X87968571Y-47381755D01*
X87968571Y-47381755D02*
X87831428Y-47381755D01*
X87831428Y-47381755D02*
X87762857Y-47416041D01*
X87762857Y-47416041D02*
X87728571Y-47450326D01*
X87728571Y-47450326D02*
X87694285Y-47518898D01*
D10*
X125857142Y-55359580D02*
X125809523Y-55407200D01*
X125809523Y-55407200D02*
X125666666Y-55454819D01*
X125666666Y-55454819D02*
X125571428Y-55454819D01*
X125571428Y-55454819D02*
X125428571Y-55407200D01*
X125428571Y-55407200D02*
X125333333Y-55311961D01*
X125333333Y-55311961D02*
X125285714Y-55216723D01*
X125285714Y-55216723D02*
X125238095Y-55026247D01*
X125238095Y-55026247D02*
X125238095Y-54883390D01*
X125238095Y-54883390D02*
X125285714Y-54692914D01*
X125285714Y-54692914D02*
X125333333Y-54597676D01*
X125333333Y-54597676D02*
X125428571Y-54502438D01*
X125428571Y-54502438D02*
X125571428Y-54454819D01*
X125571428Y-54454819D02*
X125666666Y-54454819D01*
X125666666Y-54454819D02*
X125809523Y-54502438D01*
X125809523Y-54502438D02*
X125857142Y-54550057D01*
X126809523Y-55454819D02*
X126238095Y-55454819D01*
X126523809Y-55454819D02*
X126523809Y-54454819D01*
X126523809Y-54454819D02*
X126428571Y-54597676D01*
X126428571Y-54597676D02*
X126333333Y-54692914D01*
X126333333Y-54692914D02*
X126238095Y-54740533D01*
X127142857Y-54454819D02*
X127761904Y-54454819D01*
X127761904Y-54454819D02*
X127428571Y-54835771D01*
X127428571Y-54835771D02*
X127571428Y-54835771D01*
X127571428Y-54835771D02*
X127666666Y-54883390D01*
X127666666Y-54883390D02*
X127714285Y-54931009D01*
X127714285Y-54931009D02*
X127761904Y-55026247D01*
X127761904Y-55026247D02*
X127761904Y-55264342D01*
X127761904Y-55264342D02*
X127714285Y-55359580D01*
X127714285Y-55359580D02*
X127666666Y-55407200D01*
X127666666Y-55407200D02*
X127571428Y-55454819D01*
X127571428Y-55454819D02*
X127285714Y-55454819D01*
X127285714Y-55454819D02*
X127190476Y-55407200D01*
X127190476Y-55407200D02*
X127142857Y-55359580D01*
X161914285Y-46931009D02*
X162057142Y-46978628D01*
X162057142Y-46978628D02*
X162104761Y-47026247D01*
X162104761Y-47026247D02*
X162152380Y-47121485D01*
X162152380Y-47121485D02*
X162152380Y-47264342D01*
X162152380Y-47264342D02*
X162104761Y-47359580D01*
X162104761Y-47359580D02*
X162057142Y-47407200D01*
X162057142Y-47407200D02*
X161961904Y-47454819D01*
X161961904Y-47454819D02*
X161580952Y-47454819D01*
X161580952Y-47454819D02*
X161580952Y-46454819D01*
X161580952Y-46454819D02*
X161914285Y-46454819D01*
X161914285Y-46454819D02*
X162009523Y-46502438D01*
X162009523Y-46502438D02*
X162057142Y-46550057D01*
X162057142Y-46550057D02*
X162104761Y-46645295D01*
X162104761Y-46645295D02*
X162104761Y-46740533D01*
X162104761Y-46740533D02*
X162057142Y-46835771D01*
X162057142Y-46835771D02*
X162009523Y-46883390D01*
X162009523Y-46883390D02*
X161914285Y-46931009D01*
X161914285Y-46931009D02*
X161580952Y-46931009D01*
X162438095Y-46454819D02*
X163009523Y-46454819D01*
X162723809Y-47454819D02*
X162723809Y-46454819D01*
X163866666Y-47454819D02*
X163295238Y-47454819D01*
X163580952Y-47454819D02*
X163580952Y-46454819D01*
X163580952Y-46454819D02*
X163485714Y-46597676D01*
X163485714Y-46597676D02*
X163390476Y-46692914D01*
X163390476Y-46692914D02*
X163295238Y-46740533D01*
D12*
X72420000Y-57327469D02*
X72180000Y-56984612D01*
X72008571Y-57327469D02*
X72008571Y-56607469D01*
X72008571Y-56607469D02*
X72282857Y-56607469D01*
X72282857Y-56607469D02*
X72351428Y-56641755D01*
X72351428Y-56641755D02*
X72385714Y-56676041D01*
X72385714Y-56676041D02*
X72420000Y-56744612D01*
X72420000Y-56744612D02*
X72420000Y-56847469D01*
X72420000Y-56847469D02*
X72385714Y-56916041D01*
X72385714Y-56916041D02*
X72351428Y-56950326D01*
X72351428Y-56950326D02*
X72282857Y-56984612D01*
X72282857Y-56984612D02*
X72008571Y-56984612D01*
X73071428Y-56607469D02*
X72728571Y-56607469D01*
X72728571Y-56607469D02*
X72694285Y-56950326D01*
X72694285Y-56950326D02*
X72728571Y-56916041D01*
X72728571Y-56916041D02*
X72797143Y-56881755D01*
X72797143Y-56881755D02*
X72968571Y-56881755D01*
X72968571Y-56881755D02*
X73037143Y-56916041D01*
X73037143Y-56916041D02*
X73071428Y-56950326D01*
X73071428Y-56950326D02*
X73105714Y-57018898D01*
X73105714Y-57018898D02*
X73105714Y-57190326D01*
X73105714Y-57190326D02*
X73071428Y-57258898D01*
X73071428Y-57258898D02*
X73037143Y-57293184D01*
X73037143Y-57293184D02*
X72968571Y-57327469D01*
X72968571Y-57327469D02*
X72797143Y-57327469D01*
X72797143Y-57327469D02*
X72728571Y-57293184D01*
X72728571Y-57293184D02*
X72694285Y-57258898D01*
D10*
X121833333Y-64359580D02*
X121785714Y-64407200D01*
X121785714Y-64407200D02*
X121642857Y-64454819D01*
X121642857Y-64454819D02*
X121547619Y-64454819D01*
X121547619Y-64454819D02*
X121404762Y-64407200D01*
X121404762Y-64407200D02*
X121309524Y-64311961D01*
X121309524Y-64311961D02*
X121261905Y-64216723D01*
X121261905Y-64216723D02*
X121214286Y-64026247D01*
X121214286Y-64026247D02*
X121214286Y-63883390D01*
X121214286Y-63883390D02*
X121261905Y-63692914D01*
X121261905Y-63692914D02*
X121309524Y-63597676D01*
X121309524Y-63597676D02*
X121404762Y-63502438D01*
X121404762Y-63502438D02*
X121547619Y-63454819D01*
X121547619Y-63454819D02*
X121642857Y-63454819D01*
X121642857Y-63454819D02*
X121785714Y-63502438D01*
X121785714Y-63502438D02*
X121833333Y-63550057D01*
X122166667Y-63454819D02*
X122833333Y-63454819D01*
X122833333Y-63454819D02*
X122404762Y-64454819D01*
D12*
X65827469Y-71922856D02*
X65484612Y-72162856D01*
X65827469Y-72334285D02*
X65107469Y-72334285D01*
X65107469Y-72334285D02*
X65107469Y-72059999D01*
X65107469Y-72059999D02*
X65141755Y-71991428D01*
X65141755Y-71991428D02*
X65176041Y-71957142D01*
X65176041Y-71957142D02*
X65244612Y-71922856D01*
X65244612Y-71922856D02*
X65347469Y-71922856D01*
X65347469Y-71922856D02*
X65416041Y-71957142D01*
X65416041Y-71957142D02*
X65450326Y-71991428D01*
X65450326Y-71991428D02*
X65484612Y-72059999D01*
X65484612Y-72059999D02*
X65484612Y-72334285D01*
X65827469Y-71237142D02*
X65827469Y-71648571D01*
X65827469Y-71442856D02*
X65107469Y-71442856D01*
X65107469Y-71442856D02*
X65210326Y-71511428D01*
X65210326Y-71511428D02*
X65278898Y-71579999D01*
X65278898Y-71579999D02*
X65313184Y-71648571D01*
X65107469Y-70585714D02*
X65107469Y-70928571D01*
X65107469Y-70928571D02*
X65450326Y-70962857D01*
X65450326Y-70962857D02*
X65416041Y-70928571D01*
X65416041Y-70928571D02*
X65381755Y-70860000D01*
X65381755Y-70860000D02*
X65381755Y-70688571D01*
X65381755Y-70688571D02*
X65416041Y-70620000D01*
X65416041Y-70620000D02*
X65450326Y-70585714D01*
X65450326Y-70585714D02*
X65518898Y-70551428D01*
X65518898Y-70551428D02*
X65690326Y-70551428D01*
X65690326Y-70551428D02*
X65758898Y-70585714D01*
X65758898Y-70585714D02*
X65793184Y-70620000D01*
X65793184Y-70620000D02*
X65827469Y-70688571D01*
X65827469Y-70688571D02*
X65827469Y-70860000D01*
X65827469Y-70860000D02*
X65793184Y-70928571D01*
X65793184Y-70928571D02*
X65758898Y-70962857D01*
D10*
X113859580Y-71666666D02*
X113907200Y-71714285D01*
X113907200Y-71714285D02*
X113954819Y-71857142D01*
X113954819Y-71857142D02*
X113954819Y-71952380D01*
X113954819Y-71952380D02*
X113907200Y-72095237D01*
X113907200Y-72095237D02*
X113811961Y-72190475D01*
X113811961Y-72190475D02*
X113716723Y-72238094D01*
X113716723Y-72238094D02*
X113526247Y-72285713D01*
X113526247Y-72285713D02*
X113383390Y-72285713D01*
X113383390Y-72285713D02*
X113192914Y-72238094D01*
X113192914Y-72238094D02*
X113097676Y-72190475D01*
X113097676Y-72190475D02*
X113002438Y-72095237D01*
X113002438Y-72095237D02*
X112954819Y-71952380D01*
X112954819Y-71952380D02*
X112954819Y-71857142D01*
X112954819Y-71857142D02*
X113002438Y-71714285D01*
X113002438Y-71714285D02*
X113050057Y-71666666D01*
X113383390Y-71095237D02*
X113335771Y-71190475D01*
X113335771Y-71190475D02*
X113288152Y-71238094D01*
X113288152Y-71238094D02*
X113192914Y-71285713D01*
X113192914Y-71285713D02*
X113145295Y-71285713D01*
X113145295Y-71285713D02*
X113050057Y-71238094D01*
X113050057Y-71238094D02*
X113002438Y-71190475D01*
X113002438Y-71190475D02*
X112954819Y-71095237D01*
X112954819Y-71095237D02*
X112954819Y-70904761D01*
X112954819Y-70904761D02*
X113002438Y-70809523D01*
X113002438Y-70809523D02*
X113050057Y-70761904D01*
X113050057Y-70761904D02*
X113145295Y-70714285D01*
X113145295Y-70714285D02*
X113192914Y-70714285D01*
X113192914Y-70714285D02*
X113288152Y-70761904D01*
X113288152Y-70761904D02*
X113335771Y-70809523D01*
X113335771Y-70809523D02*
X113383390Y-70904761D01*
X113383390Y-70904761D02*
X113383390Y-71095237D01*
X113383390Y-71095237D02*
X113431009Y-71190475D01*
X113431009Y-71190475D02*
X113478628Y-71238094D01*
X113478628Y-71238094D02*
X113573866Y-71285713D01*
X113573866Y-71285713D02*
X113764342Y-71285713D01*
X113764342Y-71285713D02*
X113859580Y-71238094D01*
X113859580Y-71238094D02*
X113907200Y-71190475D01*
X113907200Y-71190475D02*
X113954819Y-71095237D01*
X113954819Y-71095237D02*
X113954819Y-70904761D01*
X113954819Y-70904761D02*
X113907200Y-70809523D01*
X113907200Y-70809523D02*
X113859580Y-70761904D01*
X113859580Y-70761904D02*
X113764342Y-70714285D01*
X113764342Y-70714285D02*
X113573866Y-70714285D01*
X113573866Y-70714285D02*
X113478628Y-70761904D01*
X113478628Y-70761904D02*
X113431009Y-70809523D01*
X113431009Y-70809523D02*
X113383390Y-70904761D01*
X87333333Y-51359580D02*
X87285714Y-51407200D01*
X87285714Y-51407200D02*
X87142857Y-51454819D01*
X87142857Y-51454819D02*
X87047619Y-51454819D01*
X87047619Y-51454819D02*
X86904762Y-51407200D01*
X86904762Y-51407200D02*
X86809524Y-51311961D01*
X86809524Y-51311961D02*
X86761905Y-51216723D01*
X86761905Y-51216723D02*
X86714286Y-51026247D01*
X86714286Y-51026247D02*
X86714286Y-50883390D01*
X86714286Y-50883390D02*
X86761905Y-50692914D01*
X86761905Y-50692914D02*
X86809524Y-50597676D01*
X86809524Y-50597676D02*
X86904762Y-50502438D01*
X86904762Y-50502438D02*
X87047619Y-50454819D01*
X87047619Y-50454819D02*
X87142857Y-50454819D01*
X87142857Y-50454819D02*
X87285714Y-50502438D01*
X87285714Y-50502438D02*
X87333333Y-50550057D01*
X88190476Y-50788152D02*
X88190476Y-51454819D01*
X87952381Y-50407200D02*
X87714286Y-51121485D01*
X87714286Y-51121485D02*
X88333333Y-51121485D01*
D12*
X106577143Y-70827469D02*
X106337143Y-70484612D01*
X106165714Y-70827469D02*
X106165714Y-70107469D01*
X106165714Y-70107469D02*
X106440000Y-70107469D01*
X106440000Y-70107469D02*
X106508571Y-70141755D01*
X106508571Y-70141755D02*
X106542857Y-70176041D01*
X106542857Y-70176041D02*
X106577143Y-70244612D01*
X106577143Y-70244612D02*
X106577143Y-70347469D01*
X106577143Y-70347469D02*
X106542857Y-70416041D01*
X106542857Y-70416041D02*
X106508571Y-70450326D01*
X106508571Y-70450326D02*
X106440000Y-70484612D01*
X106440000Y-70484612D02*
X106165714Y-70484612D01*
X107262857Y-70827469D02*
X106851428Y-70827469D01*
X107057143Y-70827469D02*
X107057143Y-70107469D01*
X107057143Y-70107469D02*
X106988571Y-70210326D01*
X106988571Y-70210326D02*
X106920000Y-70278898D01*
X106920000Y-70278898D02*
X106851428Y-70313184D01*
X107537142Y-70176041D02*
X107571428Y-70141755D01*
X107571428Y-70141755D02*
X107640000Y-70107469D01*
X107640000Y-70107469D02*
X107811428Y-70107469D01*
X107811428Y-70107469D02*
X107880000Y-70141755D01*
X107880000Y-70141755D02*
X107914285Y-70176041D01*
X107914285Y-70176041D02*
X107948571Y-70244612D01*
X107948571Y-70244612D02*
X107948571Y-70313184D01*
X107948571Y-70313184D02*
X107914285Y-70416041D01*
X107914285Y-70416041D02*
X107502857Y-70827469D01*
X107502857Y-70827469D02*
X107948571Y-70827469D01*
%TO.C,RV1*%
D13*
X119000000Y-69650000D02*
X131000000Y-69650000D01*
X131000000Y-79350000D01*
X119000000Y-79350000D01*
X119000000Y-69650000D01*
X128000000Y-74500000D02*
G75*
G02*
X122000000Y-74500000I-3000000J0D01*
G01*
X122000000Y-74500000D02*
G75*
G02*
X128000000Y-74500000I3000000J0D01*
G01*
%TO.C,J1*%
X21780000Y-62890000D02*
X26600000Y-62890000D01*
X21780000Y-63390000D02*
X21780000Y-62890000D01*
X21780000Y-63390000D02*
X21780000Y-73580000D01*
X21780000Y-63390000D02*
X24830000Y-63390000D01*
X22030000Y-63950000D02*
X24570000Y-63950000D01*
X22030000Y-68020000D02*
X22030000Y-63950000D01*
X22030000Y-68960000D02*
X22030000Y-73020000D01*
X23550000Y-67610000D02*
X22920000Y-64560000D01*
X23550000Y-72620000D02*
X22920000Y-69560000D01*
X23680000Y-67480000D02*
X23050000Y-64440000D01*
X23680000Y-72490000D02*
X23050000Y-69440000D01*
X24570000Y-63950000D02*
X24570000Y-68020000D01*
X24570000Y-68020000D02*
X22030000Y-68020000D01*
X24570000Y-68960000D02*
X22030000Y-68960000D01*
X24570000Y-68960000D02*
X24570000Y-73020000D01*
X24570000Y-73020000D02*
X22030000Y-73020000D01*
X24830000Y-63390000D02*
X26350000Y-63390000D01*
X24830000Y-73580000D02*
X21780000Y-73580000D01*
X24830000Y-73580000D02*
X24830000Y-63390000D01*
X26350000Y-63390000D02*
X27360000Y-63390000D01*
X26600000Y-62890000D02*
X26350000Y-63390000D01*
X27360000Y-63390000D02*
X27360000Y-64330000D01*
X27360000Y-63390000D02*
X32060000Y-63390000D01*
X27360000Y-64330000D02*
X27360000Y-67640000D01*
X27360000Y-69340000D02*
X27360000Y-67640000D01*
X27360000Y-72640000D02*
X27360000Y-69340000D01*
X27360000Y-73580000D02*
X24830000Y-73580000D01*
X27360000Y-73580000D02*
X27360000Y-72640000D01*
X27750000Y-63950000D02*
X27750000Y-64330000D01*
X27750000Y-63950000D02*
X32320000Y-63950000D01*
X27750000Y-67260000D02*
X27750000Y-64720000D01*
X27750000Y-67640000D02*
X27750000Y-64330000D01*
X27750000Y-68020000D02*
X27750000Y-67640000D01*
X27750000Y-68960000D02*
X27750000Y-69340000D01*
X27750000Y-69340000D02*
X27750000Y-72640000D01*
X27750000Y-72260000D02*
X27750000Y-69720000D01*
X27750000Y-73020000D02*
X27750000Y-72640000D01*
X27750000Y-73020000D02*
X32320000Y-73020000D01*
X28510000Y-64330000D02*
X28510000Y-64720000D01*
X28510000Y-67640000D02*
X28510000Y-67260000D01*
X28510000Y-69340000D02*
X28510000Y-69720000D01*
X28510000Y-72640000D02*
X28510000Y-72260000D01*
X30540000Y-64720000D02*
X27750000Y-64720000D01*
X30540000Y-67260000D02*
X27750000Y-67260000D01*
X30540000Y-67260000D02*
X30540000Y-64720000D01*
X30540000Y-69720000D02*
X27750000Y-69720000D01*
X30540000Y-72260000D02*
X27750000Y-72260000D01*
X30540000Y-72260000D02*
X30540000Y-69720000D01*
X31680000Y-64330000D02*
X28510000Y-64330000D01*
X31680000Y-64330000D02*
X31680000Y-67640000D01*
X31680000Y-67640000D02*
X28510000Y-67640000D01*
X31680000Y-69340000D02*
X28510000Y-69340000D01*
X31680000Y-69340000D02*
X31680000Y-72640000D01*
X31680000Y-72640000D02*
X28510000Y-72640000D01*
X31810000Y-62890000D02*
X32060000Y-63390000D01*
X31810000Y-62890000D02*
X33460000Y-62890000D01*
X32060000Y-63390000D02*
X33210000Y-63390000D01*
X32320000Y-63950000D02*
X34220000Y-63950000D01*
X32320000Y-68020000D02*
X27750000Y-68020000D01*
X32320000Y-68020000D02*
X32320000Y-63950000D01*
X32320000Y-68960000D02*
X27750000Y-68960000D01*
X32320000Y-68960000D02*
X32320000Y-73020000D01*
X32320000Y-73020000D02*
X34220000Y-73020000D01*
X33210000Y-63390000D02*
X34220000Y-63390000D01*
X33460000Y-62890000D02*
X33210000Y-63390000D01*
X34220000Y-63950000D02*
X34220000Y-63390000D01*
X34220000Y-68020000D02*
X32320000Y-68020000D01*
X34220000Y-68020000D02*
X34220000Y-63950000D01*
X34220000Y-68960000D02*
X32320000Y-68960000D01*
X34220000Y-68960000D02*
X34220000Y-68020000D01*
X34220000Y-73020000D02*
X34220000Y-68960000D01*
X34220000Y-73580000D02*
X27360000Y-73580000D01*
X34220000Y-73580000D02*
X34220000Y-73020000D01*
X22950000Y-64460000D02*
G75*
G02*
X23923995Y-64514468I460000J-510000D01*
G01*
X22950000Y-69470000D02*
G75*
G02*
X23913995Y-69514381I460000J-500000D01*
G01*
X23000000Y-67610000D02*
G75*
G02*
X22938314Y-64461761I1290000J1600000D01*
G01*
X23000000Y-72620000D02*
G75*
G02*
X22928466Y-69460024I1289999J1610000D01*
G01*
X23870000Y-67420000D02*
G75*
G02*
X22941301Y-67562972I-520000J290000D01*
G01*
X23870000Y-72420000D02*
G75*
G02*
X22941301Y-72562972I-520000J290001D01*
G01*
X23880000Y-64470000D02*
G75*
G02*
X23831737Y-67452333I-1950000J-1460000D01*
G01*
X23880000Y-69470000D02*
G75*
G02*
X23841418Y-72459829I-1950000J-1470000D01*
G01*
%TO.C,C6*%
X107500000Y-49750000D02*
X112500000Y-49750000D01*
X112500000Y-52250000D01*
X107500000Y-52250000D01*
X107500000Y-49750000D01*
%TO.C,T3*%
X117420000Y-41500000D02*
X119500000Y-39420000D01*
X117420000Y-39420000D02*
X127580000Y-39420000D01*
X127580000Y-49580000D01*
X117420000Y-49580000D01*
X117420000Y-39420000D01*
%TO.C,R9*%
X107500000Y-47500000D02*
X108240000Y-47500000D01*
X112580000Y-47500000D02*
X111840000Y-47500000D01*
X108240000Y-46700000D02*
X111840000Y-46700000D01*
X111840000Y-48300000D01*
X108240000Y-48300000D01*
X108240000Y-46700000D01*
%TO.C,R16*%
X130500000Y-50920000D02*
X130500000Y-51660000D01*
X130500000Y-56000000D02*
X130500000Y-55260000D01*
X129700000Y-55260000D02*
X131300000Y-55260000D01*
X131300000Y-51660000D01*
X129700000Y-51660000D01*
X129700000Y-55260000D01*
%TO.C,C12*%
X143866395Y-76412500D02*
X144366395Y-76412500D01*
X144116395Y-76162500D02*
X144116395Y-76662500D01*
X148500000Y-77500000D02*
G75*
G02*
X143500000Y-77500000I-2500000J0D01*
G01*
X143500000Y-77500000D02*
G75*
G02*
X148500000Y-77500000I2500000J0D01*
G01*
%TO.C,C10*%
X106500000Y-56250000D02*
X111500000Y-56250000D01*
X111500000Y-58750000D01*
X106500000Y-58750000D01*
X106500000Y-56250000D01*
%TO.C,Q2*%
X87000000Y-44250000D02*
X90500000Y-44250000D01*
X87016375Y-44253625D02*
G75*
G02*
X88770000Y-40020000I1753625J1753625D01*
G01*
X88770000Y-40020000D02*
G75*
G02*
X90523625Y-44253625I0J-2480000D01*
G01*
%TO.C,C9*%
X104366395Y-77412500D02*
X104866395Y-77412500D01*
X104616395Y-77162500D02*
X104616395Y-77662500D01*
X109000000Y-78500000D02*
G75*
G02*
X104000000Y-78500000I-2500000J0D01*
G01*
X104000000Y-78500000D02*
G75*
G02*
X109000000Y-78500000I2500000J0D01*
G01*
%TO.C,C11*%
X63750000Y-66500000D02*
X66250000Y-66500000D01*
X66250000Y-61500000D01*
X63750000Y-61500000D01*
X63750000Y-66500000D01*
%TO.C,Q6*%
X70500000Y-80750000D02*
X74000000Y-80750000D01*
X70516375Y-80753625D02*
G75*
G02*
X72270000Y-76520000I1753625J1753625D01*
G01*
X72270000Y-76520000D02*
G75*
G02*
X74023625Y-80753625I0J-2480000D01*
G01*
%TO.C,D1*%
X116000000Y-60500000D02*
X119080000Y-60500000D01*
X119580000Y-59500000D02*
X119580000Y-61500000D01*
X119680000Y-59500000D02*
X119680000Y-61500000D01*
X119780000Y-59500000D02*
X119780000Y-61500000D01*
X126160000Y-60500000D02*
X123080000Y-60500000D01*
X119080000Y-59500000D02*
X123080000Y-59500000D01*
X123080000Y-61500000D01*
X119080000Y-61500000D01*
X119080000Y-59500000D01*
%TO.C,SW1*%
X167700000Y-75350000D02*
X169500000Y-75350000D01*
X167700000Y-79650000D02*
X167700000Y-75350000D01*
X169500000Y-75350000D02*
X170000000Y-75850000D01*
X170000000Y-75850000D02*
X170500000Y-75350000D01*
X170000000Y-76500000D02*
X170000000Y-78500000D01*
X170000000Y-76500000D02*
X174000000Y-76500000D01*
X170000000Y-78500000D02*
X174000000Y-78500000D01*
X170500000Y-75350000D02*
X176300000Y-75350000D01*
X170660000Y-76500000D02*
X170660000Y-78500000D01*
X171340000Y-76500000D02*
X171340000Y-78500000D01*
X172000000Y-76500000D02*
X172000000Y-78500000D01*
X174000000Y-76500000D02*
X174000000Y-78500000D01*
X176300000Y-75350000D02*
X176300000Y-79650000D01*
X176300000Y-79650000D02*
X167700000Y-79650000D01*
%TO.C,C2*%
X46000000Y-52750000D02*
X51000000Y-52750000D01*
X51000000Y-55250000D01*
X46000000Y-55250000D01*
X46000000Y-52750000D01*
%TO.C,R4*%
X70000000Y-53500000D02*
X70740000Y-53500000D01*
X75080000Y-53500000D02*
X74340000Y-53500000D01*
X70740000Y-52700000D02*
X74340000Y-52700000D01*
X74340000Y-54300000D01*
X70740000Y-54300000D01*
X70740000Y-52700000D01*
%TO.C,R11*%
X104500000Y-61000000D02*
X105240000Y-61000000D01*
X109580000Y-61000000D02*
X108840000Y-61000000D01*
X105240000Y-60200000D02*
X108840000Y-60200000D01*
X108840000Y-61800000D01*
X105240000Y-61800000D01*
X105240000Y-60200000D01*
%TO.C,VC1*%
X23500000Y-39500000D02*
X43500000Y-39500000D01*
X43500000Y-59500000D01*
X23500000Y-59500000D01*
X23500000Y-39500000D01*
X36500000Y-49500000D02*
G75*
G02*
X30500000Y-49500000I-3000000J0D01*
G01*
X30500000Y-49500000D02*
G75*
G02*
X36500000Y-49500000I3000000J0D01*
G01*
%TO.C,C3*%
X77366395Y-53412500D02*
X77866395Y-53412500D01*
X77616395Y-53162500D02*
X77616395Y-53662500D01*
X82000000Y-54500000D02*
G75*
G02*
X77000000Y-54500000I-2500000J0D01*
G01*
X77000000Y-54500000D02*
G75*
G02*
X82000000Y-54500000I2500000J0D01*
G01*
%TO.C,Q4*%
X105500000Y-67250000D02*
X109000000Y-67250000D01*
X105516375Y-67253625D02*
G75*
G02*
X107270000Y-63020000I1753625J1753625D01*
G01*
X107270000Y-63020000D02*
G75*
G02*
X109023625Y-67253625I0J-2480000D01*
G01*
%TO.C,T5*%
X61950000Y-80150000D02*
X58950000Y-80150000D01*
X61950000Y-80150000D02*
X61950000Y-77150000D01*
X61950000Y-80150000D02*
X37050000Y-80150000D01*
X37050000Y-61850000D01*
X61950000Y-61850000D01*
X61950000Y-80150000D01*
%TO.C,R14*%
X68500000Y-68920000D02*
X68500000Y-69660000D01*
X68500000Y-74000000D02*
X68500000Y-73260000D01*
X67700000Y-73260000D02*
X69300000Y-73260000D01*
X69300000Y-69660000D01*
X67700000Y-69660000D01*
X67700000Y-73260000D01*
%TO.C,R2*%
X46000000Y-50500000D02*
X46740000Y-50500000D01*
X51080000Y-50500000D02*
X50340000Y-50500000D01*
X46740000Y-49700000D02*
X50340000Y-49700000D01*
X50340000Y-51300000D01*
X46740000Y-51300000D01*
X46740000Y-49700000D01*
%TO.C,C1*%
X54250000Y-52500000D02*
X56750000Y-52500000D01*
X56750000Y-47500000D01*
X54250000Y-47500000D01*
X54250000Y-52500000D01*
%TO.C,R3*%
X46000000Y-57500000D02*
X46740000Y-57500000D01*
X51080000Y-57500000D02*
X50340000Y-57500000D01*
X46740000Y-56700000D02*
X50340000Y-56700000D01*
X50340000Y-58300000D01*
X46740000Y-58300000D01*
X46740000Y-56700000D01*
%TO.C,T2*%
X94920000Y-41500000D02*
X97000000Y-39420000D01*
X94920000Y-39420000D02*
X105080000Y-39420000D01*
X105080000Y-49580000D01*
X94920000Y-49580000D01*
X94920000Y-39420000D01*
%TO.C,L1*%
X33000000Y-25000000D02*
X91000000Y-25000000D01*
X91000000Y-35000000D01*
X33000000Y-35000000D01*
X33000000Y-25000000D01*
%TO.C,Q3*%
X109500000Y-44250000D02*
X113000000Y-44250000D01*
X109516375Y-44253625D02*
G75*
G02*
X111270000Y-40020000I1753625J1753625D01*
G01*
X111270000Y-40020000D02*
G75*
G02*
X113023625Y-44253625I0J-2480000D01*
G01*
%TO.C,T1*%
X71920000Y-41500000D02*
X74000000Y-39420000D01*
X71920000Y-39420000D02*
X82080000Y-39420000D01*
X82080000Y-49580000D01*
X71920000Y-49580000D01*
X71920000Y-39420000D01*
%TO.C,R8*%
X92000000Y-57500000D02*
X92740000Y-57500000D01*
X97080000Y-57500000D02*
X96340000Y-57500000D01*
X92740000Y-56700000D02*
X96340000Y-56700000D01*
X96340000Y-58300000D01*
X92740000Y-58300000D01*
X92740000Y-56700000D01*
%TO.C,Q1*%
X48000000Y-44250000D02*
X51500000Y-44250000D01*
X48016375Y-44253625D02*
G75*
G02*
X49770000Y-40020000I1753625J1753625D01*
G01*
X49770000Y-40020000D02*
G75*
G02*
X51523625Y-44253625I0J-2480000D01*
G01*
%TO.C,Q5*%
X70500000Y-65250000D02*
X74000000Y-65250000D01*
X70516375Y-65253625D02*
G75*
G02*
X72270000Y-61020000I1753625J1753625D01*
G01*
X72270000Y-61020000D02*
G75*
G02*
X74023625Y-65253625I0J-2480000D01*
G01*
%TO.C,R7*%
X92000000Y-54000000D02*
X92740000Y-54000000D01*
X97080000Y-54000000D02*
X96340000Y-54000000D01*
X92740000Y-53200000D02*
X96340000Y-53200000D01*
X96340000Y-54800000D01*
X92740000Y-54800000D01*
X92740000Y-53200000D01*
%TO.C,R1*%
X46000000Y-47000000D02*
X46740000Y-47000000D01*
X51080000Y-47000000D02*
X50340000Y-47000000D01*
X46740000Y-46200000D02*
X50340000Y-46200000D01*
X50340000Y-47800000D01*
X46740000Y-47800000D01*
X46740000Y-46200000D01*
%TO.C,L2*%
X58420000Y-41500000D02*
X60500000Y-39420000D01*
X58420000Y-39420000D02*
X68580000Y-39420000D01*
X68580000Y-49580000D01*
X58420000Y-49580000D01*
X58420000Y-39420000D01*
%TO.C,R13*%
X104500000Y-74000000D02*
X105240000Y-74000000D01*
X109580000Y-74000000D02*
X108840000Y-74000000D01*
X105240000Y-73200000D02*
X108840000Y-73200000D01*
X108840000Y-74800000D01*
X105240000Y-74800000D01*
X105240000Y-73200000D01*
%TO.C,C5*%
X99500000Y-52750000D02*
X104500000Y-52750000D01*
X104500000Y-55250000D01*
X99500000Y-55250000D01*
X99500000Y-52750000D01*
%TO.C,R6*%
X85000000Y-47500000D02*
X85740000Y-47500000D01*
X90080000Y-47500000D02*
X89340000Y-47500000D01*
X85740000Y-46700000D02*
X89340000Y-46700000D01*
X89340000Y-48300000D01*
X85740000Y-48300000D01*
X85740000Y-46700000D01*
%TO.C,C13*%
X124366395Y-53912500D02*
X124866395Y-53912500D01*
X124616395Y-53662500D02*
X124616395Y-54162500D01*
X129000000Y-55000000D02*
G75*
G02*
X124000000Y-55000000I-2500000J0D01*
G01*
X124000000Y-55000000D02*
G75*
G02*
X129000000Y-55000000I2500000J0D01*
G01*
%TO.C,BT1*%
X133700000Y-22850000D02*
X191700000Y-22850000D01*
X191700000Y-71150000D01*
X133700000Y-71150000D01*
X133700000Y-22850000D01*
%TO.C,R5*%
X70000000Y-57000000D02*
X70740000Y-57000000D01*
X75080000Y-57000000D02*
X74340000Y-57000000D01*
X70740000Y-56200000D02*
X74340000Y-56200000D01*
X74340000Y-57800000D01*
X70740000Y-57800000D01*
X70740000Y-56200000D01*
%TO.C,C7*%
X119500000Y-62750000D02*
X124500000Y-62750000D01*
X124500000Y-65250000D01*
X119500000Y-65250000D01*
X119500000Y-62750000D01*
%TO.C,R15*%
X65500000Y-68920000D02*
X65500000Y-69660000D01*
X65500000Y-74000000D02*
X65500000Y-73260000D01*
X64700000Y-73260000D02*
X66300000Y-73260000D01*
X66300000Y-69660000D01*
X64700000Y-69660000D01*
X64700000Y-73260000D01*
%TO.C,C8*%
X112162500Y-73383605D02*
X112662500Y-73383605D01*
X112412500Y-73633605D02*
X112412500Y-73133605D01*
X116000000Y-71500000D02*
G75*
G02*
X111000000Y-71500000I-2500000J0D01*
G01*
X111000000Y-71500000D02*
G75*
G02*
X116000000Y-71500000I2500000J0D01*
G01*
%TO.C,C4*%
X85000000Y-49750000D02*
X90000000Y-49750000D01*
X90000000Y-52250000D01*
X85000000Y-52250000D01*
X85000000Y-49750000D01*
%TO.C,T4*%
X101450000Y-80150000D02*
X98450000Y-80150000D01*
X101450000Y-80150000D02*
X101450000Y-77150000D01*
X101450000Y-80150000D02*
X76550000Y-80150000D01*
X76550000Y-61850000D01*
X101450000Y-61850000D01*
X101450000Y-80150000D01*
%TO.C,R12*%
X104500000Y-70500000D02*
X105240000Y-70500000D01*
X109580000Y-70500000D02*
X108840000Y-70500000D01*
X105240000Y-69700000D02*
X108840000Y-69700000D01*
X108840000Y-71300000D01*
X105240000Y-71300000D01*
X105240000Y-69700000D01*
%TD*%
M02*
